<svg width="14" height="20" viewBox="0 0 14 20" fill="none" xmlns="http://www.w3.org/2000/svg">
<path d="M0.406452 0.00854492C0.180645 0.0312722 0 0.235818 0 0.46309V19.554C0 19.804 0.203226 20.0085 0.451613 20.0085H5.87097C6.11935 20.0085 6.32258 19.804 6.32258 19.554C6.32258 19.304 6.11935 19.0995 5.87097 19.0995H0.903226V0.917636H5.87097C6.11935 0.917636 6.32258 0.71309 6.32258 0.46309C6.32258 0.21309 6.11935 0.00854492 5.87097 0.00854492H0.451613C0.429032 0.00854492 0.429032 0.00854492 0.406452 0.00854492ZM9.41613 5.21308C9.16774 5.23581 8.9871 5.46309 9.03226 5.71309C9.05484 5.82672 9.1 5.91763 9.16774 5.98582L12.4194 9.09945H4.96774C4.94516 9.09945 4.94516 9.09945 4.92258 9.09945C4.67419 9.12218 4.47097 9.32672 4.49355 9.57672C4.51613 9.82672 4.71935 10.0313 4.96774 10.0085H12.4194L9.19032 13.0767C9.00968 13.2585 9.00968 13.5313 9.16774 13.7131C9.34839 13.8949 9.61936 13.8949 9.8 13.7358L13.8645 9.87217C14.0452 9.69036 14.0452 9.41763 13.8871 9.23581L13.8645 9.21309L9.8 5.34945C9.6871 5.25854 9.55161 5.21308 9.41613 5.21308Z" fill="#EC4D4E"/>
</svg>
