<svg width="21" height="24" viewBox="0 0 21 24" fill="none" xmlns="http://www.w3.org/2000/svg">
<path d="M11.0228 22.7968L10.7969 22.3508L10.7969 22.3508L11.0228 22.7968ZM10.2198 22.7968L10.4458 22.3508L10.4458 22.3508L10.2198 22.7968ZM19.7427 10.6213C19.7427 13.9706 17.9915 16.6633 15.9651 18.6581C13.9397 20.6517 11.6857 21.9006 10.7969 22.3508L11.2488 23.2429C12.1815 22.7704 14.5373 21.4667 16.6666 19.3707C18.7947 17.276 20.7427 14.3422 20.7427 10.6213H19.7427ZM10.6213 1.5C15.6589 1.5 19.7427 5.58376 19.7427 10.6213H20.7427C20.7427 5.03148 16.2112 0.5 10.6213 0.5V1.5ZM1.5 10.6213C1.5 5.58376 5.58376 1.5 10.6213 1.5V0.5C5.03148 0.5 0.5 5.03148 0.5 10.6213H1.5ZM10.4458 22.3508C9.55702 21.9006 7.30294 20.6517 5.27762 18.6581C3.25115 16.6633 1.5 13.9706 1.5 10.6213H0.5C0.5 14.3422 2.44803 17.276 4.57611 19.3707C6.70534 21.4667 9.06119 22.7704 9.99391 23.2429L10.4458 22.3508ZM10.7969 22.3508C10.6848 22.4076 10.5579 22.4076 10.4458 22.3508L9.99391 23.2429C10.3901 23.4435 10.8526 23.4435 11.2488 23.2429L10.7969 22.3508ZM14.2448 10.6209C14.2448 12.6221 12.6226 14.2444 10.6214 14.2444V15.2444C13.1749 15.2444 15.2448 13.1744 15.2448 10.6209H14.2448ZM10.6214 6.99751C12.6226 6.99751 14.2448 8.61977 14.2448 10.6209H15.2448C15.2448 8.06749 13.1749 5.99751 10.6214 5.99751V6.99751ZM6.99798 10.6209C6.99798 8.61977 8.62024 6.99751 10.6214 6.99751V5.99751C8.06796 5.99751 5.99798 8.06749 5.99798 10.6209H6.99798ZM10.6214 14.2444C8.62024 14.2444 6.99798 12.6221 6.99798 10.6209H5.99798C5.99798 13.1744 8.06796 15.2444 10.6214 15.2444V14.2444Z" fill="#58B9FF"/>
</svg>
