<svg width="20" height="20" viewBox="0 0 20 20" fill="none" xmlns="http://www.w3.org/2000/svg">
<path d="M1.19045 18.284C0.820898 18.6944 0.854036 19.3267 1.26446 19.6963C1.67489 20.0658 2.30719 20.0327 2.67674 19.6223L1.19045 18.284ZM18.7763 1.3042C18.7474 0.752677 18.2768 0.329007 17.7253 0.357911L8.73763 0.828936C8.1861 0.85784 7.76243 1.32837 7.79134 1.8799C7.82024 2.43143 8.29077 2.8551 8.8423 2.82619L16.8313 2.40751L17.25 10.3965C17.2789 10.9481 17.7495 11.3717 18.301 11.3428C18.8525 11.3139 19.2762 10.8434 19.2473 10.2919L18.7763 1.3042ZM2.67674 19.6223L18.5208 2.02567L17.0345 0.687411L1.19045 18.284L2.67674 19.6223Z" fill="#ADB5BD"/>
</svg>
