<svg width="20" height="19" viewBox="0 0 20 19" fill="none" xmlns="http://www.w3.org/2000/svg">
<path d="M14.3996 0H17.6004C18.9259 0 20 1.07409 20 2.39964V5.60036C20 6.92591 18.9259 8 17.6004 8H14.3996C13.0741 8 12 6.92591 12 5.60036V2.39964C12 1.07409 13.0741 0 14.3996 0Z" fill="#58B9FF"/>
<path d="M2.39964 0H5.60036C6.92591 0 8 1.07409 8 2.39964V5.60036C8 6.92591 6.92591 8 5.60036 8H2.39964C1.07409 8 0 6.92591 0 5.60036V2.39964C0 1.07409 1.07409 0 2.39964 0Z" fill="#466BF0"/>
<path d="M2.39964 11H5.60036C6.92591 11 8 12.0741 8 13.3996V16.6004C8 17.925 6.92591 19 5.60036 19H2.39964C1.07409 19 0 17.925 0 16.6004V13.3996C0 12.0741 1.07409 11 2.39964 11Z" fill="#466BF0"/>
<path d="M14.3996 11H17.6004C18.9259 11 20 12.0741 20 13.3996V16.6004C20 17.925 18.9259 19 17.6004 19H14.3996C13.0741 19 12 17.925 12 16.6004V13.3996C12 12.0741 13.0741 11 14.3996 11Z" fill="#466BF0"/>
</svg>
