<svg width="20" height="17" viewBox="0 0 20 17" fill="none" xmlns="http://www.w3.org/2000/svg">
<path d="M16 4L4 4L4 2C4 0.89543 4.89543 -1.7118e-08 6 7.94466e-08L14 7.78829e-07C15.1046 8.75393e-07 16 0.895431 16 2L16 4Z" fill="white"/>
<path fill-rule="evenodd" clip-rule="evenodd" d="M16 9L4 9L4 12H2C0.89543 12 0 11.1046 0 10V9V7C0 5.89543 0.895431 5 2 5H18C19.1046 5 20 5.89543 20 7V9V10C20 11.1046 19.1046 12 18 12L16 12V9Z" fill="white"/>
<path fill-rule="evenodd" clip-rule="evenodd" d="M16 9L4 9L4 12H2C0.89543 12 0 11.1046 0 10V9V7C0 5.89543 0.895431 5 2 5H18C19.1046 5 20 5.89543 20 7V9V10C20 11.1046 19.1046 12 18 12L16 12V9Z" fill="white"/>
<path d="M5 10H15V15C15 16.1046 14.1046 17 13 17H7C5.89543 17 5 16.1046 5 15V10Z" fill="white"/>
</svg>
