<svg width="18" height="18" viewBox="0 0 18 18" fill="none" xmlns="http://www.w3.org/2000/svg">
<path d="M9 18C4.05 18 0 13.95 0 9C0 4.05 4.05 0 9 0C13.95 0 18 4.05 18 9C18 13.95 13.95 18 9 18ZM10.8 13.5L10.9125 12.9375C10.8 12.9375 10.4625 13.1625 10.125 13.1625C9.675 13.1625 9.675 13.1625 9.5625 13.05C9.45 12.9375 9.3375 12.825 9.3375 12.4875C9.3375 12.375 9.3375 12.2625 9.3375 12.0375C9.45 11.8125 10.125 9.3375 10.125 9.1125C10.125 8.8875 10.125 8.775 10.125 8.6625C10.125 8.2125 10.0125 7.9875 9.675 7.65C9.45 7.425 9.1125 7.3125 8.55 7.3125C7.9875 7.3125 7.3125 7.5375 6.525 7.875L6.4125 8.4375C6.525 8.4375 6.8625 8.2125 7.2 8.2125C7.65 8.2125 7.65 8.2125 7.7625 8.325C7.875 8.4375 7.9875 8.6625 7.9875 8.8875C7.9875 9 7.2 12.15 7.2 12.2625C7.2 12.375 7.2 12.6 7.2 12.7125C7.2 13.05 7.3125 13.3875 7.65 13.725C7.9875 13.95 8.325 14.0625 8.8875 14.0625C9.5625 14.0625 10.2375 13.8375 10.8 13.5ZM10.575 5.85C10.8 5.625 10.9125 5.4 10.9125 5.0625C10.9125 4.725 10.8 4.5 10.575 4.275C10.35 4.05 10.125 3.9375 9.7875 3.9375C9.45 3.9375 9.225 4.05 9 4.275C8.775 4.5 8.6625 4.725 8.6625 5.0625C8.6625 5.4 8.775 5.625 9 5.85C9.225 6.075 9.45 6.1875 9.7875 6.1875C10.125 6.1875 10.35 6.075 10.575 5.85Z" fill="#AEBBC7"/>
</svg>
