<svg width="31" height="39" viewBox="0 0 31 39" fill="none" xmlns="http://www.w3.org/2000/svg">
<path d="M18.5557 24.0046C17.9876 23.5134 17.4121 22.8977 16.7639 22.2379C16.3123 21.7467 15.8243 21.0503 15.4164 20.3099C16.1885 17.6415 16.5599 15.0977 15.7441 13.8661C15.38 13.2943 14.8045 13.001 14.0689 13.001C13.2531 13.001 12.6412 13.3676 12.3572 14.0713C11.7016 15.5522 12.6849 18.2572 13.8649 20.4785C13.5371 21.5488 13.1292 22.6924 12.6412 23.968C12.3572 24.6644 12.0294 25.3608 11.7016 26.0206C8.35834 27.3255 6.31886 28.8063 6.03479 30.1992C5.91097 30.8589 6.11492 31.4307 6.69034 31.8852C7.01811 32.1345 7.3823 32.2958 7.7902 32.2958C7.95044 32.2958 8.11797 32.2518 8.27822 32.2151C9.82967 31.8046 11.4977 29.5027 12.7214 27.1642C13.457 26.8783 14.3092 26.5924 15.2488 26.3431C16.3487 26.0133 17.332 25.7713 18.1842 25.6027C19.7721 26.8783 21.1196 27.5747 22.3069 27.5747C23.2028 27.6187 23.8583 27.2888 24.4702 26.673C25.3661 25.7713 25.0019 24.9869 24.8781 24.7817C24.1424 23.6307 21.899 23.3888 18.5557 24.0046ZM7.87032 30.7783C7.71008 30.8223 7.62267 30.7783 7.54255 30.7343C7.3823 30.6097 7.3823 30.529 7.41872 30.4484C7.49885 29.9572 8.43846 29.0555 10.4779 28.0659C9.5019 29.5467 8.51858 30.6097 7.87032 30.7783ZM13.661 14.6431C13.7047 14.5625 13.7411 14.4379 14.0689 14.4379C14.3529 14.4379 14.4768 14.5625 14.5569 14.6431C14.9211 15.1783 14.8847 16.5345 14.4331 18.3379C13.7411 16.7764 13.3769 15.3029 13.661 14.6431ZM14.8045 24.9063C14.3966 25.0309 13.9887 25.1555 13.5808 25.2728C13.7047 24.9869 13.8285 24.701 13.945 24.4518C14.2291 23.6747 14.5569 22.8903 14.841 22.0693C15.1687 22.5238 15.4528 22.9343 15.7369 23.2202C16.1011 23.6307 16.4725 23.9973 16.8367 24.3712C16.1885 24.5398 15.4965 24.701 14.8045 24.9063ZM23.4067 25.6467C23.1227 25.9766 22.7512 26.1012 22.3069 26.1012C21.695 26.1012 20.9594 25.8153 20.1072 25.2362C22.4744 24.9063 23.8146 25.1555 23.4067 25.6467Z" fill="#58B9FF"/>
<rect y="0.0010376" width="1" height="39" fill="#172129"/>
<rect x="30" y="11.001" width="1" height="28" fill="#172129"/>
<path d="M20.479 0.00103668L21 1.00104L-4.37114e-08 1.00104L0 0.00103668L20.479 0.00103668Z" fill="#172129"/>
<rect x="31.0039" y="11.001" width="1" height="15.2246" transform="rotate(136.268 31.0039 11.001)" fill="#172129"/>
<rect x="31" y="38.001" width="1" height="31" transform="rotate(90 31 38.001)" fill="#172129"/>
</svg>
