<svg width="22" height="18" viewBox="0 0 22 18" fill="none" xmlns="http://www.w3.org/2000/svg">
<path d="M0.61875 0.508545C0.275 0.553282 0 0.844071 0 1.1796V6.54802C0 6.92828 0.297917 7.21907 0.6875 7.21907H4.35417V16.2112C4.35417 16.927 4.95 17.5085 5.68333 17.5085H16.3167C17.05 17.5085 17.6458 16.927 17.6458 16.2112V7.21907H21.3125C21.7021 7.21907 22 6.92828 22 6.54802V1.1796C22 0.799334 21.7021 0.508545 21.3125 0.508545H0.6875C0.664583 0.508545 0.641667 0.508545 0.61875 0.508545ZM1.375 1.85065H20.625V5.87697H17.6458V4.53486H19.0208C19.4104 4.53486 19.7083 4.24407 19.7083 3.86381C19.7083 3.48354 19.4104 3.19276 19.0208 3.19276H18.9979H2.97917C2.95625 3.19276 2.93333 3.19276 2.91042 3.19276C2.52083 3.21512 2.24583 3.52827 2.26875 3.90853C2.29167 4.2888 2.6125 4.55723 3.00208 4.53486H4.37708V5.87697H1.375V1.85065ZM5.72917 4.53486H11.4583V16.1664H5.72917V4.53486ZM12.8333 4.53486H13.9792V16.1664H12.8333V4.53486ZM15.3542 4.53486H16.2708V16.1664H15.3542V4.53486ZM8.02083 6.88354C7.63125 6.88354 7.33333 7.1967 7.33333 7.5546V8.71774C7.33333 9.09801 7.63125 9.3888 8.02083 9.3888C8.41042 9.3888 8.70833 9.09801 8.70833 8.71774V8.69538V7.53222C8.70833 7.19669 8.41042 6.88354 8.02083 6.88354ZM8.02083 10.798C7.51667 10.798 7.10417 11.2006 7.10417 11.6928C7.10417 12.1849 7.51667 12.5875 8.02083 12.5875C8.525 12.5875 8.9375 12.1849 8.9375 11.6928C8.9375 11.2006 8.525 10.798 8.02083 10.798ZM8.02083 13.0349C7.51667 13.0349 7.10417 13.4375 7.10417 13.9296C7.10417 14.4217 7.51667 14.8243 8.02083 14.8243C8.525 14.8243 8.9375 14.4217 8.9375 13.9296C8.9375 13.4375 8.525 13.0349 8.02083 13.0349Z" fill="#466BF0"/>
</svg>
