<svg width="16" height="16" viewBox="0 0 16 16" fill="none" xmlns="http://www.w3.org/2000/svg">
<path d="M3.72448 5.14737H0.512459C0.369904 5.14737 0.254395 5.26293 0.254395 5.40543V15.7243C0.254395 15.8669 0.369904 15.9824 0.512459 15.9824H3.72448C3.86704 15.9824 3.98255 15.8669 3.98255 15.7243V5.40543C3.98255 5.26293 3.86704 5.14737 3.72448 5.14737Z" fill="#89949A"/>
<path d="M2.11954 0.0176086C0.950813 0.0176086 0 0.967389 0 2.13482C0 3.30277 0.950813 4.25291 2.11954 4.25291C3.28733 4.25291 4.23737 3.30272 4.23737 2.13482C4.23742 0.967389 3.28733 0.0176086 2.11954 0.0176086Z" fill="#89949A"/>
<path d="M11.8943 4.8909C10.6043 4.8909 9.65061 5.44548 9.07219 6.07562V5.40543C9.07219 5.26293 8.95668 5.14736 8.81412 5.14736H5.73804C5.59549 5.14736 5.47998 5.26293 5.47998 5.40543V15.7243C5.47998 15.8668 5.59549 15.9824 5.73804 15.9824H8.94305C9.08561 15.9824 9.20112 15.8668 9.20112 15.7243V10.6188C9.20112 8.89844 9.66842 8.22819 10.8677 8.22819C12.1738 8.22819 12.2776 9.30267 12.2776 10.7074V15.7243C12.2776 15.8669 12.3931 15.9824 12.5357 15.9824H15.7419C15.8844 15.9824 15.9999 15.8669 15.9999 15.7243V10.0643C15.9999 7.50607 15.5121 4.8909 11.8943 4.8909Z" fill="#89949A"/>
</svg>
