<svg width="276" height="55" viewBox="0 0 276 55" fill="none" xmlns="http://www.w3.org/2000/svg">
<path d="M82.516 40H76.108L66.82 15.988H72.652L79.312 34.456L85.936 15.988H91.768L82.516 40ZM96.1454 20.74C95.4014 20.74 94.7534 20.476 94.2014 19.948C93.6734 19.396 93.4094 18.748 93.4094 18.004C93.4094 17.26 93.6734 16.624 94.2014 16.096C94.7534 15.568 95.4014 15.304 96.1454 15.304C96.9134 15.304 97.5614 15.568 98.0894 16.096C98.6174 16.624 98.8814 17.26 98.8814 18.004C98.8814 18.748 98.6174 19.396 98.0894 19.948C97.5614 20.476 96.9134 20.74 96.1454 20.74ZM98.4494 40H93.8774V22.612H98.4494V40ZM109.247 40.432C107.735 40.432 106.283 40.192 104.891 39.712C103.523 39.232 102.383 38.572 101.471 37.732L103.451 34.528C104.123 35.152 105.035 35.704 106.187 36.184C107.339 36.664 108.431 36.904 109.463 36.904C110.423 36.904 111.143 36.736 111.623 36.4C112.127 36.064 112.379 35.608 112.379 35.032C112.379 34.6 112.115 34.252 111.587 33.988C111.083 33.7 110.447 33.496 109.679 33.376C108.935 33.256 108.107 33.076 107.195 32.836C106.307 32.596 105.479 32.308 104.711 31.972C103.967 31.636 103.331 31.108 102.803 30.388C102.299 29.644 102.047 28.732 102.047 27.652C102.047 26.116 102.683 24.82 103.955 23.764C105.227 22.708 106.967 22.18 109.175 22.18C111.863 22.18 114.203 22.972 116.195 24.556L114.359 27.688C113.807 27.112 113.063 26.632 112.127 26.248C111.215 25.864 110.243 25.672 109.211 25.672C108.395 25.672 107.735 25.84 107.231 26.176C106.727 26.488 106.475 26.896 106.475 27.4C106.475 27.784 106.727 28.108 107.231 28.372C107.735 28.612 108.371 28.792 109.139 28.912C109.907 29.032 110.735 29.224 111.623 29.488C112.511 29.728 113.339 30.028 114.107 30.388C114.875 30.724 115.511 31.276 116.015 32.044C116.519 32.812 116.771 33.748 116.771 34.852C116.771 36.484 116.099 37.828 114.755 38.884C113.435 39.916 111.599 40.432 109.247 40.432ZM122.407 20.74C121.663 20.74 121.015 20.476 120.463 19.948C119.935 19.396 119.671 18.748 119.671 18.004C119.671 17.26 119.935 16.624 120.463 16.096C121.015 15.568 121.663 15.304 122.407 15.304C123.175 15.304 123.823 15.568 124.351 16.096C124.879 16.624 125.143 17.26 125.143 18.004C125.143 18.748 124.879 19.396 124.351 19.948C123.823 20.476 123.175 20.74 122.407 20.74ZM124.711 40H120.139V22.612H124.711V40ZM144.005 37.804C142.325 39.556 140.093 40.432 137.309 40.432C134.525 40.432 132.293 39.556 130.613 37.804C128.957 36.028 128.129 33.856 128.129 31.288C128.129 28.72 128.957 26.56 130.613 24.808C132.293 23.056 134.525 22.18 137.309 22.18C140.093 22.18 142.325 23.056 144.005 24.808C145.685 26.56 146.525 28.72 146.525 31.288C146.525 33.856 145.685 36.028 144.005 37.804ZM134.069 34.924C134.861 35.884 135.941 36.364 137.309 36.364C138.677 36.364 139.757 35.884 140.549 34.924C141.365 33.94 141.773 32.728 141.773 31.288C141.773 29.872 141.365 28.684 140.549 27.724C139.757 26.74 138.677 26.248 137.309 26.248C135.941 26.248 134.861 26.74 134.069 27.724C133.277 28.684 132.881 29.872 132.881 31.288C132.881 32.728 133.277 33.94 134.069 34.924ZM166.224 40H161.652V29.488C161.652 27.328 160.584 26.248 158.448 26.248C156.792 26.248 155.472 26.932 154.488 28.3V40H149.916V22.612H154.488V24.88C156 23.08 158.028 22.18 160.572 22.18C162.444 22.18 163.848 22.672 164.784 23.656C165.744 24.64 166.224 25.996 166.224 27.724V40ZM182.752 40.432C179.296 40.432 176.404 39.28 174.076 36.976C171.748 34.648 170.584 31.66 170.584 28.012C170.584 24.364 171.748 21.388 174.076 19.084C176.404 16.756 179.296 15.592 182.752 15.592C186.304 15.592 189.22 17.008 191.5 19.84L189.772 20.956C189.004 19.9 187.996 19.06 186.748 18.436C185.5 17.788 184.168 17.464 182.752 17.464C179.896 17.464 177.508 18.448 175.588 20.416C173.692 22.384 172.744 24.916 172.744 28.012C172.744 31.084 173.692 33.616 175.588 35.608C177.508 37.576 179.896 38.56 182.752 38.56C184.168 38.56 185.5 38.248 186.748 37.624C187.996 36.976 189.004 36.124 189.772 35.068L191.5 36.148C189.196 39.004 186.28 40.432 182.752 40.432ZM208.524 40H206.652V37.948C205.14 39.604 203.172 40.432 200.748 40.432C199.14 40.432 197.724 39.916 196.5 38.884C195.276 37.828 194.664 36.412 194.664 34.636C194.664 32.836 195.264 31.432 196.464 30.424C197.688 29.392 199.116 28.876 200.748 28.876C203.196 28.876 205.164 29.704 206.652 31.36V27.832C206.652 26.584 206.208 25.612 205.32 24.916C204.432 24.196 203.316 23.836 201.972 23.836C199.836 23.836 198.024 24.688 196.536 26.392L195.492 25.096C197.292 23.152 199.524 22.18 202.188 22.18C204.06 22.18 205.584 22.648 206.76 23.584C207.936 24.52 208.524 25.912 208.524 27.76V40ZM201.396 38.956C203.676 38.956 205.428 38.164 206.652 36.58V32.764C205.404 31.156 203.652 30.352 201.396 30.352C199.98 30.352 198.828 30.76 197.94 31.576C197.076 32.392 196.644 33.424 196.644 34.672C196.644 35.92 197.076 36.952 197.94 37.768C198.828 38.56 199.98 38.956 201.396 38.956ZM222.293 40.432C219.797 40.432 217.781 39.352 216.245 37.192V46.624H214.373V22.612H216.245V25.348C216.893 24.412 217.745 23.656 218.801 23.08C219.881 22.48 221.045 22.18 222.293 22.18C224.621 22.18 226.493 23.008 227.909 24.664C229.349 26.296 230.069 28.504 230.069 31.288C230.069 34.048 229.349 36.268 227.909 37.948C226.493 39.604 224.621 40.432 222.293 40.432ZM221.969 38.74C223.865 38.74 225.353 38.044 226.433 36.652C227.513 35.26 228.053 33.472 228.053 31.288C228.053 29.128 227.513 27.352 226.433 25.96C225.353 24.568 223.865 23.872 221.969 23.872C220.793 23.872 219.677 24.172 218.621 24.772C217.565 25.372 216.773 26.104 216.245 26.968V35.572C216.773 36.436 217.565 37.18 218.621 37.804C219.701 38.428 220.817 38.74 221.969 38.74ZM235.735 19.876C235.351 19.876 235.015 19.732 234.727 19.444C234.439 19.156 234.295 18.82 234.295 18.436C234.295 18.052 234.439 17.728 234.727 17.464C235.015 17.176 235.351 17.032 235.735 17.032C236.143 17.032 236.479 17.176 236.743 17.464C237.031 17.728 237.175 18.052 237.175 18.436C237.175 18.844 237.031 19.192 236.743 19.48C236.479 19.744 236.143 19.876 235.735 19.876ZM236.671 40H234.799V22.612H236.671V40ZM246.278 40.432C243.998 40.432 242.858 39.172 242.858 36.652V24.268H239.978V22.612H242.858V17.86H244.766V22.612H248.294V24.268H244.766V36.364C244.766 37.948 245.366 38.74 246.566 38.74C247.358 38.74 248.006 38.464 248.51 37.912L249.23 39.352C248.462 40.072 247.478 40.432 246.278 40.432ZM265.336 40H263.464V37.948C261.952 39.604 259.984 40.432 257.56 40.432C255.952 40.432 254.536 39.916 253.312 38.884C252.088 37.828 251.476 36.412 251.476 34.636C251.476 32.836 252.076 31.432 253.276 30.424C254.5 29.392 255.928 28.876 257.56 28.876C260.008 28.876 261.976 29.704 263.464 31.36V27.832C263.464 26.584 263.02 25.612 262.132 24.916C261.244 24.196 260.128 23.836 258.784 23.836C256.648 23.836 254.836 24.688 253.348 26.392L252.304 25.096C254.104 23.152 256.336 22.18 259 22.18C260.872 22.18 262.396 22.648 263.572 23.584C264.748 24.52 265.336 25.912 265.336 27.76V40ZM258.208 38.956C260.488 38.956 262.24 38.164 263.464 36.58V32.764C262.216 31.156 260.464 30.352 258.208 30.352C256.792 30.352 255.64 30.76 254.752 31.576C253.888 32.392 253.456 33.424 253.456 34.672C253.456 35.92 253.888 36.952 254.752 37.768C255.64 38.56 256.792 38.956 258.208 38.956ZM273.058 40H271.186V15.988H273.058V40Z" fill="white"/>
<g clip-path="url(#clip0_14649_3871)">
<path d="M18.6486 0H0.335471C0.095771 0 -0.0959893 0.28522 0.047831 0.522904L19.3677 33.7035C19.5115 33.9412 19.8471 33.9412 19.943 33.7035L29.1475 18.1115C29.2913 17.8263 29.2913 17.4935 29.1475 17.2083L19.4156 0.427831C19.2718 0.190147 18.9842 0 18.6486 0Z" fill="white"/>
<path d="M44.728 0.427831L22.6276 38.4097C22.4838 38.6949 22.4838 39.0277 22.6276 39.2653L25.4561 44.1616C25.6479 44.4944 26.0793 44.4944 26.2711 44.1616L51.5834 0.713051C51.7752 0.380294 51.5355 0 51.1999 0H45.4951C45.1595 0 44.8718 0.190147 44.728 0.427831Z" fill="white"/>
<path d="M32.4552 54.7623L63.9519 0.713051C64.1436 0.380294 63.9039 0 63.5204 0H57.9594C57.5758 0 57.2403 0.190147 57.0485 0.522904L28.8118 48.9628C28.62 49.2956 28.62 49.6759 28.8118 50.0086L31.5923 54.8099C31.7841 55.0951 32.2635 55.0951 32.4552 54.7623Z" fill="white"/>
</g>
<defs>
<clipPath id="clip0_14649_3871">
<rect width="64" height="55" fill="white"/>
</clipPath>
</defs>
</svg>
