<svg width="249" height="48" viewBox="0 0 249 48" fill="none" xmlns="http://www.w3.org/2000/svg">
<path d="M76.792 35H71.096L62.84 13.656H68.024L73.944 30.072L79.832 13.656H85.016L76.792 35ZM88.907 17.88C88.2457 17.88 87.6697 17.6453 87.179 17.176C86.7097 16.6853 86.475 16.1093 86.475 15.448C86.475 14.7867 86.7097 14.2213 87.179 13.752C87.6697 13.2827 88.2457 13.048 88.907 13.048C89.5897 13.048 90.1657 13.2827 90.635 13.752C91.1043 14.2213 91.339 14.7867 91.339 15.448C91.339 16.1093 91.1043 16.6853 90.635 17.176C90.1657 17.6453 89.5897 17.88 88.907 17.88ZM90.955 35H86.891V19.544H90.955V35ZM100.553 35.384C99.2088 35.384 97.9181 35.1707 96.6808 34.744C95.4648 34.3173 94.4514 33.7307 93.6408 32.984L95.4008 30.136C95.9981 30.6907 96.8088 31.1813 97.8328 31.608C98.8568 32.0347 99.8274 32.248 100.745 32.248C101.598 32.248 102.238 32.0987 102.665 31.8C103.113 31.5013 103.337 31.096 103.337 30.584C103.337 30.2 103.102 29.8907 102.633 29.656C102.185 29.4 101.619 29.2187 100.937 29.112C100.275 29.0053 99.5394 28.8453 98.7288 28.632C97.9394 28.4187 97.2034 28.1627 96.5208 27.864C95.8594 27.5653 95.2941 27.096 94.8248 26.456C94.3768 25.7947 94.1528 24.984 94.1528 24.024C94.1528 22.6587 94.7181 21.5067 95.8488 20.568C96.9794 19.6293 98.5261 19.16 100.489 19.16C102.878 19.16 104.958 19.864 106.729 21.272L105.097 24.056C104.606 23.544 103.945 23.1173 103.113 22.776C102.302 22.4347 101.438 22.264 100.521 22.264C99.7954 22.264 99.2088 22.4133 98.7608 22.712C98.3128 22.9893 98.0888 23.352 98.0888 23.8C98.0888 24.1413 98.3128 24.4293 98.7608 24.664C99.2088 24.8773 99.7741 25.0373 100.457 25.144C101.139 25.2507 101.875 25.4213 102.665 25.656C103.454 25.8693 104.19 26.136 104.873 26.456C105.555 26.7547 106.121 27.2453 106.569 27.928C107.017 28.6107 107.241 29.4427 107.241 30.424C107.241 31.8747 106.643 33.0693 105.449 34.008C104.275 34.9253 102.643 35.384 100.553 35.384ZM112.251 17.88C111.589 17.88 111.013 17.6453 110.523 17.176C110.053 16.6853 109.819 16.1093 109.819 15.448C109.819 14.7867 110.053 14.2213 110.523 13.752C111.013 13.2827 111.589 13.048 112.251 13.048C112.933 13.048 113.509 13.2827 113.979 13.752C114.448 14.2213 114.683 14.7867 114.683 15.448C114.683 16.1093 114.448 16.6853 113.979 17.176C113.509 17.6453 112.933 17.88 112.251 17.88ZM114.299 35H110.235V19.544H114.299V35ZM131.449 33.048C129.955 34.6053 127.971 35.384 125.497 35.384C123.022 35.384 121.038 34.6053 119.545 33.048C118.073 31.4693 117.337 29.5387 117.337 27.256C117.337 24.9733 118.073 23.0533 119.545 21.496C121.038 19.9387 123.022 19.16 125.497 19.16C127.971 19.16 129.955 19.9387 131.449 21.496C132.942 23.0533 133.689 24.9733 133.689 27.256C133.689 29.5387 132.942 31.4693 131.449 33.048ZM122.617 30.488C123.321 31.3413 124.281 31.768 125.497 31.768C126.713 31.768 127.673 31.3413 128.377 30.488C129.102 29.6133 129.465 28.536 129.465 27.256C129.465 25.9973 129.102 24.9413 128.377 24.088C127.673 23.2133 126.713 22.776 125.497 22.776C124.281 22.776 123.321 23.2133 122.617 24.088C121.913 24.9413 121.561 25.9973 121.561 27.256C121.561 28.536 121.913 29.6133 122.617 30.488ZM151.2 35H147.136V25.656C147.136 23.736 146.186 22.776 144.288 22.776C142.816 22.776 141.642 23.384 140.768 24.6V35H136.704V19.544H140.768V21.56C142.112 19.96 143.914 19.16 146.176 19.16C147.84 19.16 149.088 19.5973 149.92 20.472C150.773 21.3467 151.2 22.552 151.2 24.088V35ZM165.891 35.384C162.819 35.384 160.248 34.36 158.179 32.312C156.109 30.2427 155.075 27.5867 155.075 24.344C155.075 21.1013 156.109 18.456 158.179 16.408C160.248 14.3387 162.819 13.304 165.891 13.304C169.048 13.304 171.64 14.5627 173.667 17.08L172.131 18.072C171.448 17.1333 170.552 16.3867 169.443 15.832C168.333 15.256 167.149 14.968 165.891 14.968C163.352 14.968 161.229 15.8427 159.523 17.592C157.837 19.3413 156.995 21.592 156.995 24.344C156.995 27.0747 157.837 29.3253 159.523 31.096C161.229 32.8453 163.352 33.72 165.891 33.72C167.149 33.72 168.333 33.4427 169.443 32.888C170.552 32.312 171.448 31.5547 172.131 30.616L173.667 31.576C171.619 34.1147 169.027 35.384 165.891 35.384ZM188.799 35H187.135V33.176C185.791 34.648 184.041 35.384 181.887 35.384C180.457 35.384 179.199 34.9253 178.111 34.008C177.023 33.0693 176.479 31.8107 176.479 30.232C176.479 28.632 177.012 27.384 178.079 26.488C179.167 25.5707 180.436 25.112 181.887 25.112C184.063 25.112 185.812 25.848 187.135 27.32V24.184C187.135 23.0747 186.74 22.2107 185.951 21.592C185.161 20.952 184.169 20.632 182.975 20.632C181.076 20.632 179.465 21.3893 178.143 22.904L177.215 21.752C178.815 20.024 180.799 19.16 183.167 19.16C184.831 19.16 186.185 19.576 187.231 20.408C188.276 21.24 188.799 22.4773 188.799 24.12V35ZM182.463 34.072C184.489 34.072 186.047 33.368 187.135 31.96V28.568C186.025 27.1387 184.468 26.424 182.463 26.424C181.204 26.424 180.18 26.7867 179.391 27.512C178.623 28.2373 178.239 29.1547 178.239 30.264C178.239 31.3733 178.623 32.2907 179.391 33.016C180.18 33.72 181.204 34.072 182.463 34.072ZM201.038 35.384C198.82 35.384 197.028 34.424 195.662 32.504V40.888H193.998V19.544H195.662V21.976C196.238 21.144 196.996 20.472 197.934 19.96C198.894 19.4267 199.929 19.16 201.038 19.16C203.108 19.16 204.772 19.896 206.03 21.368C207.31 22.8187 207.95 24.7813 207.95 27.256C207.95 29.7093 207.31 31.6827 206.03 33.176C204.772 34.648 203.108 35.384 201.038 35.384ZM200.75 33.88C202.436 33.88 203.758 33.2613 204.718 32.024C205.678 30.7867 206.158 29.1973 206.158 27.256C206.158 25.336 205.678 23.7573 204.718 22.52C203.758 21.2827 202.436 20.664 200.75 20.664C199.705 20.664 198.713 20.9307 197.774 21.464C196.836 21.9973 196.132 22.648 195.662 23.416V31.064C196.132 31.832 196.836 32.4933 197.774 33.048C198.734 33.6027 199.726 33.88 200.75 33.88ZM212.987 17.112C212.645 17.112 212.347 16.984 212.091 16.728C211.835 16.472 211.707 16.1733 211.707 15.832C211.707 15.4907 211.835 15.2027 212.091 14.968C212.347 14.712 212.645 14.584 212.987 14.584C213.349 14.584 213.648 14.712 213.883 14.968C214.139 15.2027 214.266 15.4907 214.266 15.832C214.266 16.1947 214.139 16.504 213.883 16.76C213.648 16.9947 213.349 17.112 212.987 17.112ZM213.819 35H212.155V19.544H213.819V35ZM222.358 35.384C220.332 35.384 219.318 34.264 219.318 32.024V21.016H216.758V19.544H219.318V15.32H221.014V19.544H224.15V21.016H221.014V31.768C221.014 33.176 221.548 33.88 222.614 33.88C223.318 33.88 223.894 33.6347 224.342 33.144L224.982 34.424C224.3 35.064 223.425 35.384 222.358 35.384ZM239.299 35H237.635V33.176C236.291 34.648 234.541 35.384 232.387 35.384C230.957 35.384 229.699 34.9253 228.611 34.008C227.523 33.0693 226.979 31.8107 226.979 30.232C226.979 28.632 227.512 27.384 228.579 26.488C229.667 25.5707 230.936 25.112 232.387 25.112C234.563 25.112 236.312 25.848 237.635 27.32V24.184C237.635 23.0747 237.24 22.2107 236.451 21.592C235.661 20.952 234.669 20.632 233.475 20.632C231.576 20.632 229.965 21.3893 228.643 22.904L227.715 21.752C229.315 20.024 231.299 19.16 233.667 19.16C235.331 19.16 236.685 19.576 237.731 20.408C238.776 21.24 239.299 22.4773 239.299 24.12V35ZM232.963 34.072C234.989 34.072 236.547 33.368 237.635 31.96V28.568C236.525 27.1387 234.968 26.424 232.963 26.424C231.704 26.424 230.68 26.7867 229.891 27.512C229.123 28.2373 228.739 29.1547 228.739 30.264C228.739 31.3733 229.123 32.2907 229.891 33.016C230.68 33.72 231.704 34.072 232.963 34.072ZM246.162 35H244.498V13.656H246.162V35Z" fill="white"/>
<g clip-path="url(#clip0_14649_4289)">
<path d="M16.3175 0H0.293568C0.0838302 0 -0.0839601 0.24892 0.0418826 0.456353L16.9468 29.414C17.0726 29.6214 17.3662 29.6214 17.4501 29.414L25.5041 15.8064C25.6299 15.5575 25.6299 15.2671 25.5041 15.0182L16.9887 0.373379C16.8629 0.165946 16.6112 0 16.3175 0Z" fill="#466BF0"/>
<path d="M39.1373 0.373379L19.7995 33.5212C19.6736 33.7701 19.6736 34.0605 19.7995 34.2679L22.2744 38.5411C22.4422 38.8315 22.8197 38.8315 22.9875 38.5411L45.1358 0.622299C45.3036 0.331893 45.0938 0 44.8002 0H39.8084C39.5148 0 39.2631 0.165946 39.1373 0.373379Z" fill="#58B9FF"/>
<path d="M28.3988 47.7926L55.9584 0.622299C56.1262 0.331893 55.9164 0 55.5808 0H50.7149C50.3793 0 50.0857 0.165946 49.9179 0.456353L25.2108 42.7312C25.043 43.0216 25.043 43.3535 25.2108 43.6439L27.6438 47.8341C27.8116 48.083 28.231 48.083 28.3988 47.7926Z" fill="#58B9FF"/>
</g>
<defs>
<clipPath id="clip0_14649_4289">
<rect width="56" height="48" fill="white"/>
</clipPath>
</defs>
</svg>
