<svg width="1167" height="447" viewBox="0 0 1167 447" fill="none" xmlns="http://www.w3.org/2000/svg">
<path d="M55.9629 54H49.5509V53.076C50.5216 52.3107 51.2729 51.704 51.8049 51.256C52.3463 50.7987 52.8643 50.318 53.3589 49.814C53.8629 49.3007 54.2176 48.848 54.4229 48.456C54.6283 48.0547 54.7309 47.658 54.7309 47.266C54.7309 46.706 54.5396 46.2813 54.1569 45.992C53.7743 45.7027 53.3169 45.558 52.7849 45.558C51.7116 45.558 50.8669 45.95 50.2509 46.734L49.5369 45.992C49.8916 45.5253 50.3536 45.166 50.9229 44.914C51.5016 44.6527 52.1223 44.522 52.7849 44.522C53.6343 44.522 54.3669 44.76 54.9829 45.236C55.6083 45.712 55.9209 46.3887 55.9209 47.266C55.9209 48.134 55.5476 49.002 54.8009 49.87C54.0543 50.7287 52.9156 51.76 51.3849 52.964H55.9629V54ZM61.2394 54.168C59.8021 54.168 58.7054 53.6687 57.9494 52.67L58.6634 51.9C59.3074 52.7213 60.1661 53.132 61.2394 53.132C61.8741 53.132 62.3921 52.9407 62.7934 52.558C63.1947 52.1753 63.3954 51.6993 63.3954 51.13C63.3954 50.5233 63.1947 50.038 62.7934 49.674C62.4014 49.3007 61.8881 49.114 61.2534 49.114C60.4134 49.114 59.6947 49.408 59.0974 49.996L58.2434 49.702V44.662H63.9554V45.698H59.4054V48.946C59.9654 48.386 60.6934 48.106 61.5894 48.106C62.4107 48.106 63.1107 48.3767 63.6894 48.918C64.2681 49.45 64.5574 50.1733 64.5574 51.088C64.5574 52.0213 64.2447 52.768 63.6194 53.328C62.9941 53.888 62.2007 54.168 61.2394 54.168ZM69.5672 54.168C68.9512 54.168 68.4052 54.028 67.9292 53.748C67.4625 53.4587 67.0892 53.076 66.8092 52.6C66.5385 52.124 66.3332 51.6107 66.1932 51.06C66.0625 50.5093 65.9972 49.9353 65.9972 49.338C65.9972 48.7407 66.0625 48.1667 66.1932 47.616C66.3332 47.0653 66.5385 46.5567 66.8092 46.09C67.0892 45.614 67.4625 45.236 67.9292 44.956C68.4052 44.6667 68.9512 44.522 69.5672 44.522C70.1739 44.522 70.7152 44.6667 71.1912 44.956C71.6672 45.236 72.0405 45.614 72.3112 46.09C72.5912 46.5567 72.7965 47.0653 72.9272 47.616C73.0672 48.1667 73.1372 48.7407 73.1372 49.338C73.1372 49.9353 73.0672 50.5093 72.9272 51.06C72.7965 51.6107 72.5912 52.124 72.3112 52.6C72.0405 53.076 71.6672 53.4587 71.1912 53.748C70.7152 54.028 70.1739 54.168 69.5672 54.168ZM68.1672 52.558C68.5405 52.9407 69.0072 53.132 69.5672 53.132C70.1272 53.132 70.5939 52.9407 70.9672 52.558C71.3405 52.166 71.5972 51.6993 71.7372 51.158C71.8772 50.6167 71.9472 50.01 71.9472 49.338C71.9472 48.666 71.8772 48.0593 71.7372 47.518C71.5972 46.9767 71.3405 46.5147 70.9672 46.132C70.5939 45.7493 70.1272 45.558 69.5672 45.558C69.0072 45.558 68.5405 45.7493 68.1672 46.132C67.7939 46.5147 67.5372 46.9767 67.3972 47.518C67.2572 48.0593 67.1872 48.666 67.1872 49.338C67.1872 50.01 67.2572 50.6167 67.3972 51.158C67.5372 51.6993 67.7939 52.166 68.1672 52.558ZM78.1395 54.168C77.5235 54.168 76.9775 54.028 76.5015 53.748C76.0348 53.4587 75.6615 53.076 75.3815 52.6C75.1108 52.124 74.9055 51.6107 74.7655 51.06C74.6348 50.5093 74.5695 49.9353 74.5695 49.338C74.5695 48.7407 74.6348 48.1667 74.7655 47.616C74.9055 47.0653 75.1108 46.5567 75.3815 46.09C75.6615 45.614 76.0348 45.236 76.5015 44.956C76.9775 44.6667 77.5235 44.522 78.1395 44.522C78.7461 44.522 79.2875 44.6667 79.7635 44.956C80.2395 45.236 80.6128 45.614 80.8835 46.09C81.1635 46.5567 81.3688 47.0653 81.4995 47.616C81.6395 48.1667 81.7095 48.7407 81.7095 49.338C81.7095 49.9353 81.6395 50.5093 81.4995 51.06C81.3688 51.6107 81.1635 52.124 80.8835 52.6C80.6128 53.076 80.2395 53.4587 79.7635 53.748C79.2875 54.028 78.7461 54.168 78.1395 54.168ZM76.7395 52.558C77.1128 52.9407 77.5795 53.132 78.1395 53.132C78.6995 53.132 79.1661 52.9407 79.5395 52.558C79.9128 52.166 80.1695 51.6993 80.3095 51.158C80.4495 50.6167 80.5195 50.01 80.5195 49.338C80.5195 48.666 80.4495 48.0593 80.3095 47.518C80.1695 46.9767 79.9128 46.5147 79.5395 46.132C79.1661 45.7493 78.6995 45.558 78.1395 45.558C77.5795 45.558 77.1128 45.7493 76.7395 46.132C76.3661 46.5147 76.1095 46.9767 75.9695 47.518C75.8295 48.0593 75.7595 48.666 75.7595 49.338C75.7595 50.01 75.8295 50.6167 75.9695 51.158C76.1095 51.6993 76.3661 52.166 76.7395 52.558ZM86.7117 54.168C86.0957 54.168 85.5497 54.028 85.0737 53.748C84.6071 53.4587 84.2337 53.076 83.9537 52.6C83.6831 52.124 83.4777 51.6107 83.3377 51.06C83.2071 50.5093 83.1417 49.9353 83.1417 49.338C83.1417 48.7407 83.2071 48.1667 83.3377 47.616C83.4777 47.0653 83.6831 46.5567 83.9537 46.09C84.2337 45.614 84.6071 45.236 85.0737 44.956C85.5497 44.6667 86.0957 44.522 86.7117 44.522C87.3184 44.522 87.8597 44.6667 88.3357 44.956C88.8117 45.236 89.1851 45.614 89.4557 46.09C89.7357 46.5567 89.9411 47.0653 90.0717 47.616C90.2117 48.1667 90.2817 48.7407 90.2817 49.338C90.2817 49.9353 90.2117 50.5093 90.0717 51.06C89.9411 51.6107 89.7357 52.124 89.4557 52.6C89.1851 53.076 88.8117 53.4587 88.3357 53.748C87.8597 54.028 87.3184 54.168 86.7117 54.168ZM85.3117 52.558C85.6851 52.9407 86.1517 53.132 86.7117 53.132C87.2717 53.132 87.7384 52.9407 88.1117 52.558C88.4851 52.166 88.7417 51.6993 88.8817 51.158C89.0217 50.6167 89.0917 50.01 89.0917 49.338C89.0917 48.666 89.0217 48.0593 88.8817 47.518C88.7417 46.9767 88.4851 46.5147 88.1117 46.132C87.7384 45.7493 87.2717 45.558 86.7117 45.558C86.1517 45.558 85.6851 45.7493 85.3117 46.132C84.9384 46.5147 84.6817 46.9767 84.5417 47.518C84.4017 48.0593 84.3317 48.666 84.3317 49.338C84.3317 50.01 84.4017 50.6167 84.5417 51.158C84.6817 51.6993 84.9384 52.166 85.3117 52.558Z" fill="#4B5053"/>
<path d="M55.6485 120H49.2365V119.076C50.2071 118.311 50.9585 117.704 51.4905 117.256C52.0318 116.799 52.5498 116.318 53.0445 115.814C53.5485 115.301 53.9031 114.848 54.1085 114.456C54.3138 114.055 54.4165 113.658 54.4165 113.266C54.4165 112.706 54.2251 112.281 53.8425 111.992C53.4598 111.703 53.0025 111.558 52.4705 111.558C51.3971 111.558 50.5525 111.95 49.9365 112.734L49.2225 111.992C49.5771 111.525 50.0391 111.166 50.6085 110.914C51.1871 110.653 51.8078 110.522 52.4705 110.522C53.3198 110.522 54.0525 110.76 54.6685 111.236C55.2938 111.712 55.6065 112.389 55.6065 113.266C55.6065 114.134 55.2331 115.002 54.4865 115.87C53.7398 116.729 52.6011 117.76 51.0705 118.964H55.6485V120ZM60.9949 120.168C60.3789 120.168 59.8329 120.028 59.3569 119.748C58.8903 119.459 58.5169 119.076 58.2369 118.6C57.9663 118.124 57.7609 117.611 57.6209 117.06C57.4903 116.509 57.4249 115.935 57.4249 115.338C57.4249 114.741 57.4903 114.167 57.6209 113.616C57.7609 113.065 57.9663 112.557 58.2369 112.09C58.5169 111.614 58.8903 111.236 59.3569 110.956C59.8329 110.667 60.3789 110.522 60.9949 110.522C61.6016 110.522 62.1429 110.667 62.6189 110.956C63.0949 111.236 63.4683 111.614 63.7389 112.09C64.0189 112.557 64.2243 113.065 64.3549 113.616C64.4949 114.167 64.5649 114.741 64.5649 115.338C64.5649 115.935 64.4949 116.509 64.3549 117.06C64.2243 117.611 64.0189 118.124 63.7389 118.6C63.4683 119.076 63.0949 119.459 62.6189 119.748C62.1429 120.028 61.6016 120.168 60.9949 120.168ZM59.5949 118.558C59.9683 118.941 60.4349 119.132 60.9949 119.132C61.5549 119.132 62.0216 118.941 62.3949 118.558C62.7683 118.166 63.0249 117.699 63.1649 117.158C63.3049 116.617 63.3749 116.01 63.3749 115.338C63.3749 114.666 63.3049 114.059 63.1649 113.518C63.0249 112.977 62.7683 112.515 62.3949 112.132C62.0216 111.749 61.5549 111.558 60.9949 111.558C60.4349 111.558 59.9683 111.749 59.5949 112.132C59.2216 112.515 58.9649 112.977 58.8249 113.518C58.6849 114.059 58.6149 114.666 58.6149 115.338C58.6149 116.01 58.6849 116.617 58.8249 117.158C58.9649 117.699 59.2216 118.166 59.5949 118.558ZM69.5672 120.168C68.9512 120.168 68.4052 120.028 67.9292 119.748C67.4625 119.459 67.0892 119.076 66.8092 118.6C66.5385 118.124 66.3332 117.611 66.1932 117.06C66.0625 116.509 65.9972 115.935 65.9972 115.338C65.9972 114.741 66.0625 114.167 66.1932 113.616C66.3332 113.065 66.5385 112.557 66.8092 112.09C67.0892 111.614 67.4625 111.236 67.9292 110.956C68.4052 110.667 68.9512 110.522 69.5672 110.522C70.1739 110.522 70.7152 110.667 71.1912 110.956C71.6672 111.236 72.0405 111.614 72.3112 112.09C72.5912 112.557 72.7965 113.065 72.9272 113.616C73.0672 114.167 73.1372 114.741 73.1372 115.338C73.1372 115.935 73.0672 116.509 72.9272 117.06C72.7965 117.611 72.5912 118.124 72.3112 118.6C72.0405 119.076 71.6672 119.459 71.1912 119.748C70.7152 120.028 70.1739 120.168 69.5672 120.168ZM68.1672 118.558C68.5405 118.941 69.0072 119.132 69.5672 119.132C70.1272 119.132 70.5939 118.941 70.9672 118.558C71.3405 118.166 71.5972 117.699 71.7372 117.158C71.8772 116.617 71.9472 116.01 71.9472 115.338C71.9472 114.666 71.8772 114.059 71.7372 113.518C71.5972 112.977 71.3405 112.515 70.9672 112.132C70.5939 111.749 70.1272 111.558 69.5672 111.558C69.0072 111.558 68.5405 111.749 68.1672 112.132C67.7939 112.515 67.5372 112.977 67.3972 113.518C67.2572 114.059 67.1872 114.666 67.1872 115.338C67.1872 116.01 67.2572 116.617 67.3972 117.158C67.5372 117.699 67.7939 118.166 68.1672 118.558ZM78.1395 120.168C77.5235 120.168 76.9775 120.028 76.5015 119.748C76.0348 119.459 75.6615 119.076 75.3815 118.6C75.1108 118.124 74.9055 117.611 74.7655 117.06C74.6348 116.509 74.5695 115.935 74.5695 115.338C74.5695 114.741 74.6348 114.167 74.7655 113.616C74.9055 113.065 75.1108 112.557 75.3815 112.09C75.6615 111.614 76.0348 111.236 76.5015 110.956C76.9775 110.667 77.5235 110.522 78.1395 110.522C78.7461 110.522 79.2875 110.667 79.7635 110.956C80.2395 111.236 80.6128 111.614 80.8835 112.09C81.1635 112.557 81.3688 113.065 81.4995 113.616C81.6395 114.167 81.7095 114.741 81.7095 115.338C81.7095 115.935 81.6395 116.509 81.4995 117.06C81.3688 117.611 81.1635 118.124 80.8835 118.6C80.6128 119.076 80.2395 119.459 79.7635 119.748C79.2875 120.028 78.7461 120.168 78.1395 120.168ZM76.7395 118.558C77.1128 118.941 77.5795 119.132 78.1395 119.132C78.6995 119.132 79.1661 118.941 79.5395 118.558C79.9128 118.166 80.1695 117.699 80.3095 117.158C80.4495 116.617 80.5195 116.01 80.5195 115.338C80.5195 114.666 80.4495 114.059 80.3095 113.518C80.1695 112.977 79.9128 112.515 79.5395 112.132C79.1661 111.749 78.6995 111.558 78.1395 111.558C77.5795 111.558 77.1128 111.749 76.7395 112.132C76.3661 112.515 76.1095 112.977 75.9695 113.518C75.8295 114.059 75.7595 114.666 75.7595 115.338C75.7595 116.01 75.8295 116.617 75.9695 117.158C76.1095 117.699 76.3661 118.166 76.7395 118.558ZM86.7117 120.168C86.0957 120.168 85.5497 120.028 85.0737 119.748C84.6071 119.459 84.2337 119.076 83.9537 118.6C83.6831 118.124 83.4777 117.611 83.3377 117.06C83.2071 116.509 83.1417 115.935 83.1417 115.338C83.1417 114.741 83.2071 114.167 83.3377 113.616C83.4777 113.065 83.6831 112.557 83.9537 112.09C84.2337 111.614 84.6071 111.236 85.0737 110.956C85.5497 110.667 86.0957 110.522 86.7117 110.522C87.3184 110.522 87.8597 110.667 88.3357 110.956C88.8117 111.236 89.1851 111.614 89.4557 112.09C89.7357 112.557 89.9411 113.065 90.0717 113.616C90.2117 114.167 90.2817 114.741 90.2817 115.338C90.2817 115.935 90.2117 116.509 90.0717 117.06C89.9411 117.611 89.7357 118.124 89.4557 118.6C89.1851 119.076 88.8117 119.459 88.3357 119.748C87.8597 120.028 87.3184 120.168 86.7117 120.168ZM85.3117 118.558C85.6851 118.941 86.1517 119.132 86.7117 119.132C87.2717 119.132 87.7384 118.941 88.1117 118.558C88.4851 118.166 88.7417 117.699 88.8817 117.158C89.0217 116.617 89.0917 116.01 89.0917 115.338C89.0917 114.666 89.0217 114.059 88.8817 113.518C88.7417 112.977 88.4851 112.515 88.1117 112.132C87.7384 111.749 87.2717 111.558 86.7117 111.558C86.1517 111.558 85.6851 111.749 85.3117 112.132C84.9384 112.515 84.6817 112.977 84.5417 113.518C84.4017 114.059 84.3317 114.666 84.3317 115.338C84.3317 116.01 84.4017 116.617 84.5417 117.158C84.6817 117.699 84.9384 118.166 85.3117 118.558Z" fill="#4B5053"/>
<path d="M55.9353 184H54.7733V176.202L53.2753 177.784L52.5753 177.07L54.9133 174.662H55.9353V184ZM61.2394 184.168C59.8021 184.168 58.7054 183.669 57.9494 182.67L58.6634 181.9C59.3074 182.721 60.1661 183.132 61.2394 183.132C61.8741 183.132 62.3921 182.941 62.7934 182.558C63.1947 182.175 63.3954 181.699 63.3954 181.13C63.3954 180.523 63.1947 180.038 62.7934 179.674C62.4014 179.301 61.8881 179.114 61.2534 179.114C60.4134 179.114 59.6947 179.408 59.0974 179.996L58.2434 179.702V174.662H63.9554V175.698H59.4054V178.946C59.9654 178.386 60.6934 178.106 61.5894 178.106C62.4107 178.106 63.1107 178.377 63.6894 178.918C64.2681 179.45 64.5574 180.173 64.5574 181.088C64.5574 182.021 64.2447 182.768 63.6194 183.328C62.9941 183.888 62.2007 184.168 61.2394 184.168ZM69.5672 184.168C68.9512 184.168 68.4052 184.028 67.9292 183.748C67.4625 183.459 67.0892 183.076 66.8092 182.6C66.5385 182.124 66.3332 181.611 66.1932 181.06C66.0625 180.509 65.9972 179.935 65.9972 179.338C65.9972 178.741 66.0625 178.167 66.1932 177.616C66.3332 177.065 66.5385 176.557 66.8092 176.09C67.0892 175.614 67.4625 175.236 67.9292 174.956C68.4052 174.667 68.9512 174.522 69.5672 174.522C70.1739 174.522 70.7152 174.667 71.1912 174.956C71.6672 175.236 72.0405 175.614 72.3112 176.09C72.5912 176.557 72.7965 177.065 72.9272 177.616C73.0672 178.167 73.1372 178.741 73.1372 179.338C73.1372 179.935 73.0672 180.509 72.9272 181.06C72.7965 181.611 72.5912 182.124 72.3112 182.6C72.0405 183.076 71.6672 183.459 71.1912 183.748C70.7152 184.028 70.1739 184.168 69.5672 184.168ZM68.1672 182.558C68.5405 182.941 69.0072 183.132 69.5672 183.132C70.1272 183.132 70.5939 182.941 70.9672 182.558C71.3405 182.166 71.5972 181.699 71.7372 181.158C71.8772 180.617 71.9472 180.01 71.9472 179.338C71.9472 178.666 71.8772 178.059 71.7372 177.518C71.5972 176.977 71.3405 176.515 70.9672 176.132C70.5939 175.749 70.1272 175.558 69.5672 175.558C69.0072 175.558 68.5405 175.749 68.1672 176.132C67.7939 176.515 67.5372 176.977 67.3972 177.518C67.2572 178.059 67.1872 178.666 67.1872 179.338C67.1872 180.01 67.2572 180.617 67.3972 181.158C67.5372 181.699 67.7939 182.166 68.1672 182.558ZM78.1395 184.168C77.5235 184.168 76.9775 184.028 76.5015 183.748C76.0348 183.459 75.6615 183.076 75.3815 182.6C75.1108 182.124 74.9055 181.611 74.7655 181.06C74.6348 180.509 74.5695 179.935 74.5695 179.338C74.5695 178.741 74.6348 178.167 74.7655 177.616C74.9055 177.065 75.1108 176.557 75.3815 176.09C75.6615 175.614 76.0348 175.236 76.5015 174.956C76.9775 174.667 77.5235 174.522 78.1395 174.522C78.7461 174.522 79.2875 174.667 79.7635 174.956C80.2395 175.236 80.6128 175.614 80.8835 176.09C81.1635 176.557 81.3688 177.065 81.4995 177.616C81.6395 178.167 81.7095 178.741 81.7095 179.338C81.7095 179.935 81.6395 180.509 81.4995 181.06C81.3688 181.611 81.1635 182.124 80.8835 182.6C80.6128 183.076 80.2395 183.459 79.7635 183.748C79.2875 184.028 78.7461 184.168 78.1395 184.168ZM76.7395 182.558C77.1128 182.941 77.5795 183.132 78.1395 183.132C78.6995 183.132 79.1661 182.941 79.5395 182.558C79.9128 182.166 80.1695 181.699 80.3095 181.158C80.4495 180.617 80.5195 180.01 80.5195 179.338C80.5195 178.666 80.4495 178.059 80.3095 177.518C80.1695 176.977 79.9128 176.515 79.5395 176.132C79.1661 175.749 78.6995 175.558 78.1395 175.558C77.5795 175.558 77.1128 175.749 76.7395 176.132C76.3661 176.515 76.1095 176.977 75.9695 177.518C75.8295 178.059 75.7595 178.666 75.7595 179.338C75.7595 180.01 75.8295 180.617 75.9695 181.158C76.1095 181.699 76.3661 182.166 76.7395 182.558ZM86.7117 184.168C86.0957 184.168 85.5497 184.028 85.0737 183.748C84.6071 183.459 84.2337 183.076 83.9537 182.6C83.6831 182.124 83.4777 181.611 83.3377 181.06C83.2071 180.509 83.1417 179.935 83.1417 179.338C83.1417 178.741 83.2071 178.167 83.3377 177.616C83.4777 177.065 83.6831 176.557 83.9537 176.09C84.2337 175.614 84.6071 175.236 85.0737 174.956C85.5497 174.667 86.0957 174.522 86.7117 174.522C87.3184 174.522 87.8597 174.667 88.3357 174.956C88.8117 175.236 89.1851 175.614 89.4557 176.09C89.7357 176.557 89.9411 177.065 90.0717 177.616C90.2117 178.167 90.2817 178.741 90.2817 179.338C90.2817 179.935 90.2117 180.509 90.0717 181.06C89.9411 181.611 89.7357 182.124 89.4557 182.6C89.1851 183.076 88.8117 183.459 88.3357 183.748C87.8597 184.028 87.3184 184.168 86.7117 184.168ZM85.3117 182.558C85.6851 182.941 86.1517 183.132 86.7117 183.132C87.2717 183.132 87.7384 182.941 88.1117 182.558C88.4851 182.166 88.7417 181.699 88.8817 181.158C89.0217 180.617 89.0917 180.01 89.0917 179.338C89.0917 178.666 89.0217 178.059 88.8817 177.518C88.7417 176.977 88.4851 176.515 88.1117 176.132C87.7384 175.749 87.2717 175.558 86.7117 175.558C86.1517 175.558 85.6851 175.749 85.3117 176.132C84.9384 176.515 84.6817 176.977 84.5417 177.518C84.4017 178.059 84.3317 178.666 84.3317 179.338C84.3317 180.01 84.4017 180.617 84.5417 181.158C84.6817 181.699 84.9384 182.166 85.3117 182.558Z" fill="#4B5053"/>
<path d="M55.6208 250H54.4588V242.202L52.9608 243.784L52.2608 243.07L54.5988 240.662H55.6208V250ZM60.9949 250.168C60.3789 250.168 59.8329 250.028 59.3569 249.748C58.8903 249.459 58.5169 249.076 58.2369 248.6C57.9663 248.124 57.7609 247.611 57.6209 247.06C57.4903 246.509 57.4249 245.935 57.4249 245.338C57.4249 244.741 57.4903 244.167 57.6209 243.616C57.7609 243.065 57.9663 242.557 58.2369 242.09C58.5169 241.614 58.8903 241.236 59.3569 240.956C59.8329 240.667 60.3789 240.522 60.9949 240.522C61.6016 240.522 62.1429 240.667 62.6189 240.956C63.0949 241.236 63.4683 241.614 63.7389 242.09C64.0189 242.557 64.2243 243.065 64.3549 243.616C64.4949 244.167 64.5649 244.741 64.5649 245.338C64.5649 245.935 64.4949 246.509 64.3549 247.06C64.2243 247.611 64.0189 248.124 63.7389 248.6C63.4683 249.076 63.0949 249.459 62.6189 249.748C62.1429 250.028 61.6016 250.168 60.9949 250.168ZM59.5949 248.558C59.9683 248.941 60.4349 249.132 60.9949 249.132C61.5549 249.132 62.0216 248.941 62.3949 248.558C62.7683 248.166 63.0249 247.699 63.1649 247.158C63.3049 246.617 63.3749 246.01 63.3749 245.338C63.3749 244.666 63.3049 244.059 63.1649 243.518C63.0249 242.977 62.7683 242.515 62.3949 242.132C62.0216 241.749 61.5549 241.558 60.9949 241.558C60.4349 241.558 59.9683 241.749 59.5949 242.132C59.2216 242.515 58.9649 242.977 58.8249 243.518C58.6849 244.059 58.6149 244.666 58.6149 245.338C58.6149 246.01 58.6849 246.617 58.8249 247.158C58.9649 247.699 59.2216 248.166 59.5949 248.558ZM69.5672 250.168C68.9512 250.168 68.4052 250.028 67.9292 249.748C67.4625 249.459 67.0892 249.076 66.8092 248.6C66.5385 248.124 66.3332 247.611 66.1932 247.06C66.0625 246.509 65.9972 245.935 65.9972 245.338C65.9972 244.741 66.0625 244.167 66.1932 243.616C66.3332 243.065 66.5385 242.557 66.8092 242.09C67.0892 241.614 67.4625 241.236 67.9292 240.956C68.4052 240.667 68.9512 240.522 69.5672 240.522C70.1739 240.522 70.7152 240.667 71.1912 240.956C71.6672 241.236 72.0405 241.614 72.3112 242.09C72.5912 242.557 72.7965 243.065 72.9272 243.616C73.0672 244.167 73.1372 244.741 73.1372 245.338C73.1372 245.935 73.0672 246.509 72.9272 247.06C72.7965 247.611 72.5912 248.124 72.3112 248.6C72.0405 249.076 71.6672 249.459 71.1912 249.748C70.7152 250.028 70.1739 250.168 69.5672 250.168ZM68.1672 248.558C68.5405 248.941 69.0072 249.132 69.5672 249.132C70.1272 249.132 70.5939 248.941 70.9672 248.558C71.3405 248.166 71.5972 247.699 71.7372 247.158C71.8772 246.617 71.9472 246.01 71.9472 245.338C71.9472 244.666 71.8772 244.059 71.7372 243.518C71.5972 242.977 71.3405 242.515 70.9672 242.132C70.5939 241.749 70.1272 241.558 69.5672 241.558C69.0072 241.558 68.5405 241.749 68.1672 242.132C67.7939 242.515 67.5372 242.977 67.3972 243.518C67.2572 244.059 67.1872 244.666 67.1872 245.338C67.1872 246.01 67.2572 246.617 67.3972 247.158C67.5372 247.699 67.7939 248.166 68.1672 248.558ZM78.1395 250.168C77.5235 250.168 76.9775 250.028 76.5015 249.748C76.0348 249.459 75.6615 249.076 75.3815 248.6C75.1108 248.124 74.9055 247.611 74.7655 247.06C74.6348 246.509 74.5695 245.935 74.5695 245.338C74.5695 244.741 74.6348 244.167 74.7655 243.616C74.9055 243.065 75.1108 242.557 75.3815 242.09C75.6615 241.614 76.0348 241.236 76.5015 240.956C76.9775 240.667 77.5235 240.522 78.1395 240.522C78.7461 240.522 79.2875 240.667 79.7635 240.956C80.2395 241.236 80.6128 241.614 80.8835 242.09C81.1635 242.557 81.3688 243.065 81.4995 243.616C81.6395 244.167 81.7095 244.741 81.7095 245.338C81.7095 245.935 81.6395 246.509 81.4995 247.06C81.3688 247.611 81.1635 248.124 80.8835 248.6C80.6128 249.076 80.2395 249.459 79.7635 249.748C79.2875 250.028 78.7461 250.168 78.1395 250.168ZM76.7395 248.558C77.1128 248.941 77.5795 249.132 78.1395 249.132C78.6995 249.132 79.1661 248.941 79.5395 248.558C79.9128 248.166 80.1695 247.699 80.3095 247.158C80.4495 246.617 80.5195 246.01 80.5195 245.338C80.5195 244.666 80.4495 244.059 80.3095 243.518C80.1695 242.977 79.9128 242.515 79.5395 242.132C79.1661 241.749 78.6995 241.558 78.1395 241.558C77.5795 241.558 77.1128 241.749 76.7395 242.132C76.3661 242.515 76.1095 242.977 75.9695 243.518C75.8295 244.059 75.7595 244.666 75.7595 245.338C75.7595 246.01 75.8295 246.617 75.9695 247.158C76.1095 247.699 76.3661 248.166 76.7395 248.558ZM86.7117 250.168C86.0957 250.168 85.5497 250.028 85.0737 249.748C84.6071 249.459 84.2337 249.076 83.9537 248.6C83.6831 248.124 83.4777 247.611 83.3377 247.06C83.2071 246.509 83.1417 245.935 83.1417 245.338C83.1417 244.741 83.2071 244.167 83.3377 243.616C83.4777 243.065 83.6831 242.557 83.9537 242.09C84.2337 241.614 84.6071 241.236 85.0737 240.956C85.5497 240.667 86.0957 240.522 86.7117 240.522C87.3184 240.522 87.8597 240.667 88.3357 240.956C88.8117 241.236 89.1851 241.614 89.4557 242.09C89.7357 242.557 89.9411 243.065 90.0717 243.616C90.2117 244.167 90.2817 244.741 90.2817 245.338C90.2817 245.935 90.2117 246.509 90.0717 247.06C89.9411 247.611 89.7357 248.124 89.4557 248.6C89.1851 249.076 88.8117 249.459 88.3357 249.748C87.8597 250.028 87.3184 250.168 86.7117 250.168ZM85.3117 248.558C85.6851 248.941 86.1517 249.132 86.7117 249.132C87.2717 249.132 87.7384 248.941 88.1117 248.558C88.4851 248.166 88.7417 247.699 88.8817 247.158C89.0217 246.617 89.0917 246.01 89.0917 245.338C89.0917 244.666 89.0217 244.059 88.8817 243.518C88.7417 242.977 88.4851 242.515 88.1117 242.132C87.7384 241.749 87.2717 241.558 86.7117 241.558C86.1517 241.558 85.6851 241.749 85.3117 242.132C84.9384 242.515 84.6817 242.977 84.5417 243.518C84.4017 244.059 84.3317 244.666 84.3317 245.338C84.3317 246.01 84.4017 246.617 84.5417 247.158C84.6817 247.699 84.9384 248.166 85.3117 248.558Z" fill="#4B5053"/>
<path d="M61.2394 314.168C59.8021 314.168 58.7054 313.669 57.9494 312.67L58.6634 311.9C59.3074 312.721 60.1661 313.132 61.2394 313.132C61.8741 313.132 62.3921 312.941 62.7934 312.558C63.1947 312.175 63.3954 311.699 63.3954 311.13C63.3954 310.523 63.1947 310.038 62.7934 309.674C62.4014 309.301 61.8881 309.114 61.2534 309.114C60.4134 309.114 59.6947 309.408 59.0974 309.996L58.2434 309.702V304.662H63.9554V305.698H59.4054V308.946C59.9654 308.386 60.6934 308.106 61.5894 308.106C62.4107 308.106 63.1107 308.377 63.6894 308.918C64.2681 309.45 64.5574 310.173 64.5574 311.088C64.5574 312.021 64.2447 312.768 63.6194 313.328C62.9941 313.888 62.2007 314.168 61.2394 314.168ZM69.5672 314.168C68.9512 314.168 68.4052 314.028 67.9292 313.748C67.4625 313.459 67.0892 313.076 66.8092 312.6C66.5385 312.124 66.3332 311.611 66.1932 311.06C66.0625 310.509 65.9972 309.935 65.9972 309.338C65.9972 308.741 66.0625 308.167 66.1932 307.616C66.3332 307.065 66.5385 306.557 66.8092 306.09C67.0892 305.614 67.4625 305.236 67.9292 304.956C68.4052 304.667 68.9512 304.522 69.5672 304.522C70.1739 304.522 70.7152 304.667 71.1912 304.956C71.6672 305.236 72.0405 305.614 72.3112 306.09C72.5912 306.557 72.7965 307.065 72.9272 307.616C73.0672 308.167 73.1372 308.741 73.1372 309.338C73.1372 309.935 73.0672 310.509 72.9272 311.06C72.7965 311.611 72.5912 312.124 72.3112 312.6C72.0405 313.076 71.6672 313.459 71.1912 313.748C70.7152 314.028 70.1739 314.168 69.5672 314.168ZM68.1672 312.558C68.5405 312.941 69.0072 313.132 69.5672 313.132C70.1272 313.132 70.5939 312.941 70.9672 312.558C71.3405 312.166 71.5972 311.699 71.7372 311.158C71.8772 310.617 71.9472 310.01 71.9472 309.338C71.9472 308.666 71.8772 308.059 71.7372 307.518C71.5972 306.977 71.3405 306.515 70.9672 306.132C70.5939 305.749 70.1272 305.558 69.5672 305.558C69.0072 305.558 68.5405 305.749 68.1672 306.132C67.7939 306.515 67.5372 306.977 67.3972 307.518C67.2572 308.059 67.1872 308.666 67.1872 309.338C67.1872 310.01 67.2572 310.617 67.3972 311.158C67.5372 311.699 67.7939 312.166 68.1672 312.558ZM78.1395 314.168C77.5235 314.168 76.9775 314.028 76.5015 313.748C76.0348 313.459 75.6615 313.076 75.3815 312.6C75.1108 312.124 74.9055 311.611 74.7655 311.06C74.6348 310.509 74.5695 309.935 74.5695 309.338C74.5695 308.741 74.6348 308.167 74.7655 307.616C74.9055 307.065 75.1108 306.557 75.3815 306.09C75.6615 305.614 76.0348 305.236 76.5015 304.956C76.9775 304.667 77.5235 304.522 78.1395 304.522C78.7461 304.522 79.2875 304.667 79.7635 304.956C80.2395 305.236 80.6128 305.614 80.8835 306.09C81.1635 306.557 81.3688 307.065 81.4995 307.616C81.6395 308.167 81.7095 308.741 81.7095 309.338C81.7095 309.935 81.6395 310.509 81.4995 311.06C81.3688 311.611 81.1635 312.124 80.8835 312.6C80.6128 313.076 80.2395 313.459 79.7635 313.748C79.2875 314.028 78.7461 314.168 78.1395 314.168ZM76.7395 312.558C77.1128 312.941 77.5795 313.132 78.1395 313.132C78.6995 313.132 79.1661 312.941 79.5395 312.558C79.9128 312.166 80.1695 311.699 80.3095 311.158C80.4495 310.617 80.5195 310.01 80.5195 309.338C80.5195 308.666 80.4495 308.059 80.3095 307.518C80.1695 306.977 79.9128 306.515 79.5395 306.132C79.1661 305.749 78.6995 305.558 78.1395 305.558C77.5795 305.558 77.1128 305.749 76.7395 306.132C76.3661 306.515 76.1095 306.977 75.9695 307.518C75.8295 308.059 75.7595 308.666 75.7595 309.338C75.7595 310.01 75.8295 310.617 75.9695 311.158C76.1095 311.699 76.3661 312.166 76.7395 312.558ZM86.7117 314.168C86.0957 314.168 85.5497 314.028 85.0737 313.748C84.6071 313.459 84.2337 313.076 83.9537 312.6C83.6831 312.124 83.4777 311.611 83.3377 311.06C83.2071 310.509 83.1417 309.935 83.1417 309.338C83.1417 308.741 83.2071 308.167 83.3377 307.616C83.4777 307.065 83.6831 306.557 83.9537 306.09C84.2337 305.614 84.6071 305.236 85.0737 304.956C85.5497 304.667 86.0957 304.522 86.7117 304.522C87.3184 304.522 87.8597 304.667 88.3357 304.956C88.8117 305.236 89.1851 305.614 89.4557 306.09C89.7357 306.557 89.9411 307.065 90.0717 307.616C90.2117 308.167 90.2817 308.741 90.2817 309.338C90.2817 309.935 90.2117 310.509 90.0717 311.06C89.9411 311.611 89.7357 312.124 89.4557 312.6C89.1851 313.076 88.8117 313.459 88.3357 313.748C87.8597 314.028 87.3184 314.168 86.7117 314.168ZM85.3117 312.558C85.6851 312.941 86.1517 313.132 86.7117 313.132C87.2717 313.132 87.7384 312.941 88.1117 312.558C88.4851 312.166 88.7417 311.699 88.8817 311.158C89.0217 310.617 89.0917 310.01 89.0917 309.338C89.0917 308.666 89.0217 308.059 88.8817 307.518C88.7417 306.977 88.4851 306.515 88.1117 306.132C87.7384 305.749 87.2717 305.558 86.7117 305.558C86.1517 305.558 85.6851 305.749 85.3117 306.132C84.9384 306.515 84.6817 306.977 84.5417 307.518C84.4017 308.059 84.3317 308.666 84.3317 309.338C84.3317 310.01 84.4017 310.617 84.5417 311.158C84.6817 311.699 84.9384 312.166 85.3117 312.558Z" fill="#4B5053"/>
<path d="M86.7117 379.168C86.0957 379.168 85.5497 379.028 85.0737 378.748C84.6071 378.459 84.2337 378.076 83.9537 377.6C83.6831 377.124 83.4777 376.611 83.3377 376.06C83.2071 375.509 83.1417 374.935 83.1417 374.338C83.1417 373.741 83.2071 373.167 83.3377 372.616C83.4777 372.065 83.6831 371.557 83.9537 371.09C84.2337 370.614 84.6071 370.236 85.0737 369.956C85.5497 369.667 86.0957 369.522 86.7117 369.522C87.3184 369.522 87.8597 369.667 88.3357 369.956C88.8117 370.236 89.1851 370.614 89.4557 371.09C89.7357 371.557 89.9411 372.065 90.0717 372.616C90.2117 373.167 90.2817 373.741 90.2817 374.338C90.2817 374.935 90.2117 375.509 90.0717 376.06C89.9411 376.611 89.7357 377.124 89.4557 377.6C89.1851 378.076 88.8117 378.459 88.3357 378.748C87.8597 379.028 87.3184 379.168 86.7117 379.168ZM85.3117 377.558C85.6851 377.941 86.1517 378.132 86.7117 378.132C87.2717 378.132 87.7384 377.941 88.1117 377.558C88.4851 377.166 88.7417 376.699 88.8817 376.158C89.0217 375.617 89.0917 375.01 89.0917 374.338C89.0917 373.666 89.0217 373.059 88.8817 372.518C88.7417 371.977 88.4851 371.515 88.1117 371.132C87.7384 370.749 87.2717 370.558 86.7117 370.558C86.1517 370.558 85.6851 370.749 85.3117 371.132C84.9384 371.515 84.6817 371.977 84.5417 372.518C84.4017 373.059 84.3317 373.666 84.3317 374.338C84.3317 375.01 84.4017 375.617 84.5417 376.158C84.6817 376.699 84.9384 377.166 85.3117 377.558Z" fill="#4B5053"/>
<path d="M137.782 397H136.62V389.202L135.122 390.784L134.422 390.07L136.76 387.662H137.782V397Z" fill="#4B5053"/>
<path d="M228.553 397H222.141V396.076C223.111 395.311 223.863 394.704 224.395 394.256C224.936 393.799 225.454 393.318 225.949 392.814C226.453 392.301 226.807 391.848 227.013 391.456C227.218 391.055 227.321 390.658 227.321 390.266C227.321 389.706 227.129 389.281 226.747 388.992C226.364 388.703 225.907 388.558 225.375 388.558C224.301 388.558 223.457 388.95 222.841 389.734L222.127 388.992C222.481 388.525 222.943 388.166 223.513 387.914C224.091 387.653 224.712 387.522 225.375 387.522C226.224 387.522 226.957 387.76 227.573 388.236C228.198 388.712 228.511 389.389 228.511 390.266C228.511 391.134 228.137 392.002 227.391 392.87C226.644 393.729 225.505 394.76 223.975 395.964H228.553V397Z" fill="#4B5053"/>
<path d="M314.328 397.168C313.581 397.168 312.918 397.023 312.34 396.734C311.761 396.445 311.318 396.076 311.01 395.628L311.696 394.9C311.976 395.273 312.344 395.572 312.802 395.796C313.259 396.02 313.758 396.132 314.3 396.132C314.981 396.132 315.513 395.978 315.896 395.67C316.288 395.353 316.484 394.923 316.484 394.382C316.484 393.822 316.274 393.407 315.854 393.136C315.443 392.865 314.878 392.73 314.16 392.73C313.609 392.73 313.287 392.735 313.194 392.744V391.68C313.296 391.689 313.618 391.694 314.16 391.694C314.794 391.694 315.312 391.568 315.714 391.316C316.124 391.055 316.33 390.667 316.33 390.154C316.33 389.659 316.129 389.272 315.728 388.992C315.336 388.703 314.841 388.558 314.244 388.558C313.301 388.558 312.48 388.936 311.78 389.692L311.136 388.964C311.929 388.003 312.993 387.522 314.328 387.522C315.252 387.522 316.008 387.746 316.596 388.194C317.193 388.633 317.492 389.239 317.492 390.014C317.492 390.63 317.286 391.125 316.876 391.498C316.465 391.862 315.998 392.091 315.476 392.184C315.989 392.231 316.474 392.455 316.932 392.856C317.398 393.257 317.632 393.799 317.632 394.48C317.632 395.273 317.333 395.922 316.736 396.426C316.138 396.921 315.336 397.168 314.328 397.168Z" fill="#4B5053"/>
<path d="M404.645 397H403.483V394.634H399.045V393.668L403.049 387.662H404.645V393.612H405.961V394.634H404.645V397ZM403.483 393.612V388.74L400.207 393.612H403.483Z" fill="#4B5053"/>
<path d="M492.585 397.168C491.148 397.168 490.051 396.669 489.295 395.67L490.009 394.9C490.653 395.721 491.512 396.132 492.585 396.132C493.22 396.132 493.738 395.941 494.139 395.558C494.54 395.175 494.741 394.699 494.741 394.13C494.741 393.523 494.54 393.038 494.139 392.674C493.747 392.301 493.234 392.114 492.599 392.114C491.759 392.114 491.04 392.408 490.443 392.996L489.589 392.702V387.662H495.301V388.698H490.751V391.946C491.311 391.386 492.039 391.106 492.935 391.106C493.756 391.106 494.456 391.377 495.035 391.918C495.614 392.45 495.903 393.173 495.903 394.088C495.903 395.021 495.59 395.768 494.965 396.328C494.34 396.888 493.546 397.168 492.585 397.168Z" fill="#4B5053"/>
<path d="M581.676 397.168C581.051 397.168 580.5 397.037 580.024 396.776C579.548 396.515 579.17 396.16 578.89 395.712C578.62 395.255 578.414 394.746 578.274 394.186C578.144 393.617 578.078 393.005 578.078 392.352C578.078 391.475 578.209 390.681 578.47 389.972C578.732 389.263 579.152 388.679 579.73 388.222C580.318 387.755 581.032 387.522 581.872 387.522C582.946 387.522 583.809 387.895 584.462 388.642L583.874 389.51C583.333 388.875 582.666 388.558 581.872 388.558C581.294 388.558 580.799 388.74 580.388 389.104C579.987 389.468 579.693 389.921 579.506 390.462C579.329 390.994 579.24 391.582 579.24 392.226C579.24 392.385 579.245 392.506 579.254 392.59C579.488 392.217 579.847 391.881 580.332 391.582C580.827 391.283 581.35 391.134 581.9 391.134C582.787 391.134 583.515 391.395 584.084 391.918C584.663 392.431 584.952 393.164 584.952 394.116C584.952 394.965 584.654 395.689 584.056 396.286C583.459 396.874 582.666 397.168 581.676 397.168ZM581.634 396.132C582.306 396.132 582.829 395.931 583.202 395.53C583.585 395.119 583.776 394.662 583.776 394.158C583.776 393.505 583.576 393.005 583.174 392.66C582.773 392.315 582.255 392.142 581.62 392.142C581.163 392.142 580.724 392.273 580.304 392.534C579.884 392.786 579.544 393.122 579.282 393.542C579.348 394.233 579.572 394.839 579.954 395.362C580.337 395.875 580.897 396.132 581.634 396.132Z" fill="#4B5053"/>
<path d="M669.879 397H668.591L672.357 388.698H667.331V387.662H673.701V388.46L669.879 397Z" fill="#4B5053"/>
<path d="M761.887 396.482C761.252 396.939 760.459 397.168 759.507 397.168C758.555 397.168 757.757 396.939 757.113 396.482C756.478 396.025 756.161 395.409 756.161 394.634C756.161 394.046 756.371 393.537 756.791 393.108C757.22 392.679 757.752 392.371 758.387 392.184C757.789 392.016 757.295 391.745 756.903 391.372C756.511 390.989 756.315 390.513 756.315 389.944C756.315 389.16 756.632 388.563 757.267 388.152C757.901 387.732 758.648 387.522 759.507 387.522C760.365 387.522 761.112 387.732 761.747 388.152C762.391 388.563 762.713 389.16 762.713 389.944C762.713 390.513 762.517 390.989 762.125 391.372C761.733 391.745 761.233 392.016 760.627 392.184C761.261 392.371 761.789 392.679 762.209 393.108C762.638 393.537 762.853 394.046 762.853 394.634C762.853 395.399 762.531 396.015 761.887 396.482ZM759.507 391.708C759.693 391.68 759.88 391.633 760.067 391.568C760.263 391.503 760.482 391.414 760.725 391.302C760.967 391.181 761.163 391.017 761.313 390.812C761.462 390.597 761.537 390.359 761.537 390.098C761.537 389.631 761.341 389.258 760.949 388.978C760.566 388.698 760.085 388.558 759.507 388.558C758.919 388.558 758.433 388.698 758.051 388.978C757.668 389.258 757.477 389.631 757.477 390.098C757.477 390.359 757.551 390.597 757.701 390.812C757.85 391.017 758.046 391.181 758.289 391.302C758.531 391.414 758.746 391.503 758.933 391.568C759.129 391.624 759.32 391.671 759.507 391.708ZM759.507 396.132C760.104 396.132 760.613 395.983 761.033 395.684C761.462 395.385 761.677 394.993 761.677 394.508C761.677 394.135 761.527 393.808 761.229 393.528C760.939 393.239 760.641 393.038 760.333 392.926C760.034 392.805 759.759 392.73 759.507 392.702C759.255 392.73 758.975 392.805 758.667 392.926C758.368 393.038 758.069 393.239 757.771 393.528C757.472 393.808 757.323 394.135 757.323 394.508C757.323 394.993 757.533 395.385 757.953 395.684C758.382 395.983 758.9 396.132 759.507 396.132Z" fill="#4B5053"/>
<path d="M848.13 397.154C847.057 397.154 846.194 396.781 845.54 396.034L846.128 395.166C846.67 395.801 847.337 396.118 848.13 396.118C848.728 396.118 849.232 395.931 849.642 395.558C850.053 395.185 850.342 394.732 850.51 394.2C850.678 393.668 850.762 393.089 850.762 392.464C850.762 392.296 850.758 392.17 850.748 392.086C850.515 392.459 850.156 392.795 849.67 393.094C849.185 393.393 848.667 393.542 848.116 393.542C847.23 393.542 846.497 393.285 845.918 392.772C845.34 392.249 845.05 391.512 845.05 390.56C845.05 389.72 845.349 389.001 845.946 388.404C846.544 387.807 847.332 387.508 848.312 387.508C848.947 387.508 849.502 387.639 849.978 387.9C850.454 388.161 850.828 388.521 851.098 388.978C851.378 389.435 851.584 389.944 851.714 390.504C851.854 391.064 851.924 391.675 851.924 392.338C851.924 393.215 851.794 394.009 851.532 394.718C851.271 395.418 850.846 396.001 850.258 396.468C849.68 396.925 848.97 397.154 848.13 397.154ZM848.382 392.534C848.84 392.534 849.278 392.408 849.698 392.156C850.128 391.904 850.464 391.568 850.706 391.148C850.65 390.457 850.431 389.851 850.048 389.328C849.666 388.805 849.106 388.544 848.368 388.544C847.706 388.544 847.183 388.749 846.8 389.16C846.418 389.571 846.226 390.023 846.226 390.518C846.226 391.171 846.427 391.671 846.828 392.016C847.23 392.361 847.748 392.534 848.382 392.534Z" fill="#4B5053"/>
<path d="M934.496 397H933.334V389.202L931.836 390.784L931.136 390.07L933.474 387.662H934.496V397ZM939.87 397.168C939.254 397.168 938.708 397.028 938.232 396.748C937.765 396.459 937.392 396.076 937.112 395.6C936.841 395.124 936.636 394.611 936.496 394.06C936.365 393.509 936.3 392.935 936.3 392.338C936.3 391.741 936.365 391.167 936.496 390.616C936.636 390.065 936.841 389.557 937.112 389.09C937.392 388.614 937.765 388.236 938.232 387.956C938.708 387.667 939.254 387.522 939.87 387.522C940.477 387.522 941.018 387.667 941.494 387.956C941.97 388.236 942.343 388.614 942.614 389.09C942.894 389.557 943.099 390.065 943.23 390.616C943.37 391.167 943.44 391.741 943.44 392.338C943.44 392.935 943.37 393.509 943.23 394.06C943.099 394.611 942.894 395.124 942.614 395.6C942.343 396.076 941.97 396.459 941.494 396.748C941.018 397.028 940.477 397.168 939.87 397.168ZM938.47 395.558C938.843 395.941 939.31 396.132 939.87 396.132C940.43 396.132 940.897 395.941 941.27 395.558C941.643 395.166 941.9 394.699 942.04 394.158C942.18 393.617 942.25 393.01 942.25 392.338C942.25 391.666 942.18 391.059 942.04 390.518C941.9 389.977 941.643 389.515 941.27 389.132C940.897 388.749 940.43 388.558 939.87 388.558C939.31 388.558 938.843 388.749 938.47 389.132C938.097 389.515 937.84 389.977 937.7 390.518C937.56 391.059 937.49 391.666 937.49 392.338C937.49 393.01 937.56 393.617 937.7 394.158C937.84 394.699 938.097 395.166 938.47 395.558Z" fill="#4B5053"/>
<path d="M1024.41 397H1023.25V389.202L1021.75 390.784L1021.05 390.07L1023.39 387.662H1024.41V397ZM1029.15 397H1027.99V389.202L1026.49 390.784L1025.79 390.07L1028.13 387.662H1029.15V397Z" fill="#4B5053"/>
<path d="M1112.67 397H1111.5V389.202L1110.01 390.784L1109.31 390.07L1111.64 387.662H1112.67V397ZM1120.92 397H1114.51V396.076C1115.48 395.311 1116.23 394.704 1116.77 394.256C1117.31 393.799 1117.83 393.318 1118.32 392.814C1118.82 392.301 1119.18 391.848 1119.38 391.456C1119.59 391.055 1119.69 390.658 1119.69 390.266C1119.69 389.706 1119.5 389.281 1119.12 388.992C1118.74 388.703 1118.28 388.558 1117.75 388.558C1116.67 388.558 1115.83 388.95 1115.21 389.734L1114.5 388.992C1114.85 388.525 1115.32 388.166 1115.88 387.914C1116.46 387.653 1117.08 387.522 1117.75 387.522C1118.6 387.522 1119.33 387.76 1119.94 388.236C1120.57 388.712 1120.88 389.389 1120.88 390.266C1120.88 391.134 1120.51 392.002 1119.76 392.87C1119.02 393.729 1117.88 394.76 1116.35 395.964H1120.92V397Z" fill="#4B5053"/>
<rect x="136" y="50" width="1" height="330" fill="#E8EDF0"/>
<rect x="225" y="50" width="1" height="330" fill="#E8EDF0"/>
<rect x="314" y="50" width="1" height="330" fill="#E8EDF0"/>
<rect x="403" y="50" width="1" height="330" fill="#E8EDF0"/>
<rect x="492" y="50" width="1" height="330" fill="#E8EDF0"/>
<rect x="581" y="50" width="1" height="330" fill="#E8EDF0"/>
<rect x="670" y="50" width="1" height="330" fill="#E8EDF0"/>
<rect x="759" y="50" width="1" height="330" fill="#E8EDF0"/>
<rect x="848" y="50" width="1" height="330" fill="#E8EDF0"/>
<rect x="937" y="50" width="1" height="330" fill="#E8EDF0"/>
<rect x="1026" y="50" width="1" height="330" fill="#E8EDF0"/>
<rect x="1115" y="50" width="1" height="330" fill="#E8EDF0"/>
<rect x="1167" y="375" width="1.00005" height="1063" transform="rotate(90 1167 375)" fill="#C3D0D3"/>
<rect x="1167" y="310" width="1.00005" height="1063" transform="rotate(90 1167 310)" fill="#E8EDF0"/>
<rect x="1167" y="245" width="1.00005" height="1063" transform="rotate(90 1167 245)" fill="#E8EDF0"/>
<rect x="1167" y="180" width="1.00005" height="1063" transform="rotate(90 1167 180)" fill="#E8EDF0"/>
<rect x="1167" y="115" width="1.00005" height="1063" transform="rotate(90 1167 115)" fill="#E8EDF0"/>
<rect x="1167" y="50" width="1.00005" height="1063" transform="rotate(90 1167 50)" fill="#E8EDF0"/>
<rect x="103" y="50.0004" width="1" height="326" fill="#C3D0D3"/>
<rect x="104" y="310" width="4" height="1" fill="#C3D0D3"/>
<rect x="104" y="245" width="4" height="1" fill="#C3D0D3"/>
<rect x="104" y="180" width="4" height="1" fill="#C3D0D3"/>
<rect x="104" y="115" width="4" height="1" fill="#C3D0D3"/>
<rect x="104" y="50.0004" width="4" height="1" fill="#C3D0D3"/>
<rect x="103" y="50" width="4" height="1" transform="rotate(-90 103 50)" fill="#C3D0D3"/>
<rect x="137" y="376" width="4" height="1" transform="rotate(90 137 376)" fill="#C3D0D3"/>
<rect x="226" y="376" width="4" height="1" transform="rotate(90 226 376)" fill="#C3D0D3"/>
<rect x="315" y="376" width="4" height="1" transform="rotate(90 315 376)" fill="#C3D0D3"/>
<rect x="404" y="376" width="4" height="1" transform="rotate(90 404 376)" fill="#C3D0D3"/>
<rect x="493" y="376" width="4" height="1" transform="rotate(90 493 376)" fill="#C3D0D3"/>
<rect x="582" y="376" width="4" height="1" transform="rotate(90 582 376)" fill="#C3D0D3"/>
<rect x="671" y="376" width="4" height="1" transform="rotate(90 671 376)" fill="#C3D0D3"/>
<rect x="760" y="376" width="4" height="1" transform="rotate(90 760 376)" fill="#C3D0D3"/>
<rect x="849" y="376" width="4" height="1" transform="rotate(90 849 376)" fill="#C3D0D3"/>
<rect x="938" y="376" width="4" height="1" transform="rotate(90 938 376)" fill="#C3D0D3"/>
<rect x="1027" y="376" width="4" height="1" transform="rotate(90 1027 376)" fill="#C3D0D3"/>
<rect x="1116" y="376" width="4" height="1" transform="rotate(90 1116 376)" fill="#C3D0D3"/>
<path d="M136.5 245.5L226 241.5L314.5 235.5L403.5 222.5L492 211.5L581.5 208L670 201L759.5 195L848.5 191L937 187L1026.5 180.5H1116" stroke="#466BF0" stroke-width="2" stroke-linecap="round"/>
<circle cx="136.5" cy="245.5" r="2.5" fill="#466BF0"/>
<circle cx="225.5" cy="241.5" r="2.5" fill="#466BF0"/>
<circle cx="314.5" cy="235.5" r="2.5" fill="#466BF0"/>
<circle cx="403.5" cy="222.5" r="2.5" fill="#466BF0"/>
<circle cx="492.5" cy="211.5" r="2.5" fill="#466BF0"/>
<circle cx="581.5" cy="207.5" r="2.5" fill="#466BF0"/>
<circle cx="670.5" cy="200.5" r="2.5" fill="#466BF0"/>
<circle cx="759.5" cy="194.5" r="2.5" fill="#466BF0"/>
<circle cx="848.5" cy="190.5" r="2.5" fill="#466BF0"/>
<circle cx="937.5" cy="186.5" r="2.5" fill="#466BF0"/>
<circle cx="1026.5" cy="180.5" r="2.5" fill="#466BF0"/>
<circle cx="1115.5" cy="180.5" r="2.5" fill="#466BF0"/>
<path d="M136.5 245.5H225.5L314.5 242L403.5 239L493 233.5L582 230.5L670 227.5L760 224.5L848.5 218.5L937.5 214L1026 204L1115.5 195" stroke="#58B9FF" stroke-linecap="round" stroke-dasharray="4 4"/>
<path d="M18 281.18L18 282.935L7.995 282.935L7.995 281.18L18 281.18ZM18 272.618L18 274.193L13.47 274.193C12.33 274.193 11.97 274.778 11.97 275.663C11.97 276.458 12.45 277.148 12.93 277.523L18 277.523L18 279.098L10.755 279.098L10.755 277.523L11.73 277.523C11.16 277.043 10.575 276.098 10.575 274.958C10.575 273.398 11.415 272.618 12.9 272.618L18 272.618ZM18 266.973L18 268.668L10.755 271.623L10.755 269.928L16.185 267.813L10.755 265.698L10.755 264.018L18 266.973ZM18.18 259.669C18.18 261.859 16.665 263.464 14.37 263.464C12.27 263.464 10.575 261.934 10.575 259.789C10.575 257.614 12.225 256.234 14.505 256.234L14.895 256.234L14.895 261.814C15.975 261.694 16.89 260.884 16.89 259.519C16.89 258.799 16.605 257.974 16.08 257.449L17.115 256.729C17.805 257.464 18.18 258.529 18.18 259.669ZM13.77 257.749C12.915 257.794 11.865 258.379 11.865 259.804C11.865 261.139 12.9 261.769 13.77 261.829L13.77 257.749ZM18.18 252.189C18.18 253.434 17.775 254.544 17.04 255.294L15.915 254.574C16.44 254.064 16.92 253.059 16.92 252.129C16.92 251.184 16.53 250.689 15.96 250.689C14.535 250.689 15.555 255.069 12.765 255.069C11.58 255.069 10.575 254.049 10.575 252.219C10.575 250.989 11.01 250.059 11.58 249.414L12.69 250.074C12.21 250.509 11.82 251.304 11.82 252.219C11.82 253.044 12.21 253.554 12.72 253.554C13.995 253.554 13.035 249.174 15.915 249.174C17.205 249.174 18.18 250.239 18.18 252.189ZM18.18 245.414C18.18 246.644 17.52 247.274 16.305 247.274L12.12 247.274L12.12 248.474L10.755 248.474L10.755 247.274L8.775 247.274L8.775 245.699L10.755 245.699L10.755 244.229L12.12 244.229L12.12 245.699L15.915 245.699C16.41 245.699 16.785 245.459 16.785 245.009C16.785 244.709 16.65 244.439 16.515 244.319L17.715 243.944C17.97 244.229 18.18 244.694 18.18 245.414ZM18 232.344L18 233.919L13.275 233.919C12.495 233.919 11.97 234.264 11.97 235.119C11.97 235.824 12.45 236.484 12.93 236.799L18 236.799L18 238.374L13.275 238.374C12.495 238.374 11.97 238.704 11.97 239.559C11.97 240.264 12.465 240.909 12.93 241.239L18 241.239L18 242.814L10.755 242.814L10.755 241.239L11.73 241.239C11.295 240.924 10.575 239.979 10.575 238.869C10.575 237.789 11.115 237.129 11.895 236.889C11.25 236.484 10.575 235.524 10.575 234.429C10.575 233.109 11.295 232.344 12.765 232.344L18 232.344ZM18.18 226.944C18.18 229.134 16.665 230.739 14.37 230.739C12.27 230.739 10.575 229.209 10.575 227.064C10.575 224.889 12.225 223.509 14.505 223.509L14.895 223.509L14.895 229.089C15.975 228.969 16.89 228.159 16.89 226.794C16.89 226.074 16.605 225.249 16.08 224.724L17.115 224.004C17.805 224.739 18.18 225.804 18.18 226.944ZM13.77 225.024C12.915 225.069 11.865 225.654 11.865 227.079C11.865 228.414 12.9 229.044 13.77 229.104L13.77 225.024ZM18 215.475L18 217.05L13.47 217.05C12.33 217.05 11.97 217.635 11.97 218.52C11.97 219.315 12.45 220.005 12.93 220.38L18 220.38L18 221.955L10.755 221.955L10.755 220.38L11.73 220.38C11.16 219.9 10.575 218.955 10.575 217.815C10.575 216.255 11.415 215.475 12.9 215.475L18 215.475ZM18.18 211.239C18.18 212.469 17.52 213.099 16.305 213.099L12.12 213.099L12.12 214.299L10.755 214.299L10.755 213.099L8.775 213.099L8.775 211.524L10.755 211.524L10.755 210.054L12.12 210.054L12.12 211.524L15.915 211.524C16.41 211.524 16.785 211.284 16.785 210.834C16.785 210.534 16.65 210.264 16.515 210.144L17.715 209.769C17.97 210.054 18.18 210.519 18.18 211.239ZM18 199.642L18 201.832L7.995 205.762L7.995 203.767L16.08 200.737L7.995 197.707L7.995 195.712L18 199.642ZM18 189.646L18 191.221L17.205 191.221C17.835 191.761 18.18 192.616 18.18 193.576C18.18 194.746 17.37 196.081 15.78 196.081C14.1 196.081 13.41 194.761 13.41 193.576C13.41 192.586 13.725 191.761 14.34 191.221L13.26 191.221C12.42 191.221 11.91 191.926 11.91 192.916C11.91 193.726 12.21 194.446 12.84 195.061L11.745 195.721C10.935 194.881 10.575 193.831 10.575 192.676C10.575 191.056 11.25 189.646 13.185 189.646L18 189.646ZM17.1 192.946C17.1 192.271 16.845 191.596 16.35 191.221L15.24 191.221C14.745 191.596 14.49 192.271 14.49 192.946C14.49 193.831 15.015 194.506 15.795 194.506C16.59 194.506 17.1 193.831 17.1 192.946ZM18 186.029L18 187.604L7.99499 187.604L7.99499 186.029L18 186.029ZM18 177.521L18 179.096L17.04 179.096C17.61 179.606 18.18 180.506 18.18 181.646C18.18 183.206 17.355 183.986 15.885 183.986L10.755 183.986L10.755 182.411L15.3 182.411C16.425 182.411 16.785 181.841 16.785 180.941C16.785 180.146 16.32 179.456 15.84 179.096L10.755 179.096L10.755 177.521L18 177.521ZM18.18 172.115C18.18 174.305 16.665 175.91 14.37 175.91C12.27 175.91 10.575 174.38 10.575 172.235C10.575 170.06 12.225 168.68 14.505 168.68L14.895 168.68L14.895 174.26C15.975 174.14 16.89 173.33 16.89 171.965C16.89 171.245 16.605 170.42 16.08 169.895L17.115 169.175C17.805 169.91 18.18 170.975 18.18 172.115ZM13.77 170.195C12.915 170.24 11.865 170.825 11.865 172.25C11.865 173.585 12.9 174.215 13.77 174.275L13.77 170.195ZM20.235 160.393L20.985 161.368C19.26 162.793 16.77 163.648 14.355 163.648C11.94 163.648 9.44999 162.793 7.72499 161.368L8.45999 160.393C10.32 161.398 11.985 161.938 14.355 161.938C16.695 161.938 18.39 161.398 20.235 160.393ZM19.5 156.098L18.15 156.098C18.03 157.643 17.415 158.798 16.59 159.593L15.225 158.603C15.84 158.048 16.41 157.178 16.575 156.098L13.665 156.098C13.275 157.643 12.72 159.263 10.77 159.263C9.23999 159.263 8.02499 158.033 7.85999 156.098L6.47999 156.098L6.47999 154.898L7.87499 154.898C8.00999 153.683 8.48999 152.663 9.23999 151.883L10.545 152.873C9.97499 153.443 9.62999 154.163 9.47999 154.898L12.075 154.898C12.48 153.338 13.065 151.643 15.075 151.643C16.605 151.643 17.955 152.648 18.15 154.898L19.5 154.898L19.5 156.098ZM15.24 153.443C14.565 153.443 14.235 154.073 13.98 154.898L16.59 154.898C16.44 153.863 15.825 153.443 15.24 153.443ZM10.635 157.463C11.22 157.463 11.52 156.893 11.76 156.098L9.40499 156.098C9.50999 156.938 9.97499 157.463 10.635 157.463ZM20.235 150.781C18.39 149.791 16.695 149.251 14.355 149.251C11.985 149.251 10.32 149.791 8.45999 150.781L7.72499 149.806C9.44999 148.396 11.94 147.541 14.355 147.541C16.77 147.541 19.26 148.396 20.985 149.806L20.235 150.781Z" fill="black"/>
<path d="M760.7 19H759.155L755.135 8.995H756.56L759.935 17.635L763.31 8.995H764.735L760.7 19ZM766.553 10.72C766.353 10.72 766.178 10.65 766.028 10.51C765.878 10.36 765.803 10.18 765.803 9.97C765.803 9.76 765.878 9.58 766.028 9.43C766.178 9.28 766.353 9.205 766.553 9.205C766.763 9.205 766.943 9.28 767.093 9.43C767.243 9.58 767.318 9.76 767.318 9.97C767.318 10.18 767.243 10.36 767.093 10.51C766.943 10.65 766.763 10.72 766.553 10.72ZM767.123 19L765.998 19V11.755H767.123V19ZM771.662 19.18C770.432 19.18 769.457 18.8 768.737 18.04L769.322 17.23C769.572 17.52 769.912 17.765 770.342 17.965C770.782 18.165 771.237 18.265 771.707 18.265C772.247 18.265 772.667 18.15 772.967 17.92C773.267 17.69 773.417 17.39 773.417 17.02C773.417 16.7 773.262 16.45 772.952 16.27C772.642 16.08 772.267 15.94 771.827 15.85C771.397 15.75 770.962 15.64 770.522 15.52C770.082 15.39 769.707 15.175 769.397 14.875C769.087 14.565 768.932 14.16 768.932 13.66C768.932 13.07 769.172 12.575 769.652 12.175C770.142 11.775 770.802 11.575 771.632 11.575C772.722 11.575 773.617 11.925 774.317 12.625L773.792 13.405C773.282 12.795 772.562 12.49 771.632 12.49C771.142 12.49 770.752 12.6 770.462 12.82C770.172 13.03 770.027 13.3 770.027 13.63C770.027 13.92 770.182 14.15 770.492 14.32C770.802 14.48 771.172 14.61 771.602 14.71C772.042 14.8 772.482 14.91 772.922 15.04C773.362 15.17 773.737 15.4 774.047 15.73C774.357 16.05 774.512 16.47 774.512 16.99C774.512 17.63 774.262 18.155 773.762 18.565C773.262 18.975 772.562 19.18 771.662 19.18ZM776.895 10.72C776.695 10.72 776.52 10.65 776.37 10.51C776.22 10.36 776.145 10.18 776.145 9.97C776.145 9.76 776.22 9.58 776.37 9.43C776.52 9.28 776.695 9.205 776.895 9.205C777.105 9.205 777.285 9.28 777.435 9.43C777.585 9.58 777.66 9.76 777.66 9.97C777.66 10.18 777.585 10.36 777.435 10.51C777.285 10.65 777.105 10.72 776.895 10.72ZM777.465 19H776.34V11.755H777.465V19ZM785.469 18.085C784.819 18.815 783.954 19.18 782.874 19.18C781.794 19.18 780.924 18.815 780.264 18.085C779.614 17.355 779.289 16.45 779.289 15.37C779.289 14.29 779.614 13.39 780.264 12.67C780.924 11.94 781.794 11.575 782.874 11.575C783.954 11.575 784.819 11.94 785.469 12.67C786.129 13.39 786.459 14.29 786.459 15.37C786.459 16.45 786.129 17.355 785.469 18.085ZM781.104 17.365C781.544 17.905 782.134 18.175 782.874 18.175C783.614 18.175 784.199 17.905 784.629 17.365C785.059 16.815 785.274 16.15 785.274 15.37C785.274 14.59 785.059 13.93 784.629 13.39C784.199 12.85 783.614 12.58 782.874 12.58C782.134 12.58 781.544 12.855 781.104 13.405C780.674 13.945 780.459 14.6 780.459 15.37C780.459 16.15 780.674 16.815 781.104 17.365ZM794.308 19H793.183V14.26C793.183 13.65 793.043 13.22 792.763 12.97C792.483 12.71 792.083 12.58 791.563 12.58C791.143 12.58 790.733 12.69 790.333 12.91C789.943 13.13 789.638 13.395 789.418 13.705V19H788.293V11.755H789.418V12.805C789.698 12.475 790.073 12.19 790.543 11.95C791.013 11.7 791.498 11.575 791.998 11.575C793.538 11.575 794.308 12.355 794.308 13.915V19ZM805.207 19.18C803.747 19.18 802.522 18.7 801.532 17.74C800.552 16.77 800.062 15.525 800.062 14.005C800.062 12.485 800.552 11.245 801.532 10.285C802.522 9.315 803.747 8.83 805.207 8.83C806.807 8.83 808.072 9.49 809.002 10.81L807.952 11.395C807.662 10.965 807.272 10.615 806.782 10.345C806.292 10.075 805.767 9.94 805.207 9.94C804.107 9.94 803.187 10.325 802.447 11.095C801.717 11.855 801.352 12.825 801.352 14.005C801.352 15.185 801.717 16.16 802.447 16.93C803.187 17.69 804.107 18.07 805.207 18.07C805.767 18.07 806.292 17.94 806.782 17.68C807.272 17.41 807.662 17.055 807.952 16.615L809.017 17.2C808.047 18.52 806.777 19.18 805.207 19.18ZM816.214 19H815.089V18.175C814.479 18.845 813.679 19.18 812.689 19.18C812.019 19.18 811.429 18.965 810.919 18.535C810.409 18.105 810.154 17.52 810.154 16.78C810.154 16.02 810.404 15.435 810.904 15.025C811.414 14.605 812.009 14.395 812.689 14.395C813.719 14.395 814.519 14.725 815.089 15.385V14.08C815.089 13.6 814.919 13.225 814.579 12.955C814.239 12.685 813.799 12.55 813.259 12.55C812.409 12.55 811.669 12.885 811.039 13.555L810.514 12.775C811.284 11.975 812.249 11.575 813.409 11.575C814.239 11.575 814.914 11.775 815.434 12.175C815.954 12.575 816.214 13.19 816.214 14.02V19ZM813.094 18.37C813.994 18.37 814.659 18.07 815.089 17.47V16.105C814.659 15.505 813.994 15.205 813.094 15.205C812.574 15.205 812.144 15.355 811.804 15.655C811.474 15.945 811.309 16.325 811.309 16.795C811.309 17.255 811.474 17.635 811.804 17.935C812.144 18.225 812.574 18.37 813.094 18.37ZM822.039 19.18C821.019 19.18 820.204 18.755 819.594 17.905V21.76H818.469V11.755H819.594V12.835C819.864 12.455 820.214 12.15 820.644 11.92C821.074 11.69 821.539 11.575 822.039 11.575C822.999 11.575 823.774 11.92 824.364 12.61C824.964 13.29 825.264 14.21 825.264 15.37C825.264 16.53 824.964 17.455 824.364 18.145C823.774 18.835 822.999 19.18 822.039 19.18ZM821.754 18.175C822.464 18.175 823.029 17.915 823.449 17.395C823.869 16.865 824.079 16.19 824.079 15.37C824.079 14.55 823.869 13.88 823.449 13.36C823.029 12.84 822.464 12.58 821.754 12.58C821.324 12.58 820.904 12.695 820.494 12.925C820.094 13.145 819.794 13.415 819.594 13.735V17.005C819.794 17.335 820.094 17.615 820.494 17.845C820.904 18.065 821.324 18.175 821.754 18.175ZM827.608 10.72C827.408 10.72 827.233 10.65 827.083 10.51C826.933 10.36 826.858 10.18 826.858 9.97C826.858 9.76 826.933 9.58 827.083 9.43C827.233 9.28 827.408 9.205 827.608 9.205C827.818 9.205 827.998 9.28 828.148 9.43C828.298 9.58 828.373 9.76 828.373 9.97C828.373 10.18 828.298 10.36 828.148 10.51C827.998 10.65 827.818 10.72 827.608 10.72ZM828.178 19H827.053V11.755H828.178V19ZM832.252 19.18C831.722 19.18 831.322 19.035 831.052 18.745C830.782 18.455 830.647 18.035 830.647 17.485V12.745H829.447V11.755H830.647V9.775H831.772V11.755H833.242V12.745H831.772V17.245C831.772 17.525 831.832 17.75 831.952 17.92C832.082 18.09 832.267 18.175 832.507 18.175C832.837 18.175 833.092 18.075 833.272 17.875L833.602 18.715C833.272 19.025 832.822 19.18 832.252 19.18ZM840.486 19H839.361V18.175C838.751 18.845 837.951 19.18 836.961 19.18C836.291 19.18 835.701 18.965 835.191 18.535C834.681 18.105 834.426 17.52 834.426 16.78C834.426 16.02 834.676 15.435 835.176 15.025C835.686 14.605 836.281 14.395 836.961 14.395C837.991 14.395 838.791 14.725 839.361 15.385V14.08C839.361 13.6 839.191 13.225 838.851 12.955C838.511 12.685 838.071 12.55 837.531 12.55C836.681 12.55 835.941 12.885 835.311 13.555L834.786 12.775C835.556 11.975 836.521 11.575 837.681 11.575C838.511 11.575 839.186 11.775 839.706 12.175C840.226 12.575 840.486 13.19 840.486 14.02V19ZM837.366 18.37C838.266 18.37 838.931 18.07 839.361 17.47V16.105C838.931 15.505 838.266 15.205 837.366 15.205C836.846 15.205 836.416 15.355 836.076 15.655C835.746 15.945 835.581 16.325 835.581 16.795C835.581 17.255 835.746 17.635 836.076 17.935C836.416 18.225 836.846 18.37 837.366 18.37ZM843.866 19H842.741V8.995H843.866V19ZM854.763 19.195C853.313 19.195 852.093 18.715 851.103 17.755C850.113 16.785 849.618 15.535 849.618 14.005C849.618 12.475 850.113 11.23 851.103 10.27C852.093 9.31 853.313 8.83 854.763 8.83C856.343 8.83 857.638 9.455 858.648 10.705L857.658 11.32C857.338 10.9 856.918 10.565 856.398 10.315C855.888 10.065 855.343 9.94 854.763 9.94C853.663 9.94 852.743 10.325 852.003 11.095C851.273 11.855 850.908 12.825 850.908 14.005C850.908 15.185 851.273 16.16 852.003 16.93C852.743 17.7 853.663 18.085 854.763 18.085C855.313 18.085 855.823 17.98 856.293 17.77C856.773 17.55 857.158 17.295 857.448 17.005V14.965H854.013V13.855H858.693V17.47C857.663 18.62 856.353 19.195 854.763 19.195ZM861.796 19H860.671V11.755H861.796V12.925C862.466 12.045 863.271 11.605 864.211 11.605V12.76C864.071 12.73 863.921 12.715 863.761 12.715C863.421 12.715 863.051 12.835 862.651 13.075C862.251 13.315 861.966 13.58 861.796 13.87V19ZM871.382 18.085C870.732 18.815 869.867 19.18 868.787 19.18C867.707 19.18 866.837 18.815 866.177 18.085C865.527 17.355 865.202 16.45 865.202 15.37C865.202 14.29 865.527 13.39 866.177 12.67C866.837 11.94 867.707 11.575 868.787 11.575C869.867 11.575 870.732 11.94 871.382 12.67C872.042 13.39 872.372 14.29 872.372 15.37C872.372 16.45 872.042 17.355 871.382 18.085ZM867.017 17.365C867.457 17.905 868.047 18.175 868.787 18.175C869.527 18.175 870.112 17.905 870.542 17.365C870.972 16.815 871.187 16.15 871.187 15.37C871.187 14.59 870.972 13.93 870.542 13.39C870.112 12.85 869.527 12.58 868.787 12.58C868.047 12.58 867.457 12.855 867.017 13.405C866.587 13.945 866.372 14.6 866.372 15.37C866.372 16.15 866.587 16.815 867.017 17.365ZM881.601 19H880.476L878.586 13.18L876.696 19L875.571 19L873.261 11.755H874.431L876.201 17.53L878.106 11.755H879.066L880.971 17.53L882.741 11.755H883.911L881.601 19ZM887.052 19.18C886.522 19.18 886.122 19.035 885.852 18.745C885.582 18.455 885.447 18.035 885.447 17.485V12.745H884.247V11.755H885.447V9.775H886.572V11.755H888.042V12.745H886.572V17.245C886.572 17.525 886.632 17.75 886.752 17.92C886.882 18.09 887.067 18.175 887.307 18.175C887.637 18.175 887.892 18.075 888.072 17.875L888.402 18.715C888.072 19.025 887.622 19.18 887.052 19.18ZM895.661 19H894.536V14.23C894.536 13.63 894.396 13.205 894.116 12.955C893.836 12.705 893.431 12.58 892.901 12.58C892.491 12.58 892.086 12.69 891.686 12.91C891.296 13.13 890.986 13.395 890.756 13.705V19H889.631V8.995H890.756V12.805C891.036 12.475 891.411 12.19 891.881 11.95C892.351 11.7 892.841 11.575 893.351 11.575C894.891 11.575 895.661 12.345 895.661 13.885V19ZM903.064 19H901.819V8.995L908.374 8.995V10.105L903.064 10.105V13.33L908.269 13.33V14.44L903.064 14.44V19ZM916.036 19H914.911V17.98C914.611 18.32 914.231 18.605 913.771 18.835C913.321 19.065 912.841 19.18 912.331 19.18C910.791 19.18 910.021 18.41 910.021 16.87V11.755H911.146V16.525C911.146 17.125 911.281 17.55 911.551 17.8C911.831 18.05 912.236 18.175 912.766 18.175C913.186 18.175 913.591 18.07 913.981 17.86C914.381 17.65 914.691 17.39 914.911 17.08V11.755L916.036 11.755V19ZM924.298 19H923.173V14.26C923.173 13.65 923.033 13.22 922.753 12.97C922.473 12.71 922.073 12.58 921.553 12.58C921.133 12.58 920.723 12.69 920.323 12.91C919.933 13.13 919.628 13.395 919.408 13.705V19H918.283V11.755H919.408V12.805C919.688 12.475 920.063 12.19 920.533 11.95C921.003 11.7 921.488 11.575 921.988 11.575C923.528 11.575 924.298 12.355 924.298 13.915V19ZM932.92 19H931.795V17.92C931.175 18.76 930.36 19.18 929.35 19.18C928.39 19.18 927.61 18.84 927.01 18.16C926.42 17.47 926.125 16.545 926.125 15.385C926.125 14.235 926.42 13.315 927.01 12.625C927.61 11.925 928.39 11.575 929.35 11.575C930.35 11.575 931.165 12 931.795 12.85V8.995H932.92V19ZM929.62 18.175C930.06 18.175 930.48 18.065 930.88 17.845C931.28 17.625 931.585 17.355 931.795 17.035V13.75C931.585 13.42 931.275 13.145 930.865 12.925C930.465 12.695 930.05 12.58 929.62 12.58C928.91 12.58 928.345 12.845 927.925 13.375C927.505 13.895 927.295 14.565 927.295 15.385C927.295 16.205 927.505 16.875 927.925 17.395C928.345 17.915 928.91 18.175 929.62 18.175Z" fill="black"/>
<path d="M631.46 437H629.705V429.275L626.645 437H625.895L622.82 429.275V437H621.065V426.995H623.54L626.27 433.865L628.985 426.995H631.46V437ZM636.829 437.18C634.519 437.18 633.109 435.44 633.109 433.37C633.109 431.285 634.519 429.575 636.829 429.575C639.139 429.575 640.549 431.285 640.549 433.37C640.549 435.44 639.139 437.18 636.829 437.18ZM636.829 435.785C638.179 435.785 638.914 434.66 638.914 433.37C638.914 432.095 638.179 430.97 636.829 430.97C635.494 430.97 634.744 432.095 634.744 433.37C634.744 434.66 635.494 435.785 636.829 435.785ZM648.638 437H647.063V432.47C647.063 431.33 646.478 430.97 645.593 430.97C644.798 430.97 644.108 431.45 643.733 431.93V437H642.158V429.755H643.733V430.73C644.213 430.16 645.158 429.575 646.298 429.575C647.858 429.575 648.638 430.415 648.638 431.9V437ZM652.873 437.18C651.643 437.18 651.013 436.52 651.013 435.305V431.12H649.813V429.755H651.013V427.775H652.588V429.755H654.058V431.12H652.588V434.915C652.588 435.41 652.828 435.785 653.278 435.785C653.578 435.785 653.848 435.65 653.968 435.515L654.343 436.715C654.058 436.97 653.593 437.18 652.873 437.18ZM661.953 437H660.378V432.44C660.378 431.3 659.808 430.97 658.923 430.97C658.113 430.97 657.423 431.45 657.063 431.93V437H655.488V426.995H657.063V430.73C657.543 430.16 658.473 429.575 659.613 429.575C661.173 429.575 661.953 430.385 661.953 431.87V437Z" fill="black"/>
<rect x="717" y="13" width="26" height="2" rx="1" fill="#466BF0"/>
<circle cx="730" cy="14" r="3" fill="#466BF0"/>
<path d="M1005.43 19H1003.96L1001.41 15.025H999.415V19H998.17V8.995H1002.19C1003.12 8.995 1003.88 9.27 1004.46 9.82C1005.04 10.37 1005.33 11.1 1005.33 12.01C1005.33 12.87 1005.08 13.555 1004.57 14.065C1004.08 14.575 1003.46 14.86 1002.73 14.92L1005.43 19ZM1002.04 13.93C1002.63 13.93 1003.11 13.75 1003.48 13.39C1003.85 13.03 1004.04 12.57 1004.04 12.01C1004.04 11.45 1003.85 10.995 1003.48 10.645C1003.11 10.285 1002.63 10.105 1002.04 10.105H999.415V13.93H1002.04ZM1013.27 19H1012.14V17.98C1011.84 18.32 1011.46 18.605 1011 18.835C1010.55 19.065 1010.07 19.18 1009.56 19.18C1008.02 19.18 1007.25 18.41 1007.25 16.87V11.755H1008.38V16.525C1008.38 17.125 1008.51 17.55 1008.78 17.8C1009.06 18.05 1009.47 18.175 1010 18.175C1010.42 18.175 1010.82 18.07 1011.21 17.86C1011.61 17.65 1011.92 17.39 1012.14 17.08V11.755H1013.27V19ZM1017.81 19.18C1016.58 19.18 1015.6 18.8 1014.88 18.04L1015.47 17.23C1015.72 17.52 1016.06 17.765 1016.49 17.965C1016.93 18.165 1017.38 18.265 1017.85 18.265C1018.39 18.265 1018.81 18.15 1019.11 17.92C1019.41 17.69 1019.56 17.39 1019.56 17.02C1019.56 16.7 1019.41 16.45 1019.1 16.27C1018.79 16.08 1018.41 15.94 1017.97 15.85C1017.54 15.75 1017.11 15.64 1016.67 15.52C1016.23 15.39 1015.85 15.175 1015.54 14.875C1015.23 14.565 1015.08 14.16 1015.08 13.66C1015.08 13.07 1015.32 12.575 1015.8 12.175C1016.29 11.775 1016.95 11.575 1017.78 11.575C1018.87 11.575 1019.76 11.925 1020.46 12.625L1019.94 13.405C1019.43 12.795 1018.71 12.49 1017.78 12.49C1017.29 12.49 1016.9 12.6 1016.61 12.82C1016.32 13.03 1016.17 13.3 1016.17 13.63C1016.17 13.92 1016.33 14.15 1016.64 14.32C1016.95 14.48 1017.32 14.61 1017.75 14.71C1018.19 14.8 1018.63 14.91 1019.07 15.04C1019.51 15.17 1019.88 15.4 1020.19 15.73C1020.5 16.05 1020.66 16.47 1020.66 16.99C1020.66 17.63 1020.41 18.155 1019.91 18.565C1019.41 18.975 1018.71 19.18 1017.81 19.18ZM1024.78 19.18C1023.55 19.18 1022.58 18.8 1021.86 18.04L1022.44 17.23C1022.69 17.52 1023.03 17.765 1023.46 17.965C1023.9 18.165 1024.36 18.265 1024.83 18.265C1025.37 18.265 1025.79 18.15 1026.09 17.92C1026.39 17.69 1026.54 17.39 1026.54 17.02C1026.54 16.7 1026.38 16.45 1026.07 16.27C1025.76 16.08 1025.39 15.94 1024.95 15.85C1024.52 15.75 1024.08 15.64 1023.64 15.52C1023.2 15.39 1022.83 15.175 1022.52 14.875C1022.21 14.565 1022.05 14.16 1022.05 13.66C1022.05 13.07 1022.29 12.575 1022.77 12.175C1023.26 11.775 1023.92 11.575 1024.75 11.575C1025.84 11.575 1026.74 11.925 1027.44 12.625L1026.91 13.405C1026.4 12.795 1025.68 12.49 1024.75 12.49C1024.26 12.49 1023.87 12.6 1023.58 12.82C1023.29 13.03 1023.15 13.3 1023.15 13.63C1023.15 13.92 1023.3 14.15 1023.61 14.32C1023.92 14.48 1024.29 14.61 1024.72 14.71C1025.16 14.8 1025.6 14.91 1026.04 15.04C1026.48 15.17 1026.86 15.4 1027.17 15.73C1027.48 16.05 1027.63 16.47 1027.63 16.99C1027.63 17.63 1027.38 18.155 1026.88 18.565C1026.38 18.975 1025.68 19.18 1024.78 19.18ZM1032.73 19.18C1031.65 19.18 1030.76 18.83 1030.07 18.13C1029.38 17.42 1029.04 16.5 1029.04 15.37C1029.04 14.31 1029.38 13.415 1030.06 12.685C1030.74 11.945 1031.59 11.575 1032.61 11.575C1033.68 11.575 1034.52 11.945 1035.14 12.685C1035.77 13.415 1036.09 14.34 1036.09 15.46V15.745L1030.22 15.745C1030.27 16.455 1030.53 17.05 1031 17.53C1031.47 18.01 1032.08 18.25 1032.83 18.25C1033.73 18.25 1034.48 17.945 1035.07 17.335L1035.61 18.07C1034.87 18.81 1033.91 19.18 1032.73 19.18ZM1034.98 14.92C1034.97 14.3 1034.76 13.745 1034.35 13.255C1033.94 12.755 1033.35 12.505 1032.59 12.505C1031.87 12.505 1031.3 12.75 1030.88 13.24C1030.47 13.73 1030.25 14.29 1030.22 14.92H1034.98ZM1039.04 19H1037.91V8.995H1039.04V19ZM1042.4 19H1041.28V8.995H1042.4V19ZM1051.31 19H1050.06V10.645L1048.46 12.34L1047.71 11.575L1050.21 8.995H1051.31V19ZM1057.06 19.18C1056.4 19.18 1055.82 19.03 1055.31 18.73C1054.81 18.42 1054.41 18.01 1054.11 17.5C1053.82 16.99 1053.6 16.44 1053.45 15.85C1053.31 15.26 1053.24 14.645 1053.24 14.005C1053.24 13.365 1053.31 12.75 1053.45 12.16C1053.6 11.57 1053.82 11.025 1054.11 10.525C1054.41 10.015 1054.81 9.61 1055.31 9.31C1055.82 9 1056.4 8.845 1057.06 8.845C1057.71 8.845 1058.29 9 1058.8 9.31C1059.31 9.61 1059.71 10.015 1060 10.525C1060.3 11.025 1060.52 11.57 1060.66 12.16C1060.81 12.75 1060.89 13.365 1060.89 14.005C1060.89 14.645 1060.81 15.26 1060.66 15.85C1060.52 16.44 1060.3 16.99 1060 17.5C1059.71 18.01 1059.31 18.42 1058.8 18.73C1058.29 19.03 1057.71 19.18 1057.06 19.18ZM1055.56 17.455C1055.96 17.865 1056.46 18.07 1057.06 18.07C1057.66 18.07 1058.16 17.865 1058.56 17.455C1058.96 17.035 1059.24 16.535 1059.39 15.955C1059.54 15.375 1059.61 14.725 1059.61 14.005C1059.61 13.285 1059.54 12.635 1059.39 12.055C1059.24 11.475 1058.96 10.98 1058.56 10.57C1058.16 10.16 1057.66 9.955 1057.06 9.955C1056.46 9.955 1055.96 10.16 1055.56 10.57C1055.16 10.98 1054.89 11.475 1054.74 12.055C1054.59 12.635 1054.51 13.285 1054.51 14.005C1054.51 14.725 1054.59 15.375 1054.74 15.955C1054.89 16.535 1055.16 17.035 1055.56 17.455ZM1066.25 19.18C1065.59 19.18 1065 19.03 1064.49 18.73C1063.99 18.42 1063.59 18.01 1063.29 17.5C1063 16.99 1062.78 16.44 1062.63 15.85C1062.49 15.26 1062.42 14.645 1062.42 14.005C1062.42 13.365 1062.49 12.75 1062.63 12.16C1062.78 11.57 1063 11.025 1063.29 10.525C1063.59 10.015 1063.99 9.61 1064.49 9.31C1065 9 1065.59 8.845 1066.25 8.845C1066.9 8.845 1067.48 9 1067.99 9.31C1068.5 9.61 1068.9 10.015 1069.19 10.525C1069.49 11.025 1069.71 11.57 1069.85 12.16C1070 12.75 1070.07 13.365 1070.07 14.005C1070.07 14.645 1070 15.26 1069.85 15.85C1069.71 16.44 1069.49 16.99 1069.19 17.5C1068.9 18.01 1068.5 18.42 1067.99 18.73C1067.48 19.03 1066.9 19.18 1066.25 19.18ZM1064.75 17.455C1065.15 17.865 1065.65 18.07 1066.25 18.07C1066.85 18.07 1067.35 17.865 1067.75 17.455C1068.15 17.035 1068.42 16.535 1068.57 15.955C1068.72 15.375 1068.8 14.725 1068.8 14.005C1068.8 13.285 1068.72 12.635 1068.57 12.055C1068.42 11.475 1068.15 10.98 1067.75 10.57C1067.35 10.16 1066.85 9.955 1066.25 9.955C1065.65 9.955 1065.15 10.16 1064.75 10.57C1064.35 10.98 1064.07 11.475 1063.92 12.055C1063.77 12.635 1063.7 13.285 1063.7 14.005C1063.7 14.725 1063.77 15.375 1063.92 15.955C1064.07 16.535 1064.35 17.035 1064.75 17.455ZM1075.43 19.18C1074.77 19.18 1074.19 19.03 1073.68 18.73C1073.18 18.42 1072.78 18.01 1072.48 17.5C1072.19 16.99 1071.97 16.44 1071.82 15.85C1071.68 15.26 1071.61 14.645 1071.61 14.005C1071.61 13.365 1071.68 12.75 1071.82 12.16C1071.97 11.57 1072.19 11.025 1072.48 10.525C1072.78 10.015 1073.18 9.61 1073.68 9.31C1074.19 9 1074.77 8.845 1075.43 8.845C1076.08 8.845 1076.66 9 1077.17 9.31C1077.68 9.61 1078.08 10.015 1078.37 10.525C1078.67 11.025 1078.89 11.57 1079.03 12.16C1079.18 12.75 1079.26 13.365 1079.26 14.005C1079.26 14.645 1079.18 15.26 1079.03 15.85C1078.89 16.44 1078.67 16.99 1078.37 17.5C1078.08 18.01 1077.68 18.42 1077.17 18.73C1076.66 19.03 1076.08 19.18 1075.43 19.18ZM1073.93 17.455C1074.33 17.865 1074.83 18.07 1075.43 18.07C1076.03 18.07 1076.53 17.865 1076.93 17.455C1077.33 17.035 1077.61 16.535 1077.76 15.955C1077.91 15.375 1077.98 14.725 1077.98 14.005C1077.98 13.285 1077.91 12.635 1077.76 12.055C1077.61 11.475 1077.33 10.98 1076.93 10.57C1076.53 10.16 1076.03 9.955 1075.43 9.955C1074.83 9.955 1074.33 10.16 1073.93 10.57C1073.53 10.98 1073.26 11.475 1073.11 12.055C1072.96 12.635 1072.88 13.285 1072.88 14.005C1072.88 14.725 1072.96 15.375 1073.11 15.955C1073.26 16.535 1073.53 17.035 1073.93 17.455ZM1089.62 19H1085.06V8.995H1089.52C1090.38 8.995 1091.06 9.23 1091.56 9.7C1092.07 10.17 1092.32 10.785 1092.32 11.545C1092.32 12.145 1092.15 12.655 1091.81 13.075C1091.47 13.485 1091.06 13.74 1090.57 13.84C1091.1 13.92 1091.55 14.2 1091.93 14.68C1092.32 15.16 1092.52 15.7 1092.52 16.3C1092.52 17.11 1092.26 17.765 1091.74 18.265C1091.23 18.755 1090.52 19 1089.62 19ZM1089.31 13.33C1089.86 13.33 1090.28 13.18 1090.58 12.88C1090.88 12.58 1091.03 12.195 1091.03 11.725C1091.03 11.255 1090.88 10.87 1090.57 10.57C1090.27 10.26 1089.85 10.105 1089.31 10.105H1086.31V13.33H1089.31ZM1089.37 17.89C1089.95 17.89 1090.4 17.735 1090.73 17.425C1091.06 17.115 1091.23 16.695 1091.23 16.165C1091.23 15.675 1091.06 15.265 1090.73 14.935C1090.41 14.605 1089.96 14.44 1089.37 14.44H1086.31V17.89H1089.37ZM1097.72 19.18C1096.64 19.18 1095.76 18.83 1095.07 18.13C1094.38 17.42 1094.03 16.5 1094.03 15.37C1094.03 14.31 1094.37 13.415 1095.05 12.685C1095.73 11.945 1096.58 11.575 1097.6 11.575C1098.67 11.575 1099.52 11.945 1100.14 12.685C1100.77 13.415 1101.08 14.34 1101.08 15.46V15.745H1095.22C1095.27 16.455 1095.53 17.05 1096 17.53C1096.47 18.01 1097.08 18.25 1097.83 18.25C1098.73 18.25 1099.47 17.945 1100.06 17.335L1100.6 18.07C1099.86 18.81 1098.9 19.18 1097.72 19.18ZM1099.97 14.92C1099.96 14.3 1099.75 13.745 1099.34 13.255C1098.93 12.755 1098.35 12.505 1097.59 12.505C1096.87 12.505 1096.3 12.75 1095.88 13.24C1095.47 13.73 1095.25 14.29 1095.22 14.92H1099.97ZM1108.92 19H1107.8V14.26C1107.8 13.65 1107.66 13.22 1107.38 12.97C1107.1 12.71 1106.7 12.58 1106.18 12.58C1105.76 12.58 1105.35 12.69 1104.95 12.91C1104.56 13.13 1104.25 13.395 1104.03 13.705V19H1102.91V11.755H1104.03V12.805C1104.31 12.475 1104.69 12.19 1105.16 11.95C1105.63 11.7 1106.11 11.575 1106.61 11.575C1108.15 11.575 1108.92 12.355 1108.92 13.915V19ZM1114.36 19.18C1113.29 19.18 1112.42 18.82 1111.75 18.1C1111.08 17.37 1110.75 16.46 1110.75 15.37C1110.75 14.28 1111.08 13.375 1111.75 12.655C1112.42 11.935 1113.29 11.575 1114.36 11.575C1115.48 11.575 1116.37 11.995 1117.02 12.835L1116.27 13.525C1115.81 12.895 1115.19 12.58 1114.42 12.58C1113.66 12.58 1113.05 12.84 1112.59 13.36C1112.14 13.88 1111.92 14.55 1111.92 15.37C1111.92 16.19 1112.14 16.865 1112.59 17.395C1113.05 17.915 1113.66 18.175 1114.42 18.175C1115.18 18.175 1115.8 17.86 1116.27 17.23L1117.02 17.92C1116.37 18.76 1115.48 19.18 1114.36 19.18ZM1124.62 19H1123.5V14.23C1123.5 13.63 1123.36 13.205 1123.08 12.955C1122.8 12.705 1122.39 12.58 1121.86 12.58C1121.45 12.58 1121.05 12.69 1120.65 12.91C1120.26 13.13 1119.95 13.395 1119.72 13.705V19H1118.59V8.995H1119.72V12.805C1120 12.475 1120.37 12.19 1120.84 11.95C1121.31 11.7 1121.8 11.575 1122.31 11.575C1123.85 11.575 1124.62 12.345 1124.62 13.885V19ZM1136.74 19H1135.62V14.08C1135.62 13.08 1135.17 12.58 1134.28 12.58C1133.92 12.58 1133.56 12.69 1133.2 12.91C1132.84 13.13 1132.56 13.39 1132.36 13.69V19H1131.24V14.08C1131.24 13.08 1130.79 12.58 1129.9 12.58C1129.55 12.58 1129.2 12.69 1128.84 12.91C1128.49 13.13 1128.21 13.395 1128 13.705V19H1126.87V11.755H1128V12.805C1128.18 12.525 1128.49 12.25 1128.94 11.98C1129.39 11.71 1129.86 11.575 1130.34 11.575C1130.87 11.575 1131.3 11.7 1131.63 11.95C1131.96 12.2 1132.18 12.525 1132.29 12.925C1132.51 12.565 1132.84 12.25 1133.29 11.98C1133.74 11.71 1134.22 11.575 1134.72 11.575C1136.07 11.575 1136.74 12.305 1136.74 13.765V19ZM1144.64 19H1143.51V18.175C1142.9 18.845 1142.1 19.18 1141.11 19.18C1140.44 19.18 1139.85 18.965 1139.34 18.535C1138.83 18.105 1138.58 17.52 1138.58 16.78C1138.58 16.02 1138.83 15.435 1139.33 15.025C1139.84 14.605 1140.43 14.395 1141.11 14.395C1142.14 14.395 1142.94 14.725 1143.51 15.385V14.08C1143.51 13.6 1143.34 13.225 1143 12.955C1142.66 12.685 1142.22 12.55 1141.68 12.55C1140.83 12.55 1140.09 12.885 1139.46 13.555L1138.94 12.775C1139.71 11.975 1140.67 11.575 1141.83 11.575C1142.66 11.575 1143.34 11.775 1143.86 12.175C1144.38 12.575 1144.64 13.19 1144.64 14.02V19ZM1141.52 18.37C1142.42 18.37 1143.08 18.07 1143.51 17.47V16.105C1143.08 15.505 1142.42 15.205 1141.52 15.205C1141 15.205 1140.57 15.355 1140.23 15.655C1139.9 15.945 1139.73 16.325 1139.73 16.795C1139.73 17.255 1139.9 17.635 1140.23 17.935C1140.57 18.225 1141 18.37 1141.52 18.37ZM1148.02 19H1146.89V11.755H1148.02V12.925C1148.69 12.045 1149.49 11.605 1150.43 11.605V12.76C1150.29 12.73 1150.14 12.715 1149.98 12.715C1149.64 12.715 1149.27 12.835 1148.87 13.075C1148.47 13.315 1148.19 13.58 1148.02 13.87V19ZM1158.22 19H1156.78L1154.17 15.745L1152.97 16.93V19H1151.85V8.995H1152.97V15.61L1156.78 11.755L1158.21 11.755L1155 15.04L1158.22 19Z" fill="black"/>
<rect x="961" y="13" width="7.23711" height="2" rx="1" fill="#58B9FF"/>
<rect x="970.383" y="13" width="7.23711" height="2" rx="1" fill="#58B9FF"/>
<rect x="979.762" y="13" width="7.23711" height="2" rx="1" fill="#58B9FF"/>
</svg>
