<?xml version="1.0" encoding="utf-8"?>
<!-- Generator: Adobe Illustrator 28.1.0, SVG Export Plug-In . SVG Version: 6.00 Build 0)  -->
<svg version="1.1" id="Layer_1" xmlns="http://www.w3.org/2000/svg" xmlns:xlink="http://www.w3.org/1999/xlink" x="0px" y="0px"
	 viewBox="0 0 73.98 73.98" style="enable-background:new 0 0 73.98 73.98;" xml:space="preserve">
<style type="text/css">
	.st0{fill:#800000;}
	.st1{fill:#FFFFFF;}
</style>
<circle class="st0" cx="36.99" cy="36.99" r="36.99"/>
<g>
	<g>
		<g>
			<path class="st1" d="M30.41,24.47c-0.16,0.12,0.2,0.32,0.16,0.28c0,0.52-0.08,1.04,0.12,1.32c0.12,0.16,0.48,0.28,0.52,0.12
				c0.08-0.16,0.32-0.48,0.4-0.52c0.12-0.08,0-0.2-0.08-0.08c-0.2,0.2-0.28,0.12-0.44-0.04c-0.08-0.08-0.08-0.8-0.04-0.84
				c0,0,0.36-0.04,0.44-0.04c0.08,0,0.08-0.2,0-0.2c-0.12,0-0.4,0-0.44-0.04c-0.04-0.08,0.08-0.6,0.08-0.8
				c0-0.16-0.08-0.2-0.12-0.04C30.97,23.71,30.61,24.31,30.41,24.47 M31.37,22.59c0.2,0,0.52,0.12,0.88,0.08
				c0.44-0.04,0.76-0.72,0.6-1.24c-0.16-0.48-0.72-0.4-1.12-0.52c-0.36-0.08-0.48-0.32-0.12-0.56c0.44-0.28,1,0.16,1.04,0.28
				c0.08,0.16,0.16,0.16,0.16-0.04c0-0.4-0.04-0.2-0.08-0.56c0-0.16-0.12-0.16-0.12,0c0,0.12-0.16,0.08-0.28,0.08
				c-0.12,0-0.48-0.04-0.8,0.12c-0.2,0.12-0.68,0.48-0.4,0.92c0.16,0.24,1.04,0.44,1.24,0.6s0.28,0.52,0.08,0.68
				c-0.28,0.2-1,0.04-1.08-0.08c-0.16-0.16-0.2-0.28-0.24-0.48c-0.04-0.2-0.2-0.16-0.2,0c0,0.16,0.04,0.76,0.08,0.92
				c0.04,0.16,0.16,0.08,0.2,0C31.17,22.67,31.25,22.63,31.37,22.59 M32.37,23.19c-0.08,0.16-0.2,0.32-0.44,0.4
				c0.16,0.12,0.32,0.28,0.44,0.36c0.12-0.16,0.28-0.32,0.44-0.44C32.65,23.47,32.45,23.39,32.37,23.19 M30.17,22.95
				c0.16-0.12,0.28-0.32,0.32-0.36c0.12-0.08,0-0.2-0.08-0.08c-0.08,0.08-0.28-0.08-0.28-0.12c-0.08-0.08-0.16-1.08-0.12-1.12
				c0,0,0.64-0.08,0.72-0.08c0.08,0,0.08-0.2,0-0.2c-0.12,0-0.6,0.08-0.6,0c-0.04-0.12-0.08-0.48,0.08-0.76
				c0.08-0.12,0-0.28-0.04-0.12c-0.04,0.16-0.48,0.76-0.72,0.88c-0.2,0.08-0.2,0.12-0.04,0.16c0.12,0,0.2,0.16,0.2,0.16
				c0,0.52-0.08,1.16,0.08,1.44C29.77,22.87,30.05,23.07,30.17,22.95 M28.37,24.03c-0.16,0.16-0.28,0.28-0.52,0.48
				c0.12,0.12,0.28,0.28,0.32,0.52c0,0.2,0,1.24,0,1.48c0.16,0,0.16,0,0.44,0c-0.04-0.16,0-1.48,0-1.68
				c0.12-0.12,0.12-0.12,0.24-0.2c0.08,0.08,0.32,0.12,0.32,0.28c0,0.16,0.04,0.76,0,1c-0.08,0.28-0.04,0.48,0.12,0.76
				c0.12-0.12,0.56-0.44,0.64-0.52c0.08-0.08,0.04-0.12-0.08-0.12c-0.12,0.04-0.16,0.04-0.16-0.04c0-0.16-0.08-0.84-0.08-1.28
				s-0.24-0.56-0.36-0.64c-0.12,0.16-0.4,0.32-0.56,0.44C28.57,24.47,28.53,24.23,28.37,24.03 M26.7,24.31
				c0.08,0.2,0.32,0.56,0.44,0.6c-0.2,0.2-0.64,0.48-0.76,0.6C26.1,25.23,25.98,24.75,26.7,24.31 M25.86,25.23
				c-0.12,0.84,0.68,1.32,1.04,1.48c0.08-0.2,0.28-0.48,0.48-0.72c0.16-0.16,0-0.2-0.16-0.08c-0.16,0.2-0.68,0-0.84-0.24
				c0.24-0.2,0.88-0.72,1.2-0.96c-0.2-0.16-0.48-0.6-0.52-0.84C26.82,23.99,26.02,24.35,25.86,25.23 M25.66,21.23
				c-0.32,0.44-0.48,1.2,0.04,1.6c0.24,0.2,0.44,0.36,0.96,0.28c0.08-0.2,0.16-0.28,0.32-0.48c-0.36,0.04-0.6,0-0.88-0.2
				c-0.52-0.4-0.36-1.04-0.2-1.28c0.28-0.4,0.68,0.2,0.76,0.24c0.08-0.12,0.24-0.28,0.4-0.4c-0.16-0.2-0.28-0.4-0.4-0.52
				C26.34,20.63,25.86,20.91,25.66,21.23 M28.06,19.99c-0.04-0.04-0.12-0.12-0.12-0.24c0-0.08,0-0.8,0-0.88s-0.16-0.08-0.16,0
				c0,0.12,0,0.36-0.08,0.52c-0.32,0.48-0.92,0.68-1.32,0.08c-0.16-0.2-0.16-0.48-0.2-0.72c-0.04-0.28,0.2-0.64,0.2-0.68
				c0.52-0.68,1.28-0.16,1.32,0.12c0.04,0.2,0.08,0.44,0.08,0.56c0,0.08,0.16,0.08,0.16,0s0-1.16,0-1.24s-0.12-0.08-0.16,0
				c0,0.16-0.12,0.2-0.24,0.16c-0.28-0.08-0.88-0.2-1.2,0c-0.32,0.16-0.76,0.6-0.76,1.12c0,0.88,0.32,0.96,0.72,1.16
				c0.36,0.2,0.84,0.08,1.32-0.04c0.2-0.04,0.2,0.08,0.28,0.2C28.06,20.31,28.18,20.15,28.06,19.99 M28.33,22.51
				c0,0.08,0,0.12,0,0.16c-0.08,0-0.12,0.04-0.24,0.08c-0.12-0.08-0.68-0.28-0.32-0.6c0.24,0.12,0.32,0.04,0.52-0.12
				C28.33,22.27,28.33,22.43,28.33,22.51 M28.33,21.91c-0.32,0.2-0.44,0.2-0.64-0.04c-0.12-0.12-0.08-0.36-0.04-0.48
				c0.08-0.16,0.28-0.32,0.36-0.32c0.08,0,0.32,0.32,0.32,0.48C28.29,21.63,28.33,21.75,28.33,21.91 M28.29,20.71
				c-0.28,0.04-0.72,0.36-0.84,0.68c-0.04,0.12,0,0.56,0.08,0.6c0.04,0.04,0.08,0.04,0.12,0.08c-0.2,0.2-0.36,0.32-0.36,0.6
				c0,0.24,0.2,0.48,0.48,0.6c0.12-0.2,0.36-0.36,0.6-0.4c0,0.2,0.08,0.36,0.2,0.44c0.08-0.12,0.48-0.44,0.56-0.52s0-0.16-0.08-0.08
				c-0.04,0.04-0.2-0.04-0.24-0.08c0-0.12,0-1.28,0.04-1.36C28.65,21.11,28.49,20.71,28.29,20.71 M30.41,17.83
				c0.12-0.12,0-0.2-0.12-0.08c-0.08-0.08-0.28-0.28-0.36-0.4c-0.12,0.08-0.36,0.24-0.52,0.32c-0.12-0.12-0.24-0.12-0.48-0.32
				c-0.12,0.08-0.4,0.28-0.56,0.48c0.28,0.08,0.44,0.08,0.48,0.32c0,0.16,0,1.28,0,1.48c0.12,0.04,0.32,0,0.52,0
				c0-0.16,0-1.56,0-1.72c0.08-0.04,0.16-0.08,0.2-0.12c0.08,0.08,0.24,0.28,0.36,0.36C30.05,18.11,30.33,17.95,30.41,17.83
				 M31.21,18.31c-0.16-0.56-0.12-0.72,0.24-1c0.08,0.2,0.28,0.32,0.4,0.4C31.65,17.91,31.33,18.23,31.21,18.31 M32.33,18.99
				c-0.68,0.16-1-0.36-1.08-0.52c0.28-0.28,0.72-0.72,1-0.96c-0.2-0.16-0.28-0.44-0.6-0.48c-0.28,0-0.96,0.32-1.08,1.2
				c-0.12,0.84,0.68,1.28,1.28,1.28c0.2,0,0.48-0.28,0.6-0.32C32.73,19.07,32.61,18.91,32.33,18.99 M34.21,17.99
				c-0.04,0.04-0.16,0.12-0.28,0.24c-0.08,0-0.16,0.04-0.24,0c-0.24-0.04-0.36-0.2-0.44-0.36c-0.12-0.16,0.16-0.28,0.32-0.24
				C33.73,17.67,34.05,17.83,34.21,17.99 M33.73,18.67c0.16,0.08,0.32,0.16,0.48,0.24c0.24,0.16,0.12,0.4-0.16,0.52
				c-0.28,0.12-0.76-0.24-0.84-0.36C33.33,18.95,33.53,18.83,33.73,18.67 M34.89,17.71c-0.2-0.12-0.4-0.44-0.84-0.44
				c-0.44-0.04-0.96,0.4-1.12,0.64c-0.2,0.36,0.04,0.64,0.32,0.88c-0.2,0.16-0.44,0.4-0.68,0.64c0.08,0.12,0.6,0.36,0.92,0.36
				c0.44,0,0.84-0.24,1.12-0.44c0.48-0.36,0.32-0.76-0.16-1.04c-0.04-0.04-0.08-0.04-0.12-0.04C34.57,17.99,34.85,17.79,34.89,17.71
				 M35.45,20.35l-0.28-0.28l-0.28,0.24v0.36l0.16,0.16h0.16l0.2-0.2L35.45,20.35L35.45,20.35z M35.33,18.39
				c-0.12,0-0.28,0.28,0.36,0.28C35.81,18.67,35.89,18.43,35.33,18.39 M35.33,18.79c-0.12,0-0.28,0.2,0.36,0.28
				C35.77,19.07,35.93,18.83,35.33,18.79 M35.73,23.11l0.24-0.24c-0.28-0.04-0.28-0.04-0.4-0.16v-1.24l-0.24-0.36h-0.12l-0.52,0.48
				c-0.16,0.12,0,0.2,0.16,0.04l0.28,0.16v1.16c0.04,0.16,0.16,0.2,0.32,0.36L35.73,23.11z M34.09,25.31
				c0.2,0.12,0.32,0.12,0.56,0.08c0,0.12,0,0.28,0,0.32c0,0.08,0.04,0.12,0.04,0.16c-0.12,0.04-0.28,0.08-0.44,0.12
				C34.17,25.91,33.73,25.63,34.09,25.31 M34.69,25.27c-0.2,0-0.4-0.08-0.64-0.28c-0.04-0.04-0.08-0.32-0.04-0.4
				c0.12-0.16,0.12-0.2,0.2-0.2c0.08,0,0.52,0.28,0.48,0.4C34.69,24.87,34.69,25.07,34.69,25.27 M33.93,25.15
				c-0.2,0.2-0.32,0.4-0.32,0.68s0.08,0.52,0.36,0.64c0.24-0.16,0.56-0.4,0.84-0.44c0.16,0.16,0.36,0.28,0.48,0.4
				c0.08-0.12,0.4-0.36,0.48-0.44c0.08-0.08,0-0.2-0.08-0.08c-0.08,0.08-0.28,0.04-0.32-0.08c0-0.12-0.12-1.28-0.08-1.36
				c-0.16-0.2-0.48-0.6-0.68-0.6c-0.28,0.04-0.72,0.44-0.8,0.56C33.73,24.59,33.81,25.07,33.93,25.15
				C33.89,25.15,33.89,25.15,33.93,25.15 M33.13,22.35c0.2,0.52,0.6,0.68,0.92,0.68c0.08-0.16,0.28-0.44,0.36-0.56
				c0.16-0.2,0-0.32-0.08-0.08c-0.08,0.16-0.48,0-0.64-0.16c-0.2-0.2-0.32-0.68-0.16-0.84c0.16-0.16,0.4-0.08,0.68-0.12
				c0.2,0,0.24-0.2,0.28-0.28c-0.08-0.04-0.24-0.12-0.4-0.24c-0.2,0.12-0.48,0.36-0.6,0.48C33.29,21.39,32.97,21.83,33.13,22.35
				 M33.05,26.02l0.24-0.24c-0.28-0.04-0.12-0.04-0.28-0.16v-1.08l-0.32-0.48h-0.12l-0.52,0.48c-0.12,0.12,0,0.2,0.16,0.04l0.36,0.2
				v1.12c0.04,0.12,0.16,0.16,0.32,0.36L33.05,26.02z M37.49,32.18c0,0,0.2-0.24,0.2-0.4c0-0.24-0.2-0.4-0.2-0.4
				c0.2,0.04,0.6,0.28,0.76,0.4L37.49,32.18z M38.85,31.78L38.85,31.78c-0.48-0.08-0.84-0.44-1.28-0.6
				c-0.6-0.24-1.24,0.24-1.24,0.32c0,0.16,0.16,0.24,0.68-0.08c-0.4,0.44,0.04,0.8,0.04,0.8c-0.16-0.04-0.4-0.08-0.52-0.16
				c-0.04,0.16,0.2,0.2,0.28,0.28C37.61,32.7,38.13,31.9,38.85,31.78 M44.32,24.35c-0.12,0.12-0.36,0.28-0.56,0.48
				c0.16,0,0.32,0.04,0.4,0.2c0.08,0.16,0,0.84,0.04,1.08c0,0.24,0.16,0.32,0.36,0.52c0.2-0.04,0.76-0.28,0.96-0.4
				c0,0.2,0.24,0.44,0.4,0.48c0.12-0.12,0.2-0.16,0.36-0.32c-0.16-0.08-0.12-0.12-0.2-0.32c-0.04-0.2,0-0.92,0-1.24
				c-0.12-0.2-0.32-0.4-0.52-0.56c-0.12,0.12-0.32,0.32-0.56,0.52c0.16-0.04,0.48,0.04,0.52,0.2c0,0.2,0.04,0.56,0,0.88
				c-0.04,0.32-0.88,0.16-0.88-0.04c0-0.2,0.04-0.84,0.04-1.12C44.6,24.59,44.52,24.51,44.32,24.35 M44.72,21.95
				c0.08-0.32,0.28-0.44,0.36-0.52c0.12,0.16,0.28,0.32,0.48,0.32s0.4-0.08,0.48-0.16c-0.16-0.12-0.56-0.56-0.64-0.6
				c-0.2,0.12-1.04,0.56-1.12,1.04c-0.12,0.76,0.12,0.88,0.48,1.32c0.2,0.24,0.48,0.24,0.64,0.2c0.16-0.12,0.72-0.64,0.76-0.68
				c0.04-0.08-0.04-0.12-0.08-0.04c-0.08,0.08-0.04,0.08-0.12,0.12c-0.08,0-0.48,0.08-0.68-0.04C45,22.71,44.64,22.39,44.72,21.95
				 M42.36,21.91c0,0.52-0.24,1.04-0.52,1.28c0.48-0.12,0.56-0.4,0.84-0.76c0.16,0.2,0.44,0.48,0.64,0.6
				c0.16-0.08,0.56-0.56,0.64-0.64c-0.28-0.08-0.84-0.36-1-0.68c-0.12-0.24-0.08-0.36,0.04-0.52c0.08,0.12,0.8,0.44,1.08-0.08
				c-0.32-0.12-0.64-0.36-0.72-0.52c-0.08,0.08-0.4,0.4-0.56,0.52c-0.04-0.2-0.32-0.36-0.52-0.4c-0.08,0.08-0.6,0.48-0.84,0.6
				c-0.08,0.04-0.04,0.2,0.04,0.16c0.08-0.04,0.28-0.16,0.44-0.24C42.12,21.23,42.36,21.43,42.36,21.91 M42.28,24.31
				c-0.2,0.08,0.28,0.28,0.24,0.28c0,0.52-0.12,1.4,0.08,1.68c0.12,0.16,0.36,0.28,0.52,0.2c0.16-0.08,0.36-0.4,0.44-0.44
				c0.12-0.08,0-0.2-0.08-0.08c-0.08,0.08-0.36,0.04-0.4-0.08c-0.04-0.08-0.08-1.24,0-1.28c0,0,0.32,0,0.4,0s0.08-0.2,0-0.2
				c-0.12,0-0.4-0.04-0.4-0.08c-0.04-0.12,0-0.48,0.08-0.6c0.08-0.16-0.08-0.2-0.12-0.08C42.96,23.75,42.64,24.11,42.28,24.31
				 M40.37,24.67c0.12-0.16,0.2-0.2,0.28-0.2c0.08,0,0.4,0.2,0.4,0.36c0,0.08,0,0.28,0,0.48c-0.24,0.04-0.4,0.04-0.68-0.16
				C40.33,25.11,40.33,24.75,40.37,24.67 M40.53,25.43c0.16,0.08,0.28,0.04,0.52,0c0,0.16,0,0.32,0,0.4
				c-0.12,0.08-0.28,0.16-0.44,0.24C40.49,25.99,40.29,25.87,40.53,25.43 M40.33,25.27c-0.16,0.12-0.4,0.48-0.4,0.76
				s0.12,0.52,0.28,0.68c0.28-0.2,0.44-0.44,0.88-0.6c0.04,0.2,0.2,0.24,0.36,0.36c0.12-0.12,0.48-0.56,0.56-0.64
				c0.08-0.08,0.04-0.16-0.08-0.08c-0.12,0.08-0.2,0.04-0.4-0.2c0-0.12,0-1.04,0.04-1.12c-0.2-0.2-0.36-0.44-0.56-0.44
				c-0.32,0.04-0.72,0.56-0.8,0.72C40.13,24.79,40.21,25.19,40.33,25.27C40.29,25.27,40.29,25.27,40.33,25.27 M38.49,23.47
				c0,0.24,0.12,2.44,0.08,2.76c0,0.16,0.2,0.36,0.44,0.52c0.12-0.12,0.32-0.44,0.52-0.6c0.12-0.08,0.04-0.16-0.04-0.12
				c-0.16,0.08-0.32,0-0.36-0.16c0-0.2,0-2.08,0-2.36C38.97,23.51,38.61,23.51,38.49,23.47 M38.33,21.87c0,0.88,0.36,0.96,0.76,1.2
				c0.4,0.2,1.04,0.16,1.52,0.04c0.2-0.04,0.28-0.08,0.28,0.08c0,0.08,0.12,0.08,0.12,0c0-0.08,0-0.84,0-0.92s-0.12-0.08-0.12,0
				c0,0.12,0,0.16-0.12,0.36c-0.32,0.48-1.16,0.48-1.64-0.12c-0.16-0.2-0.28-0.48-0.12-0.52s0.72,0.04,1.08,0.08
				c0.2,0,0.72,0.08,0.76,0.08c0.04,0.04,0.12,0.08,0.12,0c0-0.12,0-0.44,0-0.56s-0.08-0.04-0.12,0c-0.08,0.04-0.6,0.12-0.8,0.16
				c-0.2,0.04-0.88,0.08-1.04,0.04c-0.16-0.04-0.12-0.4,0.04-0.6c0.44-0.6,1.36-0.56,1.72-0.04c0.12,0.16,0.12,0.2,0.12,0.36
				c0,0.08,0.12,0.08,0.12,0c0-0.08,0-1,0-1.08c0-0.08-0.12-0.08-0.12,0c0,0.08-0.16,0.12-0.28,0.08c-0.28-0.08-1.12,0.04-1.48,0.24
				C38.85,20.91,38.33,21.35,38.33,21.87 M41.84,16.67c-0.16-0.04-0.72,0.04-0.92,0.04s-0.2,0.12-0.04,0.16
				c0.16,0,0.2,0.04,0.28,0.28c0.08,0.24-0.32,1.24-0.44,1.48c-0.12-0.16-0.56-1.12-0.56-1.24c0-0.08,0.2-0.2,0.28-0.2
				c0.16-0.04,0.16-0.16,0.04-0.16c-0.32-0.04-1.52-0.16-1.72-0.16c-0.16,0-0.2,0.16-0.04,0.16c0.2,0,0.4-0.04,0.6,0.24
				c0.24,0.36,1,1.96,1.16,2.6c0.08-0.16,0.84-2.32,0.88-2.52c0.04-0.24,0.2-0.44,0.44-0.52C42.04,16.79,42.04,16.67,41.84,16.67
				 M42.88,17.07l0.2-0.2v-0.32l-0.28-0.28l-0.28,0.24v0.36l0.2,0.16C42.68,17.07,42.88,17.07,42.88,17.07z M43.2,19.87l0.4-0.52
				c-0.28-0.04-0.4-0.08-0.6-0.32v-1.28l-0.4-0.4h-0.12l-0.64,0.56c-0.08,0.08,0.12,0.08,0.2-0.04l0.44,0.28v1.24
				c0.04,0.16,0.16,0.28,0.32,0.48H43.2L43.2,19.87z M45.84,17.71c-0.12,0-0.92,0-0.96-0.04c-0.08-0.16-0.08-0.36,0.08-0.68
				c0.08-0.16-0.08-0.2-0.12-0.04s-0.44,0.72-0.88,0.88c-0.2,0.08,0.28,0.28,0.24,0.28c0,0.52,0.08,1.32,0.2,1.68
				c0.08,0.2,0.28,0.52,0.44,0.4c0.08-0.04,0.32-0.48,0.36-0.52c0.12-0.08,0-0.24-0.08-0.16c-0.12,0.08-0.2-0.04-0.24-0.16
				c-0.04-0.08-0.12-1.28-0.08-1.28c0,0,0.96-0.12,1.04-0.12C45.88,17.91,45.88,17.71,45.84,17.71 M47.28,19.99
				c-0.12,0-0.24,0.04-0.4,0.12c-0.12-0.12-0.48-0.56-0.24-1c-0.04,0-0.08-0.04-0.12-0.08c0.24,0.12,0.52,0.24,0.76,0.32
				c0,0.2,0,0.36,0,0.44C47.28,19.87,47.28,19.91,47.28,19.99 M47.28,19.23c-0.24-0.08-0.76-0.32-0.92-0.48
				c-0.04-0.04-0.04-0.04,0-0.16c0.12-0.16,0.24-0.32,0.32-0.32c0.08,0,0.6,0.28,0.56,0.4C47.28,18.83,47.28,19.03,47.28,19.23
				 M47.6,20.51l0.52-0.56c0,0-0.24-0.16-0.36-0.36c0-0.12,0-1.24,0.04-1.28c-0.4-0.36-0.68-0.4-0.84-0.36
				c-0.32,0.04-0.64,0.44-0.72,0.56c-0.08,0.12-0.04,0.24,0,0.28c0.08,0.04,0.16,0.08,0.24,0.16c0,0-0.04,0-0.04-0.04
				c-0.16,0.12-0.36,0.52-0.36,0.8s0.24,0.64,0.4,0.8c0.2-0.16,0.44-0.36,0.84-0.44C47.36,20.31,47.44,20.43,47.6,20.51 M47.6,23.47
				c-0.12-0.08-0.6-0.44-0.72-0.72c-0.16-0.4-0.16-0.8,0.28-1.04c0.32,0.12,0.68,0.44,0.72,0.72C47.92,22.79,47.8,23.23,47.6,23.47
				 M48.04,23.31c0.12-0.24,0.36-0.64,0.32-0.96c0-0.4-0.24-0.96-0.8-1.12c-0.72,0.24-1.16,0.8-1.16,1.48c0,0.4,0.32,1.2,1,1.2
				C47.6,23.67,47.8,23.47,48.04,23.31 M48.72,25.23c-0.08-0.08-0.32-0.28-0.52-0.44c-0.12,0.08-0.36,0.28-0.52,0.36
				c-0.12-0.12-0.28-0.32-0.48-0.48c-0.12,0.08-0.52,0.44-0.72,0.56c0.24,0,0.6,0.08,0.6,0.32c0,0.2,0,1.32,0,1.52
				c0.16,0.04,0.32,0,0.56,0c0-0.16,0-1.48,0-1.64c0.08-0.04,0.16-0.08,0.2-0.12c0.08,0.08,0.32,0.36,0.48,0.44
				c0.08-0.08,0.36-0.32,0.48-0.4C48.96,25.23,48.8,25.15,48.72,25.23 M48.72,22.83c0.08,0.04,0.24,0.04,0.44,0.08
				c0.12,0,0.08-0.16,0-0.2c-0.08-0.04-0.28-0.08-0.4-0.08C48.6,22.63,48.56,22.75,48.72,22.83 M49.12,22.27
				c-0.08-0.04-0.28-0.08-0.4-0.08c-0.12,0-0.2,0.16-0.04,0.2c0.08,0.04,0.28,0.04,0.44,0.08C49.24,22.51,49.24,22.31,49.12,22.27
				 M52.04,50.37c-0.24,1.12-0.6,2.12-1.28,3.08c-0.48,0.68-0.64-0.64-0.24-1.92C51.08,51.33,51.64,50.89,52.04,50.37 M51.4,50.57
				c-1.48,1.48-3.72,0.92-5.48,1.72c-1.6,0.56-2.76,2.04-4.44,2.44c-0.48,0.16-0.56,0.4-0.28,0.4c0.2,0,1.2,1.08,2.84,0.24
				c0.56-0.28,2.24-1.2,2.52-1.28c-0.92,0.88-1.36,1.64-2.2,2.12c-0.48,0.28-2.52,1-4.56,0.6c-0.88-0.16-1.6,0.64-1.36,0.64
				c0.48-0.12,1.04-0.08,1.36,0.36c0.6,0.48,1.44,1.04,2.2,0.16c0.24-0.28,1.4-0.88,2.52,0.24c-1.16-0.08-1.04,2.04-3.28,1.8
				c-0.8,0-2.64-1.88-3.16-1.28c-0.92,1.04,1.96,2,0.72,3.28c-1.12,1.16-2.48-0.92-2.48-0.92c0.72,0.28,2,0.48,1.44-0.64
				c-0.24-0.44-0.64-0.88-0.64-1.68c-0.08-0.4-2.68,3.32-4.4,1.64c-0.68-0.68-2.04-2.12-3.24-2.68c3.24-0.28,3.76,1.04,3.92,1.24
				c1.04,1.4,2-0.04,2.24-0.28c0.32-0.4,0.8-0.92,0.64-1c-1.28-0.6-2.72-0.72-3.8-0.24c2.32-3.16,4.08-0.2,4.08-0.2
				c0.24,0.16-0.08-1.88-2.36-2c-1.44-0.08-2.68,1.2-3.68,1.2c-0.8,0-3.2-1.64-3.8-3.08c1.4,1.04,3.2,1.68,4.32,1
				c2.12-1.24,4.76,0.64,4.88,0.4c-0.6-0.48-1.92-2.24-5.56-1.24c-1.4,0.8-2-0.6-2.84-0.64c1.48-1.28,2.48-0.64,3-0.6
				c0.12,0-0.6-0.6-1.12-0.64c-4-0.4-6.51-1.52-6.51-1.52s0.32-0.8,2.04-0.24c0,0-1.52-0.96-1.52-2.16c0.04-0.76,0.4-1.56-0.16-2.16
				c2.32-0.08,0.68,3.12,2.32,3.96c0.04,0-0.48-0.76,0.24-1.4c0.32,0.96,1.16,1.44,1.76,1.6c0.12-0.08,0.32-0.36,0.32-0.36
				c-0.6-1-0.68-2.2-0.52-3.56h0.04c0.12,0,0.36,0.48,0.52,0.8c0.32,0.72,0.32,1.76,1,2.64c0.36,0.48,0.6,0.96,0.92,1.16
				c0.16-0.32,0.04-0.92,0-1.08c-0.08-0.56-0.4-1.52,0.52-2.36c0.44,1.28,1.04,0.88,1.12,1.52c0.12,0.84,0.08,0.72,0,1.36
				c0.04,0.88,0.88,1.16,1.6,1.72c1.64,0.88,2.72,1.36,3.44,2.52c0.36-1.92-4.84-2.32-4.2-6.04c-0.08-1.48,0.2-1.6-0.88-2.52
				c2.08,0.08,3.24,3.48,3.32,4.12c0.2,1.16,0.92,1.2,1.88,2.72c0.12,0.04-1.72-4,0.48-7.43c0,0,0.76,1.8,0.4,2.96
				c-0.2,0.72,0,1.48,0.04,1.92c0.04,0.44-0.08-1.64,1.48-2.72c0.08,0.8,0.84,2.04,0.12,3.32c-0.88,1.6-0.92,1.04-0.96,3
				c0.08-0.04,0.32-1.36,0.92-2.12c1.28-1.6,0.36-2.44,1.6-3.8c0.08,0.68,0.28,0.4,0.36,1.04c0.16,1.36-1.28,2.88-0.96,2.84
				c0.36-0.04,0.96-0.36,1.16-1.4c0,0,0.52,0.96,0.04,1.28c-0.88,0.56-1.04,1.2-0.92,1.88c0.72-0.84,1.68-1.76,1.48-2.96
				c0.08-0.72,0.88-1,1-2.68c0.04-0.28,0.32-0.6,0.6-0.76c-0.12,0.92,0.6,1.92-0.2,3.08c0.2,0.08,0.88-0.88,1.92-0.52
				c-2.08,0.36-1.48,2.6-3.04,3.64c-0.48,0.32-0.4,0.68-0.52,0.72c1.4-0.08,2.48-1.76,2.68-1.88c1.4-0.96,1.72-1.12,2.28-2.68
				c0.24-0.6,0.08-0.84,0.84-1.64c0.36,0.8-0.16,2.4-0.28,2.76c-0.24,0.76-1.16,1.4-0.96,1.4c3.8-1.68,3.76-2.8,4.68-4
				c0.28-0.48,1.64-1.24,2.12-1.32c-0.12,0.24-0.64,0.68-0.68,1.12c-0.04,0.84-0.32,1.36-0.76,2.04c0.24,0.28,0.68-0.56,1.16-0.12
				C52.16,49.49,51.88,50.17,51.4,50.57 M47.92,49.41c0.12-0.4,0.12-0.68,0.16-1c0.04-0.16,0.04-0.12,0.04-0.24
				c0-0.04,1.08,0.88,1.12,0.92c-0.28,0.32-0.48,0.44-0.76,0.68C48.32,49.61,47.92,49.45,47.92,49.41 M48.24,49.97
				c-0.48,0.44-0.8,0.6-0.72,0.36c0.12-0.24,0.2-0.44,0.28-0.64C47.84,49.65,48.24,49.97,48.24,49.97 M53.12,45.77
				c-0.44,0.12-1.64,0.6-1.92,1.08c0.16-2.6-0.68-5.12-0.96-5.72c-0.52-1.2,0.24,2.76,0.28,3.68c0,0.04-4.28-5.52-1.68-1.24
				c0.68,1.12,1.72,1.84,1.72,1.84c0,0.76-0.04,1.32-0.2,1.76c-0.28,0.2-5.84-7.43-2.76-2.12c0.4,0.64,2.6,2.64,2.6,2.68
				c-0.12,0.32-0.4,0.72-0.72,1.08c-0.08-0.08-1.28-0.96-1.28-1.04c-0.08-0.6-0.08-1.16-0.84-0.72c0,0-2.76-3.2-1.48-0.96
				c0.56,0.96,0.92,1.08,1.08,1.28c0,0-0.44,0.56-0.56,1.2c-0.04,0.24-2.4-2.56-1.48-0.8c0.28,0.56,1.36,1.2,1.36,1.24
				c-0.12,0.36-0.2,0.72-0.32,0.96c-0.16,0.28-2.2,1.92-2.2,1.92s0.4-1.28,1.28-1.92c0.48-0.36,0.48-0.28,0.84-0.48
				c0-0.2-0.2-0.52-0.44-0.6c-0.32-0.12-1.28,0.08-1.28,0.08c0.08-0.48-0.32-1.52-0.32-2.68c-0.36,0.04-1,0.6-1.16,0.92
				c-0.12,1.92-0.52,1.32-0.92,2.72c-0.4-0.56,0.04-1.4-0.4-1.92c-0.56-0.72-0.64-1.24-0.72-2.16c0.12-0.08,0.72-0.72,0.2-2.04
				c-0.08-2.12,0.84-2.92-0.84-4.4c0.12-0.04,0.24-1.12,0.24-1.12c1.24,0.68,1-0.76,1.48-1.04c0.76-0.44,0.64-0.92,0.28-1.48
				c2.2,0.64-0.08,2.12,0.88,2.16c0.72,0.04,1.2-0.16,1.52-0.64c0.32-0.52-0.04-0.84,0.88-1.64c0.08-0.08,0.32-0.64-0.4-0.8
				c-0.16-0.04,0-0.68,0-0.68c-0.6,0.48-0.76,1.2-1.72,0.76c-0.48-0.24-0.8,0-1,0.08c0,0-0.08-0.4,0.32-0.52
				c1.04-0.36,1.28-0.76,1.24-1c-0.12-0.52-0.2,0-0.16-0.56c0-0.24,0.28-0.52,0.48-0.8c0.72-0.84,1.2-0.52,1.4-0.44
				c0.4-0.32,0.48-0.28,0.88-0.44c0.64-0.24,2.08,0.16,2.84,0.52c0.4,0.16,0.84,0.28,1.28,0.2c0,0.24-0.16,0.36-0.32,0.4
				c-0.24,0.08-0.52,0-0.52,0.2c0,0.12,0.36,0.12,0.56,0.2c1.16,0.32,2.68,1.36,1.68,1.16c-0.12-0.04,0.72,0.64,1.36,1.48l2.24,2.16
				c-0.12,0.12-0.88,0-3.36-2.32c-0.36,0.32,3,2.84,4.4,5.56c-0.12,0.08-1.84-0.56-2.48-1.2c-0.96-1-2.08-3.52-2.52-3.16
				c-0.04,0,1.84,2.96,2.76,4.72c0.48,0.88,0.84,2.16,0.88,3.08c0.16,4.68-0.56,4.32-0.56,4.32c-1.12-3.68-1.6-7.99-3.2-9.95
				C50.64,37.7,53,41.93,53.12,45.77 M54.83,20.67c0-0.08-0.04-0.2-0.04-0.32c-0.04-0.24-0.72-0.4-1.2-0.16
				c-0.68,0.32-2.4,1.28-3.04,1.12v-2.44c1.56,0.68,2.16,0.08,2.64,0.08c1.52,0,1.6,1.44,1.6,1.44
				C54.79,20.47,54.83,20.59,54.83,20.67 M53.24,23.95c1.36-0.2,1.56,1.4,1.56,1.4l0,0c-0.32-0.28-1-0.4-1.44-0.08
				c-1.52,0.96-2.84,1-2.84,1v-2.44C50.48,23.83,50.76,24.31,53.24,23.95 M50.04,28.9c-2.44,0.16-7.51-1.24-8.79-1.24
				c-2.64,0-3.92,1.04-3.92,1.04s0-12.03,0-12.47c0,0,3.48-1.64,6.04-0.72c3.12,1.16,6.71,0.64,6.71,0.64L50.04,28.9L50.04,28.9z
				 M39.93,30.78c0.08,0.48-0.36,0.6-0.36,0.6c0.68,0.16,1.04-0.24,1.16-0.52c0.28,1.12-0.84,1.16-1.2,1.24c0,0,0.56,0.16,0.6,0.52
				c0.08,0.92,0.68,0.88,0.8,0.8c0,0.12-0.2,0.68-0.88,0.16c-0.12,0.12,0.2,0.28,0.24,0.76c0.08,0.6,0.04,1.12,0.72,1.52
				c-0.4,0.32-0.92-0.52-0.96-0.44c-0.04,0.12,0.6,0.44-0.12,2.08c-0.32-0.2-0.12-0.16-0.52-0.6c-0.28-0.24-0.4-0.28-0.16,0.08
				c0.4,0.52,0.52,1.68,0.36,2c-0.32-0.16-0.24-0.4-0.64-0.76c-0.04,0.16,0.12,0.92,0.52,1.28c0.72,0.64,0.96,1.4,0.96,1.56
				c0.04,0.56-0.12,1.36-0.2,2.08c-0.32-0.04-0.64-1-0.72-0.96c-0.08,0.08,0.04,0.96,0.68,1.56c0.32,0.92,0.2,1.4,0.12,1.44
				c-0.12,0.04-0.44-0.92-0.64-0.76c0.92,2.32,0.28,3.12,0.04,3.84c-0.2-0.72-0.28-1.28-0.52-2.12c-0.48,0.4-0.6,0.96-1.24,1.52
				c0-0.96-0.56-3.24-1-3.76c0-0.04-0.8,2.04-1.12,2.96c-0.44,1.2-0.52,2.68,0,3.88c-1.12-1.6-1.24-4.6-0.28-5
				c0.08-0.2-0.08-0.92-0.28-0.84c-0.08,0.36,0,0.64-0.32,0.96c-0.76-0.24-0.4-1.12-0.32-1.44c0.96-1.16,0.36-1.44,0.32-1.4
				c-0.12,0.28-0.2,0.6-0.48,0.72c-0.6-1.08-0.24-2.76,0.96-4c0.04-0.48-0.52,0.36-0.92,0.32c-0.08-0.92,0.24-2.48,1.88-2.52
				c-0.32-0.08-0.48-0.16-0.56-0.4c0.52-0.08,2.08-0.2,1.84-1.44c-0.16,0.16-0.2,0.36-0.6,0.64c-0.28,0.16-0.6,0.2-0.72-0.08
				c0.72-0.24,0.48-1.12-0.48-0.88c-0.28,0.08-0.72-0.24-0.76-0.56c0.2,0.2,0.64,0.04,0.88-0.12c1.08-0.72,1.72,0.32,1.88,0.52
				c0.04,0,0.48-1-1.04-1.28c-0.12-0.36-0.48-1-1.52-0.92c-0.32-1.2-1.36-0.6-1.36-0.08c-1.12-0.8,0-1.84,0.48-2
				c0.32,0.04,0.24,1,0.8,0.84c0.12-0.04-0.4-0.68-0.2-0.96c0.48-0.28,0.48,0.36,0.72,0.12c0.12-0.44,0.6-0.68,1-0.72
				C37.97,30.14,38.85,31.38,39.93,30.78 M36.73,28.7c0,0-1.64-0.88-3.6-1.04c-1.88-0.12-5.68,1.36-8.59,1.16V16.03
				c0,0,3.32,0.44,4.68-0.08c4.64-1.8,7.47,0.2,7.47,0.2L36.73,28.7L36.73,28.7z M23.94,26.02h-1.6v-1.56h1.6V26.02z M23.94,20.59
				h-1.6v-1.56h1.6V20.59z M20.5,26.46c-1.84,0-1.84-2.72,0-2.72C22.3,23.75,22.3,26.46,20.5,26.46 M20.5,21.03
				c-1.8,0-1.76-2.72,0-2.72C22.3,18.31,22.3,21.03,20.5,21.03 M32.45,33.74c-0.32-0.56,0.4-1.12,0.4-1.12c0,1.6,2,0.48,3.08,1
				c0.24,0.12,0.44,0.32,0.52,0.56C35.33,33.42,33.21,35.02,32.45,33.74 M26.98,47.17c0,0.56-0.04,0.96,0.12,1.52
				c0.24,0.84,0.12,0.56-0.24,0.28c-0.28-0.32-0.52-0.56-0.68-0.92C26.18,47.77,26.38,47.77,26.98,47.17 M22.86,35.94L22.86,35.94
				c-0.08-0.04-2.68,1.6-4.36,0.8c1.28-0.68,5.64-3.48,6.79-4.24c0.56,0.12,0.8-0.08,0.96-0.2c-0.44,0.04-1.96,0.28-1.2-1.08
				c0.28,1.2,2.4,0.08,3.16-0.08c2.12-0.48,2.12,1.8,1.92,2.72c-0.08,0.36,0.64,0.6,1,0.56c-0.6,1.48-1.64,0.08-1.76,0.64
				c-0.04,0.24-0.76,0.4-0.76,1c0,0.8,0.32,0.36,0.32,0.96c0.04,0.6-0.24,0.12-0.2,0.76c0.08,1,1.8-0.12,2.48,0.12
				c0.36,0.12,0.56,0.44,0.92,0.4c0.08-0.08,0.04-0.48,0.04-0.6c-0.04-0.32-0.64-0.36-0.92-0.8c-0.24-0.4,0.28-1.52,0.56-1.88
				c0.4,1.92,2.2,1.32,2.44,3.32c0.16,0.56-0.6,1.2,0,2.12c-0.48,0.44-1.04,2.64-0.04,3.64c-0.16,0.48-0.4,1.52,0.48,2.16
				c-0.28,0.64-0.24,1.4,0,2.16c-0.56,0-0.44-3.08-3.72-3.16c-0.08-0.04-0.08,0.36,0,0.52c0.4,0.68,0.92,0.64,0.8,2.28
				c-0.04,0.56-0.36-0.08-0.52-0.24c-0.4-0.36-0.72-0.4-0.88-1.52c-1.32,1.04-1.2,2.32-1.12,2.96c0,0-0.28-0.8-0.64-1.64
				c0-0.04,1.36-1.68,1.56-2.08c2.76-4.96-1.8,1.6-1.8,1.6c-0.24-0.56-0.48-1.04-0.6-1.2c0.04-0.08,0.8-0.92,1.12-1.64
				c2.12-4.44-1.28,1.48-1.4,1.36c-0.24-0.24-0.48-0.52-0.64-0.4c-0.04,0.68-0.2,0.6-0.16,1.28c-0.36,0.48-1.12,1.24-1.64,1.6
				c0,0-0.12-1.24-0.08-1.28c0.28-0.32,1.32-1.44,1.52-1.8c3.52-5.52-1.64,1.32-1.64,1.28c-0.04-0.2-0.32-0.56-0.6-0.88
				c0,0,1.12-1.56,1.4-2.12c2.12-4.36-1.72,1.92-1.76,1.92c-0.08-0.04-0.08-0.04-0.2-0.08c-0.12-0.04,0.12-1.28,0.28-2
				c0.28-1.48-0.48-0.28-0.68,2.04c-0.2,0.04-0.68,0.08-0.88,0.24c0.12,0.6,0.28,0.16,0.52,0.72c0.32,0.72-0.44,1.88,0.2,2.72
				c0.24,0.32,0.28,0.28,0.2,0.48c-0.4-0.04-0.64-0.04-0.88,0.32c-0.48-2.2-0.48-3.28-0.36-5.52c0.04-1.04,0.4-2.56,0.24-2.6
				c-0.16-0.04-2.48,5.96-3.04,7.11c-1-0.32,0.6-5.52,2.64-7.99c0.2-0.8-1.04,0.8-1.8,1.44c-0.68,0.6-1.56,1.32-2.48,1.08
				c1.2-1.28,4-3.68,4.28-4.28c0.28-0.52-1.88,1.6-4.16,0.8C19.46,38.93,22.86,37.18,22.86,35.94 M22.86,50.49
				c0.4,0.24,0.84,0.36,1.24,0.56c0.52,1.32,0,2.64-0.28,2.08C23.34,52.16,23.14,51.37,22.86,50.49 M57.83,43.09V13.51
				c-23.74-2.28-41.69,0-41.69,0v29.58c1.88,20.06,20.66,22.38,20.86,22.38C40.37,64.87,56.11,61.72,57.83,43.09"/>
		</g>
	</g>
</g>
</svg>
