<svg width="1520" height="436" viewBox="0 0 1520 436" fill="none" xmlns="http://www.w3.org/2000/svg">
<g clip-path="url(#clip0_1_169)">
<rect width="1520" height="436" rx="24" fill="white"/>
<path d="M36.7272 117.575C38.4981 117.575 40.1292 117.812 41.6207 118.286C43.1075 118.754 44.4829 119.455 45.7471 120.388V122.81C45.2784 122.445 44.7055 122.109 44.0284 121.801C43.3513 121.489 42.6079 121.219 41.7983 120.992C40.9886 120.759 40.1505 120.58 39.2841 120.452C38.4176 120.319 37.5653 120.253 36.7272 120.253C35.6051 120.253 34.4687 120.367 33.3182 120.594C32.1676 120.816 31.0999 121.122 30.115 121.51C29.1302 121.894 28.3253 122.327 27.7003 122.81V120.388C28.9645 119.455 30.3423 118.754 31.8338 118.286C33.3205 117.812 34.9517 117.575 36.7272 117.575Z" fill="black"/>
<path d="M45.8182 130.493H27.6364V129.328H45.8182V130.493ZM33.4531 127.133C32.8328 127.199 32.3499 127.479 32.0043 127.971C31.6586 128.459 31.4858 129.093 31.4858 129.875C31.4858 130.424 31.5686 130.895 31.7344 131.288C31.9001 131.681 32.125 131.982 32.4091 132.19C32.6932 132.398 33.0175 132.505 33.3821 132.51C33.6851 132.51 33.9479 132.441 34.1704 132.304C34.393 132.162 34.5824 131.97 34.7386 131.728C34.8901 131.487 35.018 131.219 35.1221 130.926C35.2263 130.632 35.3139 130.336 35.3849 130.038L35.7258 128.674C35.8537 128.125 36.0265 127.597 36.2443 127.091C36.4621 126.579 36.7367 126.122 37.0682 125.72C37.3996 125.313 37.7997 124.991 38.2685 124.754C38.7372 124.517 39.2864 124.399 39.9162 124.399C40.7685 124.399 41.5189 124.617 42.1676 125.052C42.8115 125.488 43.3158 126.118 43.6804 126.941C44.0402 127.761 44.2202 128.753 44.2202 129.917C44.2202 131.049 44.045 132.031 43.6946 132.865C43.3442 133.693 42.8329 134.342 42.1605 134.811C41.4882 135.275 40.669 135.526 39.7031 135.564V132.971C40.2097 132.933 40.6311 132.777 40.9673 132.503C41.3035 132.228 41.5544 131.87 41.7202 131.43C41.8859 130.985 41.9687 130.488 41.9687 129.939C41.9687 129.366 41.8835 128.864 41.7131 128.433C41.5379 127.997 41.2964 127.656 40.9886 127.41C40.6761 127.164 40.3115 127.039 39.8949 127.034C39.5161 127.039 39.2036 127.15 38.9574 127.368C38.7064 127.585 38.4981 127.891 38.3324 128.284C38.1619 128.672 38.0104 129.127 37.8778 129.647L37.4517 131.302C37.1439 132.5 36.6775 133.447 36.0525 134.143C35.4228 134.834 34.5871 135.18 33.5454 135.18C32.6884 135.18 31.938 134.948 31.294 134.484C30.6501 134.015 30.1506 133.378 29.7954 132.574C29.4356 131.769 29.2557 130.857 29.2557 129.839C29.2557 128.807 29.4356 127.903 29.7954 127.126C30.1506 126.345 30.6453 125.732 31.2798 125.287C31.9096 124.842 32.634 124.612 33.4531 124.598V127.133Z" fill="black"/>
<path d="M36.7272 142.384C34.9517 142.384 33.3205 142.149 31.8338 141.68C30.3423 141.207 28.9645 140.504 27.7003 139.571V137.149C28.169 137.509 28.7443 137.845 29.4261 138.158C30.1032 138.47 30.8466 138.742 31.6562 138.974C32.4611 139.202 33.2968 139.382 34.1633 139.514C35.0298 139.642 35.8844 139.706 36.7272 139.706C37.8494 139.706 38.9858 139.595 40.1363 139.372C41.2869 139.145 42.3546 138.84 43.3395 138.456C44.3196 138.068 45.1221 137.632 45.7471 137.149V139.571C44.4829 140.504 43.1075 141.207 41.6207 141.68C40.1292 142.149 38.4981 142.384 36.7272 142.384Z" fill="black"/>
<path d="M44.2131 155.01C44.2131 156.103 43.9858 157.048 43.5312 157.843C43.072 158.634 42.4233 159.243 41.5852 159.669C40.7424 160.095 39.7505 160.308 38.6094 160.308C37.4872 160.308 36.5024 160.095 35.6548 159.669C34.8025 159.238 34.1397 158.637 33.6662 157.865C33.188 157.093 32.9489 156.186 32.9489 155.145C32.9489 154.472 33.0578 153.838 33.2756 153.241C33.4886 152.64 33.8201 152.11 34.2699 151.65C34.7197 151.186 35.2926 150.822 35.9886 150.557C36.6799 150.291 37.5038 150.159 38.4602 150.159H39.2486V159.101H37.5156V152.623C37.0232 152.628 36.5852 152.735 36.2017 152.943C35.8134 153.151 35.508 153.442 35.2855 153.816C35.063 154.186 34.9517 154.617 34.9517 155.109C34.9517 155.635 35.0795 156.096 35.3352 156.494C35.5862 156.892 35.9176 157.202 36.3295 157.424C36.7367 157.642 37.1842 157.753 37.6719 157.758H39.1846C39.8191 157.758 40.3636 157.642 40.8182 157.41C41.268 157.178 41.6136 156.854 41.8551 156.437C42.0918 156.021 42.2102 155.533 42.2102 154.974C42.2102 154.6 42.1581 154.262 42.054 153.958C41.9451 153.655 41.7864 153.393 41.5781 153.17C41.3698 152.948 41.1117 152.78 40.804 152.666L41.0739 150.265C41.7083 150.417 42.2623 150.706 42.7358 151.132C43.2045 151.553 43.5691 152.093 43.8295 152.751C44.0852 153.409 44.2131 154.162 44.2131 155.01Z" fill="black"/>
<path d="M39.4119 165.054H33.0909V162.483H44V164.976H42.0611V165.09C42.6718 165.336 43.1714 165.741 43.5596 166.304C43.9479 166.863 44.142 167.552 44.142 168.371C44.142 169.086 43.9834 169.718 43.6662 170.267C43.3442 170.812 42.8778 171.238 42.267 171.546C41.6515 171.853 40.9081 172.007 40.0369 172.007H33.0909V169.436H39.6392C40.3305 169.436 40.8797 169.247 41.2869 168.868C41.6941 168.489 41.8977 167.992 41.8977 167.376C41.8977 166.998 41.8054 166.631 41.6207 166.276C41.4361 165.921 41.1614 165.629 40.7968 165.402C40.4275 165.17 39.9659 165.054 39.4119 165.054Z" fill="black"/>
<path d="M29.4545 174.651H44V177.222H29.4545V174.651Z" fill="black"/>
<path d="M44.2202 185.567C44.2202 186.258 44.0971 186.881 43.8508 187.435C43.5999 187.984 43.2306 188.42 42.7429 188.742C42.2552 189.059 41.6539 189.218 40.9389 189.218C40.3234 189.218 39.8144 189.104 39.4119 188.877C39.0095 188.65 38.6875 188.339 38.446 187.946C38.2045 187.553 38.0222 187.111 37.8991 186.618C37.7713 186.121 37.679 185.607 37.6221 185.077C37.5559 184.438 37.4967 183.919 37.4446 183.522C37.3878 183.124 37.3025 182.835 37.1889 182.655C37.0705 182.471 36.8882 182.378 36.642 182.378H36.5994C36.0644 182.378 35.6501 182.537 35.3565 182.854C35.063 183.171 34.9162 183.628 34.9162 184.225C34.9162 184.855 35.0535 185.354 35.3281 185.723C35.6027 186.088 35.9271 186.334 36.3011 186.462L35.9602 188.863C35.2973 188.673 34.7434 188.361 34.2983 187.925C33.8485 187.489 33.5123 186.957 33.2898 186.327C33.0625 185.697 32.9489 185.001 32.9489 184.239C32.9489 183.713 33.0104 183.19 33.1335 182.669C33.2566 182.149 33.4602 181.673 33.7443 181.242C34.0237 180.811 34.4048 180.465 34.8878 180.205C35.3707 179.94 35.9744 179.807 36.6989 179.807H44V182.279H42.5014V182.364C42.8044 182.52 43.0885 182.74 43.3537 183.025C43.6141 183.304 43.8248 183.657 43.9858 184.083C44.142 184.504 44.2202 184.999 44.2202 185.567ZM42.331 184.9C42.331 184.383 42.2292 183.936 42.0256 183.557C41.8172 183.178 41.5426 182.887 41.2017 182.684C40.8608 182.475 40.4891 182.371 40.0866 182.371H38.8011C38.8674 182.452 38.929 182.589 38.9858 182.783C39.0426 182.972 39.0923 183.186 39.1349 183.422C39.1775 183.659 39.2154 183.893 39.2486 184.125C39.2817 184.357 39.3101 184.559 39.3338 184.729C39.3859 185.113 39.4711 185.456 39.5895 185.759C39.7078 186.062 39.8736 186.301 40.0866 186.476C40.295 186.651 40.5649 186.739 40.8963 186.739C41.3698 186.739 41.7273 186.566 41.9687 186.221C42.2102 185.875 42.331 185.435 42.331 184.9Z" fill="black"/>
<path d="M29.4545 199.987L40.9034 196.201V196.052L29.4545 192.274V189.376L44 194.504V197.756L29.4545 202.877V199.987Z" fill="black"/>
<path d="M33.0909 209.157H35.0795V215.429H33.0909V209.157ZM30.4772 213.88V211.309H40.7187C41.0644 211.309 41.3295 211.257 41.5142 211.153C41.6941 211.044 41.8172 210.902 41.8835 210.727C41.9498 210.552 41.9829 210.358 41.9829 210.145C41.9829 209.984 41.9711 209.837 41.9474 209.704C41.9237 209.567 41.9024 209.463 41.8835 209.392L43.8934 208.958C43.9408 209.096 43.9929 209.292 44.0497 209.548C44.1065 209.799 44.1396 210.107 44.1491 210.471C44.168 211.115 44.071 211.695 43.8579 212.211C43.6401 212.727 43.3039 213.137 42.8494 213.44C42.3948 213.738 41.8267 213.885 41.1448 213.88H30.4772Z" fill="black"/>
<path d="M37.6079 224.221H44V226.792H33.0909V224.335H34.9446V224.207C34.3338 223.956 33.8485 223.556 33.4886 223.007C33.1288 222.453 32.9489 221.769 32.9489 220.954C32.9489 220.201 33.1098 219.546 33.4318 218.987C33.7538 218.423 34.2202 217.988 34.831 217.68C35.4417 217.368 36.1828 217.214 37.054 217.218H44V219.789H37.4517C36.7225 219.789 36.152 219.979 35.74 220.358C35.3281 220.732 35.1221 221.25 35.1221 221.913C35.1221 222.363 35.2216 222.763 35.4204 223.113C35.6146 223.459 35.8963 223.731 36.2656 223.93C36.6349 224.124 37.0824 224.221 37.6079 224.221Z" fill="black"/>
<path d="M44.2131 233.818C44.2131 234.912 43.9858 235.857 43.5312 236.652C43.072 237.443 42.4233 238.051 41.5852 238.477C40.7424 238.903 39.7505 239.117 38.6094 239.117C37.4872 239.117 36.5024 238.903 35.6548 238.477C34.8025 238.046 34.1397 237.445 33.6662 236.673C33.188 235.902 32.9489 234.995 32.9489 233.953C32.9489 233.281 33.0578 232.646 33.2756 232.05C33.4886 231.448 33.8201 230.918 34.2699 230.459C34.7197 229.995 35.2926 229.63 35.9886 229.365C36.6799 229.1 37.5038 228.967 38.4602 228.967H39.2486V237.909H37.5156V231.432C37.0232 231.437 36.5852 231.543 36.2017 231.751C35.8134 231.96 35.508 232.251 35.2855 232.625C35.063 232.994 34.9517 233.425 34.9517 233.918C34.9517 234.443 35.0795 234.905 35.3352 235.303C35.5862 235.7 35.9176 236.01 36.3295 236.233C36.7367 236.451 37.1842 236.562 37.6719 236.567H39.1846C39.8191 236.567 40.3636 236.451 40.8182 236.219C41.268 235.987 41.6136 235.662 41.8551 235.246C42.0918 234.829 42.2102 234.341 42.2102 233.783C42.2102 233.409 42.1581 233.07 42.054 232.767C41.9451 232.464 41.7864 232.201 41.5781 231.979C41.3698 231.756 41.1117 231.588 40.804 231.474L41.0739 229.074C41.7083 229.225 42.2623 229.514 42.7358 229.94C43.2045 230.362 43.5691 230.902 43.8295 231.56C44.0852 232.218 44.2131 232.971 44.2131 233.818Z" fill="black"/>
<path d="M44 256.597H33.0909V254.14H34.9446V254.012C34.3196 253.784 33.8319 253.408 33.4815 252.882C33.1264 252.357 32.9489 251.73 32.9489 251C32.9489 250.262 33.1288 249.639 33.4886 249.132C33.8437 248.621 34.3291 248.261 34.9446 248.053V247.939C34.3385 247.698 33.8556 247.291 33.4957 246.718C33.1311 246.14 32.9489 245.456 32.9489 244.665C32.9489 243.661 33.2661 242.842 33.9006 242.208C34.535 241.573 35.4607 241.256 36.6775 241.256H44V243.834H37.0753C36.3982 243.834 35.9034 244.014 35.5909 244.374C35.2737 244.734 35.115 245.174 35.115 245.695C35.115 246.315 35.3092 246.801 35.6974 247.151C36.081 247.497 36.5805 247.669 37.196 247.669H44V250.191H36.9687C36.4053 250.191 35.9555 250.361 35.6193 250.702C35.2831 251.038 35.115 251.479 35.115 252.023C35.115 252.392 35.2097 252.729 35.3991 253.032C35.5838 253.335 35.8466 253.576 36.1875 253.756C36.5237 253.936 36.9167 254.026 37.3665 254.026H44V256.597Z" fill="black"/>
<path d="M44 261.812H33.0909V259.241H44V261.812ZM31.5426 260.519C31.5426 260.926 31.4077 261.277 31.1378 261.57C30.8631 261.864 30.5341 262.011 30.1506 262.011C29.7623 262.011 29.4332 261.864 29.1633 261.57C28.8887 261.277 28.7514 260.926 28.7514 260.519C28.7514 260.107 28.8887 259.757 29.1633 259.468C29.4332 259.175 29.7623 259.028 30.1506 259.028C30.5341 259.028 30.8631 259.175 31.1378 259.468C31.4077 259.757 31.5426 260.107 31.5426 260.519Z" fill="black"/>
<path d="M33.0909 263.962H35.0795V270.233H33.0909V263.962ZM30.4772 268.685V266.114H40.7187C41.0644 266.114 41.3295 266.062 41.5142 265.958C41.6941 265.849 41.8172 265.707 41.8835 265.532C41.9498 265.356 41.9829 265.162 41.9829 264.949C41.9829 264.788 41.9711 264.641 41.9474 264.509C41.9237 264.372 41.9024 264.267 41.8835 264.196L43.8934 263.763C43.9408 263.9 43.9929 264.097 44.0497 264.353C44.1065 264.604 44.1396 264.911 44.1491 265.276C44.168 265.92 44.071 266.5 43.8579 267.016C43.6401 267.532 43.3039 267.942 42.8494 268.245C42.3948 268.543 41.8267 268.69 41.1448 268.685H30.4772Z" fill="black"/>
<path d="M35.9744 271.764L36.2301 274.108C35.9934 274.174 35.7708 274.29 35.5625 274.456C35.3542 274.617 35.1861 274.834 35.0582 275.109C34.9304 275.384 34.8665 275.72 34.8665 276.118C34.8665 276.653 34.9825 277.102 35.2145 277.467C35.4465 277.827 35.7471 278.004 36.1165 278C36.4337 278.004 36.6917 277.888 36.8906 277.652C37.0895 277.41 37.2528 277.012 37.3807 276.458L37.7784 274.598C38.0009 273.565 38.3537 272.798 38.8366 272.297C39.3196 271.79 39.9517 271.534 40.7329 271.529C41.4195 271.534 42.0256 271.735 42.5511 272.133C43.072 272.526 43.4792 273.073 43.7727 273.774C44.0663 274.475 44.2131 275.28 44.2131 276.189C44.2131 277.524 43.9337 278.599 43.375 279.413C42.8115 280.227 42.0279 280.713 41.0241 280.869L40.7827 278.362C41.2751 278.248 41.6468 278.007 41.8977 277.637C42.1487 277.268 42.2741 276.788 42.2741 276.196C42.2741 275.585 42.1487 275.095 41.8977 274.726C41.6468 274.351 41.3366 274.164 40.9673 274.164C40.6548 274.164 40.3968 274.285 40.1932 274.527C39.9896 274.763 39.8333 275.133 39.7244 275.635L39.3338 277.495C39.116 278.542 38.749 279.316 38.2329 279.818C37.7121 280.32 37.054 280.568 36.2585 280.564C35.5862 280.568 35.0038 280.386 34.5114 280.017C34.0142 279.643 33.6307 279.124 33.3608 278.461C33.0862 277.794 32.9489 277.024 32.9489 276.153C32.9489 274.875 33.2211 273.869 33.7656 273.135C34.3101 272.396 35.0464 271.939 35.9744 271.764Z" fill="black"/>
<path d="M44.2131 287.412C44.2131 288.506 43.9858 289.45 43.5312 290.246C43.072 291.036 42.4233 291.645 41.5852 292.071C40.7424 292.497 39.7505 292.71 38.6094 292.71C37.4872 292.71 36.5024 292.497 35.6548 292.071C34.8025 291.64 34.1397 291.039 33.6662 290.267C33.188 289.495 32.9489 288.589 32.9489 287.547C32.9489 286.875 33.0578 286.24 33.2756 285.644C33.4886 285.042 33.8201 284.512 34.2699 284.053C34.7197 283.589 35.2926 283.224 35.9886 282.959C36.6799 282.694 37.5038 282.561 38.4602 282.561H39.2486V291.503H37.5156V285.026C37.0232 285.03 36.5852 285.137 36.2017 285.345C35.8134 285.554 35.508 285.845 35.2855 286.219C35.063 286.588 34.9517 287.019 34.9517 287.511C34.9517 288.037 35.0795 288.499 35.3352 288.896C35.5862 289.294 35.9176 289.604 36.3295 289.827C36.7367 290.045 37.1842 290.156 37.6719 290.161H39.1846C39.8191 290.161 40.3636 290.045 40.8182 289.813C41.268 289.581 41.6136 289.256 41.8551 288.84C42.0918 288.423 42.2102 287.935 42.2102 287.376C42.2102 287.002 42.1581 286.664 42.054 286.361C41.9451 286.058 41.7864 285.795 41.5781 285.572C41.3698 285.35 41.1117 285.182 40.804 285.068L41.0739 282.668C41.7083 282.819 42.2623 283.108 42.7358 283.534C43.2045 283.956 43.5691 284.495 43.8295 285.153C44.0852 285.812 44.2131 286.564 44.2131 287.412Z" fill="black"/>
<path d="M33.0909 293.65L44 297.534V300.375L33.0909 304.26V301.519L41.1946 299.012V298.898L33.0909 296.384V293.65Z" fill="black"/>
<path d="M37.6079 312.62H44V315.191H33.0909V312.733H34.9446V312.606C34.3338 312.355 33.8485 311.954 33.4886 311.405C33.1288 310.851 32.9489 310.167 32.9489 309.353C32.9489 308.6 33.1098 307.944 33.4318 307.385C33.7538 306.822 34.2202 306.386 34.831 306.079C35.4417 305.766 36.1828 305.612 37.054 305.617H44V308.188H37.4517C36.7225 308.188 36.152 308.377 35.74 308.756C35.3281 309.13 35.1221 309.649 35.1221 310.311C35.1221 310.761 35.2216 311.161 35.4204 311.512C35.6146 311.857 35.8963 312.13 36.2656 312.329C36.6349 312.523 37.0824 312.62 37.6079 312.62Z" fill="black"/>
<path d="M29.4545 317.93H44V320.565H29.4545V317.93Z" fill="black"/>
<path d="M1083.51 44.1917C1082.65 44.1917 1081.88 43.9716 1081.2 43.5312C1080.53 43.0909 1079.99 42.4517 1079.6 41.6136C1079.21 40.7756 1079.01 39.7576 1079.01 38.5596C1079.01 37.3475 1079.21 36.3248 1079.61 35.4915C1080.01 34.6534 1080.55 34.0213 1081.23 33.5952C1081.92 33.1643 1082.68 32.9488 1083.51 32.9488C1084.15 32.9488 1084.68 33.0577 1085.09 33.2756C1085.5 33.4886 1085.83 33.7467 1086.07 34.0497C1086.31 34.348 1086.5 34.6297 1086.63 34.8949H1086.74V29.4545H1089.32V44H1086.79V42.2812H1086.63C1086.5 42.5464 1086.31 42.8281 1086.06 43.1264C1085.8 43.42 1085.47 43.6709 1085.06 43.8792C1084.65 44.0876 1084.13 44.1917 1083.51 44.1917ZM1084.22 42.0824C1084.77 42.0824 1085.23 41.9356 1085.62 41.642C1086 41.3437 1086.29 40.9294 1086.49 40.3991C1086.69 39.8688 1086.79 39.2509 1086.79 38.5454C1086.79 37.8399 1086.69 37.2268 1086.49 36.7059C1086.29 36.1851 1086.01 35.7803 1085.62 35.4915C1085.24 35.2026 1084.78 35.0582 1084.22 35.0582C1083.65 35.0582 1083.17 35.2074 1082.79 35.5057C1082.41 35.804 1082.12 36.2159 1081.92 36.7415C1081.73 37.267 1081.63 37.8684 1081.63 38.5454C1081.63 39.2273 1081.73 39.8357 1081.92 40.3707C1082.12 40.901 1082.41 41.3201 1082.8 41.6278C1083.18 41.9309 1083.66 42.0824 1084.22 42.0824Z" fill="black"/>
<path d="M1069.84 37.6079V44H1067.27V33.0909H1069.73V34.9446H1069.86C1070.11 34.3338 1070.51 33.8485 1071.06 33.4886C1071.61 33.1288 1072.29 32.9489 1073.11 32.9489C1073.86 32.9489 1074.52 33.1098 1075.08 33.4318C1075.64 33.7538 1076.07 34.2202 1076.38 34.831C1076.69 35.4417 1076.85 36.1828 1076.84 37.054V44H1074.27V37.4517C1074.27 36.7225 1074.08 36.152 1073.7 35.74C1073.33 35.3281 1072.81 35.1221 1072.15 35.1221C1071.7 35.1221 1071.3 35.2216 1070.95 35.4204C1070.6 35.6146 1070.33 35.8963 1070.13 36.2656C1069.94 36.6349 1069.84 37.0824 1069.84 37.6079Z" fill="black"/>
<path d="M1062.06 39.4119V33.0909H1064.63V44H1062.13V42.0611H1062.02C1061.77 42.6718 1061.37 43.1714 1060.81 43.5596C1060.25 43.9479 1059.56 44.142 1058.74 44.142C1058.02 44.142 1057.39 43.9834 1056.84 43.6662C1056.3 43.3442 1055.87 42.8778 1055.56 42.267C1055.26 41.6515 1055.1 40.9081 1055.1 40.0369V33.0909H1057.67V39.6392C1057.67 40.3305 1057.86 40.8797 1058.24 41.2869C1058.62 41.6941 1059.12 41.8977 1059.73 41.8977C1060.11 41.8977 1060.48 41.8054 1060.83 41.6207C1061.19 41.4361 1061.48 41.1614 1061.71 40.7968C1061.94 40.4275 1062.06 39.9659 1062.06 39.4119Z" fill="black"/>
<path d="M1044.18 44V29.4545H1053.5V31.6633H1046.82V35.6122H1052.86V37.821H1046.82V44H1044.18Z" fill="black"/>
<path d="M1029.41 37.6079V44H1026.84V29.4545H1029.35V34.9446H1029.48C1029.74 34.3291 1030.13 33.8437 1030.67 33.4886C1031.21 33.1288 1031.9 32.9488 1032.73 32.9488C1033.49 32.9488 1034.15 33.1075 1034.71 33.4247C1035.27 33.7419 1035.71 34.2059 1036.02 34.8167C1036.33 35.4275 1036.49 36.1733 1036.49 37.054V44H1033.91V37.4517C1033.91 36.7178 1033.73 36.1472 1033.35 35.74C1032.97 35.3281 1032.45 35.1221 1031.77 35.1221C1031.32 35.1221 1030.91 35.2216 1030.55 35.4204C1030.19 35.6146 1029.91 35.8963 1029.71 36.2656C1029.51 36.6349 1029.41 37.0824 1029.41 37.6079Z" fill="black"/>
<path d="M1024.46 33.0909V35.0795H1018.18V33.0909H1024.46ZM1019.73 30.4772H1022.3V40.7187C1022.3 41.0644 1022.36 41.3295 1022.46 41.5142C1022.57 41.6941 1022.71 41.8172 1022.89 41.8835C1023.06 41.9498 1023.26 41.9829 1023.47 41.9829C1023.63 41.9829 1023.78 41.9711 1023.91 41.9474C1024.05 41.9237 1024.15 41.9024 1024.22 41.8835L1024.65 43.8934C1024.52 43.9408 1024.32 43.9929 1024.07 44.0497C1023.81 44.1065 1023.51 44.1396 1023.14 44.1491C1022.5 44.168 1021.92 44.071 1021.4 43.8579C1020.89 43.6401 1020.48 43.3039 1020.17 42.8494C1019.88 42.3948 1019.73 41.8267 1019.73 41.1448V30.4772Z" fill="black"/>
<path d="M1004.52 44L1001.44 33.0909H1004.06L1005.98 40.7613H1006.08L1008.04 33.0909H1010.63L1012.59 40.7187H1012.7L1014.59 33.0909H1017.21L1014.12 44H1011.45L1009.4 36.6278H1009.25L1007.21 44H1004.52Z" fill="black"/>
<path d="M995.173 44.2131C994.108 44.2131 993.185 43.9787 992.403 43.5099C991.622 43.0412 991.016 42.3854 990.585 41.5426C990.159 40.6998 989.946 39.715 989.946 38.5881C989.946 37.4612 990.159 36.4739 990.585 35.6264C991.016 34.7789 991.622 34.1207 992.403 33.652C993.185 33.1832 994.108 32.9489 995.173 32.9489C996.239 32.9489 997.162 33.1832 997.943 33.652C998.724 34.1207 999.328 34.7789 999.754 35.6264C1000.19 36.4739 1000.4 37.4612 1000.4 38.5881C1000.4 39.715 1000.19 40.6998 999.754 41.5426C999.328 42.3854 998.724 43.0412 997.943 43.5099C997.162 43.9787 996.239 44.2131 995.173 44.2131ZM995.188 42.1534C995.765 42.1534 996.248 41.9948 996.636 41.6775C997.025 41.3556 997.313 40.9247 997.503 40.3849C997.697 39.8452 997.794 39.2438 997.794 38.581C997.794 37.9133 997.697 37.3096 997.503 36.7699C997.313 36.2254 997.025 35.7921 996.636 35.4702C996.248 35.1482 995.765 34.9872 995.188 34.9872C994.596 34.9872 994.103 35.1482 993.71 35.4702C993.322 35.7921 993.031 36.2254 992.837 36.7699C992.647 37.3096 992.553 37.9133 992.553 38.581C992.553 39.2438 992.647 39.8452 992.837 40.3849C993.031 40.9247 993.322 41.3556 993.71 41.6775C994.103 41.9948 994.596 42.1534 995.188 42.1534Z" fill="black"/>
<path d="M982.934 44V33.0909H985.427V34.9091H985.541C985.74 34.2793 986.081 33.794 986.564 33.4531C987.051 33.1075 987.608 32.9346 988.233 32.9346C988.375 32.9346 988.533 32.9417 988.708 32.9559C988.888 32.9654 989.038 32.982 989.156 33.0057V35.3707C989.047 35.3328 988.874 35.2997 988.637 35.2713C988.405 35.2381 988.181 35.2216 987.963 35.2216C987.494 35.2216 987.073 35.3234 986.699 35.527C986.329 35.7258 986.038 36.0028 985.825 36.3579C985.612 36.713 985.505 37.1226 985.505 37.5866V44H982.934Z" fill="black"/>
<path d="M977.695 34.0994C977.576 33.7159 977.413 33.3726 977.205 33.0696C977.001 32.7618 976.755 32.499 976.466 32.2812C976.182 32.0634 975.855 31.9001 975.486 31.7912C975.116 31.6776 974.714 31.6207 974.278 31.6207C973.497 31.6207 972.801 31.8172 972.19 32.2102C971.58 32.6032 971.099 33.1809 970.749 33.9432C970.403 34.7008 970.23 35.624 970.23 36.7131C970.23 37.8115 970.403 38.7419 970.749 39.5043C971.094 40.2666 971.575 40.8466 972.19 41.2443C972.806 41.6373 973.521 41.8338 974.335 41.8338C975.074 41.8338 975.713 41.6918 976.253 41.4077C976.797 41.1236 977.216 40.7211 977.51 40.2003C977.803 39.6747 977.95 39.0592 977.95 38.3537L978.547 38.446H974.598V36.3864H980.5V38.1335C980.5 39.3788 980.235 40.456 979.705 41.3651C979.174 42.2741 978.445 42.9749 977.517 43.4673C976.589 43.955 975.524 44.1989 974.321 44.1989C972.981 44.1989 971.804 43.8982 970.791 43.2969C969.783 42.6908 968.994 41.8314 968.426 40.7187C967.863 39.6013 967.581 38.2756 967.581 36.7415C967.581 35.5672 967.747 34.5185 968.078 33.5952C968.414 32.6719 968.883 31.8883 969.484 31.2443C970.086 30.5956 970.791 30.1032 971.601 29.767C972.41 29.4261 973.291 29.2557 974.243 29.2557C975.048 29.2557 975.798 29.374 976.494 29.6108C977.19 29.8428 977.808 30.1742 978.348 30.6051C978.892 31.036 979.34 31.5473 979.69 32.1392C980.041 32.7311 980.27 33.3845 980.379 34.0994H977.695Z" fill="black"/>
<path d="M960.232 29.4545V44H957.661V29.4545H960.232Z" fill="black"/>
<path d="M949.316 44.2202C948.624 44.2202 948.002 44.0971 947.448 43.8508C946.899 43.5999 946.463 43.2306 946.141 42.7429C945.824 42.2552 945.665 41.6539 945.665 40.9389C945.665 40.3234 945.779 39.8144 946.006 39.4119C946.233 39.0095 946.543 38.6875 946.936 38.446C947.329 38.2045 947.772 38.0222 948.265 37.8991C948.762 37.7713 949.275 37.679 949.806 37.6221C950.445 37.5559 950.963 37.4967 951.361 37.4446C951.759 37.3878 952.048 37.3025 952.228 37.1889C952.412 37.0705 952.505 36.8882 952.505 36.642V36.5994C952.505 36.0644 952.346 35.6501 952.029 35.3565C951.712 35.063 951.255 34.9162 950.658 34.9162C950.028 34.9162 949.529 35.0535 949.159 35.3281C948.795 35.6027 948.549 35.9271 948.421 36.3011L946.02 35.9602C946.21 35.2973 946.522 34.7434 946.958 34.2983C947.393 33.8485 947.926 33.5123 948.556 33.2898C949.186 33.0625 949.882 32.9489 950.644 32.9489C951.169 32.9489 951.693 33.0104 952.213 33.1335C952.734 33.2566 953.21 33.4602 953.641 33.7443C954.072 34.0237 954.418 34.4048 954.678 34.8878C954.943 35.3707 955.076 35.9744 955.076 36.6989V44H952.604V42.5014H952.519C952.363 42.8044 952.142 43.0885 951.858 43.3537C951.579 43.6141 951.226 43.8248 950.8 43.9858C950.379 44.142 949.884 44.2202 949.316 44.2202ZM949.983 42.331C950.499 42.331 950.947 42.2292 951.326 42.0256C951.704 41.8172 951.996 41.5426 952.199 41.2017C952.408 40.8608 952.512 40.4891 952.512 40.0866V38.8011C952.431 38.8674 952.294 38.929 952.1 38.9858C951.91 39.0426 951.697 39.0923 951.461 39.1349C951.224 39.1775 950.989 39.2154 950.757 39.2486C950.525 39.2817 950.324 39.3101 950.154 39.3338C949.77 39.3859 949.427 39.4711 949.124 39.5895C948.821 39.7078 948.582 39.8736 948.407 40.0866C948.231 40.295 948.144 40.5649 948.144 40.8963C948.144 41.3698 948.317 41.7273 948.662 41.9687C949.008 42.2102 949.448 42.331 949.983 42.331Z" fill="black"/>
<path d="M944.026 33.0909V35.0795H937.755V33.0909H944.026ZM939.303 30.4772H941.874V40.7187C941.874 41.0644 941.926 41.3295 942.031 41.5142C942.139 41.6941 942.282 41.8172 942.457 41.8835C942.632 41.9498 942.826 41.9829 943.039 41.9829C943.2 41.9829 943.347 41.9711 943.479 41.9474C943.617 41.9237 943.721 41.9024 943.792 41.8835L944.225 43.8934C944.088 43.9408 943.891 43.9929 943.636 44.0497C943.385 44.1065 943.077 44.1396 942.712 44.1491C942.068 44.168 941.488 44.071 940.972 43.8579C940.456 43.6401 940.047 43.3039 939.744 42.8494C939.445 42.3948 939.299 41.8267 939.303 41.1448V30.4772Z" fill="black"/>
<path d="M933.364 44V33.0909H935.935V44H933.364ZM934.657 31.5426C934.249 31.5426 933.899 31.4077 933.605 31.1378C933.312 30.8631 933.165 30.5341 933.165 30.1506C933.165 29.7623 933.312 29.4332 933.605 29.1633C933.899 28.8887 934.249 28.7514 934.657 28.7514C935.069 28.7514 935.419 28.8887 935.708 29.1633C936.001 29.4332 936.148 29.7623 936.148 30.1506C936.148 30.5341 936.001 30.8631 935.708 31.1378C935.419 31.4077 935.069 31.5426 934.657 31.5426Z" fill="black"/>
<path d="M920.864 48.0909V33.0909H923.392V34.8949H923.542C923.674 34.6297 923.861 34.348 924.103 34.0497C924.344 33.7467 924.671 33.4886 925.083 33.2756C925.495 33.0578 926.02 32.9489 926.659 32.9489C927.502 32.9489 928.262 33.1643 928.939 33.5952C929.621 34.0213 930.161 34.6534 930.559 35.4915C930.961 36.3248 931.162 37.3475 931.162 38.5596C931.162 39.7576 930.966 40.7756 930.573 41.6136C930.18 42.4517 929.645 43.0909 928.968 43.5312C928.291 43.9716 927.524 44.1917 926.667 44.1917C926.042 44.1917 925.523 44.0876 925.111 43.8792C924.699 43.6709 924.368 43.42 924.117 43.1264C923.871 42.8281 923.679 42.5464 923.542 42.2812H923.435V48.0909H920.864ZM923.385 38.5454C923.385 39.2509 923.485 39.8688 923.684 40.3991C923.887 40.9294 924.178 41.3437 924.557 41.642C924.941 41.9356 925.405 42.0824 925.949 42.0824C926.517 42.0824 926.993 41.9309 927.377 41.6278C927.76 41.3201 928.049 40.901 928.243 40.3707C928.442 39.8357 928.542 39.2273 928.542 38.5454C928.542 37.8684 928.445 37.267 928.25 36.7415C928.056 36.2159 927.767 35.804 927.384 35.5057C927 35.2074 926.522 35.0582 925.949 35.0582C925.4 35.0582 924.934 35.2026 924.55 35.4915C924.167 35.7803 923.875 36.1851 923.677 36.706C923.482 37.2268 923.385 37.84 923.385 38.5454Z" fill="black"/>
<path d="M912.519 44.2202C911.828 44.2202 911.205 44.0971 910.651 43.8508C910.102 43.5999 909.666 43.2306 909.344 42.7429C909.027 42.2552 908.868 41.6539 908.868 40.9389C908.868 40.3234 908.982 39.8144 909.209 39.4119C909.436 39.0095 909.747 38.6875 910.14 38.446C910.533 38.2045 910.975 38.0222 911.468 37.8991C911.965 37.7713 912.479 37.679 913.009 37.6221C913.648 37.5559 914.167 37.4967 914.564 37.4446C914.962 37.3878 915.251 37.3025 915.431 37.1889C915.615 37.0705 915.708 36.8882 915.708 36.642V36.5994C915.708 36.0644 915.549 35.6501 915.232 35.3565C914.915 35.063 914.458 34.9162 913.861 34.9162C913.231 34.9162 912.732 35.0535 912.363 35.3281C911.998 35.6027 911.752 35.9271 911.624 36.3011L909.223 35.9602C909.413 35.2973 909.725 34.7434 910.161 34.2983C910.597 33.8485 911.129 33.5123 911.759 33.2898C912.389 33.0625 913.085 32.9489 913.847 32.9489C914.373 32.9489 914.896 33.0104 915.417 33.1335C915.937 33.2566 916.413 33.4602 916.844 33.7443C917.275 34.0237 917.621 34.4048 917.881 34.8878C918.146 35.3707 918.279 35.9744 918.279 36.6989V44H915.807V42.5014H915.722C915.566 42.8044 915.346 43.0885 915.061 43.3537C914.782 43.6141 914.429 43.8248 914.003 43.9858C913.582 44.142 913.087 44.2202 912.519 44.2202ZM913.186 42.331C913.703 42.331 914.15 42.2292 914.529 42.0256C914.908 41.8172 915.199 41.5426 915.402 41.2017C915.611 40.8608 915.715 40.4891 915.715 40.0866V38.8011C915.634 38.8674 915.497 38.929 915.303 38.9858C915.114 39.0426 914.9 39.0923 914.664 39.1349C914.427 39.1775 914.193 39.2154 913.961 39.2486C913.729 39.2817 913.527 39.3101 913.357 39.3338C912.973 39.3859 912.63 39.4711 912.327 39.5895C912.024 39.7078 911.785 39.8736 911.61 40.0866C911.435 40.295 911.347 40.5649 911.347 40.8963C911.347 41.3698 911.52 41.7273 911.865 41.9687C912.211 42.2102 912.651 42.331 913.186 42.331Z" fill="black"/>
<path d="M907.08 34.3622H904.424C904.348 33.9266 904.209 33.5407 904.005 33.2045C903.801 32.8636 903.548 32.5748 903.245 32.3381C902.942 32.1013 902.596 31.9238 902.208 31.8054C901.825 31.6823 901.41 31.6207 900.965 31.6207C900.174 31.6207 899.474 31.8196 898.863 32.2173C898.252 32.6103 897.774 33.188 897.428 33.9503C897.083 34.7079 896.91 35.6335 896.91 36.7273C896.91 37.84 897.083 38.7775 897.428 39.5398C897.779 40.2973 898.257 40.8703 898.863 41.2585C899.474 41.642 900.172 41.8338 900.958 41.8338C901.394 41.8338 901.801 41.777 902.18 41.6633C902.563 41.545 902.906 41.3722 903.209 41.1449C903.517 40.9176 903.775 40.6383 903.984 40.3068C904.197 39.9754 904.343 39.5966 904.424 39.1704L907.08 39.1847C906.981 39.8759 906.765 40.5246 906.434 41.1307C906.107 41.7367 905.679 42.2718 905.148 42.7358C904.618 43.1951 903.998 43.5549 903.288 43.8153C902.577 44.071 901.789 44.1989 900.923 44.1989C899.644 44.1989 898.503 43.9029 897.499 43.3111C896.495 42.7192 895.705 41.8646 895.127 40.7472C894.549 39.6297 894.261 38.2898 894.261 36.7273C894.261 35.16 894.552 33.8201 895.134 32.7074C895.717 31.59 896.51 30.7353 897.513 30.1435C898.517 29.5516 899.654 29.2557 900.923 29.2557C901.732 29.2557 902.485 29.3693 903.181 29.5966C903.877 29.8239 904.497 30.1577 905.042 30.598C905.586 31.0336 906.034 31.5687 906.384 32.2031C906.739 32.8329 906.971 33.5526 907.08 34.3622Z" fill="black"/>
<path d="M879.939 37.6079V44H877.368V33.0909H879.825V34.9446H879.953C880.204 34.3338 880.604 33.8485 881.153 33.4886C881.707 33.1288 882.392 32.9489 883.206 32.9489C883.959 32.9489 884.615 33.1098 885.173 33.4318C885.737 33.7538 886.172 34.2202 886.48 34.831C886.793 35.4417 886.947 36.1828 886.942 37.054V44H884.371V37.4517C884.371 36.7225 884.181 36.152 883.803 35.74C883.429 35.3281 882.91 35.1221 882.247 35.1221C881.797 35.1221 881.397 35.2216 881.047 35.4204C880.701 35.6146 880.429 35.8963 880.23 36.2656C880.036 36.6349 879.939 37.0824 879.939 37.6079Z" fill="black"/>
<path d="M869.958 44.2131C868.893 44.2131 867.97 43.9787 867.189 43.5099C866.407 43.0412 865.801 42.3854 865.37 41.5426C864.944 40.6998 864.731 39.715 864.731 38.5881C864.731 37.4612 864.944 36.4739 865.37 35.6264C865.801 34.7789 866.407 34.1207 867.189 33.652C867.97 33.1832 868.893 32.9489 869.958 32.9489C871.024 32.9489 871.947 33.1832 872.728 33.652C873.51 34.1207 874.113 34.7789 874.539 35.6264C874.97 36.4739 875.186 37.4612 875.186 38.5881C875.186 39.715 874.97 40.6998 874.539 41.5426C874.113 42.3854 873.51 43.0412 872.728 43.5099C871.947 43.9787 871.024 44.2131 869.958 44.2131ZM869.973 42.1534C870.55 42.1534 871.033 41.9948 871.422 41.6775C871.81 41.3556 872.099 40.9247 872.288 40.3849C872.482 39.8452 872.579 39.2438 872.579 38.581C872.579 37.9133 872.482 37.3096 872.288 36.7699C872.099 36.2254 871.81 35.7921 871.422 35.4702C871.033 35.1482 870.55 34.9872 869.973 34.9872C869.381 34.9872 868.888 35.1482 868.495 35.4702C868.107 35.7921 867.816 36.2254 867.622 36.7699C867.432 37.3096 867.338 37.9133 867.338 38.581C867.338 39.2438 867.432 39.8452 867.622 40.3849C867.816 40.9247 868.107 41.3556 868.495 41.6775C868.888 41.9948 869.381 42.1534 869.973 42.1534Z" fill="black"/>
<path d="M859.985 44V33.0909H862.556V44H859.985ZM861.278 31.5426C860.87 31.5426 860.52 31.4077 860.227 31.1378C859.933 30.8631 859.786 30.5341 859.786 30.1506C859.786 29.7623 859.933 29.4332 860.227 29.1633C860.52 28.8887 860.87 28.7514 861.278 28.7514C861.69 28.7514 862.04 28.8887 862.329 29.1633C862.622 29.4332 862.769 29.7623 862.769 30.1506C862.769 30.5341 862.622 30.8631 862.329 31.1378C862.04 31.4077 861.69 31.5426 861.278 31.5426Z" fill="black"/>
<path d="M857.631 35.9744L855.287 36.2301C855.221 35.9934 855.105 35.7708 854.939 35.5625C854.778 35.3542 854.56 35.1861 854.286 35.0582C854.011 34.9304 853.675 34.8665 853.277 34.8665C852.742 34.8665 852.292 34.9825 851.928 35.2145C851.568 35.4465 851.39 35.7471 851.395 36.1165C851.39 36.4337 851.506 36.6917 851.743 36.8906C851.984 37.0895 852.382 37.2528 852.936 37.3807L854.797 37.7784C855.829 38.0009 856.596 38.3537 857.098 38.8366C857.605 39.3196 857.86 39.9517 857.865 40.7329C857.86 41.4195 857.659 42.0256 857.261 42.5511C856.868 43.072 856.322 43.4792 855.621 43.7727C854.92 44.0663 854.115 44.2131 853.206 44.2131C851.871 44.2131 850.796 43.9337 849.982 43.375C849.167 42.8115 848.682 42.0279 848.526 41.0241L851.033 40.7827C851.146 41.2751 851.388 41.6468 851.757 41.8977C852.126 42.1487 852.607 42.2741 853.199 42.2741C853.81 42.2741 854.3 42.1487 854.669 41.8977C855.043 41.6468 855.23 41.3366 855.23 40.9673C855.23 40.6548 855.109 40.3968 854.868 40.1932C854.631 39.9896 854.262 39.8333 853.76 39.7244L851.899 39.3338C850.853 39.116 850.079 38.749 849.577 38.2329C849.075 37.7121 848.826 37.054 848.831 36.2585C848.826 35.5862 849.009 35.0038 849.378 34.5114C849.752 34.0142 850.27 33.6307 850.933 33.3608C851.601 33.0862 852.37 32.9489 853.241 32.9489C854.52 32.9489 855.526 33.2211 856.26 33.7656C856.999 34.3101 857.455 35.0464 857.631 35.9744Z" fill="black"/>
<path d="M843.794 44V33.0909H846.365V44H843.794ZM845.086 31.5426C844.679 31.5426 844.329 31.4077 844.035 31.1378C843.742 30.8631 843.595 30.5341 843.595 30.1506C843.595 29.7623 843.742 29.4332 844.035 29.1633C844.329 28.8887 844.679 28.7514 845.086 28.7514C845.498 28.7514 845.849 28.8887 846.137 29.1633C846.431 29.4332 846.578 29.7623 846.578 30.1506C846.578 30.5341 846.431 30.8631 846.137 31.1378C845.849 31.4077 845.498 31.5426 845.086 31.5426Z" fill="black"/>
<path d="M831.381 29.4545L835.166 40.9034H835.315L839.094 29.4545H841.991L836.864 44H833.611L828.49 29.4545H831.381Z" fill="black"/>
<path d="M822.205 402.608V409H819.634V394.455H822.148V399.945H822.276C822.531 399.329 822.927 398.844 823.462 398.489C824.001 398.129 824.688 397.949 825.521 397.949C826.279 397.949 826.939 398.107 827.503 398.425C828.066 398.742 828.502 399.206 828.81 399.817C829.122 400.428 829.278 401.173 829.278 402.054V409H826.707V402.452C826.707 401.718 826.518 401.147 826.139 400.74C825.765 400.328 825.24 400.122 824.563 400.122C824.108 400.122 823.701 400.222 823.341 400.42C822.986 400.615 822.706 400.896 822.503 401.266C822.304 401.635 822.205 402.082 822.205 402.608Z" fill="black"/>
<path d="M817.249 398.091V400.08H810.978V398.091H817.249ZM812.526 395.477H815.097V405.719C815.097 406.064 815.149 406.33 815.253 406.514C815.362 406.694 815.504 406.817 815.679 406.884C815.854 406.95 816.049 406.983 816.262 406.983C816.423 406.983 816.569 406.971 816.702 406.947C816.839 406.924 816.944 406.902 817.015 406.884L817.448 408.893C817.31 408.941 817.114 408.993 816.858 409.05C816.607 409.107 816.3 409.14 815.935 409.149C815.291 409.168 814.711 409.071 814.195 408.858C813.679 408.64 813.269 408.304 812.966 407.849C812.668 407.395 812.521 406.827 812.526 406.145V395.477Z" fill="black"/>
<path d="M802.185 402.608V409H799.614V398.091H802.071V399.945H802.199C802.45 399.334 802.85 398.848 803.4 398.489C803.954 398.129 804.638 397.949 805.452 397.949C806.205 397.949 806.861 398.11 807.419 398.432C807.983 398.754 808.418 399.22 808.726 399.831C809.039 400.442 809.193 401.183 809.188 402.054V409H806.617V402.452C806.617 401.723 806.427 401.152 806.049 400.74C805.675 400.328 805.156 400.122 804.493 400.122C804.043 400.122 803.643 400.222 803.293 400.42C802.947 400.615 802.675 400.896 802.476 401.266C802.282 401.635 802.185 402.082 802.185 402.608Z" fill="black"/>
<path d="M792.205 409.213C791.139 409.213 790.216 408.979 789.435 408.51C788.653 408.041 788.047 407.385 787.617 406.543C787.19 405.7 786.977 404.715 786.977 403.588C786.977 402.461 787.19 401.474 787.617 400.626C788.047 399.779 788.653 399.121 789.435 398.652C790.216 398.183 791.139 397.949 792.205 397.949C793.27 397.949 794.193 398.183 794.974 398.652C795.756 399.121 796.359 399.779 796.786 400.626C797.216 401.474 797.432 402.461 797.432 403.588C797.432 404.715 797.216 405.7 796.786 406.543C796.359 407.385 795.756 408.041 794.974 408.51C794.193 408.979 793.27 409.213 792.205 409.213ZM792.219 407.153C792.796 407.153 793.279 406.995 793.668 406.678C794.056 406.356 794.345 405.925 794.534 405.385C794.728 404.845 794.825 404.244 794.825 403.581C794.825 402.913 794.728 402.31 794.534 401.77C794.345 401.225 794.056 400.792 793.668 400.47C793.279 400.148 792.796 399.987 792.219 399.987C791.627 399.987 791.134 400.148 790.742 400.47C790.353 400.792 790.062 401.225 789.868 401.77C789.679 402.31 789.584 402.913 789.584 403.581C789.584 404.244 789.679 404.845 789.868 405.385C790.062 405.925 790.353 406.356 790.742 406.678C791.134 406.995 791.627 407.153 792.219 407.153Z" fill="black"/>
<path d="M769.435 394.455H772.659L776.977 404.994H777.148L781.466 394.455H784.69V409H782.162V399.007H782.027L778.007 408.957H776.118L772.098 398.986H771.963V409H769.435V394.455Z" fill="black"/>
<path d="M146.695 90.2216C145.759 90.2216 144.956 89.9848 144.286 89.5113C143.619 89.0341 143.106 88.3466 142.746 87.4488C142.39 86.5473 142.212 85.4621 142.212 84.1932C142.215 82.9242 142.395 81.8447 142.751 80.9545C143.111 80.0606 143.625 79.3788 144.291 78.9091C144.962 78.4394 145.763 78.2045 146.695 78.2045C147.626 78.2045 148.428 78.4394 149.098 78.9091C149.768 79.3788 150.282 80.0606 150.638 80.9545C150.998 81.8485 151.178 82.928 151.178 84.1932C151.178 85.4659 150.998 86.553 150.638 87.4545C150.282 88.3523 149.768 89.0379 149.098 89.5113C148.431 89.9848 147.63 90.2216 146.695 90.2216ZM146.695 88.4432C147.422 88.4432 147.996 88.0852 148.416 87.3693C148.84 86.6496 149.053 85.5909 149.053 84.1932C149.053 83.2689 148.956 82.4924 148.763 81.8636C148.57 81.2348 148.297 80.7613 147.945 80.4432C147.592 80.1212 147.176 79.9602 146.695 79.9602C145.971 79.9602 145.399 80.3201 144.979 81.0398C144.558 81.7557 144.346 82.8068 144.342 84.1932C144.339 85.1212 144.431 85.9015 144.621 86.5341C144.814 87.1667 145.087 87.6439 145.439 87.9659C145.791 88.2841 146.21 88.4432 146.695 88.4432Z" fill="black"/>
<path d="M136.023 90.2216C135.087 90.2216 134.284 89.9848 133.614 89.5113C132.947 89.0341 132.434 88.3466 132.074 87.4488C131.718 86.5473 131.54 85.4621 131.54 84.1932C131.544 82.9242 131.724 81.8447 132.08 80.9545C132.439 80.0606 132.953 79.3788 133.619 78.9091C134.29 78.4394 135.091 78.2045 136.023 78.2045C136.955 78.2045 137.756 78.4394 138.426 78.9091C139.097 79.3788 139.61 80.0606 139.966 80.9545C140.326 81.8485 140.506 82.928 140.506 84.1932C140.506 85.4659 140.326 86.553 139.966 87.4545C139.61 88.3523 139.097 89.0379 138.426 89.5113C137.759 89.9848 136.958 90.2216 136.023 90.2216ZM136.023 88.4432C136.75 88.4432 137.324 88.0852 137.744 87.3693C138.169 86.6496 138.381 85.5909 138.381 84.1932C138.381 83.2689 138.284 82.4924 138.091 81.8636C137.898 81.2348 137.625 80.7613 137.273 80.4432C136.92 80.1212 136.504 79.9602 136.023 79.9602C135.299 79.9602 134.727 80.3201 134.307 81.0398C133.886 81.7557 133.674 82.8068 133.67 84.1932C133.667 85.1212 133.759 85.9015 133.949 86.5341C134.142 87.1667 134.415 87.6439 134.767 87.9659C135.119 88.2841 135.538 88.4432 136.023 88.4432Z" fill="black"/>
<path d="M125.351 90.2216C124.415 90.2216 123.612 89.9848 122.942 89.5113C122.275 89.0341 121.762 88.3466 121.402 87.4488C121.046 86.5473 120.868 85.4621 120.868 84.1932C120.872 82.9242 121.052 81.8447 121.408 80.9545C121.768 80.0606 122.281 79.3788 122.947 78.9091C123.618 78.4394 124.419 78.2045 125.351 78.2045C126.283 78.2045 127.084 78.4394 127.754 78.9091C128.425 79.3788 128.938 80.0606 129.294 80.9545C129.654 81.8485 129.834 82.928 129.834 84.1932C129.834 85.4659 129.654 86.553 129.294 87.4545C128.938 88.3523 128.425 89.0379 127.754 89.5113C127.088 89.9848 126.286 90.2216 125.351 90.2216ZM125.351 88.4432C126.078 88.4432 126.652 88.0852 127.072 87.3693C127.497 86.6496 127.709 85.5909 127.709 84.1932C127.709 83.2689 127.612 82.4924 127.419 81.8636C127.226 81.2348 126.953 80.7613 126.601 80.4432C126.249 80.1212 125.832 79.9602 125.351 79.9602C124.627 79.9602 124.055 80.3201 123.635 81.0398C123.215 81.7557 123.002 82.8068 122.999 84.1932C122.995 85.1212 123.088 85.9015 123.277 86.5341C123.47 87.1667 123.743 87.6439 124.095 87.9659C124.447 88.2841 124.866 88.4432 125.351 88.4432Z" fill="black"/>
<path d="M114.858 90.1591C114.013 90.1591 113.263 90.017 112.608 89.7329C111.956 89.4488 111.445 89.0606 111.074 88.5682C110.706 88.072 110.525 87.5095 110.528 86.8807C110.525 86.392 110.631 85.9432 110.847 85.5341C111.063 85.125 111.354 84.7841 111.722 84.5113C112.093 84.2348 112.506 84.0587 112.96 83.9829V83.9034C112.362 83.7708 111.877 83.4659 111.506 82.9886C111.138 82.5076 110.956 81.9526 110.96 81.3238C110.956 80.7254 111.123 80.1913 111.46 79.7216C111.797 79.2519 112.259 78.8826 112.847 78.6136C113.434 78.3409 114.104 78.2045 114.858 78.2045C115.604 78.2045 116.269 78.3409 116.852 78.6136C117.439 78.8826 117.902 79.2519 118.239 79.7216C118.58 80.1913 118.75 80.7254 118.75 81.3238C118.75 81.9526 118.563 82.5076 118.188 82.9886C117.816 83.4659 117.337 83.7708 116.75 83.9034V83.9829C117.205 84.0587 117.614 84.2348 117.977 84.5113C118.345 84.7841 118.636 85.125 118.852 85.5341C119.072 85.9432 119.182 86.392 119.182 86.8807C119.182 87.5095 118.996 88.072 118.625 88.5682C118.254 89.0606 117.742 89.4488 117.091 89.7329C116.443 90.017 115.699 90.1591 114.858 90.1591ZM114.858 88.5341C115.294 88.5341 115.672 88.4602 115.994 88.3125C116.316 88.161 116.566 87.9488 116.744 87.6761C116.922 87.4034 117.013 87.089 117.017 86.7329C117.013 86.3617 116.917 86.0341 116.727 85.75C116.542 85.4621 116.286 85.2367 115.96 85.0738C115.638 84.911 115.271 84.8295 114.858 84.8295C114.441 84.8295 114.07 84.911 113.744 85.0738C113.419 85.2367 113.161 85.4621 112.972 85.75C112.786 86.0341 112.695 86.3617 112.699 86.7329C112.695 87.089 112.782 87.4034 112.96 87.6761C113.138 87.9451 113.388 88.1553 113.71 88.3068C114.036 88.4583 114.419 88.5341 114.858 88.5341ZM114.858 83.2329C115.214 83.2329 115.528 83.161 115.801 83.017C116.078 82.8731 116.295 82.6723 116.455 82.4148C116.614 82.1572 116.695 81.8598 116.699 81.5227C116.695 81.1894 116.616 80.8977 116.46 80.6477C116.305 80.3939 116.089 80.1988 115.813 80.0625C115.536 79.9223 115.218 79.8523 114.858 79.8523C114.491 79.8523 114.167 79.9223 113.886 80.0625C113.61 80.1988 113.394 80.3939 113.239 80.6477C113.087 80.8977 113.013 81.1894 113.017 81.5227C113.013 81.8598 113.089 82.1572 113.244 82.4148C113.403 82.6685 113.621 82.8693 113.898 83.017C114.178 83.161 114.498 83.2329 114.858 83.2329Z" fill="black"/>
<path d="M107.767 78.3636V90H105.659V80.4148H105.591L102.869 82.1534V80.2216L105.761 78.3636H107.767Z" fill="black"/>
<path d="M146.742 144.222C145.806 144.222 145.003 143.985 144.332 143.511C143.666 143.034 143.152 142.347 142.793 141.449C142.437 140.547 142.259 139.462 142.259 138.193C142.262 136.924 142.442 135.845 142.798 134.955C143.158 134.061 143.671 133.379 144.338 132.909C145.009 132.439 145.81 132.205 146.742 132.205C147.673 132.205 148.474 132.439 149.145 132.909C149.815 133.379 150.329 134.061 150.685 134.955C151.045 135.848 151.224 136.928 151.224 138.193C151.224 139.466 151.045 140.553 150.685 141.455C150.329 142.352 149.815 143.038 149.145 143.511C148.478 143.985 147.677 144.222 146.742 144.222ZM146.742 142.443C147.469 142.443 148.043 142.085 148.463 141.369C148.887 140.65 149.099 139.591 149.099 138.193C149.099 137.269 149.003 136.492 148.81 135.864C148.616 135.235 148.344 134.761 147.992 134.443C147.639 134.121 147.223 133.96 146.742 133.96C146.018 133.96 145.446 134.32 145.026 135.04C144.605 135.756 144.393 136.807 144.389 138.193C144.385 139.121 144.478 139.901 144.668 140.534C144.861 141.167 145.134 141.644 145.486 141.966C145.838 142.284 146.257 142.443 146.742 142.443Z" fill="black"/>
<path d="M136.07 144.222C135.134 144.222 134.331 143.985 133.661 143.511C132.994 143.034 132.481 142.347 132.121 141.449C131.765 140.547 131.587 139.462 131.587 138.193C131.59 136.924 131.77 135.845 132.126 134.955C132.486 134.061 133 133.379 133.666 132.909C134.337 132.439 135.138 132.205 136.07 132.205C137.001 132.205 137.803 132.439 138.473 132.909C139.143 133.379 139.657 134.061 140.013 134.955C140.373 135.848 140.553 136.928 140.553 138.193C140.553 139.466 140.373 140.553 140.013 141.455C139.657 142.352 139.143 143.038 138.473 143.511C137.806 143.985 137.005 144.222 136.07 144.222ZM136.07 142.443C136.797 142.443 137.371 142.085 137.791 141.369C138.215 140.65 138.428 139.591 138.428 138.193C138.428 137.269 138.331 136.492 138.138 135.864C137.945 135.235 137.672 134.761 137.32 134.443C136.967 134.121 136.551 133.96 136.07 133.96C135.346 133.96 134.774 134.32 134.354 135.04C133.933 135.756 133.721 136.807 133.717 138.193C133.714 139.121 133.806 139.901 133.996 140.534C134.189 141.167 134.462 141.644 134.814 141.966C135.166 142.284 135.585 142.443 136.07 142.443Z" fill="black"/>
<path d="M125.398 144.222C124.462 144.222 123.659 143.985 122.989 143.511C122.322 143.034 121.809 142.347 121.449 141.449C121.093 140.547 120.915 139.462 120.915 138.193C120.919 136.924 121.099 135.845 121.455 134.955C121.814 134.061 122.328 133.379 122.994 132.909C123.665 132.439 124.466 132.205 125.398 132.205C126.33 132.205 127.131 132.439 127.801 132.909C128.472 133.379 128.985 134.061 129.341 134.955C129.701 135.848 129.881 136.928 129.881 138.193C129.881 139.466 129.701 140.553 129.341 141.455C128.985 142.352 128.472 143.038 127.801 143.511C127.134 143.985 126.333 144.222 125.398 144.222ZM125.398 142.443C126.125 142.443 126.699 142.085 127.119 141.369C127.544 140.65 127.756 139.591 127.756 138.193C127.756 137.269 127.659 136.492 127.466 135.864C127.273 135.235 127 134.761 126.648 134.443C126.295 134.121 125.879 133.96 125.398 133.96C124.674 133.96 124.102 134.32 123.682 135.04C123.261 135.756 123.049 136.807 123.045 138.193C123.042 139.121 123.134 139.901 123.324 140.534C123.517 141.167 123.79 141.644 124.142 141.966C124.494 142.284 124.913 142.443 125.398 142.443Z" fill="black"/>
<path d="M114.983 144.159C114.426 144.155 113.883 144.059 113.352 143.869C112.822 143.676 112.345 143.364 111.92 142.932C111.496 142.496 111.159 141.919 110.909 141.199C110.659 140.475 110.536 139.58 110.54 138.511C110.54 137.515 110.646 136.627 110.858 135.847C111.07 135.066 111.375 134.407 111.773 133.869C112.17 133.328 112.65 132.915 113.21 132.631C113.775 132.347 114.405 132.205 115.102 132.205C115.833 132.205 116.481 132.348 117.045 132.636C117.614 132.924 118.072 133.318 118.42 133.818C118.769 134.314 118.985 134.875 119.068 135.5H116.994C116.888 135.053 116.67 134.697 116.341 134.432C116.015 134.163 115.602 134.028 115.102 134.028C114.295 134.028 113.674 134.379 113.239 135.08C112.807 135.78 112.589 136.742 112.585 137.966H112.665C112.85 137.633 113.091 137.347 113.386 137.108C113.682 136.869 114.015 136.686 114.386 136.557C114.761 136.424 115.157 136.358 115.574 136.358C116.256 136.358 116.867 136.521 117.409 136.847C117.955 137.172 118.386 137.621 118.705 138.193C119.023 138.761 119.18 139.413 119.176 140.148C119.18 140.913 119.006 141.6 118.653 142.21C118.301 142.816 117.811 143.294 117.182 143.642C116.553 143.991 115.82 144.163 114.983 144.159ZM114.972 142.455C115.384 142.455 115.754 142.354 116.08 142.153C116.405 141.953 116.663 141.682 116.852 141.341C117.042 141 117.134 140.617 117.131 140.193C117.134 139.776 117.044 139.4 116.858 139.062C116.676 138.725 116.424 138.458 116.102 138.261C115.78 138.064 115.413 137.966 115 137.966C114.693 137.966 114.407 138.025 114.142 138.142C113.877 138.259 113.646 138.422 113.449 138.631C113.252 138.835 113.097 139.074 112.983 139.347C112.873 139.616 112.816 139.903 112.812 140.21C112.816 140.616 112.911 140.989 113.097 141.33C113.282 141.67 113.538 141.943 113.864 142.148C114.189 142.352 114.559 142.455 114.972 142.455Z" fill="black"/>
<path d="M107.767 132.364V144H105.659V134.415H105.591L102.869 136.153V134.222L105.761 132.364H107.767Z" fill="black"/>
<path d="M147.023 198.222C146.087 198.222 145.284 197.985 144.614 197.511C143.947 197.034 143.434 196.347 143.074 195.449C142.718 194.547 142.54 193.462 142.54 192.193C142.544 190.924 142.724 189.845 143.08 188.955C143.439 188.061 143.953 187.379 144.619 186.909C145.29 186.439 146.091 186.205 147.023 186.205C147.955 186.205 148.756 186.439 149.426 186.909C150.097 187.379 150.61 188.061 150.966 188.955C151.326 189.848 151.506 190.928 151.506 192.193C151.506 193.466 151.326 194.553 150.966 195.455C150.61 196.352 150.097 197.038 149.426 197.511C148.759 197.985 147.958 198.222 147.023 198.222ZM147.023 196.443C147.75 196.443 148.324 196.085 148.744 195.369C149.169 194.65 149.381 193.591 149.381 192.193C149.381 191.269 149.284 190.492 149.091 189.864C148.898 189.235 148.625 188.761 148.273 188.443C147.92 188.121 147.504 187.96 147.023 187.96C146.299 187.96 145.727 188.32 145.307 189.04C144.886 189.756 144.674 190.807 144.67 192.193C144.667 193.121 144.759 193.901 144.949 194.534C145.142 195.167 145.415 195.644 145.767 195.966C146.119 196.284 146.538 196.443 147.023 196.443Z" fill="black"/>
<path d="M136.351 198.222C135.415 198.222 134.612 197.985 133.942 197.511C133.275 197.034 132.762 196.347 132.402 195.449C132.046 194.547 131.868 193.462 131.868 192.193C131.872 190.924 132.052 189.845 132.408 188.955C132.768 188.061 133.281 187.379 133.947 186.909C134.618 186.439 135.419 186.205 136.351 186.205C137.283 186.205 138.084 186.439 138.754 186.909C139.425 187.379 139.938 188.061 140.294 188.955C140.654 189.848 140.834 190.928 140.834 192.193C140.834 193.466 140.654 194.553 140.294 195.455C139.938 196.352 139.425 197.038 138.754 197.511C138.088 197.985 137.286 198.222 136.351 198.222ZM136.351 196.443C137.078 196.443 137.652 196.085 138.072 195.369C138.497 194.65 138.709 193.591 138.709 192.193C138.709 191.269 138.612 190.492 138.419 189.864C138.226 189.235 137.953 188.761 137.601 188.443C137.249 188.121 136.832 187.96 136.351 187.96C135.627 187.96 135.055 188.32 134.635 189.04C134.215 189.756 134.002 190.807 133.999 192.193C133.995 193.121 134.088 193.901 134.277 194.534C134.47 195.167 134.743 195.644 135.095 195.966C135.447 196.284 135.866 196.443 136.351 196.443Z" fill="black"/>
<path d="M125.679 198.222C124.743 198.222 123.94 197.985 123.27 197.511C122.603 197.034 122.09 196.347 121.73 195.449C121.374 194.547 121.196 193.462 121.196 192.193C121.2 190.924 121.38 189.845 121.736 188.955C122.096 188.061 122.609 187.379 123.276 186.909C123.946 186.439 124.747 186.205 125.679 186.205C126.611 186.205 127.412 186.439 128.082 186.909C128.753 187.379 129.266 188.061 129.622 188.955C129.982 189.848 130.162 190.928 130.162 192.193C130.162 193.466 129.982 194.553 129.622 195.455C129.266 196.352 128.753 197.038 128.082 197.511C127.416 197.985 126.615 198.222 125.679 198.222ZM125.679 196.443C126.406 196.443 126.98 196.085 127.401 195.369C127.825 194.65 128.037 193.591 128.037 192.193C128.037 191.269 127.94 190.492 127.747 189.864C127.554 189.235 127.281 188.761 126.929 188.443C126.577 188.121 126.16 187.96 125.679 187.96C124.956 187.96 124.384 188.32 123.963 189.04C123.543 189.756 123.331 190.807 123.327 192.193C123.323 193.121 123.416 193.901 123.605 194.534C123.798 195.167 124.071 195.644 124.423 195.966C124.776 196.284 125.194 196.443 125.679 196.443Z" fill="black"/>
<path d="M110.511 195.841V194.165L115.449 186.364H116.847V188.75H115.994L112.67 194.017V194.108H119.562V195.841H110.511ZM116.062 198V195.33L116.085 194.58V186.364H118.074V198H116.062Z" fill="black"/>
<path d="M107.767 186.364V198H105.659V188.415H105.591L102.869 190.153V188.222L105.761 186.364H107.767Z" fill="black"/>
<path d="M147.304 252.222C146.368 252.222 145.565 251.985 144.895 251.511C144.228 251.034 143.715 250.347 143.355 249.449C142.999 248.547 142.821 247.462 142.821 246.193C142.825 244.924 143.005 243.845 143.361 242.955C143.721 242.061 144.234 241.379 144.901 240.909C145.571 240.439 146.372 240.205 147.304 240.205C148.236 240.205 149.037 240.439 149.707 240.909C150.378 241.379 150.891 242.061 151.247 242.955C151.607 243.848 151.787 244.928 151.787 246.193C151.787 247.466 151.607 248.553 151.247 249.455C150.891 250.352 150.378 251.038 149.707 251.511C149.041 251.985 148.24 252.222 147.304 252.222ZM147.304 250.443C148.031 250.443 148.605 250.085 149.026 249.369C149.45 248.65 149.662 247.591 149.662 246.193C149.662 245.269 149.565 244.492 149.372 243.864C149.179 243.235 148.906 242.761 148.554 242.443C148.202 242.121 147.785 241.96 147.304 241.96C146.581 241.96 146.009 242.32 145.588 243.04C145.168 243.756 144.956 244.807 144.952 246.193C144.948 247.121 145.041 247.901 145.23 248.534C145.423 249.167 145.696 249.644 146.048 249.966C146.401 250.284 146.819 250.443 147.304 250.443Z" fill="black"/>
<path d="M136.632 252.222C135.697 252.222 134.893 251.985 134.223 251.511C133.556 251.034 133.043 250.347 132.683 249.449C132.327 248.547 132.149 247.462 132.149 246.193C132.153 244.924 132.333 243.845 132.689 242.955C133.049 242.061 133.562 241.379 134.229 240.909C134.899 240.439 135.7 240.205 136.632 240.205C137.564 240.205 138.365 240.439 139.036 240.909C139.706 241.379 140.219 242.061 140.575 242.955C140.935 243.848 141.115 244.928 141.115 246.193C141.115 247.466 140.935 248.553 140.575 249.455C140.219 250.352 139.706 251.038 139.036 251.511C138.369 251.985 137.568 252.222 136.632 252.222ZM136.632 250.443C137.359 250.443 137.933 250.085 138.354 249.369C138.778 248.65 138.99 247.591 138.99 246.193C138.99 245.269 138.893 244.492 138.7 243.864C138.507 243.235 138.234 242.761 137.882 242.443C137.53 242.121 137.113 241.96 136.632 241.96C135.909 241.96 135.337 242.32 134.916 243.04C134.496 243.756 134.284 244.807 134.28 246.193C134.276 247.121 134.369 247.901 134.558 248.534C134.751 249.167 135.024 249.644 135.376 249.966C135.729 250.284 136.147 250.443 136.632 250.443Z" fill="black"/>
<path d="M125.96 252.222C125.025 252.222 124.222 251.985 123.551 251.511C122.884 251.034 122.371 250.347 122.011 249.449C121.655 248.547 121.477 247.462 121.477 246.193C121.481 244.924 121.661 243.845 122.017 242.955C122.377 242.061 122.89 241.379 123.557 240.909C124.227 240.439 125.028 240.205 125.96 240.205C126.892 240.205 127.693 240.439 128.364 240.909C129.034 241.379 129.547 242.061 129.903 242.955C130.263 243.848 130.443 244.928 130.443 246.193C130.443 247.466 130.263 248.553 129.903 249.455C129.547 250.352 129.034 251.038 128.364 251.511C127.697 251.985 126.896 252.222 125.96 252.222ZM125.96 250.443C126.688 250.443 127.261 250.085 127.682 249.369C128.106 248.65 128.318 247.591 128.318 246.193C128.318 245.269 128.222 244.492 128.028 243.864C127.835 243.235 127.563 242.761 127.21 242.443C126.858 242.121 126.441 241.96 125.96 241.96C125.237 241.96 124.665 242.32 124.244 243.04C123.824 243.756 123.612 244.807 123.608 246.193C123.604 247.121 123.697 247.901 123.886 248.534C124.08 249.167 124.352 249.644 124.705 249.966C125.057 250.284 125.475 250.443 125.96 250.443Z" fill="black"/>
<path d="M111.722 252V250.477L115.761 246.517C116.148 246.127 116.47 245.78 116.727 245.477C116.985 245.174 117.178 244.881 117.307 244.597C117.436 244.312 117.5 244.009 117.5 243.687C117.5 243.32 117.417 243.006 117.25 242.744C117.083 242.479 116.854 242.275 116.563 242.131C116.271 241.987 115.939 241.915 115.568 241.915C115.186 241.915 114.85 241.994 114.563 242.153C114.275 242.309 114.051 242.53 113.892 242.818C113.737 243.106 113.659 243.449 113.659 243.847H111.653C111.653 243.108 111.822 242.466 112.159 241.92C112.496 241.375 112.96 240.953 113.551 240.653C114.146 240.354 114.828 240.205 115.597 240.205C116.377 240.205 117.063 240.35 117.653 240.642C118.244 240.934 118.703 241.333 119.028 241.841C119.358 242.348 119.523 242.928 119.523 243.58C119.523 244.015 119.439 244.443 119.273 244.864C119.106 245.284 118.813 245.75 118.392 246.261C117.975 246.773 117.39 247.392 116.636 248.119L114.631 250.159V250.239H119.699V252H111.722Z" fill="black"/>
<path d="M108.767 240.364V252H106.659V242.415H106.591L103.869 244.153V242.222L106.761 240.364H108.767Z" fill="black"/>
<path d="M147.038 306.222C146.103 306.222 145.3 305.985 144.629 305.511C143.963 305.034 143.449 304.347 143.09 303.449C142.733 302.547 142.555 301.462 142.555 300.193C142.559 298.924 142.739 297.845 143.095 296.955C143.455 296.061 143.968 295.379 144.635 294.909C145.305 294.439 146.107 294.205 147.038 294.205C147.97 294.205 148.771 294.439 149.442 294.909C150.112 295.379 150.625 296.061 150.982 296.955C151.341 297.848 151.521 298.928 151.521 300.193C151.521 301.466 151.341 302.553 150.982 303.455C150.625 304.352 150.112 305.038 149.442 305.511C148.775 305.985 147.974 306.222 147.038 306.222ZM147.038 304.443C147.766 304.443 148.34 304.085 148.76 303.369C149.184 302.65 149.396 301.591 149.396 300.193C149.396 299.269 149.3 298.492 149.107 297.864C148.913 297.235 148.641 296.761 148.288 296.443C147.936 296.121 147.519 295.96 147.038 295.96C146.315 295.96 145.743 296.32 145.322 297.04C144.902 297.756 144.69 298.807 144.686 300.193C144.682 301.121 144.775 301.902 144.965 302.534C145.158 303.167 145.43 303.644 145.783 303.966C146.135 304.284 146.554 304.443 147.038 304.443Z" fill="black"/>
<path d="M136.367 306.222C135.431 306.222 134.628 305.985 133.957 305.511C133.291 305.034 132.777 304.347 132.418 303.449C132.062 302.547 131.884 301.462 131.884 300.193C131.887 298.924 132.067 297.845 132.423 296.955C132.783 296.061 133.296 295.379 133.963 294.909C134.634 294.439 135.435 294.205 136.367 294.205C137.298 294.205 138.099 294.439 138.77 294.909C139.44 295.379 139.954 296.061 140.31 296.955C140.67 297.848 140.849 298.928 140.849 300.193C140.849 301.466 140.67 302.553 140.31 303.455C139.954 304.352 139.44 305.038 138.77 305.511C138.103 305.985 137.302 306.222 136.367 306.222ZM136.367 304.443C137.094 304.443 137.668 304.085 138.088 303.369C138.512 302.65 138.724 301.591 138.724 300.193C138.724 299.269 138.628 298.492 138.435 297.864C138.241 297.235 137.969 296.761 137.617 296.443C137.264 296.121 136.848 295.96 136.367 295.96C135.643 295.96 135.071 296.32 134.651 297.04C134.23 297.756 134.018 298.807 134.014 300.193C134.01 301.121 134.103 301.902 134.293 302.534C134.486 303.167 134.759 303.644 135.111 303.966C135.463 304.284 135.882 304.443 136.367 304.443Z" fill="black"/>
<path d="M125.695 306.222C124.759 306.222 123.956 305.985 123.286 305.511C122.619 305.034 122.106 304.347 121.746 303.449C121.39 302.547 121.212 301.462 121.212 300.193C121.215 298.924 121.395 297.845 121.751 296.955C122.111 296.061 122.625 295.379 123.291 294.909C123.962 294.439 124.763 294.205 125.695 294.205C126.626 294.205 127.428 294.439 128.098 294.909C128.768 295.379 129.282 296.061 129.638 296.955C129.998 297.848 130.178 298.928 130.178 300.193C130.178 301.466 129.998 302.553 129.638 303.455C129.282 304.352 128.768 305.038 128.098 305.511C127.431 305.985 126.63 306.222 125.695 306.222ZM125.695 304.443C126.422 304.443 126.996 304.085 127.416 303.369C127.84 302.65 128.053 301.591 128.053 300.193C128.053 299.269 127.956 298.492 127.763 297.864C127.57 297.235 127.297 296.761 126.945 296.443C126.592 296.121 126.176 295.96 125.695 295.96C124.971 295.96 124.399 296.32 123.979 297.04C123.558 297.756 123.346 298.807 123.342 300.193C123.339 301.121 123.431 301.902 123.621 302.534C123.814 303.167 124.087 303.644 124.439 303.966C124.791 304.284 125.21 304.443 125.695 304.443Z" fill="black"/>
<path d="M115.023 306.222C114.087 306.222 113.284 305.985 112.614 305.511C111.947 305.034 111.434 304.347 111.074 303.449C110.718 302.547 110.54 301.462 110.54 300.193C110.544 298.924 110.724 297.845 111.08 296.955C111.439 296.061 111.953 295.379 112.619 294.909C113.29 294.439 114.091 294.205 115.023 294.205C115.955 294.205 116.756 294.439 117.426 294.909C118.097 295.379 118.61 296.061 118.966 296.955C119.326 297.848 119.506 298.928 119.506 300.193C119.506 301.466 119.326 302.553 118.966 303.455C118.61 304.352 118.097 305.038 117.426 305.511C116.759 305.985 115.958 306.222 115.023 306.222ZM115.023 304.443C115.75 304.443 116.324 304.085 116.744 303.369C117.169 302.65 117.381 301.591 117.381 300.193C117.381 299.269 117.284 298.492 117.091 297.864C116.898 297.235 116.625 296.761 116.273 296.443C115.92 296.121 115.504 295.96 115.023 295.96C114.299 295.96 113.727 296.32 113.307 297.04C112.886 297.756 112.674 298.807 112.67 300.193C112.667 301.121 112.759 301.902 112.949 302.534C113.142 303.167 113.415 303.644 113.767 303.966C114.119 304.284 114.538 304.443 115.023 304.443Z" fill="black"/>
<path d="M107.767 294.364V306H105.659V296.415H105.591L102.869 298.153V296.222L105.761 294.364H107.767Z" fill="black"/>
<path d="M173.335 360.222C172.4 360.222 171.597 359.985 170.926 359.511C170.259 359.034 169.746 358.347 169.386 357.449C169.03 356.547 168.852 355.462 168.852 354.193C168.856 352.924 169.036 351.845 169.392 350.955C169.752 350.061 170.265 349.379 170.932 348.909C171.602 348.439 172.403 348.205 173.335 348.205C174.267 348.205 175.068 348.439 175.739 348.909C176.409 349.379 176.922 350.061 177.278 350.955C177.638 351.848 177.818 352.928 177.818 354.193C177.818 355.466 177.638 356.553 177.278 357.455C176.922 358.352 176.409 359.038 175.739 359.511C175.072 359.985 174.271 360.222 173.335 360.222ZM173.335 358.443C174.063 358.443 174.636 358.085 175.057 357.369C175.481 356.65 175.693 355.591 175.693 354.193C175.693 353.269 175.597 352.492 175.403 351.864C175.21 351.235 174.938 350.761 174.585 350.443C174.233 350.121 173.816 349.96 173.335 349.96C172.612 349.96 172.04 350.32 171.619 351.04C171.199 351.756 170.987 352.807 170.983 354.193C170.979 355.121 171.072 355.902 171.261 356.534C171.455 357.167 171.727 357.644 172.08 357.966C172.432 358.284 172.85 358.443 173.335 358.443Z" fill="black"/>
<path d="M278.767 348.364V360H276.659V350.415H276.591L273.869 352.153V350.222L276.761 348.364H278.767Z" fill="black"/>
<path d="M376.034 360V358.477L380.074 354.517C380.46 354.127 380.782 353.78 381.04 353.477C381.297 353.174 381.491 352.881 381.619 352.597C381.748 352.313 381.813 352.009 381.813 351.688C381.813 351.32 381.729 351.006 381.563 350.744C381.396 350.479 381.167 350.275 380.875 350.131C380.583 349.987 380.252 349.915 379.881 349.915C379.498 349.915 379.163 349.994 378.875 350.153C378.587 350.309 378.364 350.53 378.205 350.818C378.049 351.106 377.972 351.449 377.972 351.847H375.966C375.966 351.108 376.135 350.466 376.472 349.92C376.809 349.375 377.273 348.953 377.864 348.653C378.458 348.354 379.14 348.205 379.909 348.205C380.689 348.205 381.375 348.35 381.966 348.642C382.557 348.934 383.015 349.333 383.341 349.841C383.67 350.348 383.835 350.928 383.835 351.58C383.835 352.015 383.752 352.443 383.585 352.864C383.419 353.284 383.125 353.75 382.705 354.261C382.288 354.773 381.703 355.392 380.949 356.119L378.943 358.159V358.239H384.011V360H376.034Z" fill="black"/>
<path d="M484.21 360.159C483.392 360.159 482.665 360.019 482.028 359.739C481.396 359.458 480.896 359.068 480.528 358.568C480.161 358.068 479.966 357.491 479.943 356.835H482.08C482.098 357.15 482.203 357.424 482.392 357.659C482.581 357.89 482.833 358.07 483.148 358.199C483.462 358.328 483.814 358.392 484.205 358.392C484.621 358.392 484.991 358.32 485.312 358.176C485.634 358.028 485.886 357.824 486.068 357.563C486.25 357.301 486.339 357 486.335 356.659C486.339 356.307 486.248 355.996 486.062 355.727C485.877 355.458 485.608 355.248 485.256 355.097C484.907 354.945 484.487 354.869 483.994 354.869H482.966V353.244H483.994C484.4 353.244 484.754 353.174 485.057 353.034C485.364 352.894 485.604 352.697 485.778 352.443C485.953 352.186 486.038 351.888 486.034 351.551C486.038 351.222 485.964 350.936 485.812 350.693C485.665 350.447 485.455 350.256 485.182 350.119C484.913 349.983 484.597 349.915 484.233 349.915C483.877 349.915 483.547 349.979 483.244 350.108C482.941 350.237 482.697 350.42 482.511 350.659C482.326 350.894 482.227 351.174 482.216 351.5H480.187C480.203 350.848 480.39 350.277 480.75 349.784C481.114 349.288 481.598 348.902 482.205 348.625C482.811 348.345 483.491 348.205 484.244 348.205C485.021 348.205 485.695 348.35 486.267 348.642C486.843 348.93 487.288 349.318 487.602 349.807C487.917 350.295 488.074 350.835 488.074 351.426C488.078 352.081 487.884 352.631 487.494 353.074C487.108 353.517 486.6 353.807 485.972 353.943V354.034C486.79 354.148 487.417 354.451 487.852 354.943C488.292 355.432 488.509 356.04 488.506 356.767C488.506 357.419 488.32 358.002 487.949 358.517C487.581 359.028 487.074 359.43 486.426 359.722C485.782 360.013 485.044 360.159 484.21 360.159Z" fill="black"/>
<path d="M584.824 357.841V356.165L589.761 348.364H591.159V350.75H590.307L586.983 356.017V356.108H593.875V357.841H584.824ZM590.375 360V357.33L590.398 356.58V348.364H592.386V360H590.375Z" fill="black"/>
<path d="M694.08 360.159C693.322 360.159 692.644 360.017 692.045 359.733C691.447 359.445 690.972 359.051 690.619 358.551C690.271 358.051 690.085 357.479 690.062 356.835H692.108C692.146 357.313 692.352 357.703 692.727 358.006C693.102 358.305 693.553 358.455 694.08 358.455C694.492 358.455 694.86 358.36 695.182 358.17C695.504 357.981 695.758 357.718 695.943 357.381C696.129 357.044 696.22 356.659 696.216 356.227C696.22 355.788 696.127 355.398 695.938 355.057C695.748 354.716 695.489 354.449 695.159 354.256C694.83 354.059 694.451 353.96 694.023 353.96C693.674 353.956 693.331 354.021 692.994 354.153C692.657 354.286 692.39 354.46 692.193 354.676L690.29 354.364L690.898 348.364H697.648V350.125H692.642L692.307 353.21H692.375C692.591 352.956 692.896 352.746 693.29 352.58C693.684 352.409 694.116 352.324 694.585 352.324C695.29 352.324 695.919 352.491 696.472 352.824C697.025 353.153 697.46 353.608 697.778 354.188C698.097 354.767 698.256 355.43 698.256 356.176C698.256 356.945 698.078 357.631 697.722 358.233C697.369 358.831 696.879 359.303 696.25 359.648C695.625 359.989 694.902 360.159 694.08 360.159Z" fill="black"/>
<path d="M799.295 360.159C798.739 360.155 798.195 360.059 797.665 359.869C797.134 359.676 796.657 359.364 796.233 358.932C795.809 358.496 795.472 357.919 795.222 357.199C794.972 356.475 794.848 355.58 794.852 354.511C794.852 353.515 794.958 352.627 795.17 351.847C795.383 351.066 795.687 350.407 796.085 349.869C796.483 349.328 796.962 348.915 797.523 348.631C798.087 348.347 798.718 348.205 799.415 348.205C800.146 348.205 800.794 348.348 801.358 348.636C801.926 348.924 802.384 349.318 802.733 349.818C803.081 350.314 803.297 350.875 803.381 351.5H801.307C801.201 351.053 800.983 350.697 800.653 350.432C800.328 350.163 799.915 350.028 799.415 350.028C798.608 350.028 797.987 350.379 797.551 351.08C797.119 351.78 796.902 352.742 796.898 353.966H796.977C797.163 353.633 797.403 353.347 797.699 353.108C797.994 352.869 798.328 352.686 798.699 352.557C799.074 352.424 799.47 352.358 799.886 352.358C800.568 352.358 801.18 352.521 801.722 352.847C802.267 353.172 802.699 353.621 803.017 354.193C803.335 354.761 803.492 355.413 803.489 356.148C803.492 356.913 803.318 357.6 802.966 358.21C802.614 358.816 802.123 359.294 801.494 359.642C800.866 359.991 800.133 360.163 799.295 360.159ZM799.284 358.455C799.697 358.455 800.066 358.354 800.392 358.153C800.718 357.953 800.975 357.682 801.165 357.341C801.354 357 801.447 356.617 801.443 356.193C801.447 355.777 801.356 355.4 801.17 355.063C800.989 354.725 800.737 354.458 800.415 354.261C800.093 354.064 799.725 353.966 799.312 353.966C799.006 353.966 798.72 354.025 798.455 354.142C798.189 354.259 797.958 354.422 797.761 354.631C797.564 354.835 797.409 355.074 797.295 355.347C797.186 355.616 797.129 355.903 797.125 356.21C797.129 356.616 797.223 356.989 797.409 357.33C797.595 357.67 797.85 357.943 798.176 358.148C798.502 358.352 798.871 358.455 799.284 358.455Z" fill="black"/>
<path d="M900.46 360L905.409 350.205V350.125H899.665V348.364H907.591V350.165L902.648 360H900.46Z" fill="black"/>
<path d="M1008.17 360.159C1007.33 360.159 1006.58 360.017 1005.92 359.733C1005.27 359.449 1004.76 359.061 1004.39 358.568C1004.02 358.072 1003.84 357.509 1003.84 356.881C1003.84 356.392 1003.94 355.943 1004.16 355.534C1004.38 355.125 1004.67 354.784 1005.03 354.511C1005.41 354.235 1005.82 354.059 1006.27 353.983V353.903C1005.67 353.771 1005.19 353.466 1004.82 352.989C1004.45 352.508 1004.27 351.953 1004.27 351.324C1004.27 350.725 1004.44 350.191 1004.77 349.722C1005.11 349.252 1005.57 348.883 1006.16 348.614C1006.75 348.341 1007.42 348.205 1008.17 348.205C1008.92 348.205 1009.58 348.341 1010.16 348.614C1010.75 348.883 1011.21 349.252 1011.55 349.722C1011.89 350.191 1012.06 350.725 1012.06 351.324C1012.06 351.953 1011.88 352.508 1011.5 352.989C1011.13 353.466 1010.65 353.771 1010.06 353.903V353.983C1010.52 354.059 1010.93 354.235 1011.29 354.511C1011.66 354.784 1011.95 355.125 1012.16 355.534C1012.38 355.943 1012.49 356.392 1012.49 356.881C1012.49 357.509 1012.31 358.072 1011.94 358.568C1011.57 359.061 1011.05 359.449 1010.4 359.733C1009.76 360.017 1009.01 360.159 1008.17 360.159ZM1008.17 358.534C1008.61 358.534 1008.98 358.46 1009.31 358.313C1009.63 358.161 1009.88 357.949 1010.06 357.676C1010.23 357.403 1010.33 357.089 1010.33 356.733C1010.33 356.362 1010.23 356.034 1010.04 355.75C1009.85 355.462 1009.6 355.237 1009.27 355.074C1008.95 354.911 1008.58 354.83 1008.17 354.83C1007.75 354.83 1007.38 354.911 1007.06 355.074C1006.73 355.237 1006.47 355.462 1006.28 355.75C1006.1 356.034 1006.01 356.362 1006.01 356.733C1006.01 357.089 1006.09 357.403 1006.27 357.676C1006.45 357.945 1006.7 358.155 1007.02 358.307C1007.35 358.458 1007.73 358.534 1008.17 358.534ZM1008.17 353.233C1008.53 353.233 1008.84 353.161 1009.11 353.017C1009.39 352.873 1009.61 352.672 1009.77 352.415C1009.93 352.157 1010.01 351.86 1010.01 351.523C1010.01 351.189 1009.93 350.898 1009.77 350.648C1009.62 350.394 1009.4 350.199 1009.13 350.063C1008.85 349.922 1008.53 349.852 1008.17 349.852C1007.8 349.852 1007.48 349.922 1007.2 350.063C1006.92 350.199 1006.71 350.394 1006.55 350.648C1006.4 350.898 1006.33 351.189 1006.33 351.523C1006.33 351.86 1006.4 352.157 1006.56 352.415C1006.72 352.669 1006.93 352.869 1007.21 353.017C1007.49 353.161 1007.81 353.233 1008.17 353.233Z" fill="black"/>
<path d="M1113.07 348.205C1113.63 348.208 1114.17 348.307 1114.7 348.5C1115.23 348.689 1115.71 349 1116.13 349.432C1116.55 349.86 1116.89 350.434 1117.14 351.153C1117.39 351.873 1117.52 352.763 1117.52 353.824C1117.52 354.824 1117.41 355.718 1117.2 356.506C1116.99 357.29 1116.68 357.953 1116.28 358.494C1115.89 359.036 1115.41 359.449 1114.85 359.733C1114.29 360.017 1113.66 360.159 1112.95 360.159C1112.22 360.159 1111.57 360.015 1111 359.727C1110.44 359.439 1109.98 359.045 1109.63 358.545C1109.28 358.045 1109.07 357.473 1108.99 356.83H1111.06C1111.17 357.292 1111.38 357.659 1111.71 357.932C1112.04 358.201 1112.45 358.335 1112.95 358.335C1113.76 358.335 1114.38 357.985 1114.82 357.284C1115.25 356.583 1115.47 355.61 1115.47 354.364H1115.39C1115.21 354.697 1114.97 354.985 1114.67 355.227C1114.38 355.466 1114.04 355.65 1113.66 355.778C1113.29 355.907 1112.9 355.972 1112.48 355.972C1111.8 355.972 1111.19 355.809 1110.64 355.483C1110.1 355.157 1109.67 354.71 1109.35 354.142C1109.04 353.574 1108.88 352.924 1108.88 352.193C1108.88 351.436 1109.05 350.756 1109.4 350.153C1109.75 349.547 1110.24 349.07 1110.87 348.722C1111.5 348.369 1112.23 348.197 1113.07 348.205ZM1113.08 349.909C1112.67 349.909 1112.3 350.009 1111.97 350.21C1111.65 350.407 1111.39 350.676 1111.2 351.017C1111.01 351.354 1110.92 351.731 1110.92 352.148C1110.92 352.561 1111.02 352.936 1111.2 353.273C1111.38 353.61 1111.64 353.877 1111.95 354.074C1112.28 354.271 1112.64 354.369 1113.06 354.369C1113.36 354.369 1113.65 354.311 1113.91 354.193C1114.18 354.076 1114.41 353.913 1114.61 353.705C1114.81 353.492 1114.96 353.252 1115.07 352.983C1115.19 352.714 1115.24 352.43 1115.24 352.131C1115.24 351.733 1115.14 351.366 1114.95 351.028C1114.77 350.691 1114.51 350.42 1114.19 350.216C1113.87 350.011 1113.5 349.909 1113.08 349.909Z" fill="black"/>
<path d="M1226.02 360.222C1225.09 360.222 1224.28 359.985 1223.61 359.511C1222.95 359.034 1222.43 358.347 1222.07 357.449C1221.72 356.547 1221.54 355.462 1221.54 354.193C1221.54 352.924 1221.72 351.845 1222.08 350.955C1222.44 350.061 1222.95 349.379 1223.62 348.909C1224.29 348.439 1225.09 348.205 1226.02 348.205C1226.95 348.205 1227.76 348.439 1228.43 348.909C1229.1 349.379 1229.61 350.061 1229.97 350.955C1230.33 351.848 1230.51 352.928 1230.51 354.193C1230.51 355.466 1230.33 356.553 1229.97 357.455C1229.61 358.352 1229.1 359.038 1228.43 359.511C1227.76 359.985 1226.96 360.222 1226.02 360.222ZM1226.02 358.443C1226.75 358.443 1227.32 358.085 1227.74 357.369C1228.17 356.65 1228.38 355.591 1228.38 354.193C1228.38 353.269 1228.28 352.492 1228.09 351.864C1227.9 351.235 1227.63 350.761 1227.27 350.443C1226.92 350.121 1226.5 349.96 1226.02 349.96C1225.3 349.96 1224.73 350.32 1224.31 351.04C1223.89 351.756 1223.67 352.807 1223.67 354.193C1223.67 355.121 1223.76 355.902 1223.95 356.534C1224.14 357.167 1224.41 357.644 1224.77 357.966C1225.12 358.284 1225.54 358.443 1226.02 358.443Z" fill="black"/>
<path d="M1218.77 348.364V360H1216.66V350.415H1216.59L1213.87 352.153V350.222L1216.76 348.364H1218.77Z" fill="black"/>
<path d="M1339.45 348.364V360H1337.35V350.415H1337.28L1334.56 352.153V350.222L1337.45 348.364H1339.45Z" fill="black"/>
<path d="M1331.77 348.364V360H1329.66V350.415H1329.59L1326.87 352.153V350.222L1329.76 348.364H1331.77Z" fill="black"/>
<path d="M1444.72 360V358.477L1448.76 354.517C1449.15 354.127 1449.47 353.78 1449.73 353.477C1449.98 353.174 1450.18 352.881 1450.31 352.597C1450.44 352.313 1450.5 352.009 1450.5 351.688C1450.5 351.32 1450.42 351.006 1450.25 350.744C1450.08 350.479 1449.85 350.275 1449.56 350.131C1449.27 349.987 1448.94 349.915 1448.57 349.915C1448.19 349.915 1447.85 349.994 1447.56 350.153C1447.27 350.309 1447.05 350.53 1446.89 350.818C1446.74 351.106 1446.66 351.449 1446.66 351.847H1444.65C1444.65 351.108 1444.82 350.466 1445.16 349.92C1445.5 349.375 1445.96 348.953 1446.55 348.653C1447.15 348.354 1447.83 348.205 1448.6 348.205C1449.38 348.205 1450.06 348.35 1450.65 348.642C1451.24 348.934 1451.7 349.333 1452.03 349.841C1452.36 350.348 1452.52 350.928 1452.52 351.58C1452.52 352.015 1452.44 352.443 1452.27 352.864C1452.11 353.284 1451.81 353.75 1451.39 354.261C1450.98 354.773 1450.39 355.392 1449.64 356.119L1447.63 358.159V358.239H1452.7V360H1444.72Z" fill="black"/>
<path d="M1441.77 348.364V360H1439.66V350.415H1439.59L1436.87 352.153V350.222L1439.76 348.364H1441.77Z" fill="black"/>
<path d="M276 81L276 345" stroke="#EAEAEA" stroke-width="1.2"/>
<path d="M380 81V344" stroke="#EAEAEA" stroke-width="1.2"/>
<path d="M485 81V344" stroke="#EAEAEA" stroke-width="1.2"/>
<path d="M590 81V344" stroke="#EAEAEA" stroke-width="1.2"/>
<path d="M695 81V344" stroke="#EAEAEA" stroke-width="1.2"/>
<path d="M800 81V344" stroke="#EAEAEA" stroke-width="1.2"/>
<path d="M904 81V344" stroke="#EAEAEA" stroke-width="1.2"/>
<path d="M1009 81V344" stroke="#EAEAEA" stroke-width="1.2"/>
<path d="M1114 81V344" stroke="#EAEAEA" stroke-width="1.2"/>
<path d="M1223 81V344" stroke="#EAEAEA" stroke-width="1.2"/>
<path d="M1334 81V344" stroke="#EAEAEA" stroke-width="1.2"/>
<path d="M1445 81V344" stroke="#EAEAEA" stroke-width="1.2"/>
<path d="M1459.99 40.5767L1459.98 37.473H1460.39L1464.31 33.0909H1467.32L1462.5 38.4602H1461.96L1459.99 40.5767ZM1457.65 44V29.4545H1460.22V44H1457.65ZM1464.49 44L1460.94 39.0355L1462.67 37.2244L1467.57 44H1464.49Z" fill="black"/>
<path d="M1449.72 44V33.0909H1452.21V34.9091H1452.32C1452.52 34.2793 1452.86 33.794 1453.34 33.4531C1453.83 33.1075 1454.39 32.9346 1455.01 32.9346C1455.16 32.9346 1455.31 32.9417 1455.49 32.9559C1455.67 32.9654 1455.82 32.982 1455.94 33.0057V35.3707C1455.83 35.3328 1455.66 35.2997 1455.42 35.2713C1455.19 35.2381 1454.96 35.2216 1454.74 35.2216C1454.28 35.2216 1453.85 35.3234 1453.48 35.527C1453.11 35.7258 1452.82 36.0028 1452.61 36.3579C1452.39 36.713 1452.29 37.1226 1452.29 37.5866V44H1449.72Z" fill="black"/>
<path d="M1441.37 44.2202C1440.68 44.2202 1440.06 44.0971 1439.5 43.8508C1438.95 43.5999 1438.52 43.2306 1438.2 42.7429C1437.88 42.2552 1437.72 41.6539 1437.72 40.9389C1437.72 40.3234 1437.83 39.8144 1438.06 39.4119C1438.29 39.0095 1438.6 38.6875 1438.99 38.446C1439.38 38.2045 1439.83 38.0222 1440.32 37.8991C1440.82 37.7713 1441.33 37.679 1441.86 37.6221C1442.5 37.5559 1443.02 37.4967 1443.42 37.4446C1443.81 37.3878 1444.1 37.3025 1444.28 37.1889C1444.47 37.0705 1444.56 36.8882 1444.56 36.642V36.5994C1444.56 36.0644 1444.4 35.6501 1444.08 35.3565C1443.77 35.063 1443.31 34.9162 1442.71 34.9162C1442.08 34.9162 1441.58 35.0535 1441.21 35.3281C1440.85 35.6027 1440.6 35.9271 1440.48 36.3011L1438.07 35.9602C1438.26 35.2973 1438.58 34.7434 1439.01 34.2983C1439.45 33.8485 1439.98 33.5123 1440.61 33.2898C1441.24 33.0625 1441.94 32.9489 1442.7 32.9489C1443.22 32.9489 1443.75 33.0104 1444.27 33.1335C1444.79 33.2566 1445.26 33.4602 1445.7 33.7443C1446.13 34.0237 1446.47 34.4048 1446.73 34.8878C1447 35.3707 1447.13 35.9744 1447.13 36.6989V44H1444.66V42.5014H1444.57C1444.42 42.8044 1444.2 43.0885 1443.91 43.3537C1443.63 43.6141 1443.28 43.8248 1442.85 43.9858C1442.43 44.142 1441.94 44.2202 1441.37 44.2202ZM1442.04 42.331C1442.55 42.331 1443 42.2292 1443.38 42.0256C1443.76 41.8172 1444.05 41.5426 1444.25 41.2017C1444.46 40.8608 1444.57 40.4891 1444.57 40.0866V38.8011C1444.49 38.8674 1444.35 38.929 1444.15 38.9858C1443.97 39.0426 1443.75 39.0923 1443.52 39.1349C1443.28 39.1775 1443.04 39.2154 1442.81 39.2486C1442.58 39.2817 1442.38 39.3101 1442.21 39.3338C1441.82 39.3859 1441.48 39.4711 1441.18 39.5895C1440.88 39.7078 1440.64 39.8736 1440.46 40.0866C1440.29 40.295 1440.2 40.5649 1440.2 40.8963C1440.2 41.3698 1440.37 41.7273 1440.72 41.9687C1441.06 42.2102 1441.5 42.331 1442.04 42.331Z" fill="black"/>
<path d="M1420.28 44V33.0909H1422.74V34.9446H1422.87C1423.09 34.3196 1423.47 33.8319 1424 33.4815C1424.52 33.1264 1425.15 32.9489 1425.88 32.9489C1426.62 32.9489 1427.24 33.1288 1427.75 33.4886C1428.26 33.8437 1428.62 34.3291 1428.83 34.9446H1428.94C1429.18 34.3385 1429.59 33.8556 1430.16 33.4957C1430.74 33.1311 1431.42 32.9489 1432.21 32.9489C1433.22 32.9489 1434.04 33.2661 1434.67 33.9006C1435.31 34.535 1435.62 35.4607 1435.62 36.6775V44H1433.04V37.0753C1433.04 36.3982 1432.86 35.9034 1432.5 35.5909C1432.15 35.2737 1431.7 35.115 1431.18 35.115C1430.56 35.115 1430.08 35.3092 1429.73 35.6974C1429.38 36.081 1429.21 36.5805 1429.21 37.196V44H1426.69V36.9687C1426.69 36.4053 1426.52 35.9555 1426.18 35.6193C1425.84 35.2831 1425.4 35.115 1424.86 35.115C1424.49 35.115 1424.15 35.2097 1423.85 35.3991C1423.54 35.5838 1423.3 35.8466 1423.12 36.1875C1422.94 36.5237 1422.85 36.9167 1422.85 37.3665V44H1420.28Z" fill="black"/>
<path d="M1410.59 37.6079V44H1408.02V29.4545H1410.53V34.9446H1410.66C1410.91 34.3291 1411.31 33.8437 1411.84 33.4886C1412.38 33.1288 1413.07 32.9488 1413.9 32.9488C1414.66 32.9488 1415.32 33.1075 1415.89 33.4247C1416.45 33.7419 1416.88 34.2059 1417.19 34.8167C1417.5 35.4275 1417.66 36.1733 1417.66 37.054V44H1415.09V37.4517C1415.09 36.7178 1414.9 36.1472 1414.52 35.74C1414.15 35.3281 1413.62 35.1221 1412.95 35.1221C1412.49 35.1221 1412.08 35.2216 1411.72 35.4204C1411.37 35.6146 1411.09 35.8963 1410.89 36.2656C1410.69 36.6349 1410.59 37.0824 1410.59 37.6079Z" fill="black"/>
<path d="M1401.23 44.2131C1400.14 44.2131 1399.21 43.9739 1398.43 43.4957C1397.65 43.0175 1397.05 42.357 1396.63 41.5142C1396.21 40.6667 1396 39.6913 1396 38.5881C1396 37.4801 1396.22 36.5024 1396.64 35.6548C1397.07 34.8025 1397.67 34.1397 1398.45 33.6662C1399.23 33.188 1400.15 32.9489 1401.22 32.9489C1402.1 32.9489 1402.89 33.1122 1403.57 33.4389C1404.26 33.7609 1404.8 34.2178 1405.21 34.8096C1405.62 35.3968 1405.85 36.0833 1405.91 36.8693H1403.45C1403.35 36.3437 1403.11 35.9058 1402.74 35.5554C1402.37 35.2003 1401.87 35.0227 1401.25 35.0227C1400.73 35.0227 1400.27 35.1648 1399.87 35.4489C1399.47 35.7282 1399.16 36.1307 1398.94 36.6562C1398.72 37.1818 1398.61 37.8115 1398.61 38.5454C1398.61 39.2888 1398.72 39.928 1398.94 40.4631C1399.16 40.9934 1399.46 41.4029 1399.85 41.6917C1400.25 41.9758 1400.72 42.1179 1401.25 42.1179C1401.63 42.1179 1401.97 42.0469 1402.27 41.9048C1402.57 41.758 1402.83 41.5473 1403.03 41.2727C1403.23 40.9981 1403.37 40.6643 1403.45 40.2713H1405.91C1405.84 41.0431 1405.62 41.7273 1405.22 42.3239C1404.83 42.9157 1404.3 43.3797 1403.62 43.7159C1402.94 44.0473 1402.15 44.2131 1401.23 44.2131Z" fill="black"/>
<path d="M1386.86 37.6079V44H1384.29V33.0909H1386.74V34.9446H1386.87C1387.12 34.3338 1387.52 33.8485 1388.07 33.4886C1388.63 33.1288 1389.31 32.9489 1390.12 32.9489C1390.88 32.9489 1391.53 33.1098 1392.09 33.4318C1392.65 33.7538 1393.09 34.2202 1393.4 34.831C1393.71 35.4417 1393.86 36.1828 1393.86 37.054V44H1391.29V37.4517C1391.29 36.7225 1391.1 36.152 1390.72 35.74C1390.35 35.3281 1389.83 35.1221 1389.17 35.1221C1388.72 35.1221 1388.32 35.2216 1387.96 35.4204C1387.62 35.6146 1387.35 35.8963 1387.15 36.2656C1386.95 36.6349 1386.86 37.0824 1386.86 37.6079Z" fill="black"/>
<path d="M1377.26 44.2131C1376.17 44.2131 1375.22 43.9858 1374.43 43.5312C1373.64 43.072 1373.03 42.4233 1372.6 41.5852C1372.17 40.7424 1371.96 39.7505 1371.96 38.6094C1371.96 37.4872 1372.17 36.5024 1372.6 35.6548C1373.03 34.8025 1373.63 34.1397 1374.4 33.6662C1375.18 33.188 1376.08 32.9489 1377.13 32.9489C1377.8 32.9489 1378.43 33.0578 1379.03 33.2756C1379.63 33.4886 1380.16 33.8201 1380.62 34.2699C1381.08 34.7197 1381.45 35.2926 1381.71 35.9886C1381.98 36.6799 1382.11 37.5038 1382.11 38.4602V39.2486H1373.17V37.5156H1379.65C1379.64 37.0232 1379.54 36.5852 1379.33 36.2017C1379.12 35.8134 1378.83 35.508 1378.45 35.2855C1378.08 35.063 1377.65 34.9517 1377.16 34.9517C1376.63 34.9517 1376.17 35.0795 1375.78 35.3352C1375.38 35.5862 1375.07 35.9176 1374.85 36.3295C1374.63 36.7367 1374.52 37.1842 1374.51 37.6719V39.1846C1374.51 39.8191 1374.63 40.3636 1374.86 40.8182C1375.09 41.268 1375.42 41.6136 1375.83 41.8551C1376.25 42.0918 1376.74 42.2102 1377.3 42.2102C1377.67 42.2102 1378.01 42.1581 1378.31 42.054C1378.61 41.9451 1378.88 41.7864 1379.1 41.5781C1379.32 41.3698 1379.49 41.1117 1379.6 40.804L1382 41.0739C1381.85 41.7083 1381.56 42.2623 1381.14 42.7358C1380.72 43.2045 1380.18 43.5691 1379.52 43.8295C1378.86 44.0852 1378.11 44.2131 1377.26 44.2131Z" fill="black"/>
<path d="M1359.4 44V29.4545H1364.97C1366.02 29.4545 1366.89 29.6202 1367.59 29.9517C1368.29 30.2784 1368.81 30.7258 1369.16 31.294C1369.51 31.8622 1369.68 32.5061 1369.68 33.2258C1369.68 33.8177 1369.57 34.3243 1369.34 34.7457C1369.12 35.1624 1368.81 35.5009 1368.43 35.7613C1368.04 36.0218 1367.61 36.2088 1367.14 36.3224V36.4645C1367.66 36.4929 1368.15 36.6515 1368.63 36.9403C1369.1 37.2244 1369.49 37.6269 1369.8 38.1477C1370.1 38.6685 1370.25 39.2983 1370.25 40.0369C1370.25 40.7898 1370.07 41.4668 1369.7 42.0682C1369.34 42.6648 1368.79 43.1359 1368.06 43.4815C1367.32 43.8272 1366.4 44 1365.29 44H1359.4ZM1362.03 41.7983H1364.87C1365.82 41.7983 1366.51 41.616 1366.94 41.2514C1367.36 40.8821 1367.57 40.4086 1367.57 39.8309C1367.57 39.4001 1367.47 39.0118 1367.25 38.6662C1367.04 38.3158 1366.74 38.0412 1366.35 37.8423C1365.95 37.6387 1365.48 37.5369 1364.94 37.5369H1362.03V41.7983ZM1362.03 35.6406H1364.64C1365.1 35.6406 1365.51 35.5577 1365.87 35.392C1366.23 35.2216 1366.52 34.9825 1366.73 34.6747C1366.94 34.3622 1367.05 33.9929 1367.05 33.5667C1367.05 33.0033 1366.85 32.5393 1366.45 32.1747C1366.06 31.8101 1365.47 31.6278 1364.7 31.6278H1362.03V35.6406Z" fill="black"/>
<path d="M1346.33 44.277C1345.16 44.277 1344.16 43.9811 1343.32 43.3892C1342.49 42.7926 1341.85 41.9332 1341.4 40.8111C1340.95 39.6842 1340.73 38.3276 1340.73 36.7415C1340.73 35.1553 1340.96 33.8059 1341.4 32.6932C1341.85 31.5758 1342.5 30.7235 1343.33 30.1364C1344.17 29.5492 1345.17 29.2557 1346.33 29.2557C1347.5 29.2557 1348.5 29.5492 1349.34 30.1364C1350.18 30.7235 1350.82 31.5758 1351.26 32.6932C1351.71 33.8106 1351.94 35.16 1351.94 36.7415C1351.94 38.3324 1351.71 39.6913 1351.26 40.8182C1350.82 41.9403 1350.18 42.7973 1349.34 43.3892C1348.5 43.9811 1347.5 44.277 1346.33 44.277ZM1346.33 42.054C1347.24 42.054 1347.96 41.6065 1348.49 40.7116C1349.02 39.812 1349.28 38.4886 1349.28 36.7415C1349.28 35.5862 1349.16 34.6155 1348.92 33.8295C1348.68 33.0436 1348.34 32.4517 1347.9 32.054C1347.46 31.6515 1346.93 31.4503 1346.33 31.4503C1345.43 31.4503 1344.71 31.9001 1344.19 32.7997C1343.66 33.6946 1343.4 35.0085 1343.39 36.7415C1343.39 37.9015 1343.5 38.8769 1343.74 39.6676C1343.98 40.4583 1344.32 41.0549 1344.76 41.4574C1345.2 41.8551 1345.73 42.054 1346.33 42.054Z" fill="black"/>
<path d="M1332.99 44.277C1331.82 44.277 1330.82 43.9811 1329.98 43.3892C1329.15 42.7926 1328.51 41.9332 1328.06 40.8111C1327.61 39.6842 1327.39 38.3276 1327.39 36.7415C1327.39 35.1553 1327.62 33.8059 1328.06 32.6932C1328.51 31.5758 1329.16 30.7235 1329.99 30.1364C1330.83 29.5492 1331.83 29.2557 1332.99 29.2557C1334.16 29.2557 1335.16 29.5492 1336 30.1364C1336.84 30.7235 1337.48 31.5758 1337.92 32.6932C1338.37 33.8106 1338.6 35.16 1338.6 36.7415C1338.6 38.3324 1338.37 39.6913 1337.92 40.8182C1337.48 41.9403 1336.84 42.7973 1336 43.3892C1335.16 43.9811 1334.16 44.277 1332.99 44.277ZM1332.99 42.054C1333.9 42.054 1334.62 41.6065 1335.15 40.7116C1335.68 39.812 1335.94 38.4886 1335.94 36.7415C1335.94 35.5862 1335.82 34.6155 1335.58 33.8295C1335.34 33.0436 1335 32.4517 1334.56 32.054C1334.12 31.6515 1333.59 31.4503 1332.99 31.4503C1332.09 31.4503 1331.37 31.9001 1330.85 32.7997C1330.32 33.6946 1330.06 35.0085 1330.05 36.7415C1330.05 37.9015 1330.16 38.8769 1330.4 39.6676C1330.64 40.4583 1330.98 41.0549 1331.42 41.4574C1331.86 41.8551 1332.39 42.054 1332.99 42.054Z" fill="black"/>
<path d="M1319.65 44.277C1318.48 44.277 1317.48 43.9811 1316.64 43.3892C1315.81 42.7926 1315.17 41.9332 1314.72 40.8111C1314.27 39.6842 1314.05 38.3276 1314.05 36.7415C1314.05 35.1553 1314.28 33.8059 1314.72 32.6932C1315.17 31.5758 1315.82 30.7235 1316.65 30.1364C1317.49 29.5492 1318.49 29.2557 1319.65 29.2557C1320.82 29.2557 1321.82 29.5492 1322.66 30.1364C1323.5 30.7235 1324.14 31.5758 1324.58 32.6932C1325.03 33.8106 1325.26 35.16 1325.26 36.7415C1325.26 38.3324 1325.03 39.6913 1324.58 40.8182C1324.14 41.9403 1323.5 42.7973 1322.66 43.3892C1321.82 43.9811 1320.82 44.277 1319.65 44.277ZM1319.65 42.054C1320.56 42.054 1321.28 41.6065 1321.81 40.7116C1322.34 39.812 1322.6 38.4886 1322.6 36.7415C1322.6 35.5862 1322.48 34.6155 1322.24 33.8295C1322 33.0436 1321.66 32.4517 1321.22 32.054C1320.78 31.6515 1320.25 31.4503 1319.65 31.4503C1318.75 31.4503 1318.03 31.9001 1317.51 32.7997C1316.98 33.6946 1316.72 35.0085 1316.71 36.7415C1316.71 37.9015 1316.82 38.8769 1317.06 39.6676C1317.3 40.4583 1317.64 41.0549 1318.08 41.4574C1318.52 41.8551 1319.05 42.054 1319.65 42.054Z" fill="black"/>
<path d="M1310.58 29.4545V44H1307.95V32.0184H1307.86L1304.46 34.1917V31.777L1308.08 29.4545H1310.58Z" fill="black"/>
<path d="M1297.09 29.4545V44H1294.52V29.4545H1297.09Z" fill="black"/>
<path d="M1291.88 29.4545V44H1289.31V29.4545H1291.88Z" fill="black"/>
<path d="M1282.28 44.2131C1281.19 44.2131 1280.24 43.9858 1279.45 43.5312C1278.65 43.072 1278.05 42.4233 1277.62 41.5852C1277.19 40.7424 1276.98 39.7505 1276.98 38.6094C1276.98 37.4872 1277.19 36.5024 1277.62 35.6548C1278.05 34.8025 1278.65 34.1397 1279.42 33.6662C1280.2 33.188 1281.1 32.9489 1282.14 32.9489C1282.82 32.9489 1283.45 33.0578 1284.05 33.2756C1284.65 33.4886 1285.18 33.8201 1285.64 34.2699C1286.1 34.7197 1286.47 35.2926 1286.73 35.9886C1287 36.6799 1287.13 37.5038 1287.13 38.4602V39.2486H1278.19V37.5156H1284.67C1284.66 37.0232 1284.55 36.5852 1284.35 36.2017C1284.14 35.8134 1283.85 35.508 1283.47 35.2855C1283.1 35.063 1282.67 34.9517 1282.18 34.9517C1281.65 34.9517 1281.19 35.0795 1280.8 35.3352C1280.4 35.5862 1280.09 35.9176 1279.86 36.3295C1279.65 36.7367 1279.54 37.1842 1279.53 37.6719V39.1846C1279.53 39.8191 1279.65 40.3636 1279.88 40.8182C1280.11 41.268 1280.44 41.6136 1280.85 41.8551C1281.27 42.0918 1281.76 42.2102 1282.32 42.2102C1282.69 42.2102 1283.03 42.1581 1283.33 42.054C1283.63 41.9451 1283.9 41.7864 1284.12 41.5781C1284.34 41.3698 1284.51 41.1117 1284.62 40.804L1287.02 41.0739C1286.87 41.7083 1286.58 42.2623 1286.16 42.7358C1285.74 43.2045 1285.2 43.5691 1284.54 43.8295C1283.88 44.0852 1283.13 44.2131 1282.28 44.2131Z" fill="black"/>
<path d="M1275.1 35.9744L1272.75 36.2301C1272.69 35.9934 1272.57 35.7708 1272.4 35.5625C1272.24 35.3542 1272.02 35.1861 1271.75 35.0582C1271.48 34.9304 1271.14 34.8665 1270.74 34.8665C1270.21 34.8665 1269.76 34.9825 1269.39 35.2145C1269.03 35.4465 1268.85 35.7471 1268.86 36.1165C1268.85 36.4337 1268.97 36.6917 1269.21 36.8906C1269.45 37.0895 1269.85 37.2528 1270.4 37.3807L1272.26 37.7784C1273.29 38.0009 1274.06 38.3537 1274.56 38.8366C1275.07 39.3196 1275.33 39.9517 1275.33 40.7329C1275.33 41.4195 1275.12 42.0256 1274.73 42.5511C1274.33 43.072 1273.79 43.4792 1273.09 43.7727C1272.38 44.0663 1271.58 44.2131 1270.67 44.2131C1269.34 44.2131 1268.26 43.9337 1267.45 43.375C1266.63 42.8115 1266.15 42.0279 1265.99 41.0241L1268.5 40.7827C1268.61 41.2751 1268.85 41.6468 1269.22 41.8977C1269.59 42.1487 1270.07 42.2741 1270.66 42.2741C1271.27 42.2741 1271.76 42.1487 1272.13 41.8977C1272.51 41.6468 1272.69 41.3366 1272.69 40.9673C1272.69 40.6548 1272.57 40.3968 1272.33 40.1932C1272.1 39.9896 1271.73 39.8333 1271.22 39.7244L1269.36 39.3338C1268.32 39.116 1267.54 38.749 1267.04 38.2329C1266.54 37.7121 1266.29 37.054 1266.3 36.2585C1266.29 35.5862 1266.47 35.0038 1266.84 34.5114C1267.22 34.0142 1267.74 33.6307 1268.4 33.3608C1269.07 33.0862 1269.84 32.9489 1270.71 32.9489C1271.98 32.9489 1272.99 33.2211 1273.72 33.7656C1274.46 34.3101 1274.92 35.0464 1275.1 35.9744Z" fill="black"/>
<path d="M1264.12 35.9744L1261.78 36.2301C1261.71 35.9934 1261.59 35.7708 1261.43 35.5625C1261.27 35.3542 1261.05 35.1861 1260.77 35.0582C1260.5 34.9304 1260.16 34.8665 1259.77 34.8665C1259.23 34.8665 1258.78 34.9825 1258.42 35.2145C1258.06 35.4465 1257.88 35.7471 1257.88 36.1165C1257.88 36.4337 1257.99 36.6917 1258.23 36.8906C1258.47 37.0895 1258.87 37.2528 1259.42 37.3807L1261.29 37.7784C1262.32 38.0009 1263.08 38.3537 1263.59 38.8366C1264.09 39.3196 1264.35 39.9517 1264.35 40.7329C1264.35 41.4195 1264.15 42.0256 1263.75 42.5511C1263.36 43.072 1262.81 43.4792 1262.11 43.7727C1261.41 44.0663 1260.6 44.2131 1259.69 44.2131C1258.36 44.2131 1257.28 43.9337 1256.47 43.375C1255.66 42.8115 1255.17 42.0279 1255.01 41.0241L1257.52 40.7827C1257.63 41.2751 1257.88 41.6468 1258.25 41.8977C1258.61 42.1487 1259.1 42.2741 1259.69 42.2741C1260.3 42.2741 1260.79 42.1487 1261.16 41.8977C1261.53 41.6468 1261.72 41.3366 1261.72 40.9673C1261.72 40.6548 1261.6 40.3968 1261.36 40.1932C1261.12 39.9896 1260.75 39.8333 1260.25 39.7244L1258.39 39.3338C1257.34 39.116 1256.57 38.749 1256.06 38.2329C1255.56 37.7121 1255.31 37.054 1255.32 36.2585C1255.31 35.5862 1255.5 35.0038 1255.87 34.5114C1256.24 34.0142 1256.76 33.6307 1257.42 33.3608C1258.09 33.0862 1258.86 32.9489 1259.73 32.9489C1261.01 32.9489 1262.01 33.2211 1262.75 33.7656C1263.49 34.3101 1263.94 35.0464 1264.12 35.9744Z" fill="black"/>
<path d="M1250.28 39.4119V33.0909H1252.85V44H1250.36V42.0611H1250.25C1250 42.6718 1249.6 43.1714 1249.03 43.5596C1248.47 43.9479 1247.78 44.142 1246.97 44.142C1246.25 44.142 1245.62 43.9834 1245.07 43.6662C1244.52 43.3442 1244.1 42.8778 1243.79 42.267C1243.48 41.6515 1243.33 40.9081 1243.33 40.0369V33.0909H1245.9V39.6392C1245.9 40.3305 1246.09 40.8797 1246.47 41.2869C1246.85 41.6941 1247.34 41.8977 1247.96 41.8977C1248.34 41.8977 1248.71 41.8054 1249.06 41.6207C1249.42 41.4361 1249.71 41.1614 1249.93 40.7968C1250.17 40.4275 1250.28 39.9659 1250.28 39.4119Z" fill="black"/>
<path d="M1230.43 44V29.4545H1235.89C1237.01 29.4545 1237.94 29.6487 1238.7 30.0369C1239.46 30.4252 1240.04 30.9697 1240.43 31.6704C1240.82 32.3665 1241.02 33.1785 1241.02 34.1065C1241.02 35.0393 1240.82 35.8489 1240.42 36.5355C1240.03 37.2173 1239.45 37.7452 1238.68 38.1193C1237.91 38.4886 1236.97 38.6733 1235.85 38.6733H1231.97V36.4858H1235.5C1236.15 36.4858 1236.69 36.3958 1237.1 36.2159C1237.52 36.0312 1237.83 35.7637 1238.03 35.4133C1238.23 35.0582 1238.33 34.6226 1238.33 34.1065C1238.33 33.5904 1238.23 33.1501 1238.03 32.7855C1237.82 32.4162 1237.51 32.1368 1237.1 31.9474C1236.68 31.7533 1236.14 31.6562 1235.48 31.6562H1233.07V44H1230.43ZM1237.95 37.4091L1241.55 44H1238.61L1235.07 37.4091H1237.95Z" fill="black"/>
<path d="M175 82L1522 81.9999" stroke="#EAEAEA" stroke-width="1.2"/>
<path d="M175 139L1522 139" stroke="#EAEAEA" stroke-width="1.2"/>
<path d="M174 193L1522 193" stroke="#EAEAEA" stroke-width="1.2"/>
<path d="M175 247L1522 247" stroke="#EAEAEA" stroke-width="1.2"/>
<path d="M175 301L1522 301" stroke="#EAEAEA" stroke-width="1.2"/>
<path d="M174 80V343.5H1522" stroke="#EAEAEA" stroke-width="1.2"/>
<path d="M751.5 38H806.5" stroke="#466BF0" stroke-width="2" stroke-linecap="round"/>
<circle cx="779" cy="38" r="4" fill="#466BF0"/>
<path d="M1150 38H1205" stroke="#466BF0" stroke-width="2" stroke-linecap="round" stroke-dasharray="8 8"/>
<path d="M174.5 291L276 274.5L378.5 179L485.5 172L590 167L695.5 163.5L801 160.5L903 155.5H1008L1115 151L1223.5 135.5L1333.5 127H1446L1520 122" stroke="#466BF0" stroke-width="2" stroke-linecap="round"/>
<circle cx="277" cy="273" r="5" fill="#466BF0"/>
<circle cx="380" cy="178" r="5" fill="#466BF0"/>
<circle cx="485" cy="172" r="5" fill="#466BF0"/>
<circle cx="590" cy="167" r="5" fill="#466BF0"/>
<circle cx="695" cy="163" r="5" fill="#466BF0"/>
<circle cx="800" cy="160" r="5" fill="#466BF0"/>
<circle cx="904" cy="155" r="5" fill="#466BF0"/>
<circle cx="1009" cy="155" r="5" fill="#466BF0"/>
<circle cx="1114" cy="150" r="5" fill="#466BF0"/>
<circle cx="1223" cy="135" r="5" fill="#466BF0"/>
<circle cx="1334" cy="127" r="5" fill="#466BF0"/>
<circle cx="1445" cy="127" r="5" fill="#466BF0"/>
<path d="M175.5 300.5H275.5L379 226L486.5 213L592 196L697.5 193.5L803 183H903.5H1014L1116.5 173L1225.5 163H1337.5L1448 150H1527" stroke="#466BF0" stroke-width="1.5" stroke-linecap="round" stroke-dasharray="16 16"/>
</g>
<defs>
<clipPath id="clip0_1_169">
<rect width="1520" height="436" rx="24" fill="white"/>
</clipPath>
</defs>
</svg>
