<svg width="1425" height="359" viewBox="0 0 1425 359" fill="none" xmlns="http://www.w3.org/2000/svg">
<g clip-path="url(#clip0_1_1537)">
<path d="M9.09089 77.9332C10.8617 77.9332 12.4929 78.17 13.9844 78.6435C15.4711 79.1122 16.8466 79.813 18.1108 80.7457V83.1676C17.642 82.803 17.0691 82.4669 16.392 82.1591C15.7149 81.8466 14.9716 81.5767 14.1619 81.3494C13.3523 81.1174 12.5142 80.9375 11.6477 80.8097C10.7812 80.6771 9.92896 80.6108 9.09089 80.6108C7.96873 80.6108 6.83237 80.7244 5.6818 80.9517C4.53123 81.1742 3.46352 81.4796 2.47868 81.8679C1.49383 82.2514 0.688904 82.6847 0.0639038 83.1676L0.0639038 80.7457C1.32811 79.813 2.70595 79.1122 4.19743 78.6435C5.68417 78.17 7.31532 77.9332 9.09089 77.9332Z" fill="black"/>
<path d="M18.1818 90.8505H0L0 89.6857H18.1818V90.8505ZM5.81676 87.4911C5.1965 87.5574 4.71354 87.8368 4.3679 88.3292C4.02225 88.8169 3.84943 89.4514 3.84943 90.2326C3.84943 90.7818 3.93229 91.253 4.09801 91.646C4.26373 92.0389 4.48864 92.3396 4.77273 92.5479C5.05682 92.7563 5.38116 92.8628 5.74574 92.8675C6.04877 92.8675 6.31155 92.7989 6.53409 92.6616C6.75663 92.5195 6.94602 92.3278 7.10227 92.0863C7.25379 91.8448 7.38163 91.5773 7.4858 91.2837C7.58996 90.9902 7.67756 90.6942 7.74858 90.396L8.08949 89.0323C8.21733 88.4831 8.39015 87.9551 8.60796 87.4485C8.82576 86.9372 9.10038 86.4802 9.43182 86.0778C9.76326 85.6706 10.1634 85.3486 10.6321 85.1119C11.1009 84.8751 11.6501 84.7567 12.2798 84.7567C13.1321 84.7567 13.8826 84.9746 14.5313 85.4102C15.1752 85.8458 15.6795 86.4755 16.044 87.2994C16.4039 88.1185 16.5838 89.1104 16.5838 90.2752C16.5838 91.4068 16.4086 92.3893 16.0582 93.2227C15.7079 94.0513 15.1965 94.6999 14.5241 95.1687C13.8518 95.6327 13.0327 95.8836 12.0668 95.9215V93.3292C12.5734 93.2913 12.9948 93.1351 13.331 92.8604C13.6671 92.5858 13.9181 92.2283 14.0838 91.788C14.2495 91.3429 14.3324 90.8458 14.3324 90.2965C14.3324 89.7236 14.2472 89.2217 14.0767 88.7908C13.9015 88.3552 13.66 88.0143 13.3523 87.7681C13.0398 87.5219 12.6752 87.3964 12.2585 87.3917C11.8797 87.3964 11.5672 87.5077 11.321 87.7255C11.0701 87.9433 10.8617 88.2487 10.696 88.6417C10.5256 89.03 10.3741 89.4845 10.2415 90.0053L9.81534 91.6602C9.50758 92.8581 9.04119 93.805 8.41619 94.5011C7.78646 95.1924 6.95076 95.538 5.90909 95.538C5.05208 95.538 4.30161 95.306 3.65767 94.842C3.01373 94.3732 2.51421 93.7364 2.15909 92.9315C1.79924 92.1265 1.61932 91.2151 1.61932 90.1971C1.61932 89.1649 1.79924 88.2605 2.15909 87.484C2.51421 86.7028 3.009 86.0896 3.64347 85.6445C4.2732 85.1995 4.99763 84.9698 5.81676 84.9556V87.4911Z" fill="black"/>
<path d="M9.09089 102.741C7.31532 102.741 5.68417 102.507 4.19743 102.038C2.70595 101.565 1.32811 100.862 0.0639038 99.929L0.0639038 97.5071C0.532654 97.867 1.10794 98.2031 1.78976 98.5156C2.46684 98.8281 3.21021 99.1004 4.01987 99.3324C4.82479 99.5597 5.66049 99.7396 6.52697 99.8722C7.39345 100 8.24809 100.064 9.09089 100.064C10.2131 100.064 11.3494 99.9527 12.5 99.7301C13.6506 99.5028 14.7183 99.1974 15.7031 98.8139C16.6832 98.4257 17.4858 97.9901 18.1108 97.5071V99.929C16.8466 100.862 15.4711 101.565 13.9844 102.038C12.4929 102.507 10.8617 102.741 9.09089 102.741Z" fill="black"/>
<path d="M16.5767 115.368C16.5767 116.461 16.3494 117.406 15.8949 118.201C15.4356 118.992 14.7869 119.601 13.9489 120.027C13.1061 120.453 12.1141 120.666 10.973 120.666C9.85085 120.666 8.866 120.453 8.01847 120.027C7.16619 119.596 6.50331 118.994 6.02983 118.223C5.55161 117.451 5.3125 116.544 5.3125 115.502C5.3125 114.83 5.4214 114.196 5.6392 113.599C5.85227 112.998 6.18371 112.467 6.63352 112.008C7.08333 111.544 7.65625 111.18 8.35227 110.914C9.04356 110.649 9.86742 110.517 10.8239 110.517H11.6122V119.458H9.87926V112.981C9.38684 112.986 8.94886 113.092 8.56534 113.301C8.17708 113.509 7.87168 113.8 7.64915 114.174C7.42661 114.544 7.31534 114.975 7.31534 115.467C7.31534 115.993 7.44318 116.454 7.69886 116.852C7.94981 117.25 8.28125 117.56 8.69318 117.782C9.10038 118 9.54782 118.111 10.0355 118.116H11.5483C12.1828 118.116 12.7273 118 13.1818 117.768C13.6316 117.536 13.9773 117.212 14.2188 116.795C14.4555 116.378 14.5739 115.891 14.5739 115.332C14.5739 114.958 14.5218 114.619 14.4176 114.316C14.3087 114.013 14.1501 113.751 13.9418 113.528C13.7334 113.306 13.4754 113.137 13.1676 113.024L13.4375 110.623C14.072 110.775 14.6259 111.064 15.0994 111.49C15.5682 111.911 15.9328 112.451 16.1932 113.109C16.4489 113.767 16.5767 114.52 16.5767 115.368Z" fill="black"/>
<path d="M11.7756 125.412H5.45453V122.841H16.3636V125.334H14.4247V125.447C15.0355 125.694 15.535 126.098 15.9233 126.662C16.3115 127.221 16.5057 127.91 16.5057 128.729C16.5057 129.444 16.347 130.076 16.0298 130.625C15.7078 131.17 15.2415 131.596 14.6307 131.903C14.0151 132.211 13.2718 132.365 12.4006 132.365H5.45453V129.794H12.0028C12.6941 129.794 13.2434 129.605 13.6506 129.226C14.0577 128.847 14.2613 128.35 14.2613 127.734C14.2613 127.356 14.169 126.989 13.9844 126.634C13.7997 126.278 13.5251 125.987 13.1605 125.76C12.7912 125.528 12.3295 125.412 11.7756 125.412Z" fill="black"/>
<path d="M1.81818 135.009H16.3636V137.58H1.81818V135.009Z" fill="black"/>
<path d="M16.5838 145.925C16.5838 146.616 16.4607 147.239 16.2145 147.793C15.9635 148.342 15.5942 148.778 15.1065 149.1C14.6188 149.417 14.0175 149.576 13.3026 149.576C12.687 149.576 12.178 149.462 11.7756 149.235C11.3731 149.007 11.0511 148.697 10.8097 148.304C10.5682 147.911 10.3859 147.469 10.2628 146.976C10.1349 146.479 10.0426 145.965 9.9858 145.435C9.91951 144.796 9.86032 144.277 9.80824 143.88C9.75142 143.482 9.66619 143.193 9.55256 143.013C9.43418 142.828 9.25189 142.736 9.00568 142.736H8.96307C8.42803 142.736 8.01373 142.895 7.72017 143.212C7.42661 143.529 7.27983 143.986 7.27983 144.583C7.27983 145.212 7.41714 145.712 7.69176 146.081C7.96638 146.446 8.29072 146.692 8.66477 146.82L8.32386 149.221C7.66098 149.031 7.10701 148.719 6.66193 148.283C6.21212 147.847 5.87595 147.315 5.65341 146.685C5.42614 146.055 5.3125 145.359 5.3125 144.597C5.3125 144.071 5.37405 143.548 5.49716 143.027C5.62026 142.507 5.82386 142.031 6.10795 141.6C6.38731 141.169 6.76847 140.823 7.25142 140.563C7.73437 140.298 8.33807 140.165 9.0625 140.165H16.3636V142.637H14.8651V142.722C15.1681 142.878 15.4522 143.098 15.7173 143.382C15.9777 143.662 16.1884 144.015 16.3494 144.441C16.5057 144.862 16.5838 145.357 16.5838 145.925ZM14.6946 145.257C14.6946 144.741 14.5928 144.294 14.3892 143.915C14.1809 143.536 13.9062 143.245 13.5653 143.042C13.2244 142.833 12.8527 142.729 12.4503 142.729H11.1648C11.2311 142.81 11.2926 142.947 11.3494 143.141C11.4062 143.33 11.456 143.543 11.4986 143.78C11.5412 144.017 11.5791 144.251 11.6122 144.483C11.6454 144.715 11.6738 144.917 11.6974 145.087C11.7495 145.471 11.8348 145.814 11.9531 146.117C12.0715 146.42 12.2372 146.659 12.4503 146.834C12.6586 147.009 12.9285 147.097 13.2599 147.097C13.7334 147.097 14.0909 146.924 14.3324 146.578C14.5739 146.233 14.6946 145.792 14.6946 145.257Z" fill="black"/>
<path d="M1.81818 160.344L13.267 156.559V156.41L1.81818 152.631V149.734L16.3636 154.862V158.114L1.81818 163.235V160.344Z" fill="black"/>
<path d="M5.45452 169.515H7.44315V175.787H5.45452V169.515ZM2.84088 174.238V171.667H13.0824C13.428 171.667 13.6932 171.615 13.8778 171.511C14.0577 171.402 14.1808 171.26 14.2471 171.085C14.3134 170.91 14.3466 170.716 14.3466 170.502C14.3466 170.342 14.3347 170.195 14.3111 170.062C14.2874 169.925 14.2661 169.821 14.2471 169.75L16.2571 169.316C16.3044 169.454 16.3565 169.65 16.4133 169.906C16.4701 170.157 16.5033 170.465 16.5128 170.829C16.5317 171.473 16.4346 172.053 16.2216 172.569C16.0038 173.085 15.6676 173.495 15.213 173.798C14.7585 174.096 14.1903 174.243 13.5085 174.238H2.84088Z" fill="black"/>
<path d="M9.97159 184.579H16.3636V187.15H5.45455V184.693H7.30824V184.565C6.69744 184.314 6.21212 183.914 5.85227 183.365C5.49242 182.811 5.3125 182.127 5.3125 181.312C5.3125 180.559 5.47348 179.904 5.79545 179.345C6.11742 178.781 6.58381 178.346 7.1946 178.038C7.8054 177.726 8.5464 177.572 9.41761 177.576H16.3636V180.147H9.81534C9.08617 180.147 8.51562 180.337 8.10369 180.716C7.69176 181.09 7.4858 181.608 7.4858 182.271C7.4858 182.721 7.58523 183.121 7.78409 183.471C7.97822 183.817 8.25994 184.089 8.62926 184.288C8.99858 184.482 9.44602 184.579 9.97159 184.579Z" fill="black"/>
<path d="M16.5767 194.176C16.5767 195.27 16.3494 196.214 15.8949 197.01C15.4356 197.801 14.7869 198.409 13.9489 198.835C13.1061 199.261 12.1141 199.474 10.973 199.474C9.85085 199.474 8.866 199.261 8.01847 198.835C7.16619 198.404 6.50331 197.803 6.02983 197.031C5.55161 196.259 5.3125 195.353 5.3125 194.311C5.3125 193.639 5.4214 193.004 5.6392 192.408C5.85227 191.806 6.18371 191.276 6.63352 190.817C7.08333 190.353 7.65625 189.988 8.35227 189.723C9.04356 189.458 9.86742 189.325 10.8239 189.325H11.6122V198.267H9.87926V191.79C9.38684 191.795 8.94886 191.901 8.56534 192.109C8.17708 192.318 7.87168 192.609 7.64915 192.983C7.42661 193.352 7.31534 193.783 7.31534 194.276C7.31534 194.801 7.44318 195.263 7.69886 195.661C7.94981 196.058 8.28125 196.368 8.69318 196.591C9.10038 196.809 9.54782 196.92 10.0355 196.925H11.5483C12.1828 196.925 12.7273 196.809 13.1818 196.577C13.6316 196.345 13.9773 196.02 14.2188 195.604C14.4555 195.187 14.5739 194.699 14.5739 194.141C14.5739 193.767 14.5218 193.428 14.4176 193.125C14.3087 192.822 14.1501 192.559 13.9418 192.337C13.7334 192.114 13.4754 191.946 13.1676 191.832L13.4375 189.432C14.072 189.583 14.6259 189.872 15.0994 190.298C15.5682 190.72 15.9328 191.259 16.1932 191.918C16.4489 192.576 16.5767 193.329 16.5767 194.176Z" fill="black"/>
<path d="M16.3636 216.955H5.45455V214.498H7.30824V214.37C6.68324 214.142 6.19555 213.766 5.84517 213.24C5.49006 212.715 5.3125 212.087 5.3125 211.358C5.3125 210.62 5.49242 209.997 5.85227 209.49C6.20739 208.979 6.69271 208.619 7.30824 208.411V208.297C6.70218 208.056 6.21922 207.649 5.85938 207.076C5.49479 206.498 5.3125 205.814 5.3125 205.023C5.3125 204.019 5.62973 203.2 6.2642 202.566C6.89867 201.931 7.82434 201.614 9.04119 201.614H16.3636V204.192H9.43892C8.76184 204.192 8.26705 204.372 7.95455 204.732C7.63731 205.092 7.47869 205.532 7.47869 206.053C7.47869 206.673 7.67282 207.159 8.06108 207.509C8.4446 207.855 8.94413 208.027 9.55966 208.027H16.3636V210.549H9.33239C8.76894 210.549 8.31913 210.719 7.98295 211.06C7.64678 211.396 7.47869 211.837 7.47869 212.381C7.47869 212.75 7.57339 213.087 7.76278 213.39C7.94744 213.693 8.21023 213.934 8.55114 214.114C8.88731 214.294 9.2803 214.384 9.73011 214.384H16.3636V216.955Z" fill="black"/>
<path d="M16.3636 222.17H5.45454V219.599H16.3636V222.17ZM3.90625 220.877C3.90625 221.284 3.7713 221.635 3.50142 221.928C3.22679 222.222 2.89772 222.369 2.5142 222.369C2.12594 222.369 1.79687 222.222 1.52698 221.928C1.25236 221.635 1.11505 221.284 1.11505 220.877C1.11505 220.465 1.25236 220.115 1.52698 219.826C1.79687 219.532 2.12594 219.386 2.5142 219.386C2.89772 219.386 3.22679 219.532 3.50142 219.826C3.7713 220.115 3.90625 220.465 3.90625 220.877Z" fill="black"/>
<path d="M5.45452 224.32H7.44315V230.591H5.45452V224.32ZM2.84088 229.043V226.472H13.0824C13.428 226.472 13.6932 226.42 13.8778 226.316C14.0577 226.207 14.1808 226.065 14.2471 225.89C14.3134 225.714 14.3466 225.52 14.3466 225.307C14.3466 225.146 14.3347 224.999 14.3111 224.867C14.2874 224.73 14.2661 224.625 14.2471 224.554L16.2571 224.121C16.3044 224.258 16.3565 224.455 16.4133 224.711C16.4701 224.962 16.5033 225.269 16.5128 225.634C16.5317 226.278 16.4346 226.858 16.2216 227.374C16.0038 227.89 15.6676 228.3 15.213 228.603C14.7585 228.901 14.1903 229.048 13.5085 229.043H2.84088Z" fill="black"/>
<path d="M8.33807 232.122L8.59375 234.466C8.35701 234.532 8.13447 234.648 7.92614 234.814C7.7178 234.975 7.54972 235.192 7.42187 235.467C7.29403 235.742 7.23011 236.078 7.23011 236.475C7.23011 237.011 7.34612 237.46 7.57812 237.825C7.81013 238.185 8.1108 238.362 8.48011 238.358C8.79735 238.362 9.0554 238.246 9.25426 238.01C9.45312 237.768 9.61648 237.37 9.74432 236.816L10.142 234.956C10.3646 233.923 10.7173 233.156 11.2003 232.654C11.6832 232.148 12.3153 231.892 13.0966 231.887C13.7831 231.892 14.3892 232.093 14.9148 232.491C15.4356 232.884 15.8428 233.431 16.1364 234.132C16.4299 234.833 16.5767 235.637 16.5767 236.547C16.5767 237.882 16.2973 238.957 15.7386 239.771C15.1752 240.585 14.3916 241.071 13.3878 241.227L13.1463 238.72C13.6387 238.606 14.0104 238.365 14.2614 237.995C14.5123 237.626 14.6378 237.145 14.6378 236.554C14.6378 235.943 14.5123 235.453 14.2614 235.083C14.0104 234.709 13.7003 234.522 13.331 234.522C13.0185 234.522 12.7604 234.643 12.5568 234.885C12.3532 235.121 12.197 235.491 12.0881 235.993L11.6974 237.853C11.4796 238.9 11.1127 239.674 10.5966 240.176C10.0758 240.678 9.41761 240.926 8.62216 240.922C7.94981 240.926 7.36742 240.744 6.875 240.375C6.37784 240.001 5.99432 239.482 5.72443 238.819C5.44981 238.152 5.3125 237.382 5.3125 236.511C5.3125 235.233 5.58475 234.226 6.12926 233.493C6.67377 232.754 7.41004 232.297 8.33807 232.122Z" fill="black"/>
<path d="M16.5767 247.77C16.5767 248.864 16.3494 249.808 15.8949 250.604C15.4356 251.394 14.7869 252.003 13.9489 252.429C13.1061 252.855 12.1141 253.068 10.973 253.068C9.85085 253.068 8.866 252.855 8.01847 252.429C7.16619 251.998 6.50331 251.397 6.02983 250.625C5.55161 249.853 5.3125 248.947 5.3125 247.905C5.3125 247.232 5.4214 246.598 5.6392 246.001C5.85227 245.4 6.18371 244.87 6.63352 244.411C7.08333 243.947 7.65625 243.582 8.35227 243.317C9.04356 243.052 9.86742 242.919 10.8239 242.919H11.6122V251.861H9.87926V245.384C9.38684 245.388 8.94886 245.495 8.56534 245.703C8.17708 245.911 7.87168 246.203 7.64915 246.577C7.42661 246.946 7.31534 247.377 7.31534 247.869C7.31534 248.395 7.44318 248.857 7.69886 249.254C7.94981 249.652 8.28125 249.962 8.69318 250.185C9.10038 250.402 9.54782 250.514 10.0355 250.518H11.5483C12.1828 250.518 12.7273 250.402 13.1818 250.17C13.6316 249.938 13.9773 249.614 14.2188 249.197C14.4555 248.781 14.5739 248.293 14.5739 247.734C14.5739 247.36 14.5218 247.022 14.4176 246.719C14.3087 246.416 14.1501 246.153 13.9418 245.93C13.7334 245.708 13.4754 245.54 13.1676 245.426L13.4375 243.026C14.072 243.177 14.6259 243.466 15.0994 243.892C15.5682 244.313 15.9328 244.853 16.1932 245.511C16.4489 246.17 16.5767 246.922 16.5767 247.77Z" fill="black"/>
<path d="M5.45453 254.007L16.3636 257.892V260.733L5.45453 264.618V261.877L13.5582 259.37V259.256L5.45453 256.742V254.007Z" fill="black"/>
<path d="M9.97159 272.978H16.3636V275.549H5.45455V273.091H7.30824V272.963C6.69744 272.712 6.21212 272.312 5.85227 271.763C5.49242 271.209 5.3125 270.525 5.3125 269.711C5.3125 268.958 5.47348 268.302 5.79545 267.743C6.11742 267.18 6.58381 266.744 7.1946 266.436C7.8054 266.124 8.5464 265.97 9.41761 265.975H16.3636V268.546H9.81534C9.08617 268.546 8.51562 268.735 8.10369 269.114C7.69176 269.488 7.4858 270.007 7.4858 270.669C7.4858 271.119 7.58523 271.519 7.78409 271.87C7.97822 272.215 8.25994 272.488 8.62926 272.686C8.99858 272.881 9.44602 272.978 9.97159 272.978Z" fill="black"/>
<path d="M1.81818 278.288H16.3636V280.923H1.81818V278.288Z" fill="black"/>
<path d="M38.1818 9.66974H93.1818" stroke="#466BF0" stroke-width="2" stroke-linecap="round"/>
<circle cx="65.6818" cy="9.66974" r="4" fill="#466BF0"/>
<path d="M370.198 15.4403C369.341 15.4403 368.574 15.2202 367.897 14.7798C367.22 14.3395 366.685 13.7003 366.292 12.8622C365.899 12.0241 365.702 11.0062 365.702 9.80824C365.702 8.59612 365.901 7.57339 366.299 6.74006C366.701 5.90199 367.243 5.26989 367.925 4.84375C368.607 4.41288 369.367 4.19744 370.205 4.19744C370.844 4.19744 371.37 4.30635 371.782 4.52415C372.194 4.73722 372.52 4.99527 372.762 5.2983C373.003 5.59659 373.19 5.87831 373.323 6.14347H373.429V0.703125H376.008V15.2486H373.479V13.5298H373.323C373.19 13.795 372.999 14.0767 372.748 14.375C372.497 14.6686 372.165 14.9195 371.753 15.1278C371.341 15.3362 370.823 15.4403 370.198 15.4403ZM370.915 13.331C371.46 13.331 371.924 13.1842 372.307 12.8906C372.691 12.5923 372.982 12.178 373.181 11.6477C373.38 11.1174 373.479 10.4995 373.479 9.79403C373.479 9.08854 373.38 8.47538 373.181 7.95455C372.987 7.43371 372.698 7.02888 372.314 6.74006C371.936 6.45123 371.469 6.30682 370.915 6.30682C370.342 6.30682 369.864 6.45597 369.481 6.75426C369.097 7.05256 368.808 7.46449 368.614 7.99006C368.42 8.51563 368.323 9.11695 368.323 9.79403C368.323 10.4759 368.42 11.0843 368.614 11.6193C368.813 12.1496 369.104 12.5687 369.488 12.8764C369.876 13.1795 370.352 13.331 370.915 13.331Z" fill="black"/>
<path d="M356.533 8.85654V15.2486H353.962V4.33949H356.42V6.19319H356.547C356.798 5.58239 357.198 5.09707 357.748 4.73722C358.302 4.37737 358.986 4.19745 359.8 4.19745C360.553 4.19745 361.209 4.35843 361.768 4.6804C362.331 5.00237 362.767 5.46876 363.074 6.07955C363.387 6.69035 363.541 7.43135 363.536 8.30256V15.2486H360.965V8.70029C360.965 7.97112 360.776 7.40057 360.397 6.98864C360.023 6.57671 359.504 6.37074 358.841 6.37074C358.392 6.37074 357.992 6.47018 357.641 6.66904C357.295 6.86317 357.023 7.14489 356.824 7.51421C356.63 7.88353 356.533 8.33097 356.533 8.85654Z" fill="black"/>
<path d="M348.747 10.6605V4.33949H351.318V15.2486H348.825V13.3097H348.712C348.466 13.9205 348.061 14.42 347.497 14.8082C346.939 15.1965 346.25 15.3906 345.431 15.3906C344.716 15.3906 344.083 15.232 343.534 14.9148C342.99 14.5928 342.564 14.1264 342.256 13.5156C341.948 12.9001 341.794 12.1567 341.794 11.2855V4.33949H344.365V10.8878C344.365 11.5791 344.555 12.1283 344.933 12.5355C345.312 12.9427 345.809 13.1463 346.425 13.1463C346.804 13.1463 347.171 13.054 347.526 12.8693C347.881 12.6847 348.172 12.41 348.399 12.0455C348.631 11.6761 348.747 11.2145 348.747 10.6605Z" fill="black"/>
<path d="M330.873 15.2486V0.703125H340.191V2.91193H333.507V6.8608H339.552V9.0696H333.507V15.2486H330.873Z" fill="black"/>
<path d="M316.103 8.85653V15.2486H313.532V0.703125H316.047V6.19318H316.175C316.43 5.57765 316.826 5.09233 317.361 4.73722C317.9 4.37737 318.587 4.19744 319.42 4.19744C320.178 4.19744 320.838 4.35606 321.402 4.6733C321.965 4.99053 322.401 5.45455 322.709 6.06534C323.021 6.67614 323.177 7.42188 323.177 8.30256V15.2486H320.606V8.70028C320.606 7.96638 320.417 7.39583 320.038 6.98864C319.664 6.5767 319.139 6.37074 318.461 6.37074C318.007 6.37074 317.6 6.47017 317.24 6.66903C316.885 6.86316 316.605 7.14489 316.402 7.5142C316.203 7.88352 316.103 8.33097 316.103 8.85653Z" fill="black"/>
<path d="M311.148 4.33948V6.32812H304.876V4.33948H311.148ZM306.425 1.72585H308.996V11.9673C308.996 12.313 309.048 12.5781 309.152 12.7628C309.261 12.9427 309.403 13.0658 309.578 13.1321C309.753 13.1984 309.947 13.2315 310.161 13.2315C310.322 13.2315 310.468 13.2197 310.601 13.196C310.738 13.1723 310.842 13.151 310.913 13.1321L311.347 15.142C311.209 15.1894 311.013 15.2415 310.757 15.2983C310.506 15.3551 310.198 15.3883 309.834 15.3977C309.19 15.4167 308.61 15.3196 308.094 15.1065C307.578 14.8887 307.168 14.5526 306.865 14.098C306.567 13.6435 306.42 13.0753 306.425 12.3935V1.72585Z" fill="black"/>
<path d="M291.214 15.2486L288.131 4.33949H290.752L292.669 12.0099H292.769L294.729 4.33949H297.321L299.282 11.9673H299.388L301.277 4.33949H303.905L300.816 15.2486H298.138L296.093 7.87642H295.944L293.898 15.2486H291.214Z" fill="black"/>
<path d="M281.865 15.4617C280.8 15.4617 279.876 15.2273 279.095 14.7585C278.314 14.2898 277.708 13.634 277.277 12.7912C276.851 11.9484 276.638 10.9635 276.638 9.83665C276.638 8.70976 276.851 7.72254 277.277 6.875C277.708 6.02747 278.314 5.36932 279.095 4.90057C279.876 4.43182 280.8 4.19745 281.865 4.19745C282.93 4.19745 283.854 4.43182 284.635 4.90057C285.416 5.36932 286.02 6.02747 286.446 6.875C286.877 7.72254 287.092 8.70976 287.092 9.83665C287.092 10.9635 286.877 11.9484 286.446 12.7912C286.02 13.634 285.416 14.2898 284.635 14.7585C283.854 15.2273 282.93 15.4617 281.865 15.4617ZM281.879 13.402C282.457 13.402 282.94 13.2434 283.328 12.9261C283.716 12.6042 284.005 12.1733 284.195 11.6335C284.389 11.0938 284.486 10.4924 284.486 9.82955C284.486 9.16194 284.389 8.55824 284.195 8.01847C284.005 7.47396 283.716 7.04072 283.328 6.71875C282.94 6.39679 282.457 6.2358 281.879 6.2358C281.287 6.2358 280.795 6.39679 280.402 6.71875C280.014 7.04072 279.723 7.47396 279.528 8.01847C279.339 8.55824 279.244 9.16194 279.244 9.82955C279.244 10.4924 279.339 11.0938 279.528 11.6335C279.723 12.1733 280.014 12.6042 280.402 12.9261C280.795 13.2434 281.287 13.402 281.879 13.402Z" fill="black"/>
<path d="M269.626 15.2486V4.33949H272.119V6.15767H272.233C272.431 5.52794 272.772 5.04262 273.255 4.70171C273.743 4.35606 274.299 4.18324 274.924 4.18324C275.066 4.18324 275.225 4.19034 275.4 4.20455C275.58 4.21402 275.729 4.23059 275.848 4.25426V6.61932C275.739 6.58144 275.566 6.5483 275.329 6.51989C275.097 6.48675 274.872 6.47017 274.654 6.47017C274.186 6.47017 273.764 6.57197 273.39 6.77557C273.021 6.97444 272.73 7.25142 272.517 7.60654C272.304 7.96165 272.197 8.37122 272.197 8.83523V15.2486H269.626Z" fill="black"/>
<path d="M264.386 5.34801C264.268 4.96448 264.105 4.62121 263.896 4.31818C263.693 4.01041 263.447 3.74763 263.158 3.52983C262.874 3.31202 262.547 3.14867 262.178 3.03977C261.808 2.92613 261.406 2.86932 260.97 2.86932C260.189 2.86932 259.493 3.06581 258.882 3.4588C258.271 3.8518 257.791 4.42945 257.44 5.19176C257.095 5.94933 256.922 6.87263 256.922 7.96164C256.922 9.06013 257.095 9.99053 257.44 10.7528C257.786 11.5151 258.267 12.0952 258.882 12.4929C259.498 12.8859 260.213 13.0824 261.027 13.0824C261.766 13.0824 262.405 12.9403 262.945 12.6562C263.489 12.3722 263.908 11.9697 264.202 11.4489C264.495 10.9233 264.642 10.3078 264.642 9.60227L265.239 9.6946H261.29V7.63494H267.192V9.3821C267.192 10.6274 266.927 11.7045 266.396 12.6136C265.866 13.5227 265.137 14.2235 264.209 14.7159C263.281 15.2036 262.216 15.4474 261.013 15.4474C259.673 15.4474 258.496 15.1468 257.483 14.5455C256.475 13.9394 255.686 13.08 255.118 11.9673C254.555 10.8499 254.273 9.52414 254.273 7.99005C254.273 6.81581 254.439 5.76704 254.77 4.84375C255.106 3.92045 255.575 3.13683 256.176 2.49289C256.778 1.84422 257.483 1.3518 258.293 1.01562C259.102 0.674712 259.983 0.504257 260.935 0.504257C261.74 0.504257 262.49 0.622629 263.186 0.859371C263.882 1.09138 264.5 1.42282 265.04 1.85369C265.584 2.28456 266.032 2.79592 266.382 3.38778C266.733 3.97964 266.962 4.63305 267.071 5.34801H264.386Z" fill="black"/>
<path d="M246.924 0.703125V15.2486H244.353V0.703125H246.924Z" fill="black"/>
<path d="M236.007 15.4688C235.316 15.4688 234.694 15.3456 234.14 15.0994C233.59 14.8485 233.155 14.4792 232.833 13.9915C232.516 13.5038 232.357 12.9025 232.357 12.1875C232.357 11.572 232.471 11.063 232.698 10.6605C232.925 10.2581 233.235 9.93608 233.628 9.69461C234.021 9.45313 234.464 9.27084 234.956 9.14773C235.454 9.01989 235.967 8.92756 236.498 8.87074C237.137 8.80446 237.655 8.74527 238.053 8.69319C238.451 8.63637 238.74 8.55114 238.919 8.4375C239.104 8.31913 239.196 8.13684 239.196 7.89063V7.84802C239.196 7.31298 239.038 6.89868 238.721 6.60512C238.403 6.31156 237.946 6.16478 237.35 6.16478C236.72 6.16478 236.221 6.30209 235.851 6.57671C235.487 6.85133 235.24 7.17567 235.113 7.54972L232.712 7.20881C232.901 6.54593 233.214 5.99196 233.65 5.54688C234.085 5.09707 234.618 4.76089 235.248 4.53836C235.877 4.31108 236.573 4.19745 237.336 4.19745C237.861 4.19745 238.384 4.259 238.905 4.38211C239.426 4.50521 239.902 4.70881 240.333 4.9929C240.764 5.27226 241.109 5.65341 241.37 6.13637C241.635 6.61932 241.767 7.22302 241.767 7.94745V15.2486H239.296V13.75H239.211C239.054 14.053 238.834 14.3371 238.55 14.6023C238.271 14.8627 237.918 15.0734 237.492 15.2344C237.07 15.3906 236.576 15.4688 236.007 15.4688ZM236.675 13.5795C237.191 13.5795 237.639 13.4778 238.017 13.2742C238.396 13.0658 238.687 12.7912 238.891 12.4503C239.099 12.1094 239.204 11.7377 239.204 11.3352V10.0497C239.123 10.116 238.986 10.1776 238.792 10.2344C238.602 10.2912 238.389 10.3409 238.152 10.3835C237.916 10.4261 237.681 10.464 237.449 10.4972C237.217 10.5303 237.016 10.5587 236.846 10.5824C236.462 10.6345 236.119 10.7197 235.816 10.8381C235.513 10.9564 235.274 11.1222 235.098 11.3352C234.923 11.5436 234.836 11.8135 234.836 12.1449C234.836 12.6184 235.008 12.9759 235.354 13.2173C235.7 13.4588 236.14 13.5795 236.675 13.5795Z" fill="black"/>
<path d="M230.718 4.33948V6.32812H224.447V4.33948H230.718ZM225.995 1.72585H228.566V11.9673C228.566 12.313 228.618 12.5781 228.722 12.7628C228.831 12.9427 228.973 13.0658 229.148 13.1321C229.324 13.1984 229.518 13.2315 229.731 13.2315C229.892 13.2315 230.039 13.2197 230.171 13.196C230.309 13.1723 230.413 13.151 230.484 13.1321L230.917 15.142C230.78 15.1894 230.583 15.2415 230.327 15.2983C230.077 15.3551 229.769 15.3883 229.404 15.3977C228.76 15.4167 228.18 15.3196 227.664 15.1065C227.148 14.8887 226.738 14.5526 226.435 14.098C226.137 13.6435 225.99 13.0753 225.995 12.3935V1.72585Z" fill="black"/>
<path d="M220.056 15.2486V4.33949H222.627V15.2486H220.056ZM221.348 2.79119C220.941 2.79119 220.591 2.65625 220.297 2.38636C220.004 2.11174 219.857 1.78267 219.857 1.39915C219.857 1.01089 220.004 0.681818 220.297 0.411931C220.591 0.13731 220.941 0 221.348 0C221.76 0 222.111 0.13731 222.4 0.411931C222.693 0.681818 222.84 1.01089 222.84 1.39915C222.84 1.78267 222.693 2.11174 222.4 2.38636C222.111 2.65625 221.76 2.79119 221.348 2.79119Z" fill="black"/>
<path d="M207.556 19.3395V4.33949H210.084V6.14347H210.233C210.366 5.87832 210.553 5.5966 210.794 5.2983C211.036 4.99527 211.363 4.73722 211.775 4.52415C212.186 4.30635 212.712 4.19745 213.351 4.19745C214.194 4.19745 214.954 4.41288 215.631 4.84375C216.313 5.26989 216.853 5.90199 217.25 6.74006C217.653 7.5734 217.854 8.59612 217.854 9.80824C217.854 11.0062 217.658 12.0242 217.265 12.8622C216.872 13.7003 216.337 14.3395 215.659 14.7798C214.982 15.2202 214.215 15.4403 213.358 15.4403C212.733 15.4403 212.215 15.3362 211.803 15.1278C211.391 14.9195 211.06 14.6686 210.809 14.375C210.562 14.0767 210.371 13.795 210.233 13.5298H210.127V19.3395H207.556ZM210.077 9.79404C210.077 10.4995 210.177 11.1174 210.375 11.6477C210.579 12.178 210.87 12.5923 211.249 12.8906C211.632 13.1842 212.097 13.331 212.641 13.331C213.209 13.331 213.685 13.1795 214.069 12.8764C214.452 12.5687 214.741 12.1496 214.935 11.6193C215.134 11.0843 215.233 10.4759 215.233 9.79404C215.233 9.11696 215.136 8.51563 214.942 7.99006C214.748 7.46449 214.459 7.05256 214.076 6.75427C213.692 6.45597 213.214 6.30682 212.641 6.30682C212.092 6.30682 211.625 6.45124 211.242 6.74006C210.858 7.02889 210.567 7.43372 210.368 7.95455C210.174 8.47538 210.077 9.08855 210.077 9.79404Z" fill="black"/>
<path d="M199.211 15.4688C198.519 15.4688 197.897 15.3456 197.343 15.0994C196.793 14.8485 196.358 14.4792 196.036 13.9915C195.719 13.5038 195.56 12.9025 195.56 12.1875C195.56 11.572 195.674 11.063 195.901 10.6605C196.128 10.2581 196.438 9.93608 196.831 9.69461C197.224 9.45313 197.667 9.27084 198.159 9.14773C198.657 9.01989 199.17 8.92756 199.701 8.87074C200.34 8.80446 200.858 8.74527 201.256 8.69319C201.654 8.63637 201.943 8.55114 202.123 8.4375C202.307 8.31913 202.4 8.13684 202.4 7.89063V7.84802C202.4 7.31298 202.241 6.89868 201.924 6.60512C201.606 6.31156 201.15 6.16478 200.553 6.16478C199.923 6.16478 199.424 6.30209 199.054 6.57671C198.69 6.85133 198.444 7.17567 198.316 7.54972L195.915 7.20881C196.105 6.54593 196.417 5.99196 196.853 5.54688C197.288 5.09707 197.821 4.76089 198.451 4.53836C199.08 4.31108 199.776 4.19745 200.539 4.19745C201.064 4.19745 201.588 4.259 202.108 4.38211C202.629 4.50521 203.105 4.70881 203.536 4.9929C203.967 5.27226 204.312 5.65341 204.573 6.13637C204.838 6.61932 204.971 7.22302 204.971 7.94745V15.2486H202.499V13.75H202.414C202.257 14.053 202.037 14.3371 201.753 14.6023C201.474 14.8627 201.121 15.0734 200.695 15.2344C200.274 15.3906 199.779 15.4688 199.211 15.4688ZM199.878 13.5795C200.394 13.5795 200.842 13.4778 201.221 13.2742C201.599 13.0658 201.891 12.7912 202.094 12.4503C202.302 12.1094 202.407 11.7377 202.407 11.3352V10.0497C202.326 10.116 202.189 10.1776 201.995 10.2344C201.805 10.2912 201.592 10.3409 201.356 10.3835C201.119 10.4261 200.884 10.464 200.652 10.4972C200.42 10.5303 200.219 10.5587 200.049 10.5824C199.665 10.6345 199.322 10.7197 199.019 10.8381C198.716 10.9564 198.477 11.1222 198.302 11.3352C198.126 11.5436 198.039 11.8135 198.039 12.1449C198.039 12.6184 198.212 12.9759 198.557 13.2173C198.903 13.4588 199.343 13.5795 199.878 13.5795Z" fill="black"/>
<path d="M193.772 5.61079H191.116C191.04 5.17519 190.9 4.7893 190.697 4.45312C190.493 4.11221 190.24 3.82339 189.937 3.58664C189.634 3.3499 189.288 3.17234 188.9 3.05397C188.516 2.93087 188.102 2.86932 187.657 2.86932C186.866 2.86932 186.166 3.06818 185.555 3.46591C184.944 3.8589 184.466 4.43655 184.12 5.19886C183.774 5.95644 183.602 6.8821 183.602 7.97585C183.602 9.08854 183.774 10.026 184.12 10.7883C184.471 11.5459 184.949 12.1188 185.555 12.5071C186.166 12.8906 186.864 13.0824 187.65 13.0824C188.086 13.0824 188.493 13.0256 188.872 12.9119C189.255 12.7936 189.598 12.6207 189.901 12.3935C190.209 12.1662 190.467 11.8868 190.676 11.5554C190.889 11.224 191.035 10.8452 191.116 10.419L193.772 10.4332C193.673 11.1245 193.457 11.7732 193.126 12.3793C192.799 12.9853 192.371 13.5204 191.84 13.9844C191.31 14.4437 190.69 14.8035 189.98 15.0639C189.269 15.3196 188.481 15.4474 187.614 15.4474C186.336 15.4474 185.195 15.1515 184.191 14.5597C183.187 13.9678 182.397 13.1132 181.819 11.9957C181.241 10.8783 180.953 9.53835 180.953 7.97585C180.953 6.40861 181.244 5.06865 181.826 3.95596C182.408 2.83854 183.202 1.9839 184.205 1.39204C185.209 0.800185 186.346 0.504257 187.614 0.504257C188.424 0.504257 189.177 0.617894 189.873 0.845166C190.569 1.07244 191.189 1.40625 191.734 1.84659C192.278 2.28219 192.726 2.81723 193.076 3.4517C193.431 4.08144 193.663 4.80113 193.772 5.61079Z" fill="black"/>
<path d="M166.631 8.85654V15.2486H164.06V4.33949H166.517V6.19319H166.645C166.896 5.58239 167.296 5.09707 167.845 4.73722C168.399 4.37737 169.083 4.19745 169.898 4.19745C170.651 4.19745 171.306 4.35843 171.865 4.6804C172.429 5.00237 172.864 5.46876 173.172 6.07955C173.484 6.69035 173.638 7.43135 173.634 8.30256V15.2486H171.063V8.70029C171.063 7.97112 170.873 7.40057 170.494 6.98864C170.12 6.57671 169.602 6.37074 168.939 6.37074C168.489 6.37074 168.089 6.47018 167.739 6.66904C167.393 6.86317 167.121 7.14489 166.922 7.51421C166.728 7.88353 166.631 8.33097 166.631 8.85654Z" fill="black"/>
<path d="M156.65 15.4617C155.585 15.4617 154.662 15.2273 153.88 14.7585C153.099 14.2898 152.493 13.634 152.062 12.7912C151.636 11.9484 151.423 10.9635 151.423 9.83665C151.423 8.70976 151.636 7.72254 152.062 6.875C152.493 6.02747 153.099 5.36932 153.88 4.90057C154.662 4.43182 155.585 4.19745 156.65 4.19745C157.716 4.19745 158.639 4.43182 159.42 4.90057C160.201 5.36932 160.805 6.02747 161.231 6.875C161.662 7.72254 161.878 8.70976 161.878 9.83665C161.878 10.9635 161.662 11.9484 161.231 12.7912C160.805 13.634 160.201 14.2898 159.42 14.7585C158.639 15.2273 157.716 15.4617 156.65 15.4617ZM156.664 13.402C157.242 13.402 157.725 13.2434 158.113 12.9261C158.502 12.6042 158.79 12.1733 158.98 11.6335C159.174 11.0938 159.271 10.4924 159.271 9.82955C159.271 9.16194 159.174 8.55824 158.98 8.01847C158.79 7.47396 158.502 7.04072 158.113 6.71875C157.725 6.39679 157.242 6.2358 156.664 6.2358C156.073 6.2358 155.58 6.39679 155.187 6.71875C154.799 7.04072 154.508 7.47396 154.314 8.01847C154.124 8.55824 154.03 9.16194 154.03 9.82955C154.03 10.4924 154.124 11.0938 154.314 11.6335C154.508 12.1733 154.799 12.6042 155.187 12.9261C155.58 13.2434 156.073 13.402 156.664 13.402Z" fill="black"/>
<path d="M146.677 15.2486V4.33949H149.248V15.2486H146.677ZM147.97 2.79119C147.562 2.79119 147.212 2.65625 146.918 2.38636C146.625 2.11174 146.478 1.78267 146.478 1.39915C146.478 1.01089 146.625 0.681818 146.918 0.411931C147.212 0.13731 147.562 0 147.97 0C148.381 0 148.732 0.13731 149.021 0.411931C149.314 0.681818 149.461 1.01089 149.461 1.39915C149.461 1.78267 149.314 2.11174 149.021 2.38636C148.732 2.65625 148.381 2.79119 147.97 2.79119Z" fill="black"/>
<path d="M144.323 7.22302L141.979 7.4787C141.912 7.24196 141.796 7.01942 141.631 6.81108C141.47 6.60275 141.252 6.43466 140.977 6.30682C140.703 6.17898 140.367 6.11506 139.969 6.11506C139.434 6.11506 138.984 6.23107 138.619 6.46307C138.26 6.69508 138.082 6.99574 138.087 7.36506C138.082 7.6823 138.198 7.94035 138.435 8.13921C138.676 8.33807 139.074 8.50143 139.628 8.62927L141.489 9.02699C142.521 9.24953 143.288 9.60228 143.79 10.0852C144.296 10.5682 144.552 11.2003 144.557 11.9815C144.552 12.6681 144.351 13.2742 143.953 13.7997C143.56 14.3206 143.013 14.7278 142.313 15.0213C141.612 15.3149 140.807 15.4617 139.898 15.4617C138.563 15.4617 137.488 15.1823 136.673 14.6236C135.859 14.0601 135.374 13.2765 135.217 12.2727L137.725 12.0313C137.838 12.5237 138.08 12.8954 138.449 13.1463C138.818 13.3973 139.299 13.5227 139.891 13.5227C140.501 13.5227 140.992 13.3973 141.361 13.1463C141.735 12.8954 141.922 12.5852 141.922 12.2159C141.922 11.9034 141.801 11.6454 141.56 11.4418C141.323 11.2382 140.954 11.0819 140.452 10.973L138.591 10.5824C137.545 10.3646 136.77 9.99764 136.269 9.48154C135.767 8.96071 135.518 8.30256 135.523 7.50711C135.518 6.83476 135.7 6.25237 136.07 5.75995C136.444 5.26279 136.962 4.87927 137.625 4.60938C138.293 4.33476 139.062 4.19745 139.933 4.19745C141.212 4.19745 142.218 4.4697 142.952 5.01421C143.69 5.55872 144.147 6.29499 144.323 7.22302Z" fill="black"/>
<path d="M130.485 15.2486V4.33949H133.057V15.2486H130.485ZM131.778 2.79119C131.371 2.79119 131.021 2.65625 130.727 2.38636C130.433 2.11174 130.287 1.78267 130.287 1.39915C130.287 1.01089 130.433 0.681818 130.727 0.411931C131.021 0.13731 131.371 0 131.778 0C132.19 0 132.54 0.13731 132.829 0.411931C133.123 0.681818 133.27 1.01089 133.27 1.39915C133.27 1.78267 133.123 2.11174 132.829 2.38636C132.54 2.65625 132.19 2.79119 131.778 2.79119Z" fill="black"/>
<path d="M118.073 0.703125L121.858 12.152H122.007L125.786 0.703125H128.683L123.555 15.2486H120.303L115.182 0.703125H118.073Z" fill="black"/>
<path d="M417.182 7.51065H472.182" stroke="#466BF0" stroke-width="2" stroke-linecap="round" stroke-dasharray="8 8"/>
<path d="M725.736 11.321L725.729 8.21733H726.141L730.061 3.83523H733.066L728.243 9.20455H727.711L725.736 11.321ZM723.392 14.7443V0.198868H725.963V14.7443H723.392ZM730.239 14.7443L726.688 9.77983L728.421 7.96875L733.314 14.7443H730.239Z" fill="black"/>
<path d="M715.463 14.7443V3.83524H717.956V5.65342H718.069C718.268 5.02368 718.609 4.53836 719.092 4.19745C719.58 3.85181 720.136 3.67899 720.761 3.67899C720.903 3.67899 721.062 3.68609 721.237 3.70029C721.417 3.70976 721.566 3.72633 721.684 3.75001V6.11506C721.575 6.07719 721.403 6.04404 721.166 6.01563C720.934 5.98249 720.709 5.96592 720.491 5.96592C720.022 5.96592 719.601 6.06772 719.227 6.27131C718.858 6.47018 718.566 6.74717 718.353 7.10228C718.14 7.45739 718.034 7.86696 718.034 8.33097V14.7443H715.463Z" fill="black"/>
<path d="M707.118 14.9645C706.426 14.9645 705.804 14.8414 705.25 14.5952C704.7 14.3442 704.265 13.9749 703.943 13.4872C703.626 12.9995 703.467 12.3982 703.467 11.6832C703.467 11.0677 703.581 10.5587 703.808 10.1562C704.035 9.75378 704.345 9.43181 704.738 9.19033C705.131 8.94886 705.574 8.76657 706.066 8.64346C706.564 8.51562 707.077 8.42329 707.608 8.36647C708.247 8.30018 708.765 8.241 709.163 8.18891C709.561 8.1321 709.85 8.04687 710.03 7.93323C710.214 7.81486 710.307 7.63257 710.307 7.38636V7.34374C710.307 6.80871 710.148 6.39441 709.831 6.10085C709.513 5.80729 709.057 5.66051 708.46 5.66051C707.83 5.66051 707.331 5.79782 706.961 6.07244C706.597 6.34706 706.351 6.67139 706.223 7.04545L703.822 6.70454C704.012 6.04166 704.324 5.48768 704.76 5.04261C705.195 4.5928 705.728 4.25662 706.358 4.03408C706.987 3.80681 707.683 3.69318 708.446 3.69318C708.971 3.69318 709.495 3.75473 710.015 3.87783C710.536 4.00094 711.012 4.20454 711.443 4.48863C711.874 4.76799 712.219 5.14914 712.48 5.6321C712.745 6.11505 712.878 6.71874 712.878 7.44318V14.7443H710.406V13.2457H710.321C710.164 13.5488 709.944 13.8329 709.66 14.098C709.381 14.3584 709.028 14.5691 708.602 14.7301C708.181 14.8864 707.686 14.9645 707.118 14.9645ZM707.785 13.0753C708.301 13.0753 708.749 12.9735 709.128 12.7699C709.506 12.5615 709.798 12.2869 710.001 11.946C710.209 11.6051 710.314 11.2334 710.314 10.831V9.54545C710.233 9.61174 710.096 9.67329 709.902 9.73011C709.712 9.78693 709.499 9.83664 709.262 9.87926C709.026 9.92187 708.791 9.95975 708.559 9.99289C708.327 10.026 708.126 10.0544 707.956 10.0781C707.572 10.1302 707.229 10.2154 706.926 10.3338C706.623 10.4522 706.384 10.6179 706.209 10.831C706.033 11.0393 705.946 11.3092 705.946 11.6406C705.946 12.1141 706.119 12.4716 706.464 12.7131C706.81 12.9545 707.25 13.0753 707.785 13.0753Z" fill="black"/>
<path d="M686.029 14.7443V3.83522H688.487V5.68891H688.614C688.842 5.06391 689.218 4.57623 689.744 4.22585C690.269 3.87073 690.897 3.69318 691.626 3.69318C692.364 3.69318 692.987 3.8731 693.494 4.23295C694.005 4.58806 694.365 5.07338 694.573 5.68891H694.687C694.928 5.08285 695.336 4.5999 695.908 4.24005C696.486 3.87547 697.17 3.69318 697.961 3.69318C698.965 3.69318 699.784 4.01041 700.418 4.64488C701.053 5.27935 701.37 6.20501 701.37 7.42187V14.7443H698.792V7.8196C698.792 7.14251 698.612 6.64772 698.252 6.33522C697.892 6.01799 697.452 5.85937 696.931 5.85937C696.311 5.85937 695.826 6.0535 695.475 6.44176C695.13 6.82528 694.957 7.3248 694.957 7.94033V14.7443H692.435V7.71306C692.435 7.14962 692.265 6.6998 691.924 6.36363C691.588 6.02746 691.148 5.85937 690.603 5.85937C690.234 5.85937 689.898 5.95407 689.595 6.14346C689.291 6.32812 689.05 6.5909 688.87 6.93181C688.69 7.26799 688.6 7.66098 688.6 8.11079V14.7443H686.029Z" fill="black"/>
<path d="M676.335 8.35228V14.7443H673.764V0.198868H676.278V5.68892H676.406C676.661 5.07339 677.057 4.58807 677.592 4.23296C678.131 3.87311 678.818 3.69319 679.651 3.69319C680.409 3.69319 681.069 3.8518 681.633 4.16904C682.196 4.48627 682.632 4.95029 682.94 5.56108C683.252 6.17188 683.408 6.91762 683.408 7.7983V14.7443H680.837V8.19603C680.837 7.46213 680.648 6.89158 680.269 6.48438C679.895 6.07245 679.37 5.86648 678.693 5.86648C678.238 5.86648 677.831 5.96591 677.471 6.16478C677.116 6.35891 676.836 6.64063 676.633 7.00995C676.434 7.37927 676.335 7.82671 676.335 8.35228Z" fill="black"/>
<path d="M666.979 14.9574C665.89 14.9574 664.955 14.7183 664.174 14.2401C663.397 13.7618 662.798 13.1013 662.377 12.2585C661.96 11.411 661.752 10.4356 661.752 9.33238C661.752 8.22443 661.965 7.24668 662.391 6.39914C662.817 5.54687 663.418 4.88399 664.195 4.41051C664.976 3.93229 665.9 3.69318 666.965 3.69318C667.85 3.69318 668.634 3.85653 669.316 4.18323C670.002 4.5052 670.549 4.96212 670.956 5.55397C671.364 6.14109 671.596 6.82765 671.652 7.61363H669.195C669.096 7.08806 668.859 6.65009 668.485 6.29971C668.115 5.9446 667.621 5.76704 667 5.76704C666.475 5.76704 666.013 5.90908 665.615 6.19318C665.218 6.47253 664.908 6.87499 664.685 7.40056C664.467 7.92613 664.358 8.55586 664.358 9.28977C664.358 10.0331 664.467 10.6723 664.685 11.2074C664.903 11.7377 665.208 12.1472 665.601 12.4361C665.999 12.7202 666.465 12.8622 667 12.8622C667.379 12.8622 667.718 12.7912 668.016 12.6491C668.319 12.5024 668.572 12.2917 668.776 12.017C668.98 11.7424 669.119 11.4086 669.195 11.0156H671.652C671.591 11.7874 671.364 12.4716 670.971 13.0682C670.578 13.66 670.043 14.124 669.365 14.4602C668.688 14.7917 667.893 14.9574 666.979 14.9574Z" fill="black"/>
<path d="M652.604 8.35227V14.7443H650.033V3.83522H652.49V5.68891H652.618C652.869 5.07812 653.269 4.5928 653.819 4.23295C654.373 3.8731 655.057 3.69318 655.871 3.69318C656.624 3.69318 657.28 3.85416 657.838 4.17613C658.402 4.4981 658.838 4.96448 659.145 5.57528C659.458 6.18607 659.612 6.92708 659.607 7.79829V14.7443H657.036V8.19602C657.036 7.46685 656.847 6.8963 656.468 6.48437C656.094 6.07244 655.575 5.86647 654.912 5.86647C654.463 5.86647 654.062 5.9659 653.712 6.16477C653.366 6.3589 653.094 6.64062 652.895 7.00994C652.701 7.37926 652.604 7.8267 652.604 8.35227Z" fill="black"/>
<path d="M643.007 14.9574C641.913 14.9574 640.969 14.7301 640.173 14.2756C639.383 13.8163 638.774 13.1676 638.348 12.3295C637.922 11.4867 637.709 10.4948 637.709 9.35369C637.709 8.23153 637.922 7.24668 638.348 6.39914C638.779 5.54687 639.38 4.88399 640.152 4.41051C640.924 3.93229 641.831 3.69318 642.872 3.69318C643.545 3.69318 644.179 3.80208 644.776 4.01988C645.377 4.23295 645.907 4.56439 646.367 5.0142C646.831 5.46401 647.195 6.03693 647.46 6.73295C647.725 7.42424 647.858 8.2481 647.858 9.20454V9.99289H638.916V8.25994H645.394C645.389 7.76751 645.282 7.32954 645.074 6.94602C644.866 6.55776 644.574 6.25236 644.2 6.02982C643.831 5.80729 643.4 5.69602 642.908 5.69602C642.382 5.69602 641.921 5.82386 641.523 6.07954C641.125 6.33049 640.815 6.66193 640.592 7.07386C640.375 7.48105 640.263 7.9285 640.259 8.41619V9.92897C640.259 10.5634 640.375 11.1079 640.607 11.5625C640.839 12.0123 641.163 12.3579 641.58 12.5994C641.996 12.8362 642.484 12.9545 643.043 12.9545C643.417 12.9545 643.755 12.9025 644.058 12.7983C644.361 12.6894 644.624 12.5308 644.847 12.3224C645.069 12.1141 645.237 11.8561 645.351 11.5483L647.751 11.8182C647.6 12.4526 647.311 13.0066 646.885 13.4801C646.464 13.9489 645.924 14.3134 645.266 14.5739C644.608 14.8295 643.855 14.9574 643.007 14.9574Z" fill="black"/>
<path d="M625.147 14.7443V0.198868H630.715C631.766 0.198868 632.64 0.364588 633.336 0.696027C634.036 1.02273 634.56 1.47018 634.905 2.03836C635.256 2.60654 635.431 3.25048 635.431 3.97018C635.431 4.56203 635.317 5.06866 635.09 5.49006C634.863 5.90673 634.557 6.24527 634.174 6.50569C633.79 6.7661 633.362 6.95313 632.888 7.06677V7.20881C633.404 7.23722 633.899 7.39584 634.373 7.68466C634.851 7.96875 635.241 8.37122 635.544 8.89205C635.847 9.41288 635.999 10.0426 635.999 10.7813C635.999 11.5341 635.817 12.2112 635.452 12.8125C635.088 13.4091 634.538 13.8802 633.804 14.2259C633.07 14.5715 632.147 14.7443 631.035 14.7443H625.147ZM627.782 12.5426H630.615C631.572 12.5426 632.261 12.3603 632.682 11.9957C633.108 11.6264 633.321 11.1529 633.321 10.5753C633.321 10.1444 633.215 9.75616 633.002 9.41052C632.789 9.06014 632.486 8.78552 632.093 8.58665C631.7 8.38305 631.231 8.28125 630.686 8.28125H627.782V12.5426ZM627.782 6.38495H630.388C630.843 6.38495 631.252 6.30209 631.617 6.13637C631.981 5.96591 632.268 5.7268 632.476 5.41904C632.689 5.10654 632.796 4.73722 632.796 4.31108C632.796 3.74764 632.597 3.28362 632.199 2.91904C631.806 2.55445 631.222 2.37216 630.445 2.37216H627.782V6.38495Z" fill="black"/>
<path d="M612.08 15.0213C610.911 15.0213 609.907 14.7254 609.069 14.1335C608.236 13.5369 607.594 12.6776 607.144 11.5554C606.699 10.4285 606.477 9.07197 606.477 7.4858C606.481 5.89962 606.706 4.55019 607.151 3.4375C607.601 2.32008 608.243 1.4678 609.076 0.880683C609.914 0.293561 610.915 0 612.08 0C613.245 0 614.246 0.293561 615.085 0.880683C615.923 1.4678 616.564 2.32008 617.009 3.4375C617.459 4.55492 617.684 5.90436 617.684 7.4858C617.684 9.07671 617.459 10.4356 617.009 11.5625C616.564 12.6847 615.923 13.5417 615.085 14.1335C614.251 14.7254 613.25 15.0213 612.08 15.0213ZM612.08 12.7983C612.989 12.7983 613.707 12.3509 614.232 11.456C614.763 10.5563 615.028 9.23296 615.028 7.4858C615.028 6.33049 614.907 5.35985 614.665 4.57386C614.424 3.78788 614.083 3.19602 613.643 2.7983C613.202 2.39583 612.682 2.1946 612.08 2.1946C611.176 2.1946 610.461 2.64441 609.935 3.54403C609.41 4.43892 609.145 5.75284 609.14 7.4858C609.135 8.64583 609.251 9.62121 609.488 10.4119C609.729 11.2027 610.07 11.7992 610.511 12.2017C610.951 12.5994 611.474 12.7983 612.08 12.7983Z" fill="black"/>
<path d="M598.74 15.0213C597.571 15.0213 596.567 14.7254 595.729 14.1335C594.896 13.5369 594.254 12.6776 593.804 11.5554C593.359 10.4285 593.137 9.07197 593.137 7.4858C593.141 5.89962 593.366 4.55019 593.811 3.4375C594.261 2.32008 594.903 1.4678 595.736 0.880683C596.574 0.293561 597.576 0 598.74 0C599.905 0 600.907 0.293561 601.745 0.880683C602.583 1.4678 603.224 2.32008 603.669 3.4375C604.119 4.55492 604.344 5.90436 604.344 7.4858C604.344 9.07671 604.119 10.4356 603.669 11.5625C603.224 12.6847 602.583 13.5417 601.745 14.1335C600.911 14.7254 599.91 15.0213 598.74 15.0213ZM598.74 12.7983C599.65 12.7983 600.367 12.3509 600.892 11.456C601.423 10.5563 601.688 9.23296 601.688 7.4858C601.688 6.33049 601.567 5.35985 601.326 4.57386C601.084 3.78788 600.743 3.19602 600.303 2.7983C599.863 2.39583 599.342 2.1946 598.74 2.1946C597.836 2.1946 597.121 2.64441 596.596 3.54403C596.07 4.43892 595.805 5.75284 595.8 7.4858C595.795 8.64583 595.911 9.62121 596.148 10.4119C596.39 11.2027 596.73 11.7992 597.171 12.2017C597.611 12.5994 598.134 12.7983 598.74 12.7983Z" fill="black"/>
<path d="M585.401 15.0213C584.231 15.0213 583.227 14.7254 582.389 14.1335C581.556 13.5369 580.914 12.6776 580.464 11.5554C580.019 10.4285 579.797 9.07197 579.797 7.4858C579.802 5.89962 580.027 4.55019 580.472 3.4375C580.921 2.32008 581.563 1.4678 582.396 0.880683C583.234 0.293561 584.236 0 585.401 0C586.565 0 587.567 0.293561 588.405 0.880683C589.243 1.4678 589.884 2.32008 590.33 3.4375C590.779 4.55492 591.004 5.90436 591.004 7.4858C591.004 9.07671 590.779 10.4356 590.33 11.5625C589.884 12.6847 589.243 13.5417 588.405 14.1335C587.571 14.7254 586.57 15.0213 585.401 15.0213ZM585.401 12.7983C586.31 12.7983 587.027 12.3509 587.553 11.456C588.083 10.5563 588.348 9.23296 588.348 7.4858C588.348 6.33049 588.227 5.35985 587.986 4.57386C587.744 3.78788 587.403 3.19602 586.963 2.7983C586.523 2.39583 586.002 2.1946 585.401 2.1946C584.496 2.1946 583.781 2.64441 583.256 3.54403C582.73 4.43892 582.465 5.75284 582.46 7.4858C582.455 8.64583 582.572 9.62121 582.808 10.4119C583.05 11.2027 583.391 11.7992 583.831 12.2017C584.271 12.5994 584.795 12.7983 585.401 12.7983Z" fill="black"/>
<path d="M576.331 0.198868V14.7443H573.696V2.76279H573.611L570.209 4.93608V2.52131L573.824 0.198868H576.331Z" fill="black"/>
<path d="M562.838 0.198868V14.7443H560.267V0.198868H562.838Z" fill="black"/>
<path d="M557.624 0.198868V14.7443H555.053V0.198868H557.624Z" fill="black"/>
<path d="M548.027 14.9574C546.933 14.9574 545.988 14.7301 545.193 14.2756C544.402 13.8163 543.794 13.1676 543.368 12.3295C542.941 11.4867 542.728 10.4948 542.728 9.35369C542.728 8.23153 542.941 7.24668 543.368 6.39914C543.798 5.54687 544.4 4.88399 545.172 4.41051C545.943 3.93229 546.85 3.69318 547.892 3.69318C548.564 3.69318 549.199 3.80208 549.795 4.01988C550.396 4.23295 550.927 4.56439 551.386 5.0142C551.85 5.46401 552.215 6.03693 552.48 6.73295C552.745 7.42424 552.878 8.2481 552.878 9.20454V9.99289H543.936V8.25994H550.413C550.408 7.76751 550.302 7.32954 550.093 6.94602C549.885 6.55776 549.594 6.25236 549.22 6.02982C548.851 5.80729 548.42 5.69602 547.927 5.69602C547.402 5.69602 546.94 5.82386 546.542 6.07954C546.145 6.33049 545.834 6.66193 545.612 7.07386C545.394 7.48105 545.283 7.9285 545.278 8.41619V9.92897C545.278 10.5634 545.394 11.1079 545.626 11.5625C545.858 12.0123 546.182 12.3579 546.599 12.5994C547.016 12.8362 547.503 12.9545 548.062 12.9545C548.436 12.9545 548.775 12.9025 549.078 12.7983C549.381 12.6894 549.644 12.5308 549.866 12.3224C550.089 12.1141 550.257 11.8561 550.37 11.5483L552.771 11.8182C552.619 12.4526 552.331 13.0066 551.905 13.4801C551.483 13.9489 550.943 14.3134 550.285 14.5739C549.627 14.8295 548.874 14.9574 548.027 14.9574Z" fill="black"/>
<path d="M540.843 6.71874L538.499 6.97443C538.433 6.73768 538.317 6.51515 538.151 6.30681C537.99 6.09848 537.772 5.93039 537.498 5.80255C537.223 5.67471 536.887 5.61079 536.489 5.61079C535.954 5.61079 535.504 5.72679 535.14 5.9588C534.78 6.19081 534.602 6.49147 534.607 6.86079C534.602 7.17802 534.718 7.43607 534.955 7.63494C535.196 7.8338 535.594 7.99715 536.148 8.12499L538.009 8.52272C539.041 8.74526 539.808 9.098 540.31 9.58096C540.817 10.0639 541.072 10.696 541.077 11.4773C541.072 12.1638 540.871 12.7699 540.473 13.2954C540.08 13.8163 539.534 14.2235 538.833 14.517C538.132 14.8106 537.327 14.9574 536.418 14.9574C535.083 14.9574 534.008 14.678 533.194 14.1193C532.379 13.5559 531.894 12.7722 531.738 11.7685L534.245 11.527C534.358 12.0194 534.6 12.3911 534.969 12.642C535.339 12.893 535.819 13.0185 536.411 13.0185C537.022 13.0185 537.512 12.893 537.881 12.642C538.255 12.3911 538.442 12.081 538.442 11.7116C538.442 11.3991 538.321 11.1411 538.08 10.9375C537.843 10.7339 537.474 10.5776 536.972 10.4687L535.111 10.0781C534.065 9.86032 533.291 9.49336 532.789 8.97727C532.287 8.45643 532.038 7.79829 532.043 7.00283C532.038 6.33049 532.221 5.7481 532.59 5.25568C532.964 4.75852 533.482 4.37499 534.145 4.10511C534.813 3.83049 535.582 3.69318 536.454 3.69318C537.732 3.69318 538.738 3.96543 539.472 4.50994C540.211 5.05444 540.668 5.79071 540.843 6.71874Z" fill="black"/>
<path d="M529.866 6.71874L527.522 6.97443C527.456 6.73768 527.34 6.51515 527.174 6.30681C527.013 6.09848 526.796 5.93039 526.521 5.80255C526.246 5.67471 525.91 5.61079 525.513 5.61079C524.977 5.61079 524.528 5.72679 524.163 5.9588C523.803 6.19081 523.626 6.49147 523.63 6.86079C523.626 7.17802 523.742 7.43607 523.978 7.63494C524.22 7.8338 524.618 7.99715 525.172 8.12499L527.032 8.52272C528.065 8.74526 528.832 9.098 529.334 9.58096C529.84 10.0639 530.096 10.696 530.101 11.4773C530.096 12.1638 529.895 12.7699 529.497 13.2954C529.104 13.8163 528.557 14.2235 527.856 14.517C527.156 14.8106 526.351 14.9574 525.442 14.9574C524.106 14.9574 523.031 14.678 522.217 14.1193C521.403 13.5559 520.917 12.7722 520.761 11.7685L523.268 11.527C523.382 12.0194 523.623 12.3911 523.993 12.642C524.362 12.893 524.843 13.0185 525.434 13.0185C526.045 13.0185 526.535 12.893 526.905 12.642C527.279 12.3911 527.466 12.081 527.466 11.7116C527.466 11.3991 527.345 11.1411 527.103 10.9375C526.867 10.7339 526.497 10.5776 525.995 10.4687L524.135 10.0781C523.088 9.86032 522.314 9.49336 521.812 8.97727C521.31 8.45643 521.062 7.79829 521.067 7.00283C521.062 6.33049 521.244 5.7481 521.613 5.25568C521.987 4.75852 522.506 4.37499 523.169 4.10511C523.836 3.83049 524.606 3.69318 525.477 3.69318C526.755 3.69318 527.762 3.96543 528.495 4.50994C529.234 5.05444 529.691 5.79071 529.866 6.71874Z" fill="black"/>
<path d="M516.029 10.1563V3.83524H518.6V14.7443H516.107V12.8054H515.994C515.747 13.4162 515.343 13.9157 514.779 14.304C514.22 14.6922 513.532 14.8864 512.712 14.8864C511.997 14.8864 511.365 14.7278 510.816 14.4105C510.272 14.0885 509.845 13.6222 509.538 13.0114C509.23 12.3958 509.076 11.6525 509.076 10.7813V3.83524H511.647V10.3835C511.647 11.0748 511.836 11.6241 512.215 12.0313C512.594 12.4385 513.091 12.6421 513.707 12.6421C514.086 12.6421 514.452 12.5497 514.808 12.3651C515.163 12.1804 515.454 11.9058 515.681 11.5412C515.913 11.1719 516.029 10.7102 516.029 10.1563Z" fill="black"/>
<path d="M496.182 14.7443V0.198868H501.636C502.754 0.198868 503.691 0.392996 504.449 0.781254C505.211 1.16951 505.787 1.71402 506.175 2.41478C506.568 3.1108 506.764 3.92283 506.764 4.85086C506.764 5.78362 506.565 6.59328 506.168 7.27983C505.775 7.96165 505.195 8.48959 504.428 8.86364C503.661 9.23296 502.718 9.41762 501.601 9.41762H497.716V7.23012H501.246C501.899 7.23012 502.434 7.14016 502.851 6.96023C503.268 6.77557 503.575 6.50805 503.774 6.15767C503.978 5.80256 504.08 5.36696 504.08 4.85086C504.08 4.33476 503.978 3.89442 503.774 3.52983C503.571 3.16052 503.26 2.88116 502.844 2.69177C502.427 2.49764 501.89 2.40057 501.232 2.40057H498.817V14.7443H496.182ZM503.696 8.15341L507.297 14.7443H504.357L500.82 8.15341H503.696Z" fill="black"/>
<path d="M84.6989 95.0639C83.7633 95.0639 82.9603 94.8272 82.2898 94.3537C81.6231 93.8764 81.1099 93.1889 80.75 92.2912C80.394 91.3897 80.2159 90.3045 80.2159 89.0355C80.2197 87.7666 80.3997 86.687 80.7557 85.7969C81.1156 84.9029 81.6288 84.2211 82.2955 83.7514C82.9659 83.2817 83.7671 83.0469 84.6989 83.0469C85.6307 83.0469 86.4319 83.2817 87.1023 83.7514C87.7728 84.2211 88.286 84.9029 88.6421 85.7969C89.0019 86.6908 89.1819 87.7704 89.1819 89.0355C89.1819 90.3082 89.0019 91.3954 88.6421 92.2969C88.286 93.1946 87.7728 93.8802 87.1023 94.3537C86.4356 94.8272 85.6345 95.0639 84.6989 95.0639ZM84.6989 93.2855C85.4262 93.2855 86 92.9276 86.4205 92.2116C86.8447 91.492 87.0569 90.4332 87.0569 89.0355C87.0569 88.1113 86.9603 87.3348 86.7671 86.706C86.5739 86.0772 86.3012 85.6037 85.9489 85.2855C85.5966 84.9635 85.18 84.8026 84.6989 84.8026C83.9754 84.8026 83.4034 85.1624 82.983 85.8821C82.5625 86.598 82.3504 87.6491 82.3466 89.0355C82.3428 89.9635 82.4356 90.7438 82.625 91.3764C82.8182 92.009 83.0909 92.4863 83.4432 92.8082C83.7955 93.1264 84.214 93.2855 84.6989 93.2855Z" fill="black"/>
<path d="M74.027 95.0639C73.0914 95.0639 72.2884 94.8272 71.6179 94.3537C70.9513 93.8764 70.438 93.1889 70.0782 92.2912C69.7221 91.3897 69.5441 90.3045 69.5441 89.0355C69.5479 87.7666 69.7278 86.687 70.0838 85.7969C70.4437 84.9029 70.9569 84.2211 71.6236 83.7514C72.2941 83.2817 73.0952 83.0469 74.027 83.0469C74.9588 83.0469 75.76 83.2817 76.4304 83.7514C77.1009 84.2211 77.6141 84.9029 77.9702 85.7969C78.3301 86.6908 78.51 87.7704 78.51 89.0355C78.51 90.3082 78.3301 91.3954 77.9702 92.2969C77.6141 93.1946 77.1009 93.8802 76.4304 94.3537C75.7638 94.8272 74.9626 95.0639 74.027 95.0639ZM74.027 93.2855C74.7543 93.2855 75.3282 92.9276 75.7486 92.2116C76.1729 91.492 76.385 90.4332 76.385 89.0355C76.385 88.1113 76.2884 87.3348 76.0952 86.706C75.902 86.0772 75.6293 85.6037 75.277 85.2855C74.9248 84.9635 74.5081 84.8026 74.027 84.8026C73.3035 84.8026 72.7316 85.1624 72.3111 85.8821C71.8907 86.598 71.6785 87.6491 71.6747 89.0355C71.671 89.9635 71.7638 90.7438 71.9532 91.3764C72.1463 92.009 72.4191 92.4863 72.7713 92.8082C73.1236 93.1264 73.5422 93.2855 74.027 93.2855Z" fill="black"/>
<path d="M63.3551 95.0639C62.4195 95.0639 61.6165 94.8272 60.9461 94.3537C60.2794 93.8764 59.7661 93.1889 59.4063 92.2912C59.0502 91.3897 58.8722 90.3045 58.8722 89.0355C58.876 87.7666 59.0559 86.687 59.412 85.7969C59.7718 84.9029 60.2851 84.2211 60.9517 83.7514C61.6222 83.2817 62.4233 83.0469 63.3551 83.0469C64.287 83.0469 65.0881 83.2817 65.7586 83.7514C66.429 84.2211 66.9423 84.9029 67.2983 85.7969C67.6582 86.6908 67.8381 87.7704 67.8381 89.0355C67.8381 90.3082 67.6582 91.3954 67.2983 92.2969C66.9423 93.1946 66.429 93.8802 65.7586 94.3537C65.0919 94.8272 64.2908 95.0639 63.3551 95.0639ZM63.3551 93.2855C64.0824 93.2855 64.6563 92.9276 65.0767 92.2116C65.501 91.492 65.7131 90.4332 65.7131 89.0355C65.7131 88.1113 65.6165 87.3348 65.4233 86.706C65.2301 86.0772 64.9574 85.6037 64.6051 85.2855C64.2529 84.9635 63.8362 84.8026 63.3551 84.8026C62.6317 84.8026 62.0597 85.1624 61.6392 85.8821C61.2188 86.598 61.0067 87.6491 61.0029 89.0355C60.9991 89.9635 61.0919 90.7438 61.2813 91.3764C61.4745 92.009 61.7472 92.4863 62.0995 92.8082C62.4517 93.1264 62.8703 93.2855 63.3551 93.2855Z" fill="black"/>
<path d="M52.8622 95.0014C52.0175 95.0014 51.2675 94.8594 50.6122 94.5753C49.9607 94.2912 49.4494 93.9029 49.0781 93.4105C48.7107 92.9143 48.5289 92.3518 48.5327 91.723C48.5289 91.2344 48.635 90.7855 48.8509 90.3764C49.0668 89.9673 49.3584 89.6264 49.7259 89.3537C50.0971 89.0772 50.51 88.901 50.9645 88.8253V88.7457C50.366 88.6132 49.8812 88.3082 49.51 87.831C49.1425 87.3499 48.9607 86.795 48.9645 86.1662C48.9607 85.5677 49.1274 85.0336 49.4645 84.5639C49.8016 84.0942 50.2638 83.7249 50.8509 83.456C51.438 83.1832 52.1084 83.0469 52.8622 83.0469C53.6084 83.0469 54.2732 83.1832 54.8566 83.456C55.4437 83.7249 55.9058 84.0942 56.2429 84.5639C56.5838 85.0336 56.7543 85.5677 56.7543 86.1662C56.7543 86.795 56.5668 87.3499 56.1918 87.831C55.8206 88.3082 55.3414 88.6132 54.7543 88.7457V88.8253C55.2088 88.901 55.6179 89.0772 55.9816 89.3537C56.349 89.6264 56.6406 89.9673 56.8566 90.3764C57.0763 90.7855 57.1861 91.2344 57.1861 91.723C57.1861 92.3518 57.0005 92.9143 56.6293 93.4105C56.2581 93.9029 55.7467 94.2912 55.0952 94.5753C54.4475 94.8594 53.7031 95.0014 52.8622 95.0014ZM52.8622 93.3764C53.2978 93.3764 53.6766 93.3026 53.9986 93.1548C54.3206 93.0033 54.5706 92.7912 54.7486 92.5185C54.9266 92.2457 55.0175 91.9313 55.0213 91.5753C55.0175 91.2041 54.9209 90.8764 54.7316 90.5923C54.5459 90.3045 54.2903 90.0791 53.9645 89.9162C53.6425 89.7533 53.2751 89.6719 52.8622 89.6719C52.4456 89.6719 52.0744 89.7533 51.7486 89.9162C51.4228 90.0791 51.1653 90.3045 50.9759 90.5923C50.7903 90.8764 50.6994 91.2041 50.7031 91.5753C50.6994 91.9313 50.7865 92.2457 50.9645 92.5185C51.1425 92.7874 51.3925 92.9976 51.7145 93.1491C52.0403 93.3007 52.4228 93.3764 52.8622 93.3764ZM52.8622 88.0753C53.2183 88.0753 53.5327 88.0033 53.8054 87.8594C54.0819 87.7154 54.2997 87.5147 54.4588 87.2571C54.6179 86.9995 54.6994 86.7022 54.7031 86.3651C54.6994 86.0317 54.6198 85.7401 54.4645 85.4901C54.3092 85.2363 54.0933 85.0412 53.8168 84.9048C53.5403 84.7647 53.2221 84.6946 52.8622 84.6946C52.4948 84.6946 52.1709 84.7647 51.8906 84.9048C51.6141 85.0412 51.3982 85.2363 51.2429 85.4901C51.0914 85.7401 51.0175 86.0317 51.0213 86.3651C51.0175 86.7022 51.0933 86.9995 51.2486 87.2571C51.4077 87.5109 51.6255 87.7116 51.902 87.8594C52.1823 88.0033 52.5024 88.0753 52.8622 88.0753Z" fill="black"/>
<path d="M45.7713 83.206V94.8423H43.6634V85.2571H43.5952L40.8736 86.9957V85.0639L43.7656 83.206H45.7713Z" fill="black"/>
<path d="M84.6989 142.081C83.7633 142.081 82.9603 141.844 82.2898 141.371C81.6231 140.893 81.1099 140.206 80.75 139.308C80.394 138.407 80.2159 137.321 80.2159 136.053C80.2197 134.784 80.3997 133.704 80.7557 132.814C81.1156 131.92 81.6288 131.238 82.2955 130.768C82.9659 130.299 83.7671 130.064 84.6989 130.064C85.6307 130.064 86.4319 130.299 87.1023 130.768C87.7728 131.238 88.286 131.92 88.6421 132.814C89.0019 133.708 89.1819 134.787 89.1819 136.053C89.1819 137.325 89.0019 138.412 88.6421 139.314C88.286 140.212 87.7728 140.897 87.1023 141.371C86.4356 141.844 85.6345 142.081 84.6989 142.081ZM84.6989 140.303C85.4262 140.303 86 139.945 86.4205 139.229C86.8447 138.509 87.0569 137.45 87.0569 136.053C87.0569 135.128 86.9603 134.352 86.7671 133.723C86.5739 133.094 86.3012 132.621 85.9489 132.303C85.5966 131.981 85.18 131.82 84.6989 131.82C83.9754 131.82 83.4034 132.179 82.983 132.899C82.5625 133.615 82.3504 134.666 82.3466 136.053C82.3428 136.981 82.4356 137.761 82.625 138.393C82.8182 139.026 83.0909 139.503 83.4432 139.825C83.7955 140.143 84.214 140.303 84.6989 140.303Z" fill="black"/>
<path d="M74.027 142.081C73.0914 142.081 72.2884 141.844 71.6179 141.371C70.9513 140.893 70.438 140.206 70.0782 139.308C69.7221 138.407 69.5441 137.321 69.5441 136.053C69.5479 134.784 69.7278 133.704 70.0838 132.814C70.4437 131.92 70.9569 131.238 71.6236 130.768C72.2941 130.299 73.0952 130.064 74.027 130.064C74.9588 130.064 75.76 130.299 76.4304 130.768C77.1009 131.238 77.6141 131.92 77.9702 132.814C78.3301 133.708 78.51 134.787 78.51 136.053C78.51 137.325 78.3301 138.412 77.9702 139.314C77.6141 140.212 77.1009 140.897 76.4304 141.371C75.7638 141.844 74.9626 142.081 74.027 142.081ZM74.027 140.303C74.7543 140.303 75.3282 139.945 75.7486 139.229C76.1729 138.509 76.385 137.45 76.385 136.053C76.385 135.128 76.2884 134.352 76.0952 133.723C75.902 133.094 75.6293 132.621 75.277 132.303C74.9248 131.981 74.5081 131.82 74.027 131.82C73.3035 131.82 72.7316 132.179 72.3111 132.899C71.8907 133.615 71.6785 134.666 71.6747 136.053C71.671 136.981 71.7638 137.761 71.9532 138.393C72.1463 139.026 72.4191 139.503 72.7713 139.825C73.1236 140.143 73.5422 140.303 74.027 140.303Z" fill="black"/>
<path d="M63.3551 142.081C62.4195 142.081 61.6165 141.844 60.9461 141.371C60.2794 140.893 59.7661 140.206 59.4063 139.308C59.0502 138.407 58.8722 137.321 58.8722 136.053C58.876 134.784 59.0559 133.704 59.412 132.814C59.7718 131.92 60.2851 131.238 60.9517 130.768C61.6222 130.299 62.4233 130.064 63.3551 130.064C64.287 130.064 65.0881 130.299 65.7586 130.768C66.429 131.238 66.9423 131.92 67.2983 132.814C67.6582 133.708 67.8381 134.787 67.8381 136.053C67.8381 137.325 67.6582 138.412 67.2983 139.314C66.9423 140.212 66.429 140.897 65.7586 141.371C65.0919 141.844 64.2908 142.081 63.3551 142.081ZM63.3551 140.303C64.0824 140.303 64.6563 139.945 65.0767 139.229C65.501 138.509 65.7131 137.45 65.7131 136.053C65.7131 135.128 65.6165 134.352 65.4233 133.723C65.2301 133.094 64.9574 132.621 64.6051 132.303C64.2529 131.981 63.8362 131.82 63.3551 131.82C62.6317 131.82 62.0597 132.179 61.6392 132.899C61.2188 133.615 61.0067 134.666 61.0029 136.053C60.9991 136.981 61.0919 137.761 61.2813 138.393C61.4745 139.026 61.7472 139.503 62.0995 139.825C62.4517 140.143 62.8703 140.303 63.3551 140.303Z" fill="black"/>
<path d="M52.9403 142.018C52.3835 142.015 51.84 141.918 51.3097 141.729C50.7794 141.536 50.3021 141.223 49.8778 140.791C49.4536 140.356 49.1165 139.778 48.8665 139.058C48.6165 138.335 48.4934 137.439 48.4972 136.371C48.4972 135.375 48.6032 134.486 48.8153 133.706C49.0275 132.926 49.3324 132.267 49.7301 131.729C50.1278 131.187 50.607 130.774 51.1676 130.49C51.732 130.206 52.3627 130.064 53.0597 130.064C53.7907 130.064 54.4384 130.208 55.0028 130.496C55.571 130.784 56.0294 131.178 56.3778 131.678C56.7263 132.174 56.9422 132.734 57.0256 133.359H54.9517C54.8456 132.912 54.6278 132.556 54.2983 132.291C53.9725 132.022 53.5597 131.888 53.0597 131.888C52.2528 131.888 51.6316 132.238 51.196 132.939C50.7642 133.64 50.5464 134.602 50.5426 135.825H50.6222C50.8078 135.492 51.0483 135.206 51.3437 134.967C51.6392 134.729 51.9725 134.545 52.3437 134.416C52.7187 134.284 53.1146 134.217 53.5312 134.217C54.2131 134.217 54.8248 134.38 55.3665 134.706C55.9119 135.032 56.3437 135.481 56.6619 136.053C56.9801 136.621 57.1373 137.272 57.1335 138.007C57.1373 138.772 56.9631 139.46 56.6108 140.07C56.2585 140.676 55.768 141.153 55.1392 141.501C54.5104 141.85 53.7775 142.022 52.9403 142.018ZM52.929 140.314C53.3419 140.314 53.7112 140.214 54.0369 140.013C54.3627 139.812 54.6203 139.541 54.8097 139.2C54.999 138.859 55.0919 138.477 55.0881 138.053C55.0919 137.636 55.0009 137.259 54.8153 136.922C54.6335 136.585 54.3816 136.318 54.0597 136.121C53.7377 135.924 53.3703 135.825 52.9574 135.825C52.6506 135.825 52.3646 135.884 52.0994 136.001C51.8343 136.119 51.6032 136.282 51.4062 136.49C51.2093 136.695 51.054 136.933 50.9403 137.206C50.8305 137.475 50.7737 137.763 50.7699 138.07C50.7737 138.475 50.8684 138.848 51.054 139.189C51.2396 139.53 51.4953 139.803 51.821 140.007C52.1468 140.212 52.5161 140.314 52.929 140.314Z" fill="black"/>
<path d="M45.7244 130.223V141.859H43.6165V132.274H43.5483L40.8267 134.013V132.081L43.7188 130.223H45.7244Z" fill="black"/>
<path d="M84.6989 189.098C83.7633 189.098 82.9603 188.861 82.2898 188.388C81.6231 187.911 81.1099 187.223 80.75 186.325C80.394 185.424 80.2159 184.339 80.2159 183.07C80.2197 181.801 80.3997 180.721 80.7557 179.831C81.1156 178.937 81.6288 178.255 82.2955 177.786C82.9659 177.316 83.7671 177.081 84.6989 177.081C85.6307 177.081 86.4319 177.316 87.1023 177.786C87.7728 178.255 88.286 178.937 88.6421 179.831C89.0019 180.725 89.1819 181.804 89.1819 183.07C89.1819 184.342 89.0019 185.429 88.6421 186.331C88.286 187.229 87.7728 187.914 87.1023 188.388C86.4356 188.861 85.6345 189.098 84.6989 189.098ZM84.6989 187.32C85.4262 187.32 86 186.962 86.4205 186.246C86.8447 185.526 87.0569 184.467 87.0569 183.07C87.0569 182.145 86.9603 181.369 86.7671 180.74C86.5739 180.111 86.3012 179.638 85.9489 179.32C85.5966 178.998 85.18 178.837 84.6989 178.837C83.9754 178.837 83.4034 179.196 82.983 179.916C82.5625 180.632 82.3504 181.683 82.3466 183.07C82.3428 183.998 82.4356 184.778 82.625 185.411C82.8182 186.043 83.0909 186.52 83.4432 186.842C83.7955 187.161 84.214 187.32 84.6989 187.32Z" fill="black"/>
<path d="M74.027 189.098C73.0914 189.098 72.2884 188.861 71.6179 188.388C70.9513 187.911 70.438 187.223 70.0782 186.325C69.7221 185.424 69.5441 184.339 69.5441 183.07C69.5479 181.801 69.7278 180.721 70.0838 179.831C70.4437 178.937 70.9569 178.255 71.6236 177.786C72.2941 177.316 73.0952 177.081 74.027 177.081C74.9588 177.081 75.76 177.316 76.4304 177.786C77.1009 178.255 77.6141 178.937 77.9702 179.831C78.3301 180.725 78.51 181.804 78.51 183.07C78.51 184.342 78.3301 185.429 77.9702 186.331C77.6141 187.229 77.1009 187.914 76.4304 188.388C75.7638 188.861 74.9626 189.098 74.027 189.098ZM74.027 187.32C74.7543 187.32 75.3282 186.962 75.7486 186.246C76.1729 185.526 76.385 184.467 76.385 183.07C76.385 182.145 76.2884 181.369 76.0952 180.74C75.902 180.111 75.6293 179.638 75.277 179.32C74.9248 178.998 74.5081 178.837 74.027 178.837C73.3035 178.837 72.7316 179.196 72.3111 179.916C71.8907 180.632 71.6785 181.683 71.6747 183.07C71.671 183.998 71.7638 184.778 71.9532 185.411C72.1463 186.043 72.4191 186.52 72.7713 186.842C73.1236 187.161 73.5422 187.32 74.027 187.32Z" fill="black"/>
<path d="M63.3551 189.098C62.4195 189.098 61.6165 188.861 60.9461 188.388C60.2794 187.911 59.7661 187.223 59.4063 186.325C59.0502 185.424 58.8722 184.339 58.8722 183.07C58.876 181.801 59.0559 180.721 59.412 179.831C59.7718 178.937 60.2851 178.255 60.9517 177.786C61.6222 177.316 62.4233 177.081 63.3551 177.081C64.287 177.081 65.0881 177.316 65.7586 177.786C66.429 178.255 66.9423 178.937 67.2983 179.831C67.6582 180.725 67.8381 181.804 67.8381 183.07C67.8381 184.342 67.6582 185.429 67.2983 186.331C66.9423 187.229 66.429 187.914 65.7586 188.388C65.0919 188.861 64.2908 189.098 63.3551 189.098ZM63.3551 187.32C64.0824 187.32 64.6563 186.962 65.0767 186.246C65.501 185.526 65.7131 184.467 65.7131 183.07C65.7131 182.145 65.6165 181.369 65.4233 180.74C65.2301 180.111 64.9574 179.638 64.6051 179.32C64.2529 178.998 63.8362 178.837 63.3551 178.837C62.6317 178.837 62.0597 179.196 61.6392 179.916C61.2188 180.632 61.0067 181.683 61.0029 183.07C60.9991 183.998 61.0919 184.778 61.2813 185.411C61.4745 186.043 61.7472 186.52 62.0995 186.842C62.4517 187.161 62.8703 187.32 63.3551 187.32Z" fill="black"/>
<path d="M48.1875 186.717V185.041L53.125 177.24H54.5227V179.626H53.6705L50.3466 184.893V184.984H57.2386V186.717H48.1875ZM53.7386 188.876V186.206L53.7614 185.456V177.24H55.75V188.876H53.7386Z" fill="black"/>
<path d="M45.4432 177.24V188.876H43.3352V179.291H43.2671L40.5455 181.03V179.098L43.4375 177.24H45.4432Z" fill="black"/>
<path d="M84.6989 236.115C83.7633 236.115 82.9603 235.878 82.2898 235.405C81.6231 234.928 81.1099 234.24 80.75 233.342C80.394 232.441 80.2159 231.356 80.2159 230.087C80.2197 228.818 80.3997 227.738 80.7557 226.848C81.1156 225.954 81.6288 225.272 82.2955 224.803C82.9659 224.333 83.7671 224.098 84.6989 224.098C85.6307 224.098 86.4319 224.333 87.1023 224.803C87.7728 225.272 88.286 225.954 88.6421 226.848C89.0019 227.742 89.1819 228.821 89.1819 230.087C89.1819 231.359 89.0019 232.446 88.6421 233.348C88.286 234.246 87.7728 234.931 87.1023 235.405C86.4356 235.878 85.6345 236.115 84.6989 236.115ZM84.6989 234.337C85.4262 234.337 86 233.979 86.4205 233.263C86.8447 232.543 87.0569 231.484 87.0569 230.087C87.0569 229.162 86.9603 228.386 86.7671 227.757C86.5739 227.128 86.3012 226.655 85.9489 226.337C85.5966 226.015 85.18 225.854 84.6989 225.854C83.9754 225.854 83.4034 226.214 82.983 226.933C82.5625 227.649 82.3504 228.7 82.3466 230.087C82.3428 231.015 82.4356 231.795 82.625 232.428C82.8182 233.06 83.0909 233.537 83.4432 233.859C83.7955 234.178 84.214 234.337 84.6989 234.337Z" fill="black"/>
<path d="M74.027 236.115C73.0914 236.115 72.2884 235.878 71.6179 235.405C70.9513 234.928 70.438 234.24 70.0782 233.342C69.7221 232.441 69.5441 231.356 69.5441 230.087C69.5479 228.818 69.7278 227.738 70.0838 226.848C70.4437 225.954 70.9569 225.272 71.6236 224.803C72.2941 224.333 73.0952 224.098 74.027 224.098C74.9588 224.098 75.76 224.333 76.4304 224.803C77.1009 225.272 77.6141 225.954 77.9702 226.848C78.3301 227.742 78.51 228.821 78.51 230.087C78.51 231.359 78.3301 232.446 77.9702 233.348C77.6141 234.246 77.1009 234.931 76.4304 235.405C75.7638 235.878 74.9626 236.115 74.027 236.115ZM74.027 234.337C74.7543 234.337 75.3282 233.979 75.7486 233.263C76.1729 232.543 76.385 231.484 76.385 230.087C76.385 229.162 76.2884 228.386 76.0952 227.757C75.902 227.128 75.6293 226.655 75.277 226.337C74.9248 226.015 74.5081 225.854 74.027 225.854C73.3035 225.854 72.7316 226.214 72.3111 226.933C71.8907 227.649 71.6785 228.7 71.6747 230.087C71.671 231.015 71.7638 231.795 71.9532 232.428C72.1463 233.06 72.4191 233.537 72.7713 233.859C73.1236 234.178 73.5422 234.337 74.027 234.337Z" fill="black"/>
<path d="M63.3551 236.115C62.4195 236.115 61.6165 235.878 60.9461 235.405C60.2794 234.928 59.7661 234.24 59.4063 233.342C59.0502 232.441 58.8722 231.356 58.8722 230.087C58.876 228.818 59.0559 227.738 59.412 226.848C59.7718 225.954 60.2851 225.272 60.9517 224.803C61.6222 224.333 62.4233 224.098 63.3551 224.098C64.287 224.098 65.0881 224.333 65.7586 224.803C66.429 225.272 66.9423 225.954 67.2983 226.848C67.6582 227.742 67.8381 228.821 67.8381 230.087C67.8381 231.359 67.6582 232.446 67.2983 233.348C66.9423 234.246 66.429 234.931 65.7586 235.405C65.0919 235.878 64.2908 236.115 63.3551 236.115ZM63.3551 234.337C64.0824 234.337 64.6563 233.979 65.0767 233.263C65.501 232.543 65.7131 231.484 65.7131 230.087C65.7131 229.162 65.6165 228.386 65.4233 227.757C65.2301 227.128 64.9574 226.655 64.6051 226.337C64.2529 226.015 63.8362 225.854 63.3551 225.854C62.6317 225.854 62.0597 226.214 61.6392 226.933C61.2188 227.649 61.0067 228.7 61.0029 230.087C60.9991 231.015 61.0919 231.795 61.2813 232.428C61.4745 233.06 61.7472 233.537 62.0995 233.859C62.4517 234.178 62.8703 234.337 63.3551 234.337Z" fill="black"/>
<path d="M49.1165 235.893V234.371L53.1563 230.411C53.5427 230.02 53.8646 229.674 54.1222 229.371C54.3798 229.068 54.573 228.774 54.7017 228.49C54.8305 228.206 54.8949 227.903 54.8949 227.581C54.8949 227.214 54.8116 226.899 54.6449 226.638C54.4783 226.373 54.2491 226.168 53.9574 226.024C53.6658 225.88 53.3343 225.808 52.9631 225.808C52.5805 225.808 52.2453 225.888 51.9574 226.047C51.6696 226.202 51.4461 226.424 51.287 226.712C51.1317 227 51.054 227.342 51.054 227.74H49.0483C49.0483 227.001 49.2169 226.359 49.554 225.814C49.8911 225.268 50.3552 224.846 50.9461 224.547C51.5408 224.248 52.2226 224.098 52.9915 224.098C53.7718 224.098 54.4574 224.244 55.0483 224.536C55.6392 224.827 56.0976 225.227 56.4233 225.734C56.7529 226.242 56.9177 226.821 56.9177 227.473C56.9177 227.909 56.8343 228.337 56.6677 228.757C56.501 229.178 56.2074 229.643 55.787 230.155C55.3703 230.666 54.7851 231.286 54.0313 232.013L52.0256 234.053V234.132H57.0938V235.893H49.1165Z" fill="black"/>
<path d="M46.1619 224.257V235.893H44.054V226.308H43.9858L41.2642 228.047V226.115L44.1563 224.257H46.1619Z" fill="black"/>
<path d="M84.6989 283.132C83.7633 283.132 82.9603 282.895 82.2898 282.422C81.6231 281.945 81.1099 281.257 80.75 280.359C80.394 279.458 80.2159 278.373 80.2159 277.104C80.2197 275.835 80.3997 274.755 80.7557 273.865C81.1156 272.971 81.6288 272.289 82.2955 271.82C82.9659 271.35 83.7671 271.115 84.6989 271.115C85.6307 271.115 86.4319 271.35 87.1023 271.82C87.7728 272.289 88.286 272.971 88.6421 273.865C89.0019 274.759 89.1819 275.839 89.1819 277.104C89.1819 278.376 89.0019 279.464 88.6421 280.365C88.286 281.263 87.7728 281.948 87.1023 282.422C86.4356 282.895 85.6345 283.132 84.6989 283.132ZM84.6989 281.354C85.4262 281.354 86 280.996 86.4205 280.28C86.8447 279.56 87.0569 278.501 87.0569 277.104C87.0569 276.179 86.9603 275.403 86.7671 274.774C86.5739 274.145 86.3012 273.672 85.9489 273.354C85.5966 273.032 85.18 272.871 84.6989 272.871C83.9754 272.871 83.4034 273.231 82.983 273.95C82.5625 274.666 82.3504 275.717 82.3466 277.104C82.3428 278.032 82.4356 278.812 82.625 279.445C82.8182 280.077 83.0909 280.554 83.4432 280.876C83.7955 281.195 84.214 281.354 84.6989 281.354Z" fill="black"/>
<path d="M74.027 283.132C73.0914 283.132 72.2884 282.895 71.6179 282.422C70.9513 281.945 70.438 281.257 70.0782 280.359C69.7221 279.458 69.5441 278.373 69.5441 277.104C69.5479 275.835 69.7278 274.755 70.0838 273.865C70.4437 272.971 70.9569 272.289 71.6236 271.82C72.2941 271.35 73.0952 271.115 74.027 271.115C74.9588 271.115 75.76 271.35 76.4304 271.82C77.1009 272.289 77.6141 272.971 77.9702 273.865C78.3301 274.759 78.51 275.839 78.51 277.104C78.51 278.376 78.3301 279.464 77.9702 280.365C77.6141 281.263 77.1009 281.948 76.4304 282.422C75.7638 282.895 74.9626 283.132 74.027 283.132ZM74.027 281.354C74.7543 281.354 75.3282 280.996 75.7486 280.28C76.1729 279.56 76.385 278.501 76.385 277.104C76.385 276.179 76.2884 275.403 76.0952 274.774C75.902 274.145 75.6293 273.672 75.277 273.354C74.9248 273.032 74.5081 272.871 74.027 272.871C73.3035 272.871 72.7316 273.231 72.3111 273.95C71.8907 274.666 71.6785 275.717 71.6748 277.104C71.671 278.032 71.7638 278.812 71.9532 279.445C72.1463 280.077 72.4191 280.554 72.7713 280.876C73.1236 281.195 73.5422 281.354 74.027 281.354Z" fill="black"/>
<path d="M63.3551 283.132C62.4195 283.132 61.6165 282.895 60.9461 282.422C60.2794 281.945 59.7661 281.257 59.4063 280.359C59.0502 279.458 58.8722 278.373 58.8722 277.104C58.876 275.835 59.0559 274.755 59.412 273.865C59.7718 272.971 60.2851 272.289 60.9517 271.82C61.6222 271.35 62.4233 271.115 63.3551 271.115C64.287 271.115 65.0881 271.35 65.7586 271.82C66.429 272.289 66.9423 272.971 67.2983 273.865C67.6582 274.759 67.8381 275.839 67.8381 277.104C67.8381 278.376 67.6582 279.464 67.2983 280.365C66.9423 281.263 66.429 281.948 65.7586 282.422C65.0919 282.895 64.2908 283.132 63.3551 283.132ZM63.3551 281.354C64.0824 281.354 64.6563 280.996 65.0767 280.28C65.501 279.56 65.7131 278.501 65.7131 277.104C65.7131 276.179 65.6165 275.403 65.4233 274.774C65.2301 274.145 64.9574 273.672 64.6051 273.354C64.2529 273.032 63.8362 272.871 63.3551 272.871C62.6317 272.871 62.0597 273.231 61.6392 273.95C61.2188 274.666 61.0067 275.717 61.0029 277.104C60.9991 278.032 61.0919 278.812 61.2813 279.445C61.4745 280.077 61.7472 280.554 62.0995 280.876C62.4517 281.195 62.8703 281.354 63.3551 281.354Z" fill="black"/>
<path d="M52.6833 283.132C51.7477 283.132 50.9446 282.895 50.2742 282.422C49.6075 281.945 49.0943 281.257 48.7344 280.359C48.3783 279.458 48.2003 278.373 48.2003 277.104C48.2041 275.835 48.384 274.755 48.7401 273.865C49.0999 272.971 49.6132 272.289 50.2799 271.82C50.9503 271.35 51.7515 271.115 52.6833 271.115C53.6151 271.115 54.4162 271.35 55.0867 271.82C55.7571 272.289 56.2704 272.971 56.6265 273.865C56.9863 274.759 57.1662 275.839 57.1662 277.104C57.1662 278.376 56.9863 279.464 56.6265 280.365C56.2704 281.263 55.7571 281.948 55.0867 282.422C54.42 282.895 53.6189 283.132 52.6833 283.132ZM52.6833 281.354C53.4105 281.354 53.9844 280.996 54.4049 280.28C54.8291 279.56 55.0412 278.501 55.0412 277.104C55.0412 276.179 54.9446 275.403 54.7515 274.774C54.5583 274.145 54.2855 273.672 53.9333 273.354C53.581 273.032 53.1643 272.871 52.6833 272.871C51.9598 272.871 51.3878 273.231 50.9674 273.95C50.5469 274.666 50.3348 275.717 50.331 277.104C50.3272 278.032 50.42 278.812 50.6094 279.445C50.8026 280.077 51.0753 280.554 51.4276 280.876C51.7799 281.195 52.1984 281.354 52.6833 281.354Z" fill="black"/>
<path d="M45.4276 271.274V282.911H43.3196V273.325H43.2514L40.5298 275.064V273.132L43.4219 271.274H45.4276Z" fill="black"/>
<g clip-path="url(#clip1_1_1537)">
<path d="M122.182 94.3395L1469.18 94.3396" stroke="#EAEAEA" stroke-width="1.2"/>
<path d="M121.182 148.34L1469.18 148.34" stroke="#EAEAEA" stroke-width="1.2"/>
<path d="M122.182 202.34L1469.18 202.34" stroke="#EAEAEA" stroke-width="1.2"/>
<path d="M122.182 256.34L1469.18 256.34" stroke="#EAEAEA" stroke-width="1.2"/>
<path d="M121.182 51.3395L121.182 315.339" stroke="#EAEAEA" stroke-width="1.2"/>
<path d="M227.182 51.3395V314.339" stroke="#EAEAEA" stroke-width="1.2"/>
<path d="M333.182 51.3395V314.339" stroke="#EAEAEA" stroke-width="1.2"/>
<path d="M439.182 51.3395V314.339" stroke="#EAEAEA" stroke-width="1.2"/>
<path d="M545.182 51.3395V314.339" stroke="#EAEAEA" stroke-width="1.2"/>
<path d="M651.182 51.3395V314.339" stroke="#EAEAEA" stroke-width="1.2"/>
<path d="M757.182 51.3395V314.339" stroke="#EAEAEA" stroke-width="1.2"/>
<path d="M863.182 51.3395V314.339" stroke="#EAEAEA" stroke-width="1.2"/>
<path d="M969.182 51.3395V314.339" stroke="#EAEAEA" stroke-width="1.2"/>
<path d="M1075.18 51.3395V314.339" stroke="#EAEAEA" stroke-width="1.2"/>
<path d="M1181.18 51.3395V314.339" stroke="#EAEAEA" stroke-width="1.2"/>
<path d="M1287.18 51.3395V314.339" stroke="#EAEAEA" stroke-width="1.2"/>
<path d="M1393.18 51.3395V314.339" stroke="#EAEAEA" stroke-width="1.2"/>
<circle cx="229.182" cy="262.339" r="5" fill="#466BF0"/>
<circle cx="332.182" cy="168.339" r="5" fill="#466BF0"/>
<circle cx="437.182" cy="162.339" r="5" fill="#466BF0"/>
<circle cx="542.182" cy="157.339" r="5" fill="#466BF0"/>
<circle cx="647.182" cy="153.339" r="5" fill="#466BF0"/>
<circle cx="752.182" cy="150.339" r="5" fill="#466BF0"/>
<circle cx="856.182" cy="145.339" r="5" fill="#466BF0"/>
<circle cx="961.182" cy="144.339" r="5" fill="#466BF0"/>
<circle cx="1066.18" cy="139.339" r="5" fill="#466BF0"/>
<circle cx="1175.18" cy="124.339" r="5" fill="#466BF0"/>
<circle cx="1286.18" cy="116.339" r="5" fill="#466BF0"/>
<circle cx="1397.18" cy="116.339" r="5" fill="#466BF0"/>
<path d="M121.182 281.339L224.971 264.839L329.782 169.339L439.195 162.339L546.052 157.339L653.931 153.839L761.81 150.839L866.11 145.839H973.478L1082.89 141.339L1193.84 125.839L1306.32 117.339H1421.36L1497.02 112.339" stroke="#466BF0" stroke-width="2" stroke-linecap="round"/>
<path d="M122.204 290.839H224.46L330.294 216.339L440.218 203.339L548.097 186.339L655.976 183.839L763.855 173.339H866.621H979.613L1084.42 163.339L1195.88 153.339H1310.41L1423.4 140.339H1504.18" stroke="#466BF0" stroke-width="1.5" stroke-linecap="round" stroke-dasharray="16 16"/>
</g>
<rect x="121.182" y="51.3395" width="1348" height="263.5" stroke="#EAEAEA" stroke-width="1.2"/>
<path d="M174.857 358.857C173.922 358.857 173.119 358.62 172.448 358.146C171.782 357.669 171.268 356.982 170.909 356.084C170.553 355.182 170.375 354.097 170.375 352.828C170.378 351.559 170.558 350.48 170.914 349.589C171.274 348.696 171.787 348.014 172.454 347.544C173.125 347.074 173.926 346.839 174.857 346.839C175.789 346.839 176.59 347.074 177.261 347.544C177.931 348.014 178.445 348.696 178.801 349.589C179.16 350.483 179.34 351.563 179.34 352.828C179.34 354.101 179.16 355.188 178.801 356.089C178.445 356.987 177.931 357.673 177.261 358.146C176.594 358.62 175.793 358.857 174.857 358.857ZM174.857 357.078C175.585 357.078 176.159 356.72 176.579 356.004C177.003 355.285 177.215 354.226 177.215 352.828C177.215 351.904 177.119 351.127 176.926 350.499C176.732 349.87 176.46 349.396 176.107 349.078C175.755 348.756 175.339 348.595 174.857 348.595C174.134 348.595 173.562 348.955 173.142 349.675C172.721 350.391 172.509 351.442 172.505 352.828C172.501 353.756 172.594 354.536 172.784 355.169C172.977 355.802 173.25 356.279 173.602 356.601C173.954 356.919 174.373 357.078 174.857 357.078Z" fill="black"/>
<path d="M278.238 347.03V358.666H276.13V349.081H276.062L273.34 350.82V348.888L276.232 347.03H278.238Z" fill="black"/>
<path d="M372.306 358.746V357.223L376.346 353.263C376.732 352.873 377.054 352.526 377.312 352.223C377.57 351.92 377.763 351.626 377.892 351.342C378.02 351.058 378.085 350.755 378.085 350.433C378.085 350.066 378.001 349.751 377.835 349.49C377.668 349.225 377.439 349.02 377.147 348.876C376.856 348.732 376.524 348.66 376.153 348.66C375.77 348.66 375.435 348.74 375.147 348.899C374.859 349.054 374.636 349.276 374.477 349.564C374.321 349.852 374.244 350.195 374.244 350.592H372.238C372.238 349.854 372.407 349.212 372.744 348.666C373.081 348.121 373.545 347.698 374.136 347.399C374.731 347.1 375.412 346.95 376.181 346.95C376.962 346.95 377.647 347.096 378.238 347.388C378.829 347.679 379.287 348.079 379.613 348.587C379.943 349.094 380.107 349.674 380.107 350.325C380.107 350.761 380.024 351.189 379.857 351.609C379.691 352.03 379.397 352.496 378.977 353.007C378.56 353.518 377.975 354.138 377.221 354.865L375.215 356.905V356.984H380.284V358.746H372.306Z" fill="black"/>
<path d="M478.551 358.825C477.732 358.825 477.005 358.685 476.369 358.405C475.736 358.125 475.236 357.734 474.869 357.234C474.501 356.734 474.306 356.157 474.284 355.501H476.42C476.439 355.816 476.543 356.09 476.732 356.325C476.922 356.556 477.174 356.736 477.488 356.865C477.803 356.994 478.155 357.058 478.545 357.058C478.962 357.058 479.331 356.986 479.653 356.842C479.975 356.695 480.227 356.49 480.409 356.229C480.59 355.967 480.679 355.666 480.676 355.325C480.679 354.973 480.588 354.662 480.403 354.393C480.217 354.125 479.948 353.914 479.596 353.763C479.248 353.611 478.827 353.536 478.335 353.536H477.306V351.911H478.335C478.74 351.911 479.094 351.84 479.397 351.7C479.704 351.56 479.945 351.363 480.119 351.109C480.293 350.852 480.378 350.554 480.374 350.217C480.378 349.888 480.304 349.602 480.153 349.359C480.005 349.113 479.795 348.922 479.522 348.786C479.253 348.649 478.937 348.581 478.573 348.581C478.217 348.581 477.888 348.645 477.585 348.774C477.282 348.903 477.037 349.087 476.852 349.325C476.666 349.56 476.568 349.84 476.556 350.166H474.528C474.543 349.515 474.731 348.943 475.09 348.45C475.454 347.954 475.939 347.568 476.545 347.291C477.151 347.011 477.831 346.871 478.585 346.871C479.361 346.871 480.035 347.017 480.607 347.308C481.183 347.596 481.628 347.984 481.943 348.473C482.257 348.962 482.414 349.501 482.414 350.092C482.418 350.748 482.225 351.297 481.835 351.74C481.448 352.183 480.941 352.473 480.312 352.609V352.7C481.13 352.814 481.757 353.117 482.193 353.609C482.632 354.098 482.85 354.706 482.846 355.433C482.846 356.085 482.66 356.668 482.289 357.183C481.922 357.695 481.414 358.096 480.767 358.388C480.123 358.679 479.384 358.825 478.551 358.825Z" fill="black"/>
<path d="M576.846 356.507V354.831L581.784 347.03H583.181V349.416H582.329L579.005 354.683V354.774H585.897V356.507H576.846ZM582.397 358.666V355.996L582.42 355.246V347.03H584.409V358.666H582.397Z" fill="black"/>
<path d="M683.914 358.746C683.157 358.746 682.479 358.604 681.88 358.32C681.282 358.032 680.806 357.638 680.454 357.138C680.106 356.638 679.92 356.066 679.897 355.422H681.943C681.981 355.899 682.187 356.289 682.562 356.592C682.937 356.892 683.388 357.041 683.914 357.041C684.327 357.041 684.695 356.946 685.017 356.757C685.339 356.568 685.592 356.304 685.778 355.967C685.964 355.63 686.054 355.246 686.051 354.814C686.054 354.375 685.962 353.984 685.772 353.643C685.583 353.303 685.323 353.035 684.994 352.842C684.664 352.645 684.285 352.547 683.857 352.547C683.509 352.543 683.166 352.607 682.829 352.74C682.492 352.873 682.225 353.047 682.028 353.263L680.124 352.95L680.732 346.95H687.482V348.712H682.477L682.142 351.797H682.21C682.426 351.543 682.731 351.333 683.124 351.166C683.518 350.996 683.95 350.91 684.42 350.91C685.124 350.91 685.753 351.077 686.306 351.41C686.859 351.74 687.295 352.195 687.613 352.774C687.931 353.354 688.09 354.017 688.09 354.763C688.09 355.532 687.912 356.217 687.556 356.82C687.204 357.418 686.714 357.89 686.085 358.234C685.46 358.575 684.736 358.746 683.914 358.746Z" fill="black"/>
<path d="M786.534 358.825C785.977 358.821 785.433 358.725 784.903 358.535C784.373 358.342 783.895 358.03 783.471 357.598C783.047 357.162 782.71 356.585 782.46 355.865C782.21 355.142 782.087 354.246 782.091 353.178C782.091 352.181 782.197 351.293 782.409 350.513C782.621 349.732 782.926 349.073 783.323 348.535C783.721 347.994 784.2 347.581 784.761 347.297C785.325 347.013 785.956 346.871 786.653 346.871C787.384 346.871 788.032 347.015 788.596 347.303C789.164 347.59 789.623 347.984 789.971 348.484C790.32 348.981 790.536 349.541 790.619 350.166H788.545C788.439 349.719 788.221 349.363 787.892 349.098C787.566 348.829 787.153 348.695 786.653 348.695C785.846 348.695 785.225 349.045 784.789 349.746C784.358 350.446 784.14 351.409 784.136 352.632H784.216C784.401 352.299 784.642 352.013 784.937 351.774C785.233 351.535 785.566 351.352 785.937 351.223C786.312 351.09 786.708 351.024 787.125 351.024C787.806 351.024 788.418 351.187 788.96 351.513C789.505 351.839 789.937 352.287 790.255 352.859C790.573 353.428 790.731 354.079 790.727 354.814C790.731 355.579 790.556 356.267 790.204 356.876C789.852 357.482 789.361 357.96 788.733 358.308C788.104 358.657 787.371 358.829 786.534 358.825ZM786.522 357.121C786.935 357.121 787.305 357.02 787.63 356.82C787.956 356.619 788.214 356.348 788.403 356.007C788.592 355.666 788.685 355.284 788.681 354.859C788.685 354.443 788.594 354.066 788.409 353.729C788.227 353.392 787.975 353.124 787.653 352.928C787.331 352.731 786.964 352.632 786.551 352.632C786.244 352.632 785.958 352.691 785.693 352.808C785.428 352.926 785.197 353.089 785 353.297C784.803 353.501 784.647 353.74 784.534 354.013C784.424 354.282 784.367 354.57 784.363 354.876C784.367 355.282 784.462 355.655 784.647 355.996C784.833 356.337 785.089 356.609 785.414 356.814C785.74 357.018 786.109 357.121 786.522 357.121Z" fill="black"/>
<path d="M885.523 358.666L890.471 348.871V348.791H884.727V347.03H892.653V348.831L887.71 358.666H885.523Z" fill="black"/>
<path d="M990.983 358.825C990.138 358.825 989.388 358.683 988.733 358.399C988.081 358.115 987.57 357.727 987.199 357.234C986.831 356.738 986.649 356.176 986.653 355.547C986.649 355.058 986.755 354.609 986.971 354.2C987.187 353.791 987.479 353.45 987.846 353.178C988.218 352.901 988.63 352.725 989.085 352.649V352.57C988.487 352.437 988.002 352.132 987.63 351.655C987.263 351.174 987.081 350.619 987.085 349.99C987.081 349.392 987.248 348.857 987.585 348.388C987.922 347.918 988.384 347.549 988.971 347.28C989.558 347.007 990.229 346.871 990.983 346.871C991.729 346.871 992.394 347.007 992.977 347.28C993.564 347.549 994.026 347.918 994.363 348.388C994.704 348.857 994.875 349.392 994.875 349.99C994.875 350.619 994.687 351.174 994.312 351.655C993.941 352.132 993.462 352.437 992.875 352.57V352.649C993.329 352.725 993.738 352.901 994.102 353.178C994.469 353.45 994.761 353.791 994.977 354.2C995.197 354.609 995.307 355.058 995.307 355.547C995.307 356.176 995.121 356.738 994.75 357.234C994.379 357.727 993.867 358.115 993.216 358.399C992.568 358.683 991.824 358.825 990.983 358.825ZM990.983 357.2C991.418 357.2 991.797 357.126 992.119 356.979C992.441 356.827 992.691 356.615 992.869 356.342C993.047 356.07 993.138 355.755 993.142 355.399C993.138 355.028 993.041 354.7 992.852 354.416C992.666 354.128 992.411 353.903 992.085 353.74C991.763 353.577 991.396 353.496 990.983 353.496C990.566 353.496 990.195 353.577 989.869 353.74C989.543 353.903 989.286 354.128 989.096 354.416C988.911 354.7 988.82 355.028 988.824 355.399C988.82 355.755 988.907 356.07 989.085 356.342C989.263 356.611 989.513 356.821 989.835 356.973C990.161 357.125 990.543 357.2 990.983 357.2ZM990.983 351.899C991.339 351.899 991.653 351.827 991.926 351.683C992.202 351.539 992.42 351.339 992.579 351.081C992.738 350.823 992.82 350.526 992.824 350.189C992.82 349.856 992.74 349.564 992.585 349.314C992.43 349.06 992.214 348.865 991.937 348.729C991.661 348.589 991.343 348.518 990.983 348.518C990.615 348.518 990.291 348.589 990.011 348.729C989.735 348.865 989.519 349.06 989.363 349.314C989.212 349.564 989.138 349.856 989.142 350.189C989.138 350.526 989.214 350.823 989.369 351.081C989.528 351.335 989.746 351.536 990.022 351.683C990.303 351.827 990.623 351.899 990.983 351.899Z" fill="black"/>
<path d="M1093.51 346.871C1094.06 346.875 1094.6 346.973 1095.13 347.166C1095.66 347.356 1096.14 347.666 1096.56 348.098C1096.99 348.526 1097.32 349.1 1097.57 349.82C1097.82 350.539 1097.95 351.43 1097.95 352.49C1097.95 353.49 1097.85 354.384 1097.63 355.172C1097.42 355.956 1097.11 356.619 1096.72 357.161C1096.32 357.702 1095.84 358.115 1095.28 358.399C1094.72 358.683 1094.09 358.825 1093.39 358.825C1092.65 358.825 1092 358.681 1091.43 358.394C1090.87 358.106 1090.41 357.712 1090.06 357.212C1089.71 356.712 1089.5 356.14 1089.42 355.496H1091.49C1091.6 355.958 1091.82 356.325 1092.14 356.598C1092.47 356.867 1092.89 357.002 1093.39 357.002C1094.19 357.002 1094.81 356.651 1095.25 355.95C1095.69 355.25 1095.9 354.276 1095.9 353.03H1095.82C1095.64 353.363 1095.4 353.651 1095.1 353.894C1094.81 354.132 1094.47 354.316 1094.1 354.445C1093.73 354.573 1093.33 354.638 1092.91 354.638C1092.23 354.638 1091.62 354.475 1091.07 354.149C1090.53 353.823 1090.1 353.377 1089.78 352.808C1089.47 352.24 1089.31 351.591 1089.31 350.859C1089.31 350.102 1089.48 349.422 1089.83 348.82C1090.18 348.214 1090.67 347.736 1091.3 347.388C1091.93 347.036 1092.66 346.863 1093.51 346.871ZM1093.51 348.575C1093.1 348.575 1092.73 348.676 1092.4 348.877C1092.08 349.073 1091.82 349.342 1091.63 349.683C1091.44 350.02 1091.35 350.397 1091.35 350.814C1091.36 351.227 1091.45 351.602 1091.63 351.939C1091.82 352.276 1092.07 352.543 1092.39 352.74C1092.71 352.937 1093.08 353.036 1093.49 353.036C1093.8 353.036 1094.08 352.977 1094.35 352.859C1094.61 352.742 1094.84 352.579 1095.04 352.371C1095.24 352.159 1095.4 351.918 1095.51 351.649C1095.62 351.38 1095.67 351.096 1095.67 350.797C1095.67 350.399 1095.58 350.032 1095.39 349.695C1095.2 349.358 1094.94 349.087 1094.62 348.882C1094.3 348.678 1093.93 348.575 1093.51 348.575Z" fill="black"/>
<path d="M1204.1 358.857C1203.17 358.857 1202.36 358.62 1201.69 358.146C1201.03 357.669 1200.51 356.982 1200.15 356.084C1199.8 355.182 1199.62 354.097 1199.62 352.828C1199.62 351.559 1199.8 350.48 1200.16 349.589C1200.52 348.696 1201.03 348.014 1201.7 347.544C1202.37 347.074 1203.17 346.839 1204.1 346.839C1205.03 346.839 1205.84 347.074 1206.51 347.544C1207.18 348.014 1207.69 348.696 1208.05 349.589C1208.41 350.483 1208.59 351.563 1208.59 352.828C1208.59 354.101 1208.41 355.188 1208.05 356.089C1207.69 356.987 1207.18 357.673 1206.51 358.146C1205.84 358.62 1205.04 358.857 1204.1 358.857ZM1204.1 357.078C1204.83 357.078 1205.4 356.72 1205.82 356.004C1206.25 355.285 1206.46 354.226 1206.46 352.828C1206.46 351.904 1206.36 351.127 1206.17 350.499C1205.98 349.87 1205.7 349.396 1205.35 349.078C1205 348.756 1204.58 348.595 1204.1 348.595C1203.38 348.595 1202.81 348.955 1202.39 349.675C1201.97 350.391 1201.75 351.442 1201.75 352.828C1201.75 353.756 1201.84 354.536 1202.03 355.169C1202.22 355.802 1202.49 356.279 1202.85 356.601C1203.2 356.919 1203.62 357.078 1204.1 357.078Z" fill="black"/>
<path d="M1196.85 346.999V358.635H1194.74V349.05H1194.67L1191.95 350.788V348.857L1194.84 346.999H1196.85Z" fill="black"/>
<path d="M1315.17 347.03V358.666H1313.06V349.081H1312.99L1310.27 350.82V348.888L1313.16 347.03H1315.17Z" fill="black"/>
<path d="M1307.48 347.03V358.666H1305.37V349.081H1305.31L1302.59 350.82V348.888L1305.48 347.03H1307.48Z" fill="black"/>
<path d="M1417.02 358.746V357.223L1421.06 353.263C1421.45 352.873 1421.77 352.526 1422.03 352.223C1422.29 351.92 1422.48 351.626 1422.61 351.342C1422.74 351.058 1422.8 350.755 1422.8 350.433C1422.8 350.066 1422.72 349.751 1422.55 349.49C1422.38 349.225 1422.16 349.02 1421.86 348.876C1421.57 348.732 1421.24 348.66 1420.87 348.66C1420.49 348.66 1420.15 348.74 1419.86 348.899C1419.58 349.054 1419.35 349.276 1419.19 349.564C1419.04 349.852 1418.96 350.195 1418.96 350.592H1416.95C1416.95 349.854 1417.12 349.212 1417.46 348.666C1417.8 348.121 1418.26 347.698 1418.85 347.399C1419.45 347.1 1420.13 346.95 1420.9 346.95C1421.68 346.95 1422.36 347.096 1422.95 347.388C1423.55 347.679 1424 348.079 1424.33 348.587C1424.66 349.094 1424.82 349.674 1424.82 350.325C1424.82 350.761 1424.74 351.189 1424.57 351.609C1424.41 352.03 1424.11 352.496 1423.69 353.007C1423.28 353.518 1422.69 354.138 1421.94 354.865L1419.93 356.905V356.984H1425V358.746H1417.02Z" fill="black"/>
<path d="M1414.07 347.109V358.746H1411.96V349.16H1411.89L1409.17 350.899V348.967L1412.06 347.109H1414.07Z" fill="black"/>
</g>
<defs>
<clipPath id="clip0_1_1537">
<rect width="1425" height="358.857" fill="white"/>
</clipPath>
<clipPath id="clip1_1_1537">
<rect x="121.182" y="51.3395" width="1348" height="263.5" fill="white"/>
</clipPath>
</defs>
</svg>
