<svg width="249" height="48" viewBox="0 0 249 48" fill="none" xmlns="http://www.w3.org/2000/svg">
<path d="M76.792 34.9999H71.096L62.84 13.6559H68.024L73.944 30.0719L79.832 13.6559H85.016L76.792 34.9999ZM88.907 17.8799C88.2457 17.8799 87.6697 17.6452 87.179 17.1759C86.7097 16.6852 86.475 16.1092 86.475 15.4479C86.475 14.7866 86.7097 14.2212 87.179 13.7519C87.6697 13.2826 88.2457 13.0479 88.907 13.0479C89.5897 13.0479 90.1657 13.2826 90.635 13.7519C91.1043 14.2212 91.339 14.7866 91.339 15.4479C91.339 16.1092 91.1043 16.6852 90.635 17.1759C90.1657 17.6452 89.5897 17.8799 88.907 17.8799ZM90.955 34.9999H86.891V19.5439H90.955V34.9999ZM100.553 35.3839C99.2088 35.3839 97.9181 35.1706 96.6808 34.7439C95.4648 34.3172 94.4514 33.7306 93.6408 32.9839L95.4008 30.1359C95.9981 30.6906 96.8088 31.1812 97.8328 31.6079C98.8568 32.0346 99.8274 32.2479 100.745 32.2479C101.598 32.2479 102.238 32.0986 102.665 31.7999C103.113 31.5012 103.337 31.0958 103.337 30.5839C103.337 30.1999 103.102 29.8906 102.633 29.6559C102.185 29.3999 101.619 29.2186 100.937 29.1119C100.275 29.0052 99.5394 28.8452 98.7288 28.6319C97.9394 28.4186 97.2034 28.1626 96.5208 27.8639C95.8594 27.5652 95.2941 27.0959 94.8248 26.4559C94.3768 25.7946 94.1528 24.9839 94.1528 24.0239C94.1528 22.6586 94.7181 21.5066 95.8488 20.5679C96.9794 19.6292 98.5261 19.1599 100.489 19.1599C102.878 19.1599 104.958 19.8639 106.729 21.2719L105.097 24.0559C104.606 23.5439 103.945 23.1172 103.113 22.7759C102.302 22.4346 101.438 22.2639 100.521 22.2639C99.7954 22.2639 99.2088 22.4132 98.7608 22.7119C98.3128 22.9892 98.0888 23.3519 98.0888 23.7999C98.0888 24.1412 98.3128 24.4292 98.7608 24.6639C99.2088 24.8772 99.7741 25.0372 100.457 25.1439C101.139 25.2506 101.875 25.4212 102.665 25.6559C103.454 25.8692 104.19 26.1359 104.873 26.4559C105.555 26.7546 106.121 27.2452 106.569 27.9279C107.017 28.6106 107.241 29.4426 107.241 30.4239C107.241 31.8746 106.643 33.0692 105.449 34.0079C104.275 34.9251 102.643 35.3839 100.553 35.3839ZM112.251 17.8799C111.589 17.8799 111.013 17.6452 110.523 17.1759C110.053 16.6852 109.819 16.1092 109.819 15.4479C109.819 14.7866 110.053 14.2212 110.523 13.7519C111.013 13.2826 111.589 13.0479 112.251 13.0479C112.933 13.0479 113.509 13.2826 113.979 13.7519C114.448 14.2212 114.683 14.7866 114.683 15.4479C114.683 16.1092 114.448 16.6852 113.979 17.1759C113.509 17.6452 112.933 17.8799 112.251 17.8799ZM114.299 34.9999H110.235V19.5439H114.299V34.9999ZM131.449 33.0479C129.955 34.6052 127.971 35.3839 125.497 35.3839C123.022 35.3839 121.038 34.6052 119.545 33.0479C118.073 31.4692 117.337 29.5386 117.337 27.2559C117.337 24.9732 118.073 23.0532 119.545 21.4959C121.038 19.9386 123.022 19.1599 125.497 19.1599C127.971 19.1599 129.955 19.9386 131.449 21.4959C132.942 23.0532 133.689 24.9732 133.689 27.2559C133.689 29.5386 132.942 31.4692 131.449 33.0479ZM122.617 30.4879C123.321 31.3412 124.281 31.7679 125.497 31.7679C126.713 31.7679 127.673 31.3412 128.377 30.4879C129.102 29.6132 129.465 28.5359 129.465 27.2559C129.465 25.9972 129.102 24.9412 128.377 24.0879C127.673 23.2132 126.713 22.7759 125.497 22.7759C124.281 22.7759 123.321 23.2132 122.617 24.0879C121.913 24.9412 121.561 25.9972 121.561 27.2559C121.561 28.5359 121.913 29.6132 122.617 30.4879ZM151.2 34.9999H147.136V25.6559C147.136 23.7359 146.186 22.7759 144.288 22.7759C142.816 22.7759 141.642 23.3839 140.768 24.5999V34.9999H136.704V19.5439H140.768V21.5599C142.112 19.9599 143.914 19.1599 146.176 19.1599C147.84 19.1599 149.088 19.5972 149.92 20.4719C150.773 21.3466 151.2 22.5519 151.2 24.0879V34.9999ZM165.891 35.3839C162.819 35.3839 160.248 34.3599 158.179 32.3119C156.109 30.2426 155.075 27.5866 155.075 24.3439C155.075 21.1012 156.109 18.4559 158.179 16.4079C160.248 14.3386 162.819 13.3039 165.891 13.3039C169.048 13.3039 171.64 14.5626 173.667 17.0799L172.131 18.0719C171.448 17.1332 170.552 16.3866 169.443 15.8319C168.333 15.2559 167.149 14.9679 165.891 14.9679C163.352 14.9679 161.229 15.8426 159.523 17.5919C157.837 19.3412 156.995 21.5919 156.995 24.3439C156.995 27.0746 157.837 29.3252 159.523 31.0959C161.229 32.8452 163.352 33.7199 165.891 33.7199C167.149 33.7199 168.333 33.4426 169.443 32.8879C170.552 32.3119 171.448 31.5546 172.131 30.6159L173.667 31.5759C171.619 34.1146 169.027 35.3839 165.891 35.3839ZM188.799 34.9999H187.135V33.1758C185.791 34.6479 184.041 35.3839 181.887 35.3839C180.457 35.3839 179.199 34.9251 178.111 34.0079C177.023 33.0692 176.479 31.8106 176.479 30.2319C176.479 28.6319 177.012 27.3839 178.079 26.4879C179.167 25.5706 180.436 25.1119 181.887 25.1119C184.063 25.1119 185.812 25.8479 187.135 27.3199V24.1839C187.135 23.0746 186.74 22.2106 185.951 21.5919C185.161 20.9519 184.169 20.6319 182.975 20.6319C181.076 20.6319 179.465 21.3892 178.143 22.9039L177.215 21.7519C178.815 20.0239 180.799 19.1599 183.167 19.1599C184.831 19.1599 186.185 19.5759 187.231 20.4079C188.276 21.2399 188.799 22.4772 188.799 24.1199V34.9999ZM182.463 34.0718C184.489 34.0718 186.047 33.3679 187.135 31.9599V28.5679C186.025 27.1386 184.468 26.4239 182.463 26.4239C181.204 26.4239 180.18 26.7866 179.391 27.5119C178.623 28.2372 178.239 29.1546 178.239 30.2639C178.239 31.3732 178.623 32.2906 179.391 33.0159C180.18 33.7199 181.204 34.0718 182.463 34.0718ZM201.038 35.3839C198.82 35.3839 197.028 34.4239 195.662 32.5039V40.8879H193.998V19.5439H195.662V21.9759C196.238 21.1439 196.996 20.4719 197.934 19.9599C198.894 19.4266 199.929 19.1599 201.038 19.1599C203.108 19.1599 204.772 19.8959 206.03 21.3679C207.31 22.8186 207.95 24.7812 207.95 27.2559C207.95 29.7092 207.31 31.6826 206.03 33.1758C204.772 34.6479 203.108 35.3839 201.038 35.3839ZM200.75 33.8799C202.436 33.8799 203.758 33.2612 204.718 32.0238C205.678 30.7865 206.158 29.1972 206.158 27.2559C206.158 25.3359 205.678 23.7572 204.718 22.5199C203.758 21.2826 202.436 20.6639 200.75 20.6639C199.705 20.6639 198.713 20.9306 197.774 21.4639C196.836 21.9972 196.132 22.6479 195.662 23.4159V31.0639C196.132 31.8319 196.836 32.4932 197.774 33.0479C198.734 33.6026 199.726 33.8799 200.75 33.8799ZM212.987 17.1119C212.645 17.1119 212.347 16.9839 212.091 16.7279C211.835 16.4719 211.707 16.1732 211.707 15.8319C211.707 15.4906 211.835 15.2026 212.091 14.9679C212.347 14.7119 212.645 14.5839 212.987 14.5839C213.349 14.5839 213.648 14.7119 213.883 14.9679C214.139 15.2026 214.266 15.4906 214.266 15.8319C214.266 16.1946 214.139 16.5039 213.883 16.7599C213.648 16.9946 213.349 17.1119 212.987 17.1119ZM213.819 34.9999H212.155V19.5439H213.819V34.9999ZM222.358 35.3839C220.332 35.3839 219.318 34.2638 219.318 32.0238V21.0159H216.758V19.5439H219.318V15.3199H221.014V19.5439H224.15V21.0159H221.014V31.7679C221.014 33.1758 221.548 33.8799 222.614 33.8799C223.318 33.8799 223.894 33.6346 224.342 33.1439L224.982 34.4239C224.3 35.0639 223.425 35.3839 222.358 35.3839ZM239.299 34.9999H237.635V33.1758C236.291 34.6479 234.541 35.3839 232.387 35.3839C230.957 35.3839 229.699 34.9251 228.611 34.0079C227.523 33.0692 226.979 31.8106 226.979 30.2319C226.979 28.6319 227.512 27.3839 228.579 26.4879C229.667 25.5706 230.936 25.1119 232.387 25.1119C234.563 25.1119 236.312 25.8479 237.635 27.3199V24.1839C237.635 23.0746 237.24 22.2106 236.451 21.5919C235.661 20.9519 234.669 20.6319 233.475 20.6319C231.576 20.6319 229.965 21.3892 228.643 22.9039L227.715 21.7519C229.315 20.0239 231.299 19.1599 233.667 19.1599C235.331 19.1599 236.685 19.5759 237.731 20.4079C238.776 21.2399 239.299 22.4772 239.299 24.1199V34.9999ZM232.963 34.0718C234.989 34.0718 236.547 33.3679 237.635 31.9599V28.5679C236.525 27.1386 234.968 26.4239 232.963 26.4239C231.704 26.4239 230.68 26.7866 229.891 27.5119C229.123 28.2372 228.739 29.1546 228.739 30.2639C228.739 31.3732 229.123 32.2906 229.891 33.0159C230.68 33.7199 231.704 34.0718 232.963 34.0718ZM246.162 34.9999H244.498V13.6559H246.162V34.9999Z" fill="black"/>
<mask id="mask0_1_35" style="mask-type:luminance" maskUnits="userSpaceOnUse" x="0" y="0" width="56" height="48">
<path d="M56 0H0V48H56V0Z" fill="white"/>
</mask>
<g mask="url(#mask0_1_35)">
<path d="M16.3171 0H0.29308C0.0833419 0 -0.0844484 0.24892 0.0413943 0.456353L16.9463 29.414C17.0721 29.6214 17.3657 29.6214 17.4496 29.414L25.5036 15.8064C25.6294 15.5575 25.6294 15.2671 25.5036 15.0182L16.9882 0.373379C16.8624 0.165946 16.6107 0 16.3171 0Z" fill="#466BF0"/>
<path d="M39.1363 0.373379L19.7985 33.5212C19.6726 33.7701 19.6726 34.0605 19.7985 34.2679L22.2734 38.5411C22.4412 38.8315 22.8187 38.8315 22.9865 38.5411L45.1348 0.622299C45.3026 0.331893 45.0929 0 44.7992 0H39.8075C39.5138 0 39.2622 0.165946 39.1363 0.373379Z" fill="#58B9FF"/>
<path d="M28.3978 47.7926L55.9574 0.622299C56.1252 0.331893 55.9154 0 55.5799 0H50.7139C50.3784 0 50.0847 0.165946 49.9169 0.456353L25.2098 42.7312C25.042 43.0216 25.042 43.3535 25.2098 43.6439L27.6428 47.8341C27.8106 48.083 28.2301 48.083 28.3978 47.7926Z" fill="#58B9FF"/>
</g>
</svg>
